<svg width="2760" height="1482" viewBox="0 0 2760 1482" fill="none" xmlns="http://www.w3.org/2000/svg">
<g clip-path="url(#clip0_101_329)" filter="url(#filter0_d_101_329)">
<rect width="2560" height="1281.78" transform="translate(70 70)" fill="#F7F3D0"/>
<g filter="url(#filter1_d_101_329)">
<path d="M879.574 654.304C925.272 681.425 925.272 747.575 879.574 774.696L41.2269 1272.26C-5.43472 1299.95 -64.4999 1266.32 -64.4999 1212.06L-64.4999 216.938C-64.4999 162.677 -5.43475 129.048 41.2268 156.742L879.574 654.304Z" fill="white"/>
</g>
<g filter="url(#filter2_d_101_329)">
<path d="M2526.28 -432.007C2572.62 -458.022 2629.9 -424.947 2630.54 -371.811L2642.27 603C2642.92 657.257 2584.27 691.594 2537.28 664.464L1675.47 166.902C1628.48 139.772 1628.89 71.8052 1676.21 45.242L2526.28 -432.007Z" fill="white"/>
</g>
<path d="M719.86 532.796L719.545 610.953L344.31 647.728L344.625 569.571L719.86 532.796Z" fill="#640E27"/>
<path d="M446.522 641.202L446.207 719.358L259.309 643.381L259.624 565.225L446.522 641.202Z" fill="#640E27"/>
<path d="M654.964 593.408L654.648 671.564L529.21 722.891L529.525 644.735L654.964 593.408" fill="#640E27"/>
<path d="M529.267 674.838L528.951 752.994L492.177 738.046L492.492 659.89L529.267 674.838Z" fill="#640E27"/>
<path d="M547.534 667.364L547.221 745.52L528.951 752.994L529.267 674.838L547.534 667.364" fill="#640E27"/>
<path d="M408.534 694.243L408.221 772.399L362.251 753.711L362.566 675.555L408.534 694.243Z" fill="#640E27"/>
<path d="M492.492 659.89L492.177 738.046L408.221 772.399L408.534 694.243L492.492 659.89Z" fill="#640E27"/>
<path d="M719.861 532.796L344.625 569.571L483.555 626.049L608.994 574.722L654.964 593.408L529.525 644.735L547.534 667.364L529.267 674.838L492.492 659.89L408.534 694.243L362.567 675.555L446.523 641.202L259.624 565.224L296.657 550.072L671.653 513.198L719.861 532.796Z" fill="#A4133D"/>
<path d="M1006.46 697.937L1006.15 776.094C1006.2 762.492 991.841 749.844 963.074 738.149C893.001 709.663 810.954 714.638 716.957 753.1C662.123 775.536 634.671 796.238 634.595 815.199L634.908 737.045C634.986 718.084 662.438 697.382 717.272 674.944C811.267 636.481 893.313 631.507 963.39 659.994C992.159 671.688 1006.52 684.337 1006.46 697.937Z" fill="#640E27"/>
<path d="M1069.33 703.477L1069.02 781.633C1068.92 805.821 1036.41 831.2 971.484 857.766C852.48 906.458 742.672 910.365 642.105 869.482C594.67 850.201 570.997 830.159 571.08 809.36L571.395 731.204C571.312 752.004 594.985 772.045 642.42 791.326C742.987 832.209 852.792 828.304 971.796 779.612C1036.73 753.044 1069.23 727.665 1069.33 703.477Z" fill="#640E27"/>
<path d="M679.453 776.175C747.701 803.917 829.504 798.298 924.797 759.306C1018.79 720.845 1031.64 687.738 963.39 659.994C893.313 631.507 811.267 636.482 717.272 674.944C621.979 713.936 609.379 747.688 679.453 776.175V776.175ZM1000.44 644.832C1101.01 685.713 1091.47 730.642 971.796 779.612C852.792 828.304 742.987 832.209 642.42 791.326C540.027 749.704 548.353 704.543 667.357 655.851C787.028 606.883 898.048 603.208 1000.44 644.832" fill="#4A56CC"/>
<path d="M944.754 1039.27L850.428 1077.87C848.763 1078.55 846.048 1078.56 844.373 1077.88L749.43 1039.28C748.592 1038.94 748.177 1038.49 748.18 1038.04L748.156 1044.17C748.153 1044.62 748.568 1045.07 749.406 1045.41L844.351 1084.01C846.021 1084.69 848.741 1084.68 850.401 1084L944.727 1045.4C945.554 1045.07 945.966 1044.63 945.966 1044.18L945.992 1038.05C945.99 1038.49 945.578 1038.94 944.754 1039.27" fill="#C93737"/>
<path d="M944.735 1036.82C946.402 1037.5 946.413 1038.6 944.754 1039.28L850.427 1077.87C848.763 1078.55 846.048 1078.56 844.373 1077.88L749.43 1039.28C747.76 1038.61 747.768 1037.5 749.427 1036.82L843.756 998.22C845.415 997.543 848.116 997.543 849.786 998.22L944.735 1036.82" fill="#D93B3B"/>
<path d="M909.111 1032.09L909.1 1032.06C909.144 1028.99 908.035 1025.92 905.895 1022.98L868.808 918L826.772 918.045L789.453 1023.58C787.519 1026.34 786.496 1029.2 786.455 1032.06L786.445 1032.09H786.45C786.366 1039.32 792.297 1046.54 804.27 1052.04C828.148 1063 866.984 1062.94 891.01 1051.91C902.964 1046.43 908.987 1039.26 909.098 1032.09H909.111" fill="#E83F3F"/>
<path d="M831.747 931.024C823.456 927.654 818.989 916.946 827.333 913.555C835.68 910.162 858.151 911.074 866.445 914.444C874.738 917.816 870.218 927.594 861.873 930.986C853.529 934.377 840.04 934.396 831.747 931.024Z" fill="#C93737"/>
<path d="M901.216 1017.98L894.401 1000.9C892.018 1002.62 889.025 1004.24 885.416 1005.7C864.102 1014.37 829.653 1014.41 808.471 1005.8C804.94 1004.37 802.007 1002.78 799.663 1001.1L792.878 1018.08C793.945 1023.06 799.133 1027.9 808.471 1031.7C829.653 1040.31 864.102 1040.27 885.416 1031.6C894.792 1027.79 900.052 1022.94 901.216 1017.98" fill="#F2F2F2"/>
<path d="M878.1 960.024C859.472 965.35 834.603 965.407 815.999 960.178L806.944 982.858C807.458 983.084 807.927 983.323 808.471 983.547C829.653 992.157 864.102 992.111 885.416 983.448C886.025 983.2 886.558 982.932 887.134 982.676L878.1 960.024Z" fill="#F2F2F2"/>
<path d="M679.453 776.175C747.701 803.917 829.504 798.298 924.797 759.306C1018.79 720.845 1031.64 687.738 963.39 659.994C893.313 631.507 811.267 636.482 717.272 674.944C621.979 713.936 609.379 747.688 679.453 776.175V776.175ZM1000.44 644.832C1101.01 685.713 1091.47 730.642 971.796 779.612C852.792 828.304 742.987 832.209 642.42 791.326C540.027 749.704 548.353 704.543 667.357 655.851C787.028 606.883 898.048 603.208 1000.44 644.832" fill="#A4133D"/>
<path d="M856.56 642.014L855.763 782.314C860.458 781.134 865.198 779.839 869.966 778.47L870.742 641.841C866.052 641.786 861.328 641.839 856.56 642.014Z" fill="#E2E2E2"/>
<path d="M870.742 641.841L870.885 616.515C866.176 616.312 861.447 616.221 856.706 616.189L856.561 642.013C861.328 641.839 866.052 641.786 870.742 641.841" fill="#E2E2E2"/>
<path d="M769.345 793.467C796.558 793.683 825.365 789.966 855.763 782.314L856.561 642.013C829.108 643.024 800.293 647.858 770.121 656.497L769.345 793.467Z" fill="#F2F2F2"/>
<path d="M856.561 642.014L856.706 616.189C828.473 615.986 799.671 618.759 770.302 624.507L770.121 656.497C800.294 647.859 829.109 643.024 856.561 642.014Z" fill="#F2F2F2"/>
<path d="M600.881 553.326L614.413 547.788C614.397 552.137 618.742 557.44 624.102 559.617L610.57 565.154C605.21 562.975 600.865 557.675 600.881 553.326Z" fill="#FDE169"/>
<path d="M600.924 542.996L614.456 537.458L614.413 547.788L600.881 553.326L600.924 542.996Z" fill="#FDE169"/>
<path d="M601.269 457.203L614.801 451.665L614.626 495.108L601.094 500.646L601.269 457.203Z" fill="#FDE169"/>
<path d="M684.369 595.155L697.901 589.617L751.595 611.444L738.063 616.982L684.369 595.155Z" fill="#FDE169"/>
<path d="M790.408 638.261L803.943 632.725L857.635 654.551L844.103 660.089L790.408 638.261Z" fill="#FDE169"/>
<path d="M896.448 681.368L909.981 675.83L963.675 697.658L950.143 703.196L896.448 681.368Z" fill="#FDE169"/>
<path d="M995.168 556.102L790.409 638.26L844.103 660.089L1026.29 586.989L1026.12 629.339L896.448 681.368L950.143 703.196L1025.94 672.782L1025.73 726.03C1025.71 730.38 1021.33 732.135 1015.96 729.95L610.57 565.154C605.21 562.975 600.865 557.675 600.881 553.326L601.482 403.941C601.501 399.604 605.875 397.85 611.235 400.027L677.066 426.788L601.269 457.202L601.094 500.645L730.758 448.617L783.104 469.896L600.924 542.996L600.881 553.326C600.865 557.675 605.21 562.975 610.57 565.154L632.023 573.876L836.782 491.717L889.13 512.995L684.369 595.155L738.063 616.982L942.822 534.824L995.168 556.102" fill="#FDE169"/>
<path d="M610.57 565.154L624.102 559.617L645.555 568.339L632.023 573.876L610.57 565.154Z" fill="#FDE169"/>
<path d="M730.759 448.617L601.094 500.646L601.269 457.203L677.067 426.789L730.759 448.617" fill="#58595B"/>
<path d="M836.782 491.717L632.023 573.876L610.57 565.154C605.21 562.975 600.865 557.675 600.881 553.326L600.924 542.996L783.104 469.896L836.782 491.717" fill="#58595B"/>
<path d="M942.822 534.824L738.063 616.982L684.369 595.155L889.13 512.995L942.822 534.824Z" fill="#58595B"/>
<path d="M1026.12 629.339L1025.94 672.782L950.143 703.196L896.448 681.368L1026.12 629.339" fill="#58595B"/>
<path d="M1016.62 564.825C1022 567.008 1026.34 572.31 1026.33 576.646L1026.29 586.989L844.103 660.089L790.408 638.261L995.167 556.103L1016.62 564.825" fill="#58595B"/>
<path d="M1030.14 559.286L1008.69 550.565L956.341 529.286L902.646 507.459L850.301 486.179L796.625 464.358L744.277 443.079L690.583 421.252L624.754 394.491C622.055 393.395 619.609 393.294 617.839 394.019L604.307 399.555C606.077 398.832 608.523 398.931 611.219 400.027L677.05 426.788L730.745 448.617L783.09 469.895L836.769 491.716L889.114 512.995L942.809 534.824L995.154 556.102L1016.61 564.824C1021.98 567.007 1026.33 572.31 1026.31 576.645L1026.27 586.988L1026.1 629.339L1025.93 672.782L1025.71 726.03C1025.7 728.19 1024.62 729.711 1022.87 730.426L1036.4 724.89C1038.15 724.175 1039.24 722.654 1039.24 720.492L1039.46 667.244L1039.63 623.803L1039.8 581.453L1039.85 571.109C1039.87 566.772 1035.52 561.471 1030.14 559.286" fill="#ECD262"/>
<path d="M972.494 689.301L648.203 557.474C646.191 556.654 644.949 555.141 644.949 553.502V444.65C644.949 441.122 650.374 438.917 654.713 440.682L979.004 572.509C981.019 573.326 982.261 574.84 982.261 576.478V685.331C982.261 688.859 976.833 691.064 972.494 689.301" fill="#E83F3F"/>
<path d="M686.959 501.136V475.227L693.717 477.974V503.882C693.717 511.988 698.709 518.07 708.691 522.129C718.673 526.187 723.666 524.163 723.666 516.058V490.15L730.422 492.894V518.804C730.422 529.861 723.179 532.444 708.691 526.555C694.205 520.664 686.959 512.193 686.959 501.136" fill="white"/>
<path d="M742.475 539.994V497.795L749.233 500.543L781.189 547.527V513.534L787.581 516.132V558.329L780.825 555.583L748.867 508.302V542.592L742.475 539.994Z" fill="white"/>
<path d="M818.992 566.672C831.775 571.868 838.167 568.525 838.167 556.643C838.167 546.296 831.775 538.522 818.992 533.328L806.758 528.353V561.697L818.992 566.672ZM800 563.377V521.179L818.992 528.899C836.281 535.928 844.925 546.091 844.925 559.389C844.925 574.223 836.281 578.126 818.992 571.098L800 563.377Z" fill="white"/>
<path d="M888.931 557.331V561.758L861.538 550.623V564.788L887.654 575.403V579.829L861.538 569.215V583.969L889.483 595.328V599.754L854.786 585.648V543.451L888.931 557.331" fill="white"/>
<path d="M899.708 603.909V561.712L921.988 570.77C931.922 574.808 936.888 580.201 936.888 586.949C936.888 592.437 932.029 594.525 922.317 593.211L940.247 620.39L931.337 616.767L914.718 591.038V587.469C924.703 590.247 929.694 589.177 929.694 584.26C929.694 580.364 926.917 577.288 921.366 575.031L906.463 568.974V606.657L899.708 603.909Z" fill="white"/>
<path d="M700.198 556.372C698.165 556.076 695.961 555.448 693.597 554.487C685.341 551.132 681.217 546.142 681.217 539.518C681.217 533.25 685.341 531.794 693.597 535.148C695.961 536.11 698.165 537.271 700.198 538.632V540.768C698.165 539.317 696.072 538.156 693.925 537.284C687.488 534.667 684.272 535.825 684.272 540.76C684.272 546.049 687.488 550.004 693.925 552.621C696.072 553.493 698.165 554.032 700.198 554.238V556.372Z" fill="white"/>
<path d="M716.26 561.699C721.894 563.99 724.712 562.562 724.712 557.413C724.712 552.336 721.894 548.653 716.26 546.362C710.506 544.022 707.627 545.391 707.627 550.468C707.627 555.617 710.506 559.361 716.26 561.699V561.699ZM704.408 549.239C704.408 542.776 708.36 541.149 716.26 544.361C724.041 547.525 727.93 552.338 727.93 558.801C727.93 565.23 724.041 566.863 716.26 563.7C708.36 560.487 704.408 555.668 704.408 549.239Z" fill="white"/>
<path d="M732.719 570.256V551.185L735.774 552.427L750.216 573.662V558.299L753.106 559.473V578.544L750.052 577.303L735.607 555.934V571.432L732.719 570.256Z" fill="white"/>
<path d="M758.388 580.025V577.757C760.864 579.475 763.538 580.918 766.41 582.086C770.471 583.736 772.502 583.361 772.502 580.962C772.502 578.915 771.005 577.284 768.012 576.069L764.974 574.832C760.031 572.824 757.562 570.085 757.562 566.619C757.562 562.974 760.726 562.437 767.053 565.008C769.806 566.129 772.362 567.434 774.73 568.93V571.197C772.362 569.524 769.806 568.128 767.053 567.009C762.763 565.266 760.616 565.549 760.616 567.861C760.616 569.905 762.068 571.519 764.974 572.699L768.012 573.933C773.041 575.978 775.557 578.735 775.557 582.202C775.557 585.936 772.508 586.564 766.41 584.085C763.538 582.919 760.864 581.565 758.388 580.025" fill="white"/>
<path d="M795.941 576.886V578.887L788.512 575.868V592.938L785.458 591.697V574.625L778.032 571.606V569.605L795.941 576.886Z" fill="white"/>
<path d="M799.575 597.434V578.362L809.643 582.456C814.133 584.28 816.377 586.719 816.377 589.767C816.377 592.25 814.182 593.192 809.791 592.598L817.896 604.882L813.866 603.245L806.357 591.618V590.002C810.871 591.26 813.126 590.776 813.126 588.553C813.126 586.793 811.87 585.403 809.36 584.383L802.626 581.644V598.675L799.575 597.434" fill="white"/>
<path d="M820.95 598.762V587.051L824.004 588.294V600.004C824.004 603.666 826.259 606.416 830.773 608.25C835.282 610.084 837.539 609.168 837.539 605.506V593.795L840.594 595.037V606.748C840.594 611.746 837.318 612.912 830.773 610.251C824.222 607.588 820.95 603.759 820.95 598.762Z" fill="white"/>
<path d="M863.868 622.905C861.834 622.611 859.631 621.983 857.266 621.019C849.011 617.665 844.884 612.677 844.884 606.052C844.884 599.784 849.011 598.326 857.266 601.683C859.631 602.644 861.834 603.805 863.868 605.167V607.3C861.834 605.849 859.744 604.689 857.598 603.816C851.157 601.199 847.941 602.358 847.941 607.293C847.941 612.584 851.157 616.538 857.598 619.155C859.744 620.028 861.834 620.566 863.868 620.771V622.905" fill="white"/>
<path d="M884.834 613.022V615.023L877.402 612.001V629.074L874.351 627.833V610.761L866.925 607.74V605.741L884.834 613.022Z" fill="white"/>
<path d="M892.015 615.941V635.014L888.958 633.772V614.698L892.015 615.941Z" fill="white"/>
<path d="M909.148 640.111C914.783 642.4 917.601 640.972 917.601 635.825C917.601 630.746 914.783 627.063 909.148 624.772C903.395 622.434 900.513 623.801 900.513 628.878C900.513 634.027 903.395 637.771 909.148 640.111V640.111ZM897.297 627.651C897.297 621.186 901.248 619.561 909.148 622.772C916.93 625.935 920.817 630.748 920.817 637.213C920.817 643.641 916.93 645.275 909.148 642.112C901.248 638.899 897.297 634.078 897.297 627.651Z" fill="white"/>
<path d="M925.608 648.669V629.596L928.657 630.838L943.105 652.073V636.709L945.992 637.885V656.956L942.938 655.714L928.496 634.346V649.843L925.608 648.669" fill="white"/>
<path d="M524.227 880.499L524.257 888.005L549.174 898.201L549.145 890.695L524.227 880.499Z" fill="#E8E8E8"/>
<path d="M554.631 903.577L554.601 896.069C554.593 894.121 552.775 892.181 549.144 890.694L549.174 898.201C552.805 899.687 554.623 901.629 554.631 903.577" fill="#E8E8E8"/>
<path d="M589.7 904.514L589.73 912.02L597.334 900.583L597.304 893.076L589.7 904.514Z" fill="#E8E8E8"/>
<path d="M528.176 921.177L528.208 928.683L556.279 925.62L556.25 918.114L528.176 921.177" fill="#E8E8E8"/>
<path d="M488.522 904.95L488.552 912.457L528.208 928.683L528.176 921.177L488.522 904.95" fill="#E8E8E8"/>
<path d="M556.25 918.114L556.28 925.62L657.313 966.96L657.283 959.453L556.25 918.114Z" fill="#E8E8E8"/>
<path d="M692.382 967.897L692.411 975.403C692.403 973.432 694.254 971.456 697.957 969.952C705.324 966.956 717.205 966.956 724.515 969.947L724.485 962.44C717.175 959.45 705.294 959.45 697.925 962.446C694.221 963.95 692.374 965.926 692.382 967.897Z" fill="#E8E8E8"/>
<path d="M749.406 972.638L749.435 980.145L758.491 966.524L758.461 959.018L749.406 972.638Z" fill="#E8E8E8"/>
<path d="M724.485 962.441L724.515 969.947L749.435 980.145L749.406 972.638L724.485 962.441Z" fill="#E8E8E8"/>
<path d="M649.679 970.893L649.709 978.399L689.362 994.624L689.333 987.117L649.679 970.893Z" fill="#E8E8E8"/>
<path d="M689.333 987.118L689.362 994.624L722.786 990.977L722.756 983.471L689.333 987.118Z" fill="#E8E8E8"/>
<path d="M497.58 891.332L488.522 904.95L528.176 921.177L556.25 918.114L657.283 959.454L649.679 970.893L689.333 987.118L722.756 983.471L697.839 973.273C690.529 970.283 690.566 965.437 697.925 962.446C705.294 959.45 717.175 959.45 724.485 962.441L749.406 972.638L758.461 959.017L718.805 942.791L690.733 945.856L589.701 904.514L597.304 893.076L557.651 876.85L524.227 880.499L549.145 890.694C556.455 893.687 556.417 898.533 549.048 901.527C541.689 904.518 529.808 904.518 522.498 901.527L497.58 891.332" fill="#F4F4F4"/>
<path d="M127.01 728.442L126.935 747.032L126.889 740.282L126.962 721.691L127.01 728.442" fill="#E2E2E2"/>
<path d="M127.064 735.188L126.989 753.779L126.935 747.032L127.01 728.442L127.064 735.188" fill="#E2E2E2"/>
<path d="M286.104 709.612L286.031 728.201C286.028 728.539 285.767 728.877 285.234 729.159L285.309 710.568C285.843 710.285 286.104 709.948 286.104 709.612Z" fill="#E8E8E8"/>
<path d="M298.588 735.188L298.513 753.778C298.518 754.574 297.077 755.251 295.138 755.352L295.213 736.76C297.15 736.66 298.593 735.985 298.588 735.188Z" fill="#E8E8E8"/>
<path d="M286.408 747.289L286.333 765.879C286.33 766.283 285.95 766.685 285.207 766.988L285.282 748.399C286.026 748.094 286.408 747.692 286.408 747.289Z" fill="#E8E8E8"/>
<path d="M139.066 728.181L139.142 709.591C139.142 709.933 139.411 710.278 139.963 710.57L139.888 729.159C139.338 728.869 139.066 728.524 139.066 728.181Z" fill="#E8E8E8"/>
<path d="M285.309 710.568L285.234 729.159L269.722 737.383L269.797 718.793L285.309 710.568Z" fill="#E8E8E8"/>
<path d="M155.591 718.793L155.515 737.384L139.888 729.159L139.963 710.57L155.591 718.793Z" fill="#E8E8E8"/>
<path d="M249.529 728.516L249.453 747.105C249.47 743.244 245.85 739.375 238.604 736.43C224.205 730.578 200.925 730.578 186.62 736.43C179.514 739.337 175.959 743.142 175.943 746.954L176.018 728.364C176.034 724.552 179.59 720.748 186.695 717.841C201 711.986 224.28 711.986 238.68 717.841C245.925 720.786 249.545 724.653 249.529 728.516Z" fill="#E8E8E8"/>
<path d="M130.463 736.76L130.388 755.352C129.512 755.304 128.731 755.139 128.139 754.898C127.43 754.612 126.991 754.214 126.989 753.779L127.064 735.188C127.067 735.624 127.503 736.021 128.214 736.309C128.804 736.55 129.585 736.713 130.463 736.76Z" fill="#E8E8E8"/>
<path d="M295.213 736.76L295.138 755.351L269.883 756.677L269.959 738.086L295.213 736.76Z" fill="#E8E8E8"/>
<path d="M155.752 738.086L155.677 756.677L130.388 755.351L130.463 736.76L155.752 738.086Z" fill="#E8E8E8"/>
<path d="M139.368 765.864L139.443 747.274C139.441 747.686 139.828 748.092 140.588 748.401L140.513 766.992C139.753 766.683 139.368 766.273 139.368 765.864" fill="#E8E8E8"/>
<path d="M285.282 748.399L285.207 766.988L273.536 771.763L273.611 753.174L285.282 748.399Z" fill="#E8E8E8"/>
<path d="M152.326 753.174L152.253 771.763L140.512 766.992L140.588 748.401L152.326 753.174Z" fill="#E8E8E8"/>
<path d="M273.611 753.174L273.536 771.764L261.873 776.535L261.948 757.946L273.611 753.174Z" fill="#E8E8E8"/>
<path d="M256.831 758.077L256.755 776.668L236.538 770.32L236.613 751.729L256.831 758.077Z" fill="#E8E8E8"/>
<path d="M164.067 757.946L163.992 776.535L152.253 771.764L152.326 753.174L164.067 757.946Z" fill="#E8E8E8"/>
<path d="M189.308 751.727L189.233 770.317L169.118 776.672L169.193 758.081L189.308 751.727Z" fill="#E8E8E8"/>
<path d="M261.948 757.946L261.873 776.535C260.497 777.099 258.312 777.156 256.755 776.668L256.831 758.077C258.388 758.566 260.572 758.509 261.948 757.946" fill="#E8E8E8"/>
<path d="M169.193 758.08L169.118 776.672C167.577 777.155 165.379 777.098 163.992 776.535L164.067 757.946C165.452 758.511 167.652 758.566 169.193 758.08" fill="#E8E8E8"/>
<path d="M236.614 751.729L236.538 770.321L233.365 780.628L233.441 762.037L236.614 751.729Z" fill="#E8E8E8"/>
<path d="M192.64 762.037L192.567 780.628L189.232 770.317L189.308 751.727L192.64 762.037" fill="#E8E8E8"/>
<path d="M233.441 762.037L233.365 780.628C233.123 781.419 231.48 782.005 229.527 782.007L229.602 763.415C231.552 763.415 233.198 762.827 233.441 762.037Z" fill="#E8E8E8"/>
<path d="M229.603 763.415L229.527 782.007L212.976 782.009L213.051 763.417L229.603 763.415" fill="#E8E8E8"/>
<path d="M213.051 763.417L212.976 782.009H196.432L196.505 763.417H213.051Z" fill="#E8E8E8"/>
<path d="M196.505 763.417L196.432 782.009C195.368 782.009 194.39 781.832 193.682 781.544C193.089 781.303 192.683 780.984 192.567 780.628L192.64 762.036C192.758 762.393 193.165 762.712 193.757 762.953C194.466 763.243 195.441 763.417 196.505 763.417Z" fill="#E8E8E8"/>
<path d="M186.87 739.04C201.27 744.892 224.542 744.896 238.849 739.042C253.155 733.187 253.079 723.693 238.68 717.841C224.28 711.986 201.001 711.986 186.695 717.841C172.388 723.695 172.471 733.185 186.87 739.04ZM285.587 746.311C286.788 746.944 286.656 747.836 285.283 748.399L273.612 753.174L261.949 757.946C260.572 758.509 258.388 758.566 256.831 758.077L236.614 751.729L233.441 762.037C233.198 762.827 231.553 763.415 229.603 763.415L213.051 763.417H196.505C195.441 763.417 194.466 763.243 193.758 762.953C193.165 762.712 192.758 762.393 192.64 762.037L189.308 751.727L169.193 758.08C167.652 758.566 165.452 758.511 164.067 757.946L152.326 753.174L140.588 748.401C139.204 747.839 139.058 746.942 140.249 746.315L155.753 738.086L130.463 736.76C129.585 736.713 128.804 736.55 128.214 736.309C127.503 736.02 127.067 735.624 127.064 735.188L127.01 728.442L126.962 721.691C126.957 720.896 128.395 720.223 130.331 720.122L155.591 718.793L139.963 710.57C138.762 709.936 138.894 709.045 140.27 708.481L151.933 703.71L163.601 698.933C164.978 698.371 167.162 698.314 168.719 698.802L188.936 705.149L192.104 694.846C192.346 694.055 193.995 693.463 195.948 693.463H212.491L229.045 693.461C230.106 693.461 231.081 693.638 231.787 693.924C232.382 694.165 232.786 694.485 232.902 694.846L236.242 705.151L256.365 698.802C257.901 698.314 260.093 698.373 261.477 698.936L273.216 703.708L284.957 708.481C286.341 709.045 286.492 709.938 285.309 710.568L269.798 718.793L295.079 720.12C295.962 720.168 296.749 720.333 297.341 720.574C298.05 720.86 298.483 721.256 298.489 721.691L298.534 728.442L298.588 735.188C298.594 735.984 297.15 736.66 295.213 736.76L269.959 738.086L285.587 746.311" fill="#F4F4F4"/>
<path d="M432.263 607.01L370.642 494.958C368.807 491.629 365.594 489.033 362.37 487.723C359.149 486.412 355.924 486.393 354.069 488.221L291.747 549.888C288.038 553.542 292.619 561.87 299.978 564.862L423.94 615.254C431.302 618.247 435.932 613.665 432.263 607.01" fill="#E83F3F"/>
<path d="M448.104 600.53L386.482 488.476C384.648 485.149 381.432 482.551 378.21 481.242C375.746 480.239 373.276 479.993 371.423 480.751L355.582 487.232C357.438 486.473 359.905 486.719 362.37 487.723C365.594 489.033 368.807 491.629 370.642 494.958L432.263 607.01C434.572 611.196 433.594 614.562 430.72 615.738L446.56 609.257C449.434 608.082 450.412 604.715 448.104 600.53" fill="#C93737"/>
<path d="M356.746 576.856L356.776 569.75L367.043 573.924L367.013 581.03L356.746 576.856Z" fill="white"/>
<path d="M356.967 521.947L367.234 526.119L367.07 566.816L356.802 562.643L356.967 521.947Z" fill="white"/>
<path d="M1382.17 802.034L1381.85 880.19L1006.62 916.965L1006.93 838.808L1382.17 802.034Z" fill="#640E27"/>
<path d="M1108.83 910.439L1108.51 988.595L921.616 912.616L921.932 834.461L1108.83 910.439Z" fill="#640E27"/>
<path d="M1317.27 862.648L1316.96 940.804L1191.52 992.128L1191.83 913.972L1317.27 862.648Z" fill="#640E27"/>
<path d="M1191.58 944.075L1191.26 1022.23L1154.48 1007.28L1154.8 929.125L1191.58 944.075Z" fill="#640E27"/>
<path d="M1209.84 936.601L1209.53 1014.76L1191.26 1022.23L1191.58 944.075L1209.84 936.601Z" fill="#640E27"/>
<path d="M1070.84 963.48L1070.53 1041.64L1024.56 1022.95L1024.87 944.792L1070.84 963.48Z" fill="#640E27"/>
<path d="M1154.8 929.125L1154.48 1007.28L1070.53 1041.64L1070.84 963.48L1154.8 929.125Z" fill="#640E27"/>
<path d="M1382.17 802.033L1006.93 838.808L1145.86 895.286L1271.3 843.959L1317.27 862.647L1191.83 913.972L1209.84 936.601L1191.58 944.075L1154.8 929.125L1070.84 963.48L1024.87 944.792L1108.83 910.439L921.931 834.461L958.964 819.309L1333.96 782.437L1382.17 802.033Z" fill="#A4133D"/>
<path d="M435.199 876.022C394.967 892.377 329.531 892.294 289.048 875.838C248.562 859.378 248.357 832.78 288.59 816.424C328.822 800.069 394.255 800.153 434.741 816.61C475.227 833.068 475.432 859.666 435.199 876.022" fill="#ECD262"/>
<path d="M465.24 846.55H258.549V829.245H465.24V846.55Z" fill="#ECD262"/>
<path d="M435.199 858.028C394.967 874.383 329.531 874.299 289.048 857.842C248.562 841.386 248.357 814.784 288.59 798.43C328.822 782.075 394.255 782.159 434.741 798.616C475.227 815.074 475.432 841.674 435.199 858.028Z" fill="#FDE169"/>
<path d="M358.044 812.11V822.284L351.593 822.277L351.596 818.495L351.601 815.884L351.604 812.104L358.044 812.11" fill="white"/>
<path d="M365.524 840.316L359.83 842.616L357.39 841.625L360.237 840.473L354.543 838.162L351.696 839.309L341.433 835.139L344.278 833.987L338.586 831.674L335.739 832.823L326.377 829.019L332.073 826.718L365.524 840.316Z" fill="white"/>
<path d="M367.374 815.903L367.377 818.516L358.044 818.503L358.042 815.891L367.374 815.903Z" fill="white"/>
<path d="M376.543 829.804L385.873 829.817V832.431L376.543 832.417V829.804Z" fill="white"/>
<path d="M392.322 826.045L392.324 829.826L392.322 832.44V836.219L385.876 836.212L385.873 832.43V829.817V826.035L392.322 826.045Z" fill="white"/>
<path d="M342.271 815.874L351.601 815.884L351.599 818.495L342.263 818.484L342.271 815.874Z" fill="white"/>
<path d="M322.186 844.261C344.076 853.161 379.692 853.207 401.582 844.367C423.472 835.528 423.472 821.095 401.582 812.197C379.692 803.299 344.078 803.251 322.188 812.091C300.298 820.934 300.298 835.365 322.186 844.261V844.261ZM407.287 809.893C432.317 820.069 432.317 836.576 407.284 846.687C382.253 856.795 341.525 856.736 316.494 846.561C291.464 836.387 291.464 819.887 316.494 809.779C341.528 799.669 382.256 799.718 407.287 809.893" fill="white"/>
<path d="M360.236 840.473L357.39 841.625L352.819 843.47C346.85 845.88 337.14 845.867 331.168 843.442C325.2 841.014 325.2 837.079 331.168 834.67L335.739 832.823L338.586 831.674L344.278 833.987L341.433 835.139L336.862 836.982C334.034 838.126 334.034 839.992 336.862 841.143C339.691 842.29 344.296 842.298 347.127 841.156L351.695 839.309L354.542 838.162L360.236 840.473" fill="white"/>
<path d="M401.657 829.838V832.451L392.322 832.44L392.324 829.827L401.657 829.838" fill="white"/>
<path d="M1214.67 769.361C1217.71 770.598 1220.67 771.554 1223.55 772.244C1220.24 773.6 1216.93 774.952 1213.61 776.306C1210.74 775.618 1207.77 774.66 1204.73 773.425C1207.71 772.206 1211.69 770.581 1214.67 769.361Z" fill="#E83F3F"/>
<path d="M1170.7 715.739C1170.62 735.417 1190.34 759.474 1214.67 769.361L1204.73 773.425C1180.41 763.537 1160.69 739.481 1160.77 719.802C1160.81 710.027 1165.73 703.141 1173.65 699.898L1183.58 695.836C1175.66 699.077 1170.73 705.963 1170.7 715.739Z" fill="#E83F3F"/>
<path d="M1185.15 751.712L1195.08 747.648C1200.58 753.131 1207.37 757.821 1214.7 760.802L1204.77 764.865C1197.44 761.885 1190.66 757.193 1185.15 751.712" fill="white"/>
<path d="M1171.36 724.109L1181.29 720.045C1181.27 725.986 1183.62 732.436 1187.61 738.545L1177.68 742.609C1173.69 736.501 1171.34 730.051 1171.36 724.109" fill="white"/>
<path d="M1238.53 762.431L1228.61 766.493C1222.51 768.989 1214.07 768.644 1204.77 764.864L1214.7 760.802C1224 764.582 1232.44 764.925 1238.53 762.431Z" fill="white"/>
<path d="M1181.15 708.982L1191.08 704.92C1185.06 707.383 1181.32 712.616 1181.29 720.044L1171.36 724.109C1171.39 716.678 1175.12 711.446 1181.15 708.982Z" fill="white"/>
<path d="M1223.55 772.244C1232.23 774.332 1240 773.977 1246.04 771.508L1236.11 775.572C1230.07 778.039 1222.3 778.396 1213.61 776.306C1216.93 774.952 1220.24 773.6 1223.55 772.244" fill="#E83F3F"/>
<path d="M1181.15 708.982L1191.08 704.92C1197.18 702.424 1205.62 702.769 1214.92 706.553L1204.99 710.615C1195.68 706.834 1187.24 706.487 1181.15 708.982Z" fill="#E83F3F"/>
<path d="M1173.65 699.9L1183.58 695.836C1191.6 692.553 1202.71 693.006 1214.95 697.983L1205.02 702.045C1192.78 697.071 1181.68 696.615 1173.65 699.9" fill="white"/>
<path d="M1248.33 747.297C1248.3 754.729 1244.56 759.966 1238.54 762.431L1228.61 766.493C1234.63 764.03 1238.37 758.794 1238.4 751.361C1238.42 745.429 1236.07 738.97 1232.08 732.871L1242 728.808C1246 734.907 1248.35 741.365 1248.33 747.297Z" fill="#E83F3F"/>
<path d="M1185.15 751.712L1195.08 747.648L1242 728.808L1232.08 732.871L1185.15 751.712" fill="#E83F3F"/>
<path d="M1177.68 742.609L1187.61 738.545L1234.55 719.709L1224.62 723.773L1177.68 742.609" fill="white"/>
<path d="M1214.92 706.553C1222.25 709.532 1229.04 714.213 1234.55 719.709L1224.62 723.773C1219.1 718.277 1212.32 713.595 1204.99 710.615C1207.97 709.396 1211.94 707.771 1214.92 706.553Z" fill="#E83F3F"/>
<path d="M1246.04 771.508L1236.11 775.572C1244.03 772.329 1248.95 765.443 1248.99 755.668C1249.07 735.99 1229.34 711.931 1205.02 702.045L1214.95 697.983C1239.28 707.869 1259 731.926 1258.92 751.604C1258.88 761.378 1253.96 768.265 1246.04 771.508" fill="white"/>
<path d="M1204.77 764.865C1223.25 772.378 1238.34 766.319 1238.4 751.362C1238.42 745.429 1236.07 738.97 1232.08 732.871L1185.15 751.712C1190.66 757.193 1197.44 761.885 1204.77 764.865V764.865ZM1171.36 724.109C1171.34 730.051 1173.69 736.501 1177.68 742.609L1224.62 723.773C1219.1 718.277 1212.32 713.595 1204.99 710.615C1186.5 703.101 1171.42 709.153 1171.36 724.109ZM1205.02 702.045C1229.34 711.932 1249.07 735.99 1248.99 755.668C1248.91 775.345 1229.06 783.314 1204.73 773.425C1180.41 763.537 1160.69 739.482 1160.77 719.802C1160.85 700.124 1180.7 692.159 1205.02 702.045Z" fill="white"/>
<path d="M1185.15 751.712L1232.08 732.871C1236.07 738.97 1238.42 745.429 1238.4 751.361C1238.34 766.319 1223.25 772.378 1204.77 764.864C1197.44 761.885 1190.66 757.193 1185.15 751.712" fill="#E83F3F"/>
<path d="M1204.99 710.615C1212.32 713.595 1219.1 718.277 1224.62 723.773L1177.68 742.609C1173.69 736.501 1171.34 730.051 1171.36 724.109C1171.42 709.153 1186.5 703.102 1204.99 710.615Z" fill="#E83F3F"/>
<path d="M1204.73 773.425C1229.06 783.314 1248.91 775.345 1248.99 755.668C1249.07 735.99 1229.34 711.932 1205.02 702.045C1180.7 692.159 1160.85 700.124 1160.77 719.802C1160.69 739.482 1180.41 763.537 1204.73 773.425ZM1261.98 706.748C1267.5 708.992 1271.96 714.431 1271.95 718.899L1271.58 810.949C1271.56 815.414 1267.07 817.217 1261.55 814.972L1147.78 768.722C1142.25 766.478 1137.79 761.039 1137.81 756.571L1138.18 664.521C1138.2 660.055 1142.69 658.253 1148.21 660.497L1261.98 706.748Z" fill="#E83F3F"/>
<path d="M1271.91 702.684L1158.14 656.434C1155.36 655.306 1152.84 655.2 1151.03 655.943L1141.1 660.007C1142.91 659.264 1145.43 659.368 1148.21 660.497L1261.98 706.748C1267.5 708.992 1271.96 714.431 1271.95 718.899L1271.58 810.947C1271.57 813.168 1270.46 814.729 1268.66 815.463L1278.59 811.398C1280.38 810.666 1281.5 809.104 1281.5 806.885L1281.88 714.835C1281.9 710.369 1277.43 704.93 1271.91 702.684Z" fill="#C93737"/>
</g>
<defs>
<filter id="filter0_d_101_329" x="0" y="0" width="2760" height="1481.78" filterUnits="userSpaceOnUse" color-interpolation-filters="sRGB">
<feFlood flood-opacity="0" result="BackgroundImageFix"/>
<feColorMatrix in="SourceAlpha" type="matrix" values="0 0 0 0 0 0 0 0 0 0 0 0 0 0 0 0 0 0 127 0" result="hardAlpha"/>
<feOffset dx="30" dy="30"/>
<feGaussianBlur stdDeviation="50"/>
<feColorMatrix type="matrix" values="0 0 0 0 0 0 0 0 0 0 0 0 0 0 0 0 0 0 0.1 0"/>
<feBlend mode="normal" in2="BackgroundImageFix" result="effect1_dropShadow_101_329"/>
<feBlend mode="normal" in="SourceGraphic" in2="effect1_dropShadow_101_329" result="shape"/>
</filter>
<filter id="filter1_d_101_329" x="-109.5" y="101.831" width="1078.35" height="1235.34" filterUnits="userSpaceOnUse" color-interpolation-filters="sRGB">
<feFlood flood-opacity="0" result="BackgroundImageFix"/>
<feColorMatrix in="SourceAlpha" type="matrix" values="0 0 0 0 0 0 0 0 0 0 0 0 0 0 0 0 0 0 127 0" result="hardAlpha"/>
<feOffset dx="5" dy="5"/>
<feGaussianBlur stdDeviation="25"/>
<feColorMatrix type="matrix" values="0 0 0 0 0.708333 0 0 0 0 0.693198 0 0 0 0 0.560764 0 0 0 1 0"/>
<feBlend mode="normal" in2="BackgroundImageFix" result="effect1_dropShadow_101_329"/>
<feBlend mode="normal" in="SourceGraphic" in2="effect1_dropShadow_101_329" result="shape"/>
</filter>
<filter id="filter2_d_101_329" x="1595.47" y="-486.067" width="1101.8" height="1215.02" filterUnits="userSpaceOnUse" color-interpolation-filters="sRGB">
<feFlood flood-opacity="0" result="BackgroundImageFix"/>
<feColorMatrix in="SourceAlpha" type="matrix" values="0 0 0 0 0 0 0 0 0 0 0 0 0 0 0 0 0 0 127 0" result="hardAlpha"/>
<feOffset dx="5" dy="5"/>
<feGaussianBlur stdDeviation="25"/>
<feColorMatrix type="matrix" values="0 0 0 0 0.709804 0 0 0 0 0.694118 0 0 0 0 0.560784 0 0 0 1 0"/>
<feBlend mode="normal" in2="BackgroundImageFix" result="effect1_dropShadow_101_329"/>
<feBlend mode="normal" in="SourceGraphic" in2="effect1_dropShadow_101_329" result="shape"/>
</filter>
<clipPath id="clip0_101_329">
<rect width="2560" height="1281.78" fill="white" transform="translate(70 70)"/>
</clipPath>
</defs>
</svg>
