<svg width="500" height="479" viewBox="0 0 500 479" fill="none" xmlns="http://www.w3.org/2000/svg">
<path d="M326.14 87.15C326.14 87.15 269.14 54.97 203.88 79.15C138.62 103.33 97.15 166.58 62.21 217C27.27 267.42 32.78 325.69 73.94 359C115.1 392.31 152.26 360.18 216.28 369.4C280.3 378.62 295.91 390.76 354.83 363.75C413.75 336.74 437.58 253 406.44 182.5C375.3 112 326.14 87.15 326.14 87.15Z" fill="#640E27"/>
<path opacity="0.7" d="M326.14 87.15C326.14 87.15 269.14 54.97 203.88 79.15C138.62 103.33 97.15 166.58 62.21 217C27.27 267.42 32.78 325.69 73.94 359C115.1 392.31 152.26 360.18 216.28 369.4C280.3 378.62 295.91 390.76 354.83 363.75C413.75 336.74 437.58 253 406.44 182.5C375.3 112 326.14 87.15 326.14 87.15Z" fill="white"/>
<path d="M47.34 381.29H422.81" stroke="#263238" stroke-linecap="round" stroke-linejoin="round"/>
<path d="M208.2 93.5498H154.86V308.85H208.2V93.5498Z" fill="white"/>
<path d="M267.73 93.5498H214.39V308.85H267.73V93.5498Z" fill="white"/>
<path d="M327.25 93.5498H273.91V308.85H327.25V93.5498Z" fill="white"/>
<path d="M90.62 327.14C88.087 330.062 86.3814 333.608 85.68 337.41L75.76 343V316.69L76 317L91.8 305.44C93.8 305.75 101.46 306.62 108.45 302.86C116.56 298.49 122.45 283.52 122.45 283.52C122.45 283.52 103.11 281.34 96.56 289.45C92.9752 293.661 91.0639 299.042 91.19 304.57L75.76 315.8V296.39C78.6464 295.049 81.1977 293.081 83.2284 290.63C85.2591 288.178 86.7183 285.306 87.5 282.22C90.31 271.3 75.33 249.78 75.33 249.78C75.33 249.78 59.74 271.93 62.86 283.16C65.5 292.67 72.6 295.68 74.72 296.38V338.47L63.59 329.21C63.85 326.99 64.05 320.05 57.87 313.1C50.38 304.68 30.42 305.3 30.42 305.3C30.42 305.3 38.84 322.15 46 327.76C52.27 332.67 60.92 330.67 63 330.08L74.7 339.83V352.63H57.33L64.42 397H85.7L92.8 352.66H75.8V344.2L86.69 338.09C89.34 338.82 96.75 340.34 103.76 336.84C112.49 332.47 119.67 323.11 119.67 323.11C119.67 323.11 98.73 317.78 90.62 327.14Z" fill="#640E27"/>
<path opacity="0.5" d="M90.62 327.14C88.087 330.062 86.3814 333.608 85.68 337.41L75.76 343V316.69L76 317L91.8 305.44C93.8 305.75 101.46 306.62 108.45 302.86C116.56 298.49 122.45 283.52 122.45 283.52C122.45 283.52 103.11 281.34 96.56 289.45C92.9752 293.661 91.0639 299.042 91.19 304.57L75.76 315.8V296.39C78.6464 295.049 81.1977 293.081 83.2284 290.63C85.2591 288.178 86.7183 285.306 87.5 282.22C90.31 271.3 75.33 249.78 75.33 249.78C75.33 249.78 59.74 271.93 62.86 283.16C65.5 292.67 72.6 295.68 74.72 296.38V338.47L63.59 329.21C63.85 326.99 64.05 320.05 57.87 313.1C50.38 304.68 30.42 305.3 30.42 305.3C30.42 305.3 38.84 322.15 46 327.76C52.27 332.67 60.92 330.67 63 330.08L74.7 339.83V352.63H57.33L64.42 397H85.7L92.8 352.66H75.8V344.2L86.69 338.09C89.34 338.82 96.75 340.34 103.76 336.84C112.49 332.47 119.67 323.11 119.67 323.11C119.67 323.11 98.73 317.78 90.62 327.14Z" fill="white"/>
<path d="M411.31 218.09L385.06 218.3C385.06 218.3 383.32 218.09 382.89 219.39C382.89 219.39 378.33 230.89 378.12 235.01C377.91 239.13 378.98 238.48 377.25 243.9C375.52 249.32 370.52 262.12 367.7 272.54C363.91 286.54 362.93 301.38 362.7 315.83C362.7 318.15 361.27 338.09 364.88 338.09C367.88 338.09 395.49 341.75 395.82 336.43C397.15 315.21 393.32 294.43 400.69 273.84C403.55 265.84 406.83 257.36 409.26 248.97C411.69 240.58 412.11 231.87 413.7 223.29C414.78 217.44 411.31 218.09 411.31 218.09Z" fill="#263238"/>
<path d="M413.88 220.69C413.62 217.69 411.31 218.09 411.31 218.09L385.06 218.3C385.06 218.3 383.32 218.09 382.89 219.39C382.89 219.39 378.33 230.89 378.12 235.01C378.056 236.097 378.086 237.188 378.21 238.27L378.77 239.13C378.77 239.13 379.63 246.72 390.05 247.13C400.47 247.54 406.32 242.79 408.49 238.23C410.66 233.67 411.49 226.3 413.26 221.96C413.443 221.526 413.65 221.102 413.88 220.69Z" fill="#CCCCCC"/>
<path d="M407.79 229.16C406.03 235.5 407.09 237.26 405.33 248.16C403.57 259.06 397.23 271.4 394.77 282.66C392.31 293.92 393.36 333.71 393.71 335.47C393.846 336.407 393.897 337.354 393.86 338.3C395.04 337.86 395.76 337.25 395.81 336.42C397.14 315.2 393.31 294.42 400.68 273.83C403.54 265.83 406.82 257.35 409.25 248.96C411.68 240.57 412.1 231.86 413.69 223.28C414.36 219.68 413.31 218.55 412.39 218.2C410.397 221.643 408.851 225.326 407.79 229.16Z" fill="#969696"/>
<path d="M357.09 389.35L356.92 389.21V364.7H360.44V349.21H347.44V364.7H350.96V389.63L319.81 399.56V402C319.787 402.384 319.843 402.768 319.974 403.13C320.105 403.491 320.309 403.822 320.572 404.102C320.836 404.381 321.154 404.604 321.507 404.757C321.86 404.909 322.24 404.988 322.625 404.988C323.009 404.988 323.39 404.909 323.743 404.757C324.096 404.604 324.414 404.381 324.677 404.102C324.941 403.822 325.145 403.491 325.276 403.13C325.407 402.768 325.463 402.384 325.44 402V401.65L351.44 398.65V402.38C351.418 402.717 351.466 403.055 351.58 403.372C351.695 403.69 351.873 403.981 352.104 404.227C352.335 404.473 352.614 404.67 352.924 404.804C353.233 404.938 353.567 405.007 353.905 405.007C354.243 405.007 354.577 404.938 354.886 404.804C355.196 404.67 355.475 404.473 355.706 404.227C355.937 403.981 356.115 403.69 356.229 403.372C356.344 403.055 356.391 402.717 356.37 402.38V398.53L383.48 401.68V402C383.457 402.384 383.513 402.768 383.644 403.13C383.775 403.491 383.979 403.822 384.242 404.102C384.506 404.381 384.824 404.604 385.177 404.757C385.53 404.909 385.91 404.988 386.295 404.988C386.679 404.988 387.06 404.909 387.413 404.757C387.766 404.604 388.084 404.381 388.347 404.102C388.611 403.822 388.815 403.491 388.946 403.13C389.077 402.768 389.133 402.384 389.11 402V399.54L357.09 389.35Z" fill="#263238"/>
<path d="M393.81 334.101H317.3C315.091 334.101 313.3 335.891 313.3 338.101V348.071C313.3 350.28 315.091 352.071 317.3 352.071H393.81C396.019 352.071 397.81 350.28 397.81 348.071V338.101C397.81 335.891 396.019 334.101 393.81 334.101Z" fill="#263238"/>
<path d="M243.76 282.23H280.31V240.01H243.76V282.23Z" fill="#CCCCCC"/>
<path d="M283.14 284.11H241.87V245.99H261.4L283.14 284.11Z" fill="#263238"/>
<path d="M233 286.231H256.61C256.845 286.249 257.081 286.218 257.303 286.14C257.526 286.063 257.73 285.94 257.903 285.78C258.075 285.62 258.213 285.426 258.308 285.21C258.402 284.994 258.451 284.761 258.451 284.526C258.451 284.29 258.402 284.057 258.308 283.841C258.213 283.625 258.075 283.431 257.903 283.271C257.73 283.111 257.526 282.988 257.303 282.911C257.081 282.833 256.845 282.803 256.61 282.821H233C232.375 282.828 231.756 282.69 231.195 282.415C230.633 282.141 230.143 281.739 229.765 281.241C229.387 280.743 229.13 280.163 229.017 279.549C228.903 278.934 228.935 278.301 229.11 277.701L237.48 247.701C237.553 247.481 237.58 247.249 237.56 247.018C237.541 246.788 237.475 246.564 237.366 246.36C237.257 246.155 237.108 245.975 236.928 245.83C236.748 245.685 236.54 245.579 236.317 245.516C236.094 245.454 235.861 245.438 235.632 245.468C235.402 245.498 235.182 245.575 234.983 245.693C234.784 245.811 234.611 245.969 234.475 246.156C234.339 246.343 234.242 246.555 234.19 246.781L225.82 276.781C225.509 277.888 225.459 279.052 225.674 280.182C225.889 281.311 226.363 282.376 227.059 283.292C227.755 284.207 228.653 284.949 229.684 285.459C230.715 285.969 231.85 286.233 233 286.231Z" fill="#263238"/>
<path d="M244.25 277.304L249.591 276.664L241.313 207.548L235.971 208.188L244.25 277.304Z" fill="#CCCCCC"/>
<path d="M235.94 208.2C235.94 208.2 226.45 242.09 244.23 277.32L235.94 208.2Z" fill="#263238"/>
<path d="M462.76 286.08H212.91V407.86H462.76V286.08Z" fill="#CCCCCC"/>
<path d="M462.6 289.011H213.01V292.381H462.6V289.011Z" fill="#263238"/>
<path d="M464.33 284.09H208.19V289.41H464.33V284.09Z" fill="#CCCCCC"/>
<path d="M327.5 419.64C346.653 419.64 362.18 418.109 362.18 416.22C362.18 414.331 346.653 412.8 327.5 412.8C308.347 412.8 292.82 414.331 292.82 416.22C292.82 418.109 308.347 419.64 327.5 419.64Z" fill="#263238"/>
<path d="M327 155.67C327 155.67 333.1 155.67 334.48 160.09C335.86 164.51 332 170.36 327 171.68C322 173 317.58 168.44 317.87 164.04C318.16 159.64 324.22 155.55 327 155.67Z" fill="#263238" stroke="#263238" stroke-linecap="round" stroke-linejoin="round"/>
<path d="M362.87 357.189C362.87 357.189 364.66 356.509 364.94 353.779C365.22 351.049 361.73 344.679 361.74 341.239C361.75 337.799 361.5 331.759 360.74 330.649C359.98 329.539 355.5 329.769 352.68 332.059C349.86 334.349 357.29 339.239 359.3 344.779C361.31 350.319 360.04 351.049 360.82 353.539C361.199 354.904 361.902 356.156 362.87 357.189Z" fill="white" stroke="#263238" stroke-linecap="round" stroke-linejoin="round"/>
<path d="M278.16 291.8C278.16 291.8 280 311.08 281 313.42C282 315.76 289.73 317.23 292.88 318.42C296.03 319.61 329.31 330.2 336 334.15C342.69 338.1 352.47 346.49 356.72 350.36C360.97 354.23 361.72 358.79 362.91 357.19C364.1 355.59 362.5 349.4 361.29 346.01C360.08 342.62 358.71 340.93 358.44 338.49C358.17 336.05 357.5 332.55 355 331.78C352.5 331.01 348.4 334.03 348.4 334.03C348.4 334.03 345.52 333.57 340.17 328.72C334.82 323.87 324.65 317.17 320.65 314.18C316.65 311.19 304.5 308.92 300.79 308.18C298.607 307.772 296.481 307.1 294.46 306.18L296.77 295.23C296.77 295.23 281 293.11 278.16 291.8Z" fill="white" stroke="#263238" stroke-linecap="round" stroke-linejoin="round"/>
<path d="M358.4 338.49C358.14 336.06 357.46 332.55 354.96 331.78C353.2 331.24 350.67 332.56 349.31 333.4C351.863 335.841 354.061 338.629 355.84 341.68C358.49 346.34 358.51 349.22 358.07 351.78C361.12 355.24 361.82 358.59 362.87 357.19C364.06 355.59 362.46 349.4 361.25 346.01C360.04 342.62 358.67 340.93 358.4 338.49Z" fill="#640E27" stroke="#263238" stroke-linecap="round" stroke-linejoin="round"/>
<path d="M304.19 399.57C305.067 400.194 306.084 400.593 307.151 400.73C308.219 400.868 309.303 400.741 310.31 400.36C313.54 398.97 317.59 393.02 318.96 391.43C320.33 389.84 326.85 386.56 327.65 383.72C328.45 380.88 323.85 377.14 323.85 377.14C322.417 379.825 320.541 382.25 318.3 384.31C314.7 387.56 315.23 389.16 311.07 392.87C306.91 396.58 304.19 399.57 304.19 399.57Z" fill="white" stroke="#263238" stroke-linecap="round" stroke-linejoin="round"/>
<path d="M306.05 299.88C306.05 299.88 305.86 312.75 306.9 319.02C307.94 325.29 311.9 366.88 310.9 376.02C309.9 385.16 306.79 394.37 304.76 397.81C302.73 401.25 307.7 399.23 310.67 397.57C313.64 395.91 318.15 387.4 319.12 386.1C320.09 384.8 323.93 384.64 324.4 379.93C324.87 375.22 319.11 375.17 319.48 368.76C319.85 362.35 325.21 342.76 323.25 334.4C321.29 326.04 319.01 315.47 319.38 311.86C319.75 308.25 321.23 299.16 321.23 299.16L306.05 299.88Z" fill="white" stroke="#263238" stroke-linecap="round" stroke-linejoin="round"/>
<path d="M320.73 373.479C319.043 377.824 316.851 381.956 314.2 385.789C311.46 389.459 309.39 389.419 308.29 388.959C307.442 392.034 306.265 395.007 304.78 397.829C302.78 401.269 307.72 399.249 310.69 397.589C313.66 395.929 318.17 387.419 319.14 386.119C320.11 384.819 323.95 384.659 324.42 379.949C324.74 376.809 322.3 375.729 320.73 373.479Z" fill="#640E27" stroke="#263238" stroke-linecap="round" stroke-linejoin="round"/>
<path d="M376.05 263.16C375.05 260.36 374.05 256.64 369.74 254.23C365.43 251.82 363.63 250.54 363.63 250.54C363.63 250.54 352.31 227 349.54 222.42C346.77 217.84 344.71 214.9 344.71 214.9C344.71 214.9 337.09 194.11 336.18 190.59C335.27 187.07 335.91 184.43 331.73 182.92C327.55 181.41 318.12 180.28 314.73 179.76C312.08 179.202 309.506 178.332 307.06 177.17C307.06 177.17 299.42 176.04 296.8 175.23C290.398 172.806 284.124 170.059 278 167C274.42 165 270 160.42 270 160.42C270 160.42 260.13 138.68 257.78 133.42C255.84 129.06 253.98 125.2 253.38 123.98C252.884 122.62 252.473 121.231 252.15 119.82C252.07 117.23 252.37 114.42 252.15 112.82C251.93 111.22 251.64 110.52 251.41 108.65C251.18 106.78 249.41 107.95 249.69 110.04L249.51 111.25L247.29 101.68C247.29 101.68 245.88 100.68 245.66 101.76L246.72 108.84L246.32 108.96L244.77 100.23C244.77 100.23 244.54 99.3198 243.27 99.4698C243.27 99.4698 242.59 99.6698 242.69 101.47L244.1 109.61L243.29 109.71L242 100.86C242 100.86 241.45 100.23 241 100.75C240.626 101.484 240.523 102.327 240.71 103.13C240.82 104.05 241.59 110.4 241.59 110.4L240.31 105.63C240.31 105.63 239.1 104.38 239.31 106.7C239.707 109.603 240.376 112.462 241.31 115.24C242.162 117.338 243.47 119.22 245.14 120.75C246.42 121.65 247.05 122.04 247.14 122.5C247.14 122.61 247.58 124.04 248.26 126.2H248.34C249.67 130.26 260.01 161.92 261.88 166.83C263.88 172.08 288.11 190.77 288.11 190.77C288.11 190.77 283.52 202.21 285.21 208.69C286.44 212.997 288.409 217.058 291.03 220.69C291.03 220.69 287.13 225.34 280.51 242.52C273.89 259.7 275.32 295.37 275.32 295.37C283.437 299.893 292.513 302.422 301.8 302.75C317.08 303.22 322.95 302.19 322.95 302.19C322.95 302.19 329.87 262.51 327.02 247.97C325.311 239.236 322.865 230.662 319.71 222.34L327.34 204.01C327.34 204.01 340.25 226.01 345.16 234.49C350.07 242.97 362.16 255.49 362.16 255.49C362.16 255.49 362.37 258.76 363.83 260.35C364.864 261.414 366.046 262.323 367.34 263.05C367.34 263.05 364.78 268.74 366.34 269.05C367.9 269.36 369.08 263.38 369.08 263.38C369.08 263.38 367.93 269.38 369.16 269.7C370.39 270.02 371.7 264.19 371.7 264.19C371.7 264.19 370.42 269.65 371.85 269.79C373.28 269.93 373.9 263.87 373.9 263.87C373.9 263.87 374.83 268.87 375.78 268.39C376.73 267.91 377 266 376.05 263.16Z" fill="white" stroke="#263238" stroke-linecap="round" stroke-linejoin="round"/>
<path d="M249.54 111.189C249.642 111.715 249.57 112.26 249.333 112.74C249.096 113.221 248.709 113.61 248.23 113.849C246.52 114.759 247.57 116.849 249.01 118.619" stroke="#263238" stroke-linecap="round" stroke-linejoin="round"/>
<path d="M366.09 257.44C366.742 258.386 367.515 259.244 368.39 259.99C369.397 260.422 370.468 260.688 371.56 260.78C371.56 260.78 372.42 265.98 374.13 265.22C375.84 264.46 373.54 259.59 372.74 258.34C372.39 257.709 371.884 257.179 371.27 256.8" fill="white"/>
<path d="M366.09 257.44C366.742 258.386 367.515 259.244 368.39 259.99C369.397 260.422 370.468 260.688 371.56 260.78C371.56 260.78 372.42 265.98 374.13 265.22C375.84 264.46 373.54 259.59 372.74 258.34C372.39 257.709 371.884 257.179 371.27 256.8" stroke="#263238" stroke-linecap="round" stroke-linejoin="round"/>
<path d="M301.71 302.67C316.99 303.14 322.86 302.11 322.86 302.11C322.86 302.11 329.78 262.43 326.93 247.89C326.75 246.96 326.56 246.04 326.36 245.14C311.056 248.284 295.204 247.475 280.3 242.79C273.83 260.09 275.23 295.29 275.23 295.29C283.347 299.813 292.423 302.343 301.71 302.67Z" fill="#263238" stroke="#263238" stroke-linecap="round" stroke-linejoin="round"/>
<path d="M293.06 256.77C293.06 256.77 299.22 267.57 306.16 272.96" stroke="white" stroke-linecap="round" stroke-linejoin="round"/>
<path d="M304.21 277.609C304.97 278.149 305.74 278.659 306.55 279.129" stroke="white" stroke-linecap="round" stroke-linejoin="round"/>
<path d="M293.83 266.79C296.074 270.008 298.692 272.949 301.63 275.55" stroke="white" stroke-linecap="round" stroke-linejoin="round"/>
<path d="M351.41 225.85C350.63 224.35 349.97 223.149 349.54 222.419C346.76 217.809 344.71 214.899 344.71 214.899C344.71 214.899 337.09 194.109 336.18 190.589C335.27 187.069 335.91 184.429 331.73 182.919C327.55 181.409 318.12 180.279 314.73 179.759C312.08 179.201 309.506 178.332 307.06 177.169C307.06 177.169 299.42 176.039 296.8 175.229C290.398 172.805 284.124 170.058 278 166.999C274.42 164.999 270 160.419 270 160.419C270 160.419 267.28 154.419 264.36 147.979C261.624 148.734 258.949 149.697 256.36 150.859C258.79 158.179 261.01 164.769 261.78 166.799C263.78 172.049 288.01 190.74 288.01 190.74C288.01 190.74 283.42 202.18 285.11 208.66C286.34 212.967 288.309 217.027 290.93 220.66C290.93 220.66 287.03 225.31 280.41 242.49C279.789 244.146 279.258 245.835 278.82 247.549C288.66 251.869 305.82 256.549 327.36 251.16C327.25 249.99 327.11 248.91 326.92 247.939C325.211 239.205 322.765 230.631 319.61 222.309L327.24 203.979C327.24 203.979 337.66 221.77 343.34 231.499C346.15 229.794 348.846 227.907 351.41 225.85Z" fill="#640E27" stroke="#263238" stroke-linecap="round" stroke-linejoin="round"/>
<path d="M283.04 176.239L288.02 190.739L278.03 171.609" stroke="#263238" stroke-linecap="round" stroke-linejoin="round"/>
<path d="M327.25 203.93L323.12 201.67" stroke="#263238" stroke-linecap="round" stroke-linejoin="round"/>
<path d="M332.36 185.479C332.36 185.479 328.13 186.249 325.43 192.809" stroke="#263238" stroke-linecap="round" stroke-linejoin="round"/>
<path d="M300.38 215.16C300.38 215.16 305.38 221.71 313.1 221.71" stroke="#263238" stroke-linecap="round" stroke-linejoin="round"/>
<path d="M324.49 181.24C320.68 180.57 316.7 180.06 314.74 179.76C312.09 179.202 309.516 178.333 307.07 177.17C307.07 177.17 299.43 176.04 296.81 175.23C296.54 175.14 296.13 175 295.65 174.82C295.4 179.28 295.21 189.55 298.03 196.99C301.72 206.74 305.78 208.76 305.78 208.76C305.78 208.76 318.13 194.34 321.78 187.14C323.07 184.5 323.93 182.6 324.49 181.24Z" fill="#263238" stroke="#263238" stroke-linecap="round" stroke-linejoin="round"/>
<path d="M310.42 135.56C310.42 135.56 303.72 136.21 300.08 141.56C296.44 146.91 295.27 151.9 294.03 157.56C292.79 163.22 294.23 168.64 296.2 168.84L302.99 169.53C302.99 169.53 302.99 184.34 303.39 189.47C303.79 194.6 305.39 198.29 306.88 196.47C308.37 194.65 313.28 181.47 313.28 181.47L314.08 169.17C314.08 169.17 317.68 166.44 323 161.89C328.32 157.34 329.85 148.89 325.95 141.63C322.05 134.37 310.42 135.56 310.42 135.56Z" fill="white" stroke="#263238" stroke-linecap="round" stroke-linejoin="round"/>
<path d="M314.38 160.159C314.38 160.159 315.6 160.659 315.69 159.779C315.78 158.899 318.46 157.409 319.51 159.539" stroke="#263238" stroke-linecap="round" stroke-linejoin="round"/>
<path d="M315.69 159.78C315.69 159.78 318.8 160.35 316.98 162.07" stroke="#263238" stroke-linecap="round" stroke-linejoin="round"/>
<path d="M300.05 148.71C299.73 149.71 299.05 150.38 298.6 150.22C298.15 150.06 297.99 149.14 298.31 148.14C298.63 147.14 299.31 146.47 299.77 146.63C300.23 146.79 300.37 147.72 300.05 148.71Z" fill="#263238"/>
<path d="M306.42 152C306.09 153 305.42 153.67 304.96 153.51C304.5 153.35 304.36 152.42 304.68 151.43C305 150.44 305.68 149.76 306.13 149.92C306.58 150.08 306.74 151 306.42 152Z" fill="#263238"/>
<path d="M297.93 155.57C297.93 155.57 297.93 156.62 299.64 156.79" stroke="#263238" stroke-linecap="round" stroke-linejoin="round"/>
<path d="M297.47 160.1C297.47 160.1 302.32 161.38 304.77 159.1" stroke="#263238" stroke-linecap="round" stroke-linejoin="round"/>
<path d="M306.45 146.48C307.691 146.388 308.917 146.789 309.865 147.596C310.812 148.403 311.403 149.55 311.51 150.79" stroke="#263238" stroke-linecap="round" stroke-linejoin="round"/>
<path d="M299.36 144.059C299.36 144.059 300.91 141.729 302.36 145.409" stroke="#263238" stroke-linecap="round" stroke-linejoin="round"/>
<path d="M300.28 160.78C300.28 160.78 302.43 164.14 303.43 163.33C304.43 162.52 303.64 159.95 303.64 159.95C302.544 160.316 301.42 160.593 300.28 160.78Z" fill="#263238" stroke="#263238" stroke-linecap="round" stroke-linejoin="round"/>
<path d="M325.54 161.89C330.87 157.34 331.54 149.34 327.54 142.14C322.35 132.78 310.41 135.56 310.41 135.56C309.15 135.728 307.914 136.047 306.73 136.51C309.23 136.87 314.78 138.24 317.11 143.51C320.17 150.45 315.67 157.73 315.67 157.73C315.67 157.73 321.47 155.01 321.27 159.19C321.168 160.689 320.507 162.094 319.418 163.129C318.329 164.164 316.892 164.753 315.39 164.78C314.208 164.596 313.055 164.26 311.96 163.78C311.932 164.759 312.116 165.732 312.499 166.633C312.882 167.534 313.455 168.341 314.18 169C314.79 168.56 320.72 166 325.54 161.89Z" fill="#263238" stroke="#263238" stroke-linecap="round" stroke-linejoin="round"/>
<path d="M305.39 137.14C305.39 137.14 308.39 138.75 311.01 146.14C313.63 153.53 318.85 152.77 321.86 152.14C324.87 151.51 327.09 151.34 327.09 151.34C324.779 149.199 323.169 146.411 322.47 143.34C321.26 138.15 313.22 126.09 305.39 137.14Z" fill="#263238" stroke="#263238" stroke-linecap="round" stroke-linejoin="round"/>
<path d="M174 139C174 139 176 136 172.46 134.23C168.565 132.452 164.192 132.012 160.022 132.978C155.851 133.944 152.117 136.261 149.4 139.57C140.91 149.37 147.76 158.83 152.18 163.57C156.6 168.31 163 170.45 163 171.3C162.533 172.995 161.975 174.664 161.33 176.3L176.26 176.96C176.26 176.96 178.08 171.39 179.71 169.53C181.34 167.67 184.29 170.53 186.5 165.82C188.71 161.11 186 154.88 186 154.88C186 154.88 187.41 149.54 185.41 149.34C183.41 149.14 181.93 146.68 180.51 143.65C179.09 140.62 174 139 174 139Z" fill="white" stroke="#263238" stroke-linecap="round" stroke-linejoin="round"/>
<path d="M180.59 145.18C180.59 145.18 178.59 142.05 178.32 146.33" stroke="#263238" stroke-linecap="round" stroke-linejoin="round"/>
<path d="M186.69 157.801C186.69 157.801 186.25 159.141 183.95 157.521" stroke="#263238" stroke-linecap="round" stroke-linejoin="round"/>
<path d="M182.26 148.93C182.75 149.87 182.91 150.75 182.61 150.93C182.31 151.11 181.67 150.45 181.18 149.52C180.69 148.59 180.53 147.7 180.83 147.52C181.13 147.34 181.77 148 182.26 148.93Z" fill="#263238"/>
<path d="M170.6 161.801C170.312 161.751 170.037 161.643 169.792 161.483C169.547 161.324 169.337 161.116 169.175 160.873C169.014 160.629 168.903 160.356 168.85 160.068C168.798 159.781 168.805 159.485 168.87 159.201C169.31 157.671 172.81 158.311 172.81 158.311C172.81 158.311 171.28 159.311 172.91 160.181C174.54 161.051 175.44 159.181 175.44 159.181" stroke="#263238" stroke-linecap="round" stroke-linejoin="round"/>
<path d="M172.48 134.21C168.585 132.433 164.212 131.993 160.042 132.958C155.871 133.924 152.137 136.242 149.42 139.55C140.93 149.35 147.78 158.81 152.2 163.55C155.7 167.33 160.45 169.43 162.2 170.55C163.878 170.524 165.54 170.224 167.12 169.66C169.523 168.8 171.66 167.329 173.32 165.39C173.32 165.39 167.49 165.95 166.87 160.7C166.25 155.45 171.68 156 173.96 156.23C176.24 156.46 174.79 153.72 173.71 153.03C172.63 152.34 173.77 149.58 174.38 146.47C174.99 143.36 171.38 145.01 170.87 144.09C170.36 143.17 174 139 174 139C174 139 176.05 136 172.48 134.21Z" fill="#263238" stroke="#263238" stroke-linecap="round" stroke-linejoin="round"/>
<path d="M180.32 176.24C176.008 174.871 171.545 174.031 167.03 173.74C159.58 173.27 155.77 176.63 155.77 176.63C155.77 176.63 161.23 176.9 170.1 177.51C178.97 178.12 180.32 176.24 180.32 176.24Z" fill="#640E27" stroke="#263238" stroke-linecap="round" stroke-linejoin="round"/>
<path d="M215.3 149.81C215.3 149.81 229.61 128.2 229.65 125C229.69 121.8 228.49 116.52 228.65 114.52C228.81 112.52 229.23 111.7 229.46 109.41C229.69 107.12 231.86 108.5 231.6 111.07L231.85 112.54L234.33 100.78C234.33 100.78 236.03 99.5202 236.33 100.84L235 108.74L235.71 108.85L237.42 99.0002C237.42 99.0002 237.67 97.8802 239.23 98.0002C239.23 98.0002 240.07 98.2202 239.99 100.36L238.65 109.62L239.36 109.94L240.91 99.7402C240.91 99.7402 241.56 98.9502 242.07 99.5702C242.553 100.455 242.702 101.484 242.49 102.47C242.38 103.61 241.59 111.39 241.59 111.39L243.04 105.53C243.04 105.53 244.49 103.96 244.34 106.81C243.926 110.37 243.187 113.885 242.13 117.31C241.5 119.24 239.13 123.01 237.58 124.14C236.03 125.27 235.27 125.76 235.21 126.33C235.15 126.9 227.21 154.68 222.54 160.92C222.54 160.92 220.87 154.92 217.09 154.08C213.31 153.24 213.92 154.33 213.92 154.33L215.3 149.81Z" fill="white" stroke="#263238" stroke-linecap="round" stroke-linejoin="round"/>
<path d="M209.87 157.91C209.87 157.91 209.62 154.71 211.79 153.2C213.96 151.69 213.62 149.35 215.68 148.98C217.74 148.61 223.41 152.36 223.94 155.59C224.47 158.82 223.62 158.73 223.36 161.3C223.1 163.87 219.59 167.3 216.59 165.51C213.59 163.72 209.87 157.91 209.87 157.91Z" fill="#640E27" stroke="#263238" stroke-linecap="round" stroke-linejoin="round"/>
<path d="M114.46 212.55C114.46 212.55 109.25 231.75 107.46 242.63C105.67 253.51 104.26 257.06 103.09 259.97C101.92 262.88 100.59 265.36 100.93 268.43C101.27 271.5 105.07 270.37 106.81 270.33C108.55 270.29 111.24 269.47 111.48 267.11C111.72 264.75 112.19 264.37 111.76 262.16C111.33 259.95 109.76 258.05 109.93 256.76C110.1 255.47 119.75 232.61 121.67 226.51C123.59 220.41 124.85 216.64 124.85 216.64C124.85 216.64 116.41 214.7 114.46 212.55Z" fill="white" stroke="#263238" stroke-linecap="round" stroke-linejoin="round"/>
<path d="M141.83 242C137.6 255.89 138.29 249 137.6 255.89C136.91 262.78 134.21 278.53 134.21 278.53L123.69 320.18C123.69 320.18 110.61 330.34 103.99 340.11C97.3699 349.88 79.8999 370.9 79.8999 370.9C79.8999 370.9 83.7499 371.56 85.1699 372.9C86.5899 374.24 89.8799 377.62 89.8799 377.62C92.1126 376.012 94.1 374.089 95.7799 371.91C102.33 363.47 112.22 356.28 119.87 348.81C127.52 341.34 136.8 333.73 142.96 324.81C146.08 319.71 161.88 279.46 161.88 279.46L165.14 279.36C165.14 279.36 181.44 304.65 183.71 307.92C185.98 311.19 193.15 323.84 193.15 323.84C193.15 323.84 180.88 333.65 177.66 341.84C174.44 350.03 158.43 379.57 157.42 380.98C156.755 381.998 156.274 383.125 156 384.31C156 384.31 161.9 385.99 164.88 386.51C166.586 386.781 168.221 387.39 169.69 388.3C169.69 388.3 170.53 386.43 171.41 384.14C172.274 382.184 172.918 380.138 173.33 378.04C173.49 376.54 189.66 360.4 198.59 345.04C207.52 329.68 211.82 325.78 212.37 322.58C212.92 319.38 204.9 295.8 201.12 283.92C197.34 272.04 187.23 258.44 186.91 257.32C186.59 256.2 185.6 244.61 185.6 244.61C185.6 244.61 179.05 245.03 165.39 244.94C157.447 244.905 149.537 243.918 141.83 242Z" fill="#263238" stroke="#263238" stroke-linecap="round" stroke-linejoin="round"/>
<path d="M151.5 275.23L161.88 279.39" stroke="white" stroke-linecap="round" stroke-linejoin="round"/>
<path d="M190.93 200.55C190.93 200.55 190.07 209.07 201.16 216.21C212.25 223.35 215.78 235.92 215.78 235.92L212.83 243.24L206.22 239.36C206.22 239.36 207.22 225.64 200.22 219.92C193.22 214.2 189.9 211.05 187.79 204.23C185.68 197.41 181.28 187.54 181.28 187.54C181.28 187.54 189.42 193.78 190.93 200.55Z" fill="#263238" stroke="#263238" stroke-linecap="round" stroke-linejoin="round"/>
<path d="M161.28 176.32C156.603 176.005 151.946 175.437 147.33 174.62C141.68 173.47 136.76 176.43 136.02 180.96C135.28 185.49 116.3 207.51 116.16 208.96C116.02 210.41 123.06 214.85 126.31 214.03C129.56 213.21 142.43 200.1 142.43 200.1C142.43 200.1 142.81 230.42 141.78 234.92C140.75 239.42 139 242.43 141.36 244.68C143.72 246.93 161.71 248.77 170.99 248.27C180.27 247.77 185.66 245.73 185.99 242.59C186.32 239.45 186.81 231.71 187.24 227.43C187.67 223.15 192.24 195.64 192.24 195.64C192.24 195.64 205.4 179.64 211.49 173.64C217.58 167.64 219.87 164.97 220.22 161.55C220.57 158.13 216.06 154.21 213.06 155.34C210.06 156.47 201.85 166.34 197.25 169.02C192.65 171.7 185.95 172.48 183.12 174.79C180.29 177.1 177.06 177.63 171.64 177.08C166.22 176.53 161.28 176.32 161.28 176.32Z" fill="#640E27" stroke="#263238" stroke-linecap="round" stroke-linejoin="round"/>
<path d="M138.69 185.94L142.44 200.07L134.58 189.11" stroke="#263238" stroke-linecap="round" stroke-linejoin="round"/>
<path d="M192.19 195.61L185.53 204.93" stroke="#263238" stroke-linecap="round" stroke-linejoin="round"/>
<path d="M179.34 218.311L178.25 220.131" stroke="#263238" stroke-linecap="round" stroke-linejoin="round"/>
<path d="M187.75 204.23L181.4 214.86" stroke="#263238" stroke-linecap="round" stroke-linejoin="round"/>
<path d="M158.92 211.23C162.62 220 168.42 232.45 173.51 237.53" stroke="#263238" stroke-linecap="round" stroke-linejoin="round"/>
<path d="M155.15 201.771C155.15 201.771 155.78 203.491 156.86 206.211" stroke="#263238" stroke-linecap="round" stroke-linejoin="round"/>
<path d="M158 219.181C158 219.181 165.28 232.181 169.07 237.181" stroke="#263238" stroke-linecap="round" stroke-linejoin="round"/>
<path d="M117.13 207.61C118.7 209.062 120.48 210.269 122.41 211.19C125.11 212.33 129.64 210.4 129.41 212.55C129.257 214.072 128.602 215.501 127.549 216.61C126.495 217.72 125.102 218.448 123.59 218.68C119.38 219.55 114.59 215.81 113.25 213.68C111.91 211.55 112.88 204.58 117.13 207.61Z" fill="#640E27" stroke="#263238" stroke-linecap="round" stroke-linejoin="round"/>
<path d="M108 263.07C108 263.07 102.29 265.96 104.58 266.84C106.87 267.72 110.58 267.24 111.2 265.78" fill="white"/>
<path d="M108 263.07C108 263.07 102.29 265.96 104.58 266.84C106.87 267.72 110.58 267.24 111.2 265.78" stroke="#263238" stroke-linecap="round" stroke-linejoin="round"/>
<path d="M104.6 266.84L102.39 267.27" stroke="#263238" stroke-linecap="round" stroke-linejoin="round"/>
<path d="M169.69 388.18C169.69 388.18 175.2 396.98 179.19 400.18C183.18 403.38 183.79 403.18 183.66 404.55C183.53 405.92 180.1 406.74 174.27 406.15C168.44 405.56 163.57 401.34 158.17 398.43C152.77 395.52 151.3 394.59 152.38 391.76C153.456 389.189 154.665 386.676 156 384.23C156 384.23 163.71 384 169.69 388.18Z" fill="white" stroke="#263238" stroke-linecap="round" stroke-linejoin="round"/>
<path d="M152.38 391.721C152.38 391.721 156.53 393.211 164.83 399.101C173.13 404.991 178.94 405.781 183.66 404.511" fill="white"/>
<path d="M152.38 391.721C152.38 391.721 156.53 393.211 164.83 399.101C173.13 404.991 178.94 405.781 183.66 404.511" stroke="#263238" stroke-linecap="round" stroke-linejoin="round"/>
<path d="M89.8799 377.58C89.8799 377.58 89.95 384.76 91.05 388.73C92.15 392.7 94.9 396.54 93.64 397.39C92.38 398.24 91.09 398.49 88.64 397.17C86.19 395.85 83.1 393.17 79.91 389.39C77.453 386.777 75.5724 383.677 74.39 380.29C72.87 376.4 73.7 374.2 76.25 373.1C77.5876 372.577 78.8282 371.834 79.92 370.9C79.92 370.9 87.3299 370.51 89.8799 377.58Z" fill="white" stroke="#263238" stroke-linecap="round" stroke-linejoin="round"/>
<path d="M74.6399 375C77.9763 377.829 80.6988 381.31 82.6399 385.23C86.3099 392.23 90.1699 396.11 93.6399 397.42" fill="white"/>
<path d="M74.6399 375C77.9763 377.829 80.6988 381.31 82.6399 385.23C86.3099 392.23 90.1699 396.11 93.6399 397.42" stroke="#263238" stroke-linecap="round" stroke-linejoin="round"/>
<path d="M148.55 419.64C167.703 419.64 183.23 418.109 183.23 416.22C183.23 414.331 167.703 412.8 148.55 412.8C129.397 412.8 113.87 414.331 113.87 416.22C113.87 418.109 129.397 419.64 148.55 419.64Z" fill="#263238"/>
<path d="M239.89 84.4805V93.5505" stroke="#263238" stroke-linecap="round" stroke-linejoin="round"/>
<path d="M248.59 95.0004L253.31 89.1904" stroke="#263238" stroke-linecap="round" stroke-linejoin="round"/>
<path d="M226.1 92.1006L230.45 95.7206" stroke="#263238" stroke-linecap="round" stroke-linejoin="round"/>
<path d="M221.02 104.07H228.64" stroke="#263238" stroke-linecap="round" stroke-linejoin="round"/>
<path d="M251.86 103.711H257.67" stroke="#263238" stroke-linecap="round" stroke-linejoin="round"/>
</svg>
