<svg width="30" height="30" viewBox="0 0 30 30" fill="none" xmlns="http://www.w3.org/2000/svg">
<path d="M27.1875 2.5C27.4361 2.5 27.6746 2.6317 27.8504 2.86612C28.0262 3.10054 28.125 3.41848 28.125 3.75V26.25C28.125 26.5815 28.0262 26.8995 27.8504 27.1339C27.6746 27.3683 27.4361 27.5 27.1875 27.5H2.8125C2.56386 27.5 2.3254 27.3683 2.14959 27.1339C1.97377 26.8995 1.875 26.5815 1.875 26.25V3.75C1.875 3.41848 1.97377 3.10054 2.14959 2.86612C2.3254 2.6317 2.56386 2.5 2.8125 2.5H27.1875ZM2.8125 0C2.06658 0 1.35121 0.395088 0.823762 1.09835C0.296316 1.80161 0 2.75544 0 3.75L0 26.25C0 27.2446 0.296316 28.1984 0.823762 28.9017C1.35121 29.6049 2.06658 30 2.8125 30H27.1875C27.9334 30 28.6488 29.6049 29.1762 28.9017C29.7037 28.1984 30 27.2446 30 26.25V3.75C30 2.75544 29.7037 1.80161 29.1762 1.09835C28.6488 0.395088 27.9334 0 27.1875 0H2.8125Z" fill="#203B4E"/>
<path d="M10.8 14.9997C10.8 14.7492 10.8737 14.509 11.005 14.3319C11.1363 14.1547 11.3143 14.0552 11.5 14.0552H21.3C21.4856 14.0552 21.6637 14.1547 21.795 14.3319C21.9262 14.509 22 14.7492 22 14.9997C22 15.2502 21.9262 15.4904 21.795 15.6675C21.6637 15.8446 21.4856 15.9441 21.3 15.9441H11.5C11.3143 15.9441 11.1363 15.8446 11.005 15.6675C10.8737 15.4904 10.8 15.2502 10.8 14.9997ZM10.8 10.2775C10.8 10.027 10.8737 9.78675 11.005 9.60963C11.1363 9.43251 11.3143 9.33301 11.5 9.33301H21.3C21.4856 9.33301 21.6637 9.43251 21.795 9.60963C21.9262 9.78675 22 10.027 22 10.2775C22 10.5279 21.9262 10.7682 21.795 10.9453C21.6637 11.1224 21.4856 11.2219 21.3 11.2219H11.5C11.3143 11.2219 11.1363 11.1224 11.005 10.9453C10.8737 10.7682 10.8 10.5279 10.8 10.2775ZM10.8 19.7219C10.8 19.4714 10.8737 19.2312 11.005 19.0541C11.1363 18.877 11.3143 18.7775 11.5 18.7775H21.3C21.4856 18.7775 21.6637 18.877 21.795 19.0541C21.9262 19.2312 22 19.4714 22 19.7219C22 19.9724 21.9262 20.2126 21.795 20.3897C21.6637 20.5668 21.4856 20.6663 21.3 20.6663H11.5C11.3143 20.6663 11.1363 20.5668 11.005 20.3897C10.8737 20.2126 10.8 19.9724 10.8 19.7219ZM9.4 10.2775C9.4 10.5279 9.32625 10.7682 9.19497 10.9453C9.0637 11.1224 8.88565 11.2219 8.7 11.2219C8.51435 11.2219 8.3363 11.1224 8.20503 10.9453C8.07375 10.7682 8 10.5279 8 10.2775C8 10.027 8.07375 9.78675 8.20503 9.60963C8.3363 9.43251 8.51435 9.33301 8.7 9.33301C8.88565 9.33301 9.0637 9.43251 9.19497 9.60963C9.32625 9.78675 9.4 10.027 9.4 10.2775ZM9.4 14.9997C9.4 15.2502 9.32625 15.4904 9.19497 15.6675C9.0637 15.8446 8.88565 15.9441 8.7 15.9441C8.51435 15.9441 8.3363 15.8446 8.20503 15.6675C8.07375 15.4904 8 15.2502 8 14.9997C8 14.7492 8.07375 14.509 8.20503 14.3319C8.3363 14.1547 8.51435 14.0552 8.7 14.0552C8.88565 14.0552 9.0637 14.1547 9.19497 14.3319C9.32625 14.509 9.4 14.7492 9.4 14.9997ZM9.4 19.7219C9.4 19.9724 9.32625 20.2126 9.19497 20.3897C9.0637 20.5668 8.88565 20.6663 8.7 20.6663C8.51435 20.6663 8.3363 20.5668 8.20503 20.3897C8.07375 20.2126 8 19.9724 8 19.7219C8 19.4714 8.07375 19.2312 8.20503 19.0541C8.3363 18.877 8.51435 18.7775 8.7 18.7775C8.88565 18.7775 9.0637 18.877 9.19497 19.0541C9.32625 19.2312 9.4 19.4714 9.4 19.7219Z" fill="#203B4E"/>
</svg>
