<svg width="10" height="16" viewBox="0 0 10 16" fill="none" xmlns="http://www.w3.org/2000/svg">
<path d="M10.2037 3.8864V5.05907C10.2037 5.2524 10.0471 5.40907 9.85381 5.40907H9.83914H9.83981H7.93081C7.78635 6.44293 7.2668 7.38754 6.47107 8.06307L6.46508 8.0684C5.57493 8.78663 4.49 9.22156 3.3503 9.31707L3.32897 9.3184C4.59363 10.6668 6.33199 12.6971 8.54404 15.4091C8.59468 15.4588 8.62675 15.5243 8.63487 15.5948C8.643 15.6653 8.6267 15.7365 8.5887 15.7964L8.58936 15.7951C8.5645 15.8558 8.52212 15.9077 8.46764 15.9443C8.41316 15.9809 8.34903 16.0004 8.28342 16.0004L8.25876 15.9997H8.26009H6.03049C5.97807 15.9998 5.92637 15.9876 5.87958 15.964C5.83279 15.9403 5.79223 15.906 5.7612 15.8637L5.76053 15.8631C3.44272 13.0826 1.55661 10.9197 0.102207 9.3744C0.0697036 9.34276 0.043873 9.30493 0.026242 9.26313C0.00861103 9.22134 -0.000462393 9.17643 -0.000441762 9.13107V9.12374V9.1244V7.67974C0.000763987 7.58369 0.0394032 7.4919 0.107251 7.42392C0.175099 7.35593 0.266797 7.31712 0.362827 7.31574H1.63527C2.4792 7.35316 3.31924 7.18068 4.08017 6.81374L4.0495 6.82707C4.33091 6.68775 4.57978 6.49063 4.77985 6.24859C4.97993 6.00655 5.12671 5.72503 5.21063 5.4224L5.21396 5.40707H0.347496C0.301542 5.40707 0.256037 5.39802 0.213581 5.38043C0.171125 5.36284 0.132548 5.33706 0.100053 5.30456C0.0675583 5.27206 0.041782 5.23347 0.024196 5.19101C0.00661 5.14855 -0.00244141 5.10303 -0.00244141 5.05707V5.0424V5.04307V3.8844V3.8704C-0.00244141 3.67707 0.154197 3.5204 0.347496 3.5204H0.36216H0.361494H5.05399C4.62251 2.6644 3.60758 2.2364 2.0092 2.2364H0.36216C0.266128 2.2352 0.174359 2.19655 0.106387 2.12869C0.0384143 2.06083 -0.000393067 1.96912 -0.00177486 1.87307V0.36107V0.34707C-0.00177486 0.153737 0.154864 -0.00292969 0.348163 -0.00292969H0.362827H0.36216H9.82914C10.0224 -0.00292969 10.1791 0.153737 10.1791 0.34707V0.361737V0.36107V1.53374C10.1791 1.72707 10.0224 1.88374 9.82914 1.88374H9.81448H9.81515H7.16828C7.5294 2.35845 7.77682 2.9097 7.89149 3.49507L7.89549 3.51974H9.85181C10.0451 3.51974 10.2017 3.6764 10.2017 3.86974V3.8844V3.88374L10.2037 3.8864Z" fill="black"/>
</svg>
