<svg width="28" height="25" viewBox="0 0 28 25" fill="none" xmlns="http://www.w3.org/2000/svg">
<path d="M16.3638 0C16.5491 5.83768e-06 16.7295 0.0588067 16.8792 0.167934C17.0289 0.277062 17.1401 0.430885 17.1968 0.60725L18.1593 3.598C18.5636 3.79575 18.9503 4.018 19.3195 4.26825L22.3926 3.60675C22.5737 3.56807 22.7625 3.58789 22.9317 3.66337C23.1009 3.73885 23.2418 3.86608 23.3341 4.02675L25.7596 8.225C25.8522 8.38557 25.8914 8.57141 25.8716 8.75572C25.8518 8.94003 25.7739 9.11328 25.6493 9.2505L23.5406 11.578C23.5713 12.0243 23.5713 12.4722 23.5406 12.9185L25.6493 15.2495C25.7739 15.3867 25.8518 15.56 25.8716 15.7443C25.8914 15.9286 25.8522 16.1144 25.7596 16.275L23.3341 20.475C23.2415 20.6353 23.1006 20.7622 22.9314 20.8374C22.7622 20.9125 22.5735 20.9321 22.3926 20.8932L19.3195 20.2318C18.9521 20.4802 18.5636 20.7043 18.1611 20.902L17.1968 23.8927C17.1401 24.0691 17.0289 24.2229 16.8792 24.3321C16.7295 24.4412 16.5491 24.5 16.3638 24.5H11.5128C11.3275 24.5 11.1471 24.4412 10.9974 24.3321C10.8477 24.2229 10.7365 24.0691 10.6798 23.8927L9.71905 20.9037C9.31588 20.7066 8.92702 20.4815 8.5553 20.23L5.48405 20.8932C5.30286 20.9319 5.11407 20.9121 4.94488 20.8366C4.77568 20.7612 4.63481 20.6339 4.54255 20.4733L2.11705 16.275C2.02443 16.1144 1.9852 15.9286 2.00501 15.7443C2.02483 15.56 2.10267 15.3867 2.2273 15.2495L4.33605 12.9185C4.3055 12.4734 4.3055 12.0266 4.33605 11.5815L2.2273 9.2505C2.10267 9.11328 2.02483 8.94003 2.00501 8.75572C1.9852 8.57141 2.02443 8.38557 2.11705 8.225L4.54255 4.025C4.63506 3.86465 4.77604 3.73778 4.94522 3.66263C5.1144 3.58747 5.30305 3.56791 5.48405 3.60675L8.5553 4.27C8.9263 4.01975 9.3148 3.794 9.71905 3.59625L10.6816 0.60725C10.7381 0.431453 10.8487 0.278037 10.9977 0.168962C11.1467 0.0598875 11.3264 0.000744918 11.511 0H16.3621H16.3638ZM15.7233 1.75H12.1533L11.1593 4.84225L10.489 5.1695C10.1596 5.33074 9.84148 5.51434 9.53705 5.719L8.91755 6.139L5.73955 5.453L3.95455 8.547L6.1333 10.9585L6.0808 11.7005C6.05565 12.0664 6.05565 12.4336 6.0808 12.7995L6.1333 13.5415L3.95105 15.953L5.7378 19.047L8.9158 18.3628L9.5353 18.781C9.83973 18.9857 10.1578 19.1693 10.4873 19.3305L11.1575 19.6577L12.1533 22.75H15.7268L16.7243 19.656L17.3928 19.3305C17.7219 19.1696 18.0395 18.986 18.3431 18.781L18.9608 18.3628L22.1406 19.047L23.9256 15.953L21.7451 13.5415L21.7976 12.7995C21.8228 12.433 21.8228 12.0652 21.7976 11.6987L21.7451 10.9567L23.9273 8.547L22.1406 5.453L18.9608 6.1355L18.3431 5.719C18.0395 5.51393 17.722 5.33031 17.3928 5.1695L16.7243 4.844L15.725 1.75H15.7233ZM13.9383 7C15.3307 7 16.666 7.55312 17.6506 8.53769C18.6352 9.52226 19.1883 10.8576 19.1883 12.25C19.1883 13.6424 18.6352 14.9777 17.6506 15.9623C16.666 16.9469 15.3307 17.5 13.9383 17.5C12.5459 17.5 11.2106 16.9469 10.226 15.9623C9.24142 14.9777 8.6883 13.6424 8.6883 12.25C8.6883 10.8576 9.24142 9.52226 10.226 8.53769C11.2106 7.55312 12.5459 7 13.9383 7ZM13.9383 8.75C13.01 8.75 12.1198 9.11875 11.4634 9.77513C10.807 10.4315 10.4383 11.3217 10.4383 12.25C10.4383 13.1783 10.807 14.0685 11.4634 14.7249C12.1198 15.3813 13.01 15.75 13.9383 15.75C14.8666 15.75 15.7568 15.3813 16.4132 14.7249C17.0696 14.0685 17.4383 13.1783 17.4383 12.25C17.4383 11.3217 17.0696 10.4315 16.4132 9.77513C15.7568 9.11875 14.8666 8.75 13.9383 8.75Z" fill="#191919"/>
</svg>
