<svg width="51" height="44" viewBox="0 0 51 44" fill="none" xmlns="http://www.w3.org/2000/svg">
<path d="M24.5 28C24.5 28.8284 25.1716 29.5 26 29.5C26.8284 29.5 27.5 28.8284 27.5 28H24.5ZM27.0607 0.939341C26.4749 0.353554 25.5251 0.353554 24.9393 0.939341L15.3934 10.4853C14.8076 11.0711 14.8076 12.0208 15.3934 12.6066C15.9792 13.1924 16.9289 13.1924 17.5147 12.6066L26 4.12132L34.4853 12.6066C35.0711 13.1924 36.0208 13.1924 36.6066 12.6066C37.1924 12.0208 37.1924 11.0711 36.6066 10.4853L27.0607 0.939341ZM27.5 28V2H24.5V28H27.5Z" fill="#191919"/>
<path d="M2 15V39C2 40.6569 3.34315 42 5 42H46C47.6569 42 49 40.6569 49 39V15" stroke="#191919" stroke-width="3" stroke-linecap="round"/>
</svg>
