<svg width="28" height="28" viewBox="0 0 28 28" fill="none" xmlns="http://www.w3.org/2000/svg">
<path d="M23.4747 20.8797C22.9589 19.6579 22.2103 18.5481 21.2708 17.6121C20.3341 16.6734 19.2244 15.925 18.0032 15.4082C17.9923 15.4027 17.9813 15.4 17.9704 15.3945C19.6739 14.1641 20.7813 12.1598 20.7813 9.89844C20.7813 6.15234 17.7462 3.11719 14.0001 3.11719C10.254 3.11719 7.21882 6.15234 7.21882 9.89844C7.21882 12.1598 8.32624 14.1641 10.0298 15.3973C10.0188 15.4027 10.0079 15.4055 9.99694 15.4109C8.77194 15.9277 7.67272 16.6688 6.72937 17.6148C5.79068 18.5516 5.04227 19.6612 4.52546 20.8824C4.01775 22.078 3.74393 23.3599 3.71882 24.6586C3.71809 24.6878 3.72321 24.7168 3.73387 24.744C3.74454 24.7712 3.76054 24.7959 3.78092 24.8168C3.80131 24.8377 3.82567 24.8543 3.85257 24.8657C3.87948 24.877 3.90838 24.8828 3.93757 24.8828H5.57819C5.69851 24.8828 5.79421 24.7871 5.79694 24.6695C5.85163 22.5586 6.69929 20.5816 8.19772 19.0832C9.74812 17.5328 11.8071 16.6797 14.0001 16.6797C16.193 16.6797 18.252 17.5328 19.8024 19.0832C21.3008 20.5816 22.1485 22.5586 22.2032 24.6695C22.2059 24.7898 22.3016 24.8828 22.4219 24.8828H24.0626C24.0918 24.8828 24.1207 24.877 24.1476 24.8657C24.1745 24.8543 24.1988 24.8377 24.2192 24.8168C24.2396 24.7959 24.2556 24.7712 24.2663 24.744C24.2769 24.7168 24.282 24.6878 24.2813 24.6586C24.254 23.3516 23.9833 22.0801 23.4747 20.8797ZM14.0001 14.6016C12.745 14.6016 11.5637 14.1121 10.6751 13.2234C9.7864 12.3348 9.29694 11.1535 9.29694 9.89844C9.29694 8.64336 9.7864 7.46211 10.6751 6.57344C11.5637 5.68477 12.745 5.19531 14.0001 5.19531C15.2551 5.19531 16.4364 5.68477 17.3251 6.57344C18.2137 7.46211 18.7032 8.64336 18.7032 9.89844C18.7032 11.1535 18.2137 12.3348 17.3251 13.2234C16.4364 14.1121 15.2551 14.6016 14.0001 14.6016Z" fill="white"/>
</svg>
