<svg width="1394" height="1433" viewBox="0 0 1394 1433" fill="none" xmlns="http://www.w3.org/2000/svg">
<g filter="url(#filter0_d_101_144)">
<path d="M1292.57 656.304C1338.27 683.425 1338.27 749.575 1292.57 776.696L454.227 1274.26C407.565 1301.95 348.5 1268.32 348.5 1214.06L348.5 218.938C348.5 164.677 407.565 131.048 454.227 158.742L1292.57 656.304Z" fill="white"/>
</g>
<path d="M848.546 332.323L848.369 376.286L637.299 396.972L637.477 353.009L848.546 332.323Z" fill="#640E27"/>
<path d="M694.794 393.301L694.617 437.264L589.486 394.527L589.663 350.564L694.794 393.301Z" fill="#640E27"/>
<path d="M812.042 366.417L811.865 410.38L741.305 439.251L741.483 395.288L812.042 366.417" fill="#640E27"/>
<path d="M741.337 412.222L741.16 456.184L720.475 447.776L720.652 403.813L741.337 412.222Z" fill="#640E27"/>
<path d="M751.613 408.017L751.437 451.98L741.16 456.184L741.337 412.222L751.613 408.017" fill="#640E27"/>
<path d="M673.425 423.137L673.249 467.1L647.391 456.588L647.568 412.625L673.425 423.137Z" fill="#640E27"/>
<path d="M720.652 403.813L720.475 447.776L673.249 467.1L673.425 423.137L720.652 403.813Z" fill="#640E27"/>
<path d="M848.546 332.323L637.477 353.009L715.625 384.778L786.184 355.906L812.042 366.417L741.483 395.288L751.613 408.017L741.337 412.221L720.652 403.813L673.425 423.137L647.569 412.625L694.794 393.301L589.663 350.564L610.494 342.04L821.429 321.299L848.546 332.323Z" fill="#A4133D"/>
<path d="M1009.76 425.215L1009.58 469.178C1009.61 461.527 1001.54 454.413 985.354 447.834C945.938 431.811 899.787 434.609 846.913 456.244C816.069 468.864 800.627 480.509 800.585 491.175L800.761 447.213C800.805 436.547 816.246 424.902 847.09 412.281C899.962 390.646 946.114 387.848 985.532 403.872C1001.71 410.45 1009.79 417.565 1009.76 425.215Z" fill="#640E27"/>
<path d="M1045.12 428.331L1044.95 472.294C1044.89 485.9 1026.6 500.175 990.084 515.119C923.145 542.508 861.378 544.706 804.809 521.709C778.127 510.863 764.81 499.589 764.857 487.89L765.035 443.927C764.988 455.628 778.304 466.9 804.986 477.746C861.555 500.743 923.32 498.546 990.26 471.157C1026.78 456.212 1045.07 441.937 1045.12 428.331Z" fill="#640E27"/>
<path d="M825.817 469.224C864.206 484.828 910.221 481.668 963.823 459.735C1016.7 438.1 1023.92 419.478 985.532 403.872C946.114 387.848 899.962 390.646 847.09 412.281C793.488 434.214 786.401 453.2 825.817 469.224V469.224ZM1006.37 395.343C1062.94 418.338 1057.58 443.611 990.26 471.157C923.321 498.546 861.555 500.743 804.986 477.746C747.39 454.334 752.073 428.93 819.013 401.541C886.328 373.997 948.777 371.929 1006.37 395.343" fill="#4A56CC"/>
<path d="M975.049 617.215L921.99 638.926C921.054 639.308 919.527 639.312 918.584 638.931L865.179 617.219C864.708 617.03 864.475 616.777 864.476 616.525L864.463 619.973C864.461 620.226 864.694 620.477 865.166 620.669L918.572 642.379C919.512 642.761 921.042 642.758 921.975 642.375L975.034 620.665C975.499 620.475 975.731 620.227 975.731 619.977L975.746 616.529C975.744 616.778 975.512 617.026 975.049 617.215" fill="#C93737"/>
<path d="M975.038 615.835C975.976 616.217 975.982 616.836 975.049 617.218L921.99 638.929C921.054 639.311 919.527 639.315 918.584 638.934L865.179 617.223C864.24 616.841 864.244 616.217 865.178 615.835L918.237 594.124C919.171 593.743 920.69 593.743 921.63 594.124L975.038 615.835" fill="#D93B3B"/>
<path d="M955 613.177L954.994 613.161C955.018 611.431 954.394 609.707 953.191 608.052L932.329 549L908.684 549.025L887.692 608.388C886.604 609.939 886.029 611.548 886.006 613.159L886 613.177H886.003C885.956 617.243 889.292 621.305 896.027 624.396C909.458 630.562 931.303 630.53 944.818 624.326C951.542 621.241 954.93 617.209 954.992 613.177H955" fill="#E83F3F"/>
<path d="M911.482 556.326C906.819 554.431 904.306 548.407 909 546.5C913.695 544.592 926.335 545.104 931 547C935.665 548.897 933.122 554.397 928.429 556.305C923.735 558.212 916.147 558.223 911.482 556.326Z" fill="#C93737"/>
<path d="M950.559 605.24L946.726 595.629C945.385 596.597 943.701 597.509 941.671 598.333C929.682 603.208 910.304 603.232 898.39 598.389C896.403 597.581 894.754 596.69 893.435 595.742L889.619 605.296C890.219 608.094 893.137 610.819 898.39 612.956C910.304 617.799 929.682 617.774 941.671 612.901C946.945 610.757 949.904 608.032 950.559 605.24" fill="#F2F2F2"/>
<path d="M937.556 572.639C927.078 575.635 913.089 575.667 902.625 572.725L897.531 585.483C897.82 585.61 898.084 585.744 898.39 585.87C910.305 590.713 929.682 590.688 941.671 585.815C942.014 585.675 942.314 585.525 942.638 585.381L937.556 572.639Z" fill="#F2F2F2"/>
<path d="M825.817 469.224C864.206 484.828 910.221 481.668 963.823 459.735C1016.7 438.1 1023.92 419.478 985.532 403.872C946.114 387.848 899.962 390.646 847.09 412.281C793.488 434.214 786.401 453.2 825.817 469.224V469.224ZM1006.37 395.343C1062.94 418.338 1057.58 443.611 990.26 471.157C923.321 498.546 861.555 500.743 804.986 477.746C747.39 454.334 752.073 428.93 819.013 401.541C886.328 373.997 948.777 371.929 1006.37 395.343" fill="#A4133D"/>
<path d="M925.44 393.758L924.992 472.677C927.632 472.013 930.299 471.285 932.981 470.514L933.417 393.661C930.779 393.63 928.122 393.66 925.44 393.758Z" fill="#E2E2E2"/>
<path d="M933.417 393.66L933.497 379.415C930.849 379.301 928.189 379.249 925.522 379.231L925.44 393.758C928.122 393.659 930.779 393.63 933.417 393.66" fill="#E2E2E2"/>
<path d="M876.382 478.95C891.689 479.072 907.892 476.981 924.992 472.677L925.44 393.758C909.998 394.326 893.79 397.045 876.818 401.905L876.382 478.95Z" fill="#F2F2F2"/>
<path d="M925.44 393.758L925.522 379.231C909.641 379.117 893.44 380.677 876.92 383.91L876.818 401.905C893.79 397.045 909.998 394.326 925.44 393.758Z" fill="#F2F2F2"/>
<path d="M781.621 343.871L789.232 340.756C789.223 343.202 791.667 346.185 794.682 347.41L787.07 350.525C784.055 349.299 781.611 346.317 781.621 343.871Z" fill="#FDE169"/>
<path d="M781.645 338.06L789.257 334.945L789.232 340.756L781.62 343.871L781.645 338.06Z" fill="#FDE169"/>
<path d="M781.839 289.802L789.451 286.687L789.352 311.123L781.74 314.238L781.839 289.802Z" fill="#FDE169"/>
<path d="M828.582 367.4L836.194 364.285L866.397 376.562L858.785 379.677L828.582 367.4Z" fill="#FDE169"/>
<path d="M888.23 391.647L895.843 388.533L926.045 400.81L918.433 403.925L888.23 391.647Z" fill="#FDE169"/>
<path d="M947.877 415.894L955.489 412.779L985.692 425.058L978.08 428.173L947.877 415.894Z" fill="#FDE169"/>
<path d="M1003.41 345.433L888.23 391.647L918.433 403.925L1020.91 362.806L1020.81 386.628L947.877 415.894L978.08 428.173L1020.72 411.065L1020.6 441.017C1020.59 443.464 1018.13 444.451 1015.1 443.222L787.07 350.524C784.055 349.299 781.611 346.317 781.621 343.871L781.958 259.842C781.969 257.402 784.429 256.416 787.444 257.64L824.475 272.694L781.839 289.802L781.74 314.238L854.677 284.972L884.121 296.941L781.645 338.06L781.621 343.871C781.611 346.317 784.055 349.299 787.07 350.524L799.138 355.431L914.315 309.216L943.761 321.185L828.582 367.4L858.785 379.677L973.962 333.464L1003.41 345.433" fill="#FDE169"/>
<path d="M787.07 350.525L794.682 347.41L806.75 352.316L799.138 355.431L787.07 350.525Z" fill="#FDE169"/>
<path d="M854.677 284.972L781.74 314.238L781.839 289.802L824.475 272.694L854.677 284.972" fill="#58595B"/>
<path d="M914.315 309.216L799.138 355.431L787.07 350.525C784.055 349.299 781.611 346.317 781.621 343.871L781.645 338.06L884.121 296.941L914.315 309.216" fill="#58595B"/>
<path d="M973.962 333.464L858.785 379.677L828.582 367.4L943.761 321.185L973.962 333.464Z" fill="#58595B"/>
<path d="M1020.82 386.628L1020.72 411.065L978.08 428.173L947.877 415.894L1020.82 386.628" fill="#58595B"/>
<path d="M1015.47 350.339C1018.5 351.567 1020.94 354.55 1020.93 356.988L1020.91 362.806L918.433 403.925L888.23 391.647L1003.41 345.433L1015.47 350.339" fill="#58595B"/>
<path d="M1023.08 347.224L1011.01 342.318L981.567 330.348L951.363 318.071L921.919 306.101L891.726 293.826L862.281 281.857L832.078 269.58L795.049 254.526C793.531 253.91 792.155 253.853 791.16 254.261L783.548 257.375C784.543 256.968 785.919 257.024 787.435 257.64L824.466 272.693L854.669 284.972L884.113 296.941L914.307 309.216L943.752 321.185L973.955 333.463L1003.4 345.433L1015.47 350.339C1018.49 351.567 1020.94 354.549 1020.93 356.988L1020.9 362.806L1020.81 386.628L1020.71 411.065L1020.59 441.017C1020.58 442.232 1019.97 443.087 1018.99 443.49L1026.6 440.376C1027.59 439.974 1028.19 439.118 1028.2 437.902L1028.32 407.95L1028.42 383.514L1028.51 359.692L1028.54 353.874C1028.55 351.434 1026.1 348.453 1023.08 347.224" fill="#ECD262"/>
<path d="M990.653 420.357L808.239 346.204C807.107 345.743 806.409 344.892 806.409 343.97V282.741C806.409 280.756 809.46 279.516 811.901 280.509L994.315 354.662C995.448 355.121 996.146 355.973 996.146 356.894V418.124C996.146 420.108 993.093 421.349 990.653 420.357" fill="#E83F3F"/>
<path d="M830.04 314.514V299.94L833.841 301.486V316.059C833.841 320.618 836.648 324.04 842.263 326.322C847.878 328.605 850.687 327.467 850.687 322.908V308.334L854.487 309.878V324.452C854.487 330.672 850.413 332.125 842.263 328.812C834.115 325.499 830.04 320.734 830.04 314.514" fill="white"/>
<path d="M861.267 336.372V312.635L865.069 314.181L883.044 340.609V321.488L886.639 322.95V346.685L882.839 345.141L864.863 318.545V337.833L861.267 336.372Z" fill="white"/>
<path d="M904.308 351.378C911.498 354.301 915.094 352.42 915.094 345.737C915.094 339.917 911.498 335.544 904.308 332.622L897.426 329.824V348.58L904.308 351.378ZM893.625 349.525V325.788L904.308 330.131C914.033 334.084 918.895 339.801 918.895 347.282C918.895 355.626 914.033 357.821 904.308 353.868L893.625 349.525Z" fill="white"/>
<path d="M943.648 346.124V348.614L928.24 342.351V350.319L942.93 356.289V358.779L928.24 352.808V361.108L943.959 367.497V369.987L924.442 362.052V338.316L943.648 346.124" fill="white"/>
<path d="M949.71 372.324V348.588L962.243 353.683C967.831 355.954 970.625 358.988 970.625 362.784C970.625 365.871 967.891 367.046 962.428 366.306L972.514 381.594L967.502 379.557L958.154 365.084V363.076C963.77 364.639 966.578 364.037 966.578 361.271C966.578 359.08 965.016 357.35 961.893 356.08L953.51 352.673V373.87L949.71 372.324Z" fill="white"/>
<path d="M837.486 345.584C836.342 345.418 835.103 345.065 833.773 344.524C829.129 342.637 826.81 339.83 826.81 336.104C826.81 332.578 829.129 331.759 833.773 333.646C835.103 334.187 836.342 334.84 837.486 335.606V336.807C836.342 335.991 835.165 335.338 833.958 334.847C830.337 333.375 828.528 334.027 828.528 336.803C828.528 339.778 830.337 342.002 833.958 343.474C835.165 343.965 836.342 344.268 837.486 344.384V345.584Z" fill="white"/>
<path d="M846.521 348.581C849.69 349.87 851.275 349.066 851.275 346.17C851.275 343.314 849.69 341.243 846.521 339.954C843.285 338.637 841.665 339.408 841.665 342.263C841.665 345.16 843.285 347.266 846.521 348.581V348.581ZM839.854 341.572C839.854 337.937 842.077 337.021 846.521 338.828C850.898 340.608 853.086 343.315 853.086 346.951C853.086 350.567 850.898 351.486 846.521 349.706C842.077 347.899 839.854 345.189 839.854 341.572Z" fill="white"/>
<path d="M855.779 353.394V342.667L857.498 343.365L865.621 355.31V346.668L867.247 347.329V358.056L865.529 357.358L857.404 345.338V354.056L855.779 353.394Z" fill="white"/>
<path d="M870.218 358.889V357.613C871.611 358.58 873.115 359.392 874.73 360.049C877.015 360.977 878.157 360.766 878.157 359.416C878.157 358.265 877.315 357.348 875.632 356.664L873.923 355.968C871.143 354.839 869.753 353.298 869.753 351.348C869.753 349.298 871.533 348.996 875.092 350.442C876.641 351.073 878.079 351.807 879.41 352.649V353.923C878.079 352.982 876.641 352.197 875.092 351.568C872.679 350.588 871.471 350.746 871.471 352.047C871.471 353.197 872.288 354.105 873.923 354.768L875.632 355.463C878.46 356.613 879.875 358.164 879.875 360.114C879.875 362.214 878.16 362.567 874.73 361.173C873.115 360.517 871.611 359.755 870.218 358.889" fill="white"/>
<path d="M891.342 357.124V358.249L887.163 356.551V366.153L885.445 365.455V355.852L881.268 354.154V353.028L891.342 357.124Z" fill="white"/>
<path d="M893.386 368.682V357.954L899.049 360.257C901.575 361.283 902.837 362.655 902.837 364.369C902.837 365.766 901.602 366.296 899.132 365.962L903.691 372.871L901.425 371.951L897.201 365.41V364.501C899.74 365.209 901.008 364.937 901.008 363.686C901.008 362.696 900.302 361.914 898.89 361.341L895.102 359.8V369.38L893.386 368.682" fill="white"/>
<path d="M905.409 369.429V362.842L907.127 363.54V370.128C907.127 372.188 908.395 373.734 910.935 374.766C913.471 375.798 914.741 375.282 914.741 373.222V366.635L916.459 367.334V373.921C916.459 376.732 914.616 377.388 910.935 375.891C907.25 374.394 905.409 372.24 905.409 369.429Z" fill="white"/>
<path d="M929.551 383.009C928.407 382.844 927.167 382.491 925.837 381.949C921.193 380.061 918.872 377.256 918.872 373.53C918.872 370.004 921.193 369.184 925.837 371.072C927.167 371.613 928.407 372.265 929.551 373.031V374.232C928.407 373.415 927.231 372.763 926.024 372.272C922.401 370.8 920.592 371.451 920.592 374.227C920.592 377.204 922.401 379.428 926.024 380.9C927.231 381.391 928.407 381.694 929.551 381.809V383.009" fill="white"/>
<path d="M941.344 377.45V378.575L937.164 376.876V386.479L935.447 385.781V376.178L931.27 374.479V373.355L941.344 377.45Z" fill="white"/>
<path d="M945.383 379.092V389.82L943.664 389.122V378.393L945.383 379.092Z" fill="white"/>
<path d="M955.021 392.688C958.19 393.975 959.775 393.172 959.775 390.277C959.775 387.42 958.19 385.348 955.021 384.06C951.785 382.744 950.163 383.513 950.163 386.369C950.163 389.266 951.785 391.371 955.021 392.688V392.688ZM948.354 385.679C948.354 382.042 950.577 381.128 955.021 382.934C959.398 384.714 961.584 387.421 961.584 391.058C961.584 394.673 959.398 395.593 955.021 393.813C950.577 392.006 948.354 389.294 948.354 385.679Z" fill="white"/>
<path d="M964.28 397.501V386.773L965.995 387.471L974.122 399.416V390.774L975.746 391.436V402.163L974.028 401.464L965.904 389.445V398.162L964.28 397.501" fill="white"/>
<path d="M738.503 527.906L738.519 532.128L752.535 537.863L752.519 533.641L738.503 527.906Z" fill="#E8E8E8"/>
<path d="M755.605 540.887L755.588 536.664C755.584 535.568 754.561 534.477 752.519 533.641L752.535 537.863C754.578 538.699 755.6 539.792 755.605 540.887" fill="#E8E8E8"/>
<path d="M775.331 541.414L775.348 545.637L779.625 539.203L779.608 534.981L775.331 541.414Z" fill="#E8E8E8"/>
<path d="M740.724 550.787L740.742 555.009L756.532 553.287L756.515 549.064L740.724 550.787" fill="#E8E8E8"/>
<path d="M718.419 541.66L718.435 545.882L740.742 555.009L740.724 550.787L718.419 541.66" fill="#E8E8E8"/>
<path d="M756.516 549.064L756.532 553.286L813.363 576.54L813.347 572.318L756.516 549.064Z" fill="#E8E8E8"/>
<path d="M833.09 577.067L833.106 581.289C833.102 580.181 834.143 579.069 836.226 578.223C840.37 576.538 847.053 576.538 851.165 578.22L851.148 573.998C847.036 572.316 840.353 572.316 836.208 574.001C834.124 574.847 833.085 575.959 833.09 577.067Z" fill="#E8E8E8"/>
<path d="M865.166 579.734L865.182 583.956L870.276 576.295L870.259 572.073L865.166 579.734Z" fill="#E8E8E8"/>
<path d="M851.148 573.998L851.165 578.22L865.182 583.956L865.165 579.734L851.148 573.998Z" fill="#E8E8E8"/>
<path d="M809.069 578.753L809.086 582.975L831.391 592.101L831.374 587.879L809.069 578.753Z" fill="#E8E8E8"/>
<path d="M831.374 587.879L831.391 592.101L850.192 590.05L850.175 585.827L831.374 587.879Z" fill="#E8E8E8"/>
<path d="M723.514 533.999L718.419 541.66L740.724 550.787L756.515 549.064L813.346 572.318L809.069 578.753L831.374 587.879L850.175 585.827L836.159 580.091C832.047 578.409 832.068 575.684 836.208 574.001C840.353 572.316 847.036 572.316 851.148 573.998L865.165 579.734L870.259 572.072L847.953 562.945L832.162 564.669L775.331 541.414L779.608 534.981L757.303 525.853L738.503 527.906L752.519 533.641C756.631 535.324 756.609 538.05 752.464 539.734C748.325 541.417 741.642 541.417 737.53 539.734L723.514 533.999" fill="#F4F4F4"/>
<path d="M515.068 442.374L515.026 452.83L515 449.034L515.041 438.576L515.068 442.374" fill="#E2E2E2"/>
<path d="M515.098 446.168L515.056 456.626L515.026 452.831L515.068 442.374L515.098 446.168" fill="#E2E2E2"/>
<path d="M604.558 431.782L604.517 442.238C604.516 442.428 604.369 442.618 604.069 442.777L604.111 432.32C604.411 432.161 604.558 431.971 604.558 431.782Z" fill="#E8E8E8"/>
<path d="M611.581 446.169L611.538 456.625C611.541 457.073 610.731 457.454 609.64 457.51L609.682 447.053C610.772 446.996 611.584 446.617 611.581 446.169Z" fill="#E8E8E8"/>
<path d="M604.729 452.976L604.687 463.432C604.685 463.659 604.472 463.885 604.054 464.056L604.096 453.6C604.514 453.428 604.729 453.202 604.729 452.976Z" fill="#E8E8E8"/>
<path d="M521.85 442.227L521.892 431.77C521.892 431.962 522.044 432.156 522.354 432.321L522.312 442.777C522.003 442.614 521.85 442.42 521.85 442.227Z" fill="#E8E8E8"/>
<path d="M604.111 432.32L604.069 442.777L595.343 447.403L595.386 436.946L604.111 432.32Z" fill="#E8E8E8"/>
<path d="M531.145 436.946L531.102 447.404L522.312 442.777L522.354 432.321L531.145 436.946Z" fill="#E8E8E8"/>
<path d="M583.985 442.415L583.942 452.872C583.952 450.7 581.915 448.524 577.84 446.867C569.74 443.575 556.645 443.575 548.598 446.867C544.602 448.502 542.602 450.642 542.593 452.787L542.635 442.33C542.644 440.186 544.644 438.046 548.641 436.411C556.688 433.117 569.782 433.117 577.882 436.411C581.958 438.067 583.994 440.242 583.985 442.415Z" fill="#E8E8E8"/>
<path d="M517.01 447.053L516.968 457.51C516.476 457.484 516.036 457.391 515.703 457.256C515.304 457.094 515.057 456.87 515.056 456.626L515.098 446.169C515.1 446.414 515.345 446.637 515.745 446.799C516.077 446.934 516.517 447.026 517.01 447.053Z" fill="#E8E8E8"/>
<path d="M609.682 447.053L609.64 457.51L595.434 458.256L595.477 447.798L609.682 447.053Z" fill="#E8E8E8"/>
<path d="M531.236 447.798L531.193 458.256L516.968 457.51L517.01 447.053L531.236 447.798Z" fill="#E8E8E8"/>
<path d="M522.019 463.424L522.062 452.967C522.06 453.199 522.278 453.427 522.706 453.601L522.663 464.058C522.236 463.884 522.019 463.654 522.019 463.424" fill="#E8E8E8"/>
<path d="M604.096 453.599L604.054 464.056L597.489 466.742L597.531 456.286L604.096 453.599Z" fill="#E8E8E8"/>
<path d="M529.308 456.286L529.267 466.742L522.663 464.058L522.706 453.601L529.308 456.286Z" fill="#E8E8E8"/>
<path d="M597.531 456.286L597.489 466.742L590.928 469.426L590.971 458.97L597.531 456.286Z" fill="#E8E8E8"/>
<path d="M588.092 459.043L588.05 469.501L576.677 465.93L576.72 455.473L588.092 459.043Z" fill="#E8E8E8"/>
<path d="M535.913 458.97L535.87 469.426L529.267 466.742L529.308 456.286L535.913 458.97Z" fill="#E8E8E8"/>
<path d="M550.111 455.472L550.068 465.928L538.754 469.503L538.796 459.045L550.111 455.472Z" fill="#E8E8E8"/>
<path d="M590.971 458.97L590.928 469.426C590.154 469.743 588.925 469.775 588.05 469.501L588.092 459.043C588.968 459.319 590.197 459.287 590.971 458.97" fill="#E8E8E8"/>
<path d="M538.796 459.045L538.753 469.503C537.887 469.775 536.651 469.743 535.87 469.426L535.913 458.97C536.691 459.288 537.929 459.319 538.796 459.045" fill="#E8E8E8"/>
<path d="M576.72 455.473L576.678 465.93L574.893 471.728L574.935 461.271L576.72 455.473Z" fill="#E8E8E8"/>
<path d="M551.985 461.271L551.944 471.728L550.068 465.928L550.111 455.472L551.985 461.271" fill="#E8E8E8"/>
<path d="M574.935 461.271L574.893 471.728C574.756 472.173 573.832 472.503 572.734 472.504L572.776 462.046C573.873 462.046 574.799 461.716 574.935 461.271Z" fill="#E8E8E8"/>
<path d="M572.776 462.046L572.734 472.504L563.424 472.505L563.466 462.047L572.776 462.046" fill="#E8E8E8"/>
<path d="M563.466 462.047L563.424 472.505H554.118L554.159 462.047H563.466Z" fill="#E8E8E8"/>
<path d="M554.159 462.047L554.118 472.505C553.519 472.505 552.969 472.406 552.571 472.244C552.238 472.108 552.009 471.929 551.944 471.728L551.985 461.271C552.051 461.471 552.28 461.65 552.613 461.786C553.012 461.949 553.56 462.047 554.159 462.047Z" fill="#E8E8E8"/>
<path d="M548.74 448.335C556.839 451.627 569.93 451.629 577.978 448.336C586.024 445.043 585.982 439.703 577.882 436.41C569.783 433.117 556.688 433.117 548.641 436.41C540.593 439.704 540.64 445.042 548.74 448.335ZM604.267 452.425C604.943 452.781 604.869 453.283 604.096 453.599L597.531 456.286L590.971 458.97C590.197 459.286 588.968 459.318 588.092 459.043L576.72 455.473L574.935 461.271C574.799 461.715 573.873 462.046 572.776 462.046L563.466 462.047H554.159C553.561 462.047 553.012 461.949 552.614 461.786C552.28 461.65 552.052 461.471 551.985 461.271L550.111 455.472L538.796 459.045C537.929 459.318 536.692 459.287 535.913 458.97L529.309 456.286L522.706 453.6C521.927 453.285 521.845 452.78 522.515 452.427L531.236 447.798L517.011 447.053C516.517 447.026 516.077 446.934 515.745 446.799C515.345 446.637 515.1 446.414 515.099 446.168L515.068 442.374L515.041 438.576C515.038 438.129 515.847 437.75 516.936 437.694L531.145 436.946L522.354 432.32C521.679 431.964 521.753 431.463 522.527 431.146L529.087 428.462L535.651 425.775C536.425 425.459 537.654 425.427 538.529 425.701L549.902 429.272L551.683 423.476C551.82 423.031 552.747 422.698 553.845 422.698H563.151L572.463 422.697C573.06 422.697 573.608 422.796 574.005 422.957C574.34 423.093 574.567 423.273 574.632 423.476L576.511 429.273L587.83 425.701C588.694 425.427 589.927 425.46 590.706 425.777L597.309 428.461L603.913 431.146C604.692 431.463 604.777 431.965 604.111 432.319L595.386 436.946L609.607 437.693C610.104 437.719 610.546 437.812 610.879 437.948C611.278 438.109 611.522 438.332 611.525 438.576L611.551 442.374L611.581 446.168C611.584 446.616 610.772 446.996 609.682 447.053L595.477 447.798L604.267 452.425" fill="#F4F4F4"/>
<path d="M686.773 374.068L652.111 311.039C651.079 309.167 649.272 307.706 647.458 306.969C645.646 306.232 643.832 306.221 642.788 307.25L607.732 341.937C605.646 343.993 608.223 348.677 612.362 350.36L682.091 378.706C686.232 380.389 688.837 377.812 686.773 374.068" fill="#E83F3F"/>
<path d="M695.683 370.423L661.021 307.393C659.989 305.522 658.18 304.06 656.368 303.324C654.982 302.76 653.592 302.621 652.55 303.048L643.64 306.693C644.684 306.266 646.072 306.405 647.458 306.969C649.271 307.706 651.079 309.167 652.111 311.039L686.773 374.068C688.071 376.423 687.521 378.316 685.905 378.978L694.815 375.332C696.432 374.671 696.982 372.778 695.683 370.423" fill="#C93737"/>
<path d="M644.294 357.107L644.311 353.109L650.087 355.457L650.07 359.454L644.294 357.107Z" fill="white"/>
<path d="M644.419 326.22L650.194 328.567L650.102 351.459L644.326 349.112L644.419 326.22Z" fill="white"/>
<path d="M1221.09 483.769L1220.92 527.732L1009.85 548.418L1010.02 504.455L1221.09 483.769Z" fill="#640E27"/>
<path d="M1067.34 544.747L1067.16 588.71L962.034 545.972L962.211 502.01L1067.34 544.747Z" fill="#640E27"/>
<path d="M1184.59 517.864L1184.41 561.827L1113.85 590.697L1114.03 546.734L1184.59 517.864Z" fill="#640E27"/>
<path d="M1113.89 563.667L1113.71 607.63L1093.02 599.221L1093.2 555.258L1113.89 563.667Z" fill="#640E27"/>
<path d="M1124.16 559.463L1123.98 603.426L1113.71 607.63L1113.89 563.667L1124.16 559.463Z" fill="#640E27"/>
<path d="M1045.97 574.583L1045.8 618.546L1019.94 608.034L1020.12 564.071L1045.97 574.583Z" fill="#640E27"/>
<path d="M1093.2 555.258L1093.02 599.221L1045.8 618.546L1045.97 574.583L1093.2 555.258Z" fill="#640E27"/>
<path d="M1221.09 483.769L1010.02 504.455L1088.17 536.223L1158.73 507.352L1184.59 517.864L1114.03 546.734L1124.16 559.463L1113.89 563.667L1093.2 555.258L1045.97 574.583L1020.12 564.071L1067.34 544.747L962.211 502.01L983.042 493.486L1193.98 472.746L1221.09 483.769Z" fill="#A4133D"/>
<path d="M688.424 525.387C665.794 534.587 628.986 534.54 606.214 525.284C583.441 516.025 583.326 501.064 605.957 491.864C628.588 482.664 665.394 482.711 688.167 491.968C710.94 501.226 711.055 516.187 688.424 525.387" fill="#ECD262"/>
<path d="M705.322 508.81H589.059V499.075H705.322V508.81Z" fill="#ECD262"/>
<path d="M688.424 515.266C665.794 524.466 628.986 524.419 606.214 515.161C583.441 505.905 583.326 490.941 605.957 481.742C628.588 472.542 665.394 472.589 688.167 481.847C710.94 491.104 711.055 506.067 688.424 515.266Z" fill="#FDE169"/>
<path d="M645.025 489.437V495.16L641.396 495.156L641.398 493.029L641.401 491.56L641.402 489.434L645.025 489.437" fill="white"/>
<path d="M649.232 505.303L646.029 506.597L644.656 506.039L646.258 505.391L643.055 504.091L641.454 504.736L635.681 502.391L637.281 501.743L634.08 500.442L632.478 501.088L627.212 498.948L630.416 497.654L649.232 505.303Z" fill="white"/>
<path d="M650.273 491.57L650.274 493.04L645.025 493.033L645.023 491.564L650.273 491.57Z" fill="white"/>
<path d="M655.43 499.39L660.679 499.397V500.867L655.43 500.86V499.39Z" fill="white"/>
<path d="M664.306 497.275L664.307 499.403L664.306 500.873V502.999L660.68 502.994L660.679 500.867V499.397V497.27L664.306 497.275Z" fill="white"/>
<path d="M636.152 491.554L641.401 491.56L641.399 493.029L636.148 493.022L636.152 491.554Z" fill="white"/>
<path d="M624.854 507.522C637.167 512.528 657.201 512.554 669.515 507.582C681.828 502.609 681.828 494.491 669.515 489.486C657.201 484.481 637.169 484.454 624.856 489.426C612.543 494.401 612.543 502.518 624.854 507.522V507.522ZM672.724 488.19C686.803 493.914 686.803 503.199 672.722 508.886C658.642 514.572 635.733 514.539 621.653 508.816C607.573 503.093 607.573 493.812 621.653 488.126C635.734 482.439 658.644 482.467 672.724 488.19" fill="white"/>
<path d="M646.258 505.392L644.656 506.039L642.085 507.077C638.728 508.433 633.266 508.425 629.907 507.061C626.55 505.696 626.55 503.482 629.907 502.127L632.478 501.088L634.08 500.442L637.281 501.743L635.681 502.391L633.11 503.428C631.519 504.071 631.519 505.121 633.11 505.768C634.701 506.414 637.292 506.418 638.884 505.776L641.454 504.737L643.055 504.091L646.258 505.392" fill="white"/>
<path d="M669.557 499.409V500.879L664.306 500.873L664.307 499.403L669.557 499.409" fill="white"/>
<path d="M1126.87 465.391C1128.58 466.086 1130.25 466.624 1131.87 467.012C1130.01 467.775 1128.15 468.536 1126.28 469.297C1124.67 468.91 1123 468.371 1121.29 467.677C1122.96 466.991 1125.2 466.077 1126.87 465.391Z" fill="#E83F3F"/>
<path d="M1102.14 435.229C1102.1 446.297 1113.19 459.829 1126.87 465.391L1121.29 467.677C1107.61 462.115 1096.51 448.584 1096.56 437.514C1096.58 432.015 1099.35 428.142 1103.8 426.318L1109.39 424.033C1104.93 425.856 1102.16 429.729 1102.14 435.229Z" fill="#E83F3F"/>
<path d="M1110.27 455.463L1115.86 453.177C1118.95 456.261 1122.77 458.899 1126.89 460.576L1121.31 462.861C1117.19 461.186 1113.37 458.546 1110.27 455.463" fill="white"/>
<path d="M1102.51 439.936L1108.1 437.65C1108.09 440.992 1109.41 444.621 1111.66 448.057L1106.07 450.343C1103.82 446.907 1102.5 443.279 1102.51 439.936" fill="white"/>
<path d="M1140.3 461.493L1134.72 463.778C1131.28 465.181 1126.54 464.987 1121.31 462.861L1126.89 460.576C1132.13 462.702 1136.87 462.895 1140.3 461.493Z" fill="white"/>
<path d="M1108.02 431.428L1113.61 429.143C1110.22 430.528 1108.12 433.472 1108.1 437.65L1102.51 439.936C1102.53 435.757 1104.63 432.813 1108.02 431.428Z" fill="white"/>
<path d="M1131.87 467.012C1136.75 468.187 1141.13 467.987 1144.52 466.598L1138.94 468.884C1135.54 470.272 1131.17 470.473 1126.28 469.297C1128.15 468.536 1130.01 467.775 1131.87 467.012" fill="#E83F3F"/>
<path d="M1108.02 431.428L1113.6 429.143C1117.04 427.739 1121.78 427.933 1127.02 430.061L1121.43 432.346C1116.2 430.219 1111.45 430.024 1108.02 431.428Z" fill="#E83F3F"/>
<path d="M1103.8 426.319L1109.39 424.033C1113.9 422.186 1120.15 422.441 1127.03 425.24L1121.45 427.526C1114.57 424.727 1108.32 424.471 1103.8 426.319" fill="white"/>
<path d="M1145.81 452.98C1145.79 457.161 1143.69 460.106 1140.3 461.493L1134.72 463.778C1138.1 462.392 1140.21 459.447 1140.23 455.266C1140.24 451.929 1138.91 448.296 1136.67 444.865L1142.25 442.58C1144.5 446.011 1145.82 449.643 1145.81 452.98Z" fill="#E83F3F"/>
<path d="M1110.27 455.463L1115.86 453.177L1142.25 442.58L1136.67 444.865L1110.27 455.463" fill="#E83F3F"/>
<path d="M1106.07 450.343L1111.66 448.057L1138.06 437.461L1132.48 439.748L1106.07 450.343" fill="white"/>
<path d="M1127.02 430.061C1131.14 431.737 1134.96 434.37 1138.06 437.461L1132.48 439.748C1129.37 436.656 1125.55 434.022 1121.43 432.346C1123.11 431.66 1125.34 430.746 1127.02 430.061Z" fill="#E83F3F"/>
<path d="M1144.52 466.598L1138.94 468.884C1143.39 467.06 1146.16 463.187 1146.18 457.689C1146.23 446.62 1135.13 433.087 1121.45 427.525L1127.03 425.24C1140.72 430.802 1151.81 444.334 1151.77 455.402C1151.75 460.901 1148.98 464.774 1144.52 466.598" fill="white"/>
<path d="M1121.31 462.861C1131.71 467.088 1140.19 463.68 1140.23 455.266C1140.24 451.929 1138.91 448.296 1136.67 444.865L1110.27 455.463C1113.37 458.546 1117.19 461.186 1121.31 462.861V462.861ZM1102.51 439.936C1102.5 443.279 1103.82 446.907 1106.07 450.343L1132.48 439.748C1129.37 436.656 1125.55 434.022 1121.43 432.346C1111.03 428.12 1102.55 431.524 1102.51 439.936ZM1121.45 427.526C1135.13 433.087 1146.23 446.62 1146.18 457.689C1146.14 468.756 1134.97 473.239 1121.29 467.677C1107.61 462.115 1096.51 448.584 1096.56 437.514C1096.6 426.445 1107.77 421.964 1121.45 427.526Z" fill="white"/>
<path d="M1110.27 455.463L1136.67 444.865C1138.91 448.296 1140.24 451.929 1140.23 455.266C1140.19 463.68 1131.71 467.088 1121.31 462.861C1117.19 461.185 1113.37 458.546 1110.27 455.463" fill="#E83F3F"/>
<path d="M1121.43 432.346C1125.55 434.022 1129.37 436.656 1132.48 439.748L1106.07 450.343C1103.82 446.907 1102.5 443.279 1102.51 439.936C1102.55 431.524 1111.03 428.12 1121.43 432.346Z" fill="#E83F3F"/>
<path d="M1121.29 467.677C1134.97 473.239 1146.14 468.756 1146.18 457.689C1146.23 446.62 1135.13 433.087 1121.45 427.526C1107.77 421.964 1096.6 426.445 1096.56 437.514C1096.51 448.584 1107.61 462.115 1121.29 467.677ZM1153.49 430.171C1156.6 431.433 1159.1 434.493 1159.1 437.006L1158.89 488.784C1158.88 491.295 1156.35 492.31 1153.24 491.047L1089.25 465.031C1086.14 463.769 1083.63 460.71 1083.64 458.196L1083.85 406.418C1083.86 403.906 1086.39 402.893 1089.49 404.155L1153.49 430.171Z" fill="#E83F3F"/>
<path d="M1159.08 427.885L1095.08 401.869C1093.51 401.235 1092.1 401.175 1091.08 401.593L1085.49 403.879C1086.51 403.461 1087.93 403.52 1089.49 404.154L1153.49 430.171C1156.6 431.433 1159.1 434.493 1159.1 437.006L1158.89 488.783C1158.88 490.032 1158.26 490.91 1157.25 491.323L1162.83 489.037C1163.84 488.625 1164.47 487.746 1164.47 486.498L1164.68 434.72C1164.69 432.207 1162.18 429.148 1159.08 427.885Z" fill="#C93737"/>
<defs>
<filter id="filter0_d_101_144" x="303.5" y="103.831" width="1078.35" height="1235.34" filterUnits="userSpaceOnUse" color-interpolation-filters="sRGB">
<feFlood flood-opacity="0" result="BackgroundImageFix"/>
<feColorMatrix in="SourceAlpha" type="matrix" values="0 0 0 0 0 0 0 0 0 0 0 0 0 0 0 0 0 0 127 0" result="hardAlpha"/>
<feOffset dx="5" dy="5"/>
<feGaussianBlur stdDeviation="25"/>
<feColorMatrix type="matrix" values="0 0 0 0 0.708333 0 0 0 0 0.693198 0 0 0 0 0.560764 0 0 0 1 0"/>
<feBlend mode="normal" in2="BackgroundImageFix" result="effect1_dropShadow_101_144"/>
<feBlend mode="normal" in="SourceGraphic" in2="effect1_dropShadow_101_144" result="shape"/>
</filter>
</defs>
</svg>
