<svg width="29" height="29" viewBox="0 0 29 29" fill="none" xmlns="http://www.w3.org/2000/svg">
<path d="M22.9585 13.2917H8.62766L13.0139 8.02334C13.219 7.77658 13.3177 7.45845 13.2882 7.13893C13.2588 6.81942 13.1036 6.52469 12.8568 6.31959C12.6101 6.11449 12.2919 6.01582 11.9724 6.04527C11.6529 6.07473 11.3582 6.22991 11.1531 6.47667L5.11141 13.7267C5.07077 13.7843 5.03442 13.8449 5.00266 13.9079C5.00266 13.9683 5.00266 14.0046 4.91808 14.065C4.86331 14.2036 4.83463 14.351 4.8335 14.5C4.83463 14.649 4.86331 14.7965 4.91808 14.935C4.91808 14.9954 4.91808 15.0317 5.00266 15.0921C5.03442 15.1551 5.07077 15.2157 5.11141 15.2733L11.1531 22.5233C11.2667 22.6597 11.409 22.7694 11.5698 22.8446C11.7306 22.9198 11.906 22.9586 12.0835 22.9583C12.3658 22.9589 12.6394 22.8606 12.8568 22.6804C12.9792 22.579 13.0803 22.4544 13.1545 22.3138C13.2286 22.1732 13.2743 22.0194 13.2889 21.8611C13.3034 21.7029 13.2867 21.5433 13.2395 21.3915C13.1923 21.2397 13.1157 21.0988 13.0139 20.9767L8.62766 15.7083H22.9585C23.279 15.7083 23.5863 15.581 23.8129 15.3544C24.0395 15.1278 24.1668 14.8205 24.1668 14.5C24.1668 14.1795 24.0395 13.8722 23.8129 13.6456C23.5863 13.419 23.279 13.2917 22.9585 13.2917Z" fill="#272833"/>
</svg>
