<svg width="1440" height="376" viewBox="0 0 1440 376" fill="none" xmlns="http://www.w3.org/2000/svg">
<g clip-path="url(#clip0_184_4800)">
<g opacity="0.12">
<path fill-rule="evenodd" clip-rule="evenodd" d="M412.464 111.841C412.364 89.2261 372.473 63.7953 355.433 50.6842C321.741 24.7522 286.7 0.805304 251.983 -23.5241C217.266 -47.8535 182.456 -72.1169 149.351 -98.8271C127.856 -116.166 102.6 -135.694 88.0217 -160.452C56.9666 -213.213 154.881 -205.378 180.244 -206.532C244.766 -209.48 318.773 -208.135 379.253 -235.61C415.357 -252.012 429.753 -279.52 421.999 -319.612C419.499 -332.65 412.101 -347.654 418.368 -360.357C425.061 -373.923 440.457 -381.751 453.235 -387.001C499.843 -406.127 553.43 -408.343 602.743 -410.743C655.918 -413.381 709.593 -412.61 762.393 -412.814C784.782 -412.9 808.164 -421.388 829.484 -428.286C857.433 -437.328 885.052 -447.485 912.77 -457.305C973.749 -478.858 1036.58 -501.558 1101.1 -507.032C1141.5 -510.461 1185.66 -505.825 1217.05 -475.995C1232.81 -461.018 1241.05 -438.753 1250.17 -418.974C1261.19 -395.08 1271.79 -370.955 1283.53 -347.437C1321.35 -271.692 1375.35 -197.675 1463 -193.955C1476.26 -193.395 1489.28 -195.221 1502.47 -195.564C1510.88 -195.775 1518.36 -193.632 1521.48 -184.353C1529.34 -161.078 1504.65 -124.337 1494.53 -105.871C1472.36 -65.4492 1447.37 -26.8414 1423.96 12.7689C1408.47 38.9647 1381.65 74.763 1381.37 106.591C1381.12 134.95 1416.86 155.448 1436.32 169.416C1454.55 182.494 1487.59 200.796 1489.59 227.4C1490.56 240.3 1482.5 250.991 1474.08 259.288C1459.33 273.797 1442.33 284.033 1429.06 300.586C1407.3 327.745 1389.11 365.113 1392.07 401.709C1394.12 427.068 1407.83 443.674 1425.27 459.548C1432.6 466.223 1438.55 470.945 1438.93 481.781C1439.56 498.987 1433.17 517.196 1427.91 533.15C1409.09 590.244 1382.36 645.452 1352.62 696.999C1337.76 722.76 1321.71 748.441 1302.01 770.416C1289.11 784.846 1271.7 802.02 1252.02 802C1229.23 802 1205.12 793.321 1182.97 786.831C1141.6 774.703 1100.73 760.682 1060.02 746.298C965.872 713.019 872.613 677.044 780.239 638.375C715.173 611.091 648.726 583.768 587.553 547.494C575.623 540.371 564.363 532.066 553.924 522.69C542.77 512.844 528.93 508.438 514.896 505.154C427.791 484.768 332.364 500.418 244.897 510.232C222.696 512.718 200.495 515.218 178.232 516.959C159.092 518.456 136.179 522.749 117.577 516.299C80.9234 503.604 112.966 456.811 126.513 437.745C174.208 370.613 235.743 313.816 292.779 255.832C319.898 228.218 347.223 200.677 372.867 171.5C386.22 156.331 412.551 131.666 412.464 111.841Z" stroke="#F7F3D0"/>
<path fill-rule="evenodd" clip-rule="evenodd" d="M428.664 108.144C414.04 84.2243 388.381 66.545 367.082 49.9067C336.432 25.9543 304.819 3.3329 273.681 -19.9409C244.238 -41.9494 214.732 -64.2084 187.466 -89.202C170.84 -104.443 149.979 -122.67 142.103 -145.212C125.021 -194.072 216.921 -186.659 239.609 -187.938C296.011 -191.1 359.958 -191.825 412.138 -217.55C444.721 -233.615 458.107 -260.256 451.158 -297.242C448.756 -310.039 444.427 -320.964 449.907 -333.695C456.243 -348.429 470.818 -357.615 484.179 -364.099C526.032 -384.414 575.504 -388.73 620.872 -392.321C667.742 -396.031 716.576 -398.647 761.939 -395.932C780.078 -394.851 800.958 -400.986 818.91 -405.691C846.533 -412.939 873.874 -421.301 901.36 -429.077C957.218 -444.891 1014.53 -460.126 1072.64 -461.859C1114.59 -463.111 1158.33 -456.324 1193.24 -430.091C1228.61 -403.49 1244.3 -362.253 1263.92 -323.053C1297.8 -255.281 1343.55 -172.881 1421.93 -158.562C1433.82 -156.388 1445.24 -157.567 1457.11 -157.033C1463.22 -156.763 1470.17 -155.906 1473.26 -149.561C1481.3 -133.087 1459.27 -102.967 1451.86 -90.3486C1431.38 -55.4775 1408.36 -22.313 1386.9 11.8859C1369.85 39.0408 1348.25 69.2137 1341.65 101.403C1333.65 140.465 1385.93 168.259 1404.31 195.763C1436.18 243.457 1375.8 270.632 1346.03 293.372C1311.85 319.479 1283.63 367.107 1314.27 407.5C1326 422.946 1340.42 432.151 1345.66 452.308C1353.84 483.832 1347.65 519.856 1341.01 551.017C1331 597.861 1315.16 644.198 1293.63 686.535C1278.21 716.846 1252.62 764.375 1215.14 760.81C1189.92 758.432 1164.27 749.74 1139.71 742.057C1102.93 730.559 1066.61 717.452 1030.48 703.839C947.097 672.499 864.629 637.945 783.782 599.937C728.617 573.994 574.741 467.978 563.163 464.195C528.64 452.927 489.389 454.911 453.797 456.657C406.452 458.977 359.345 464.986 312.275 470.554C289.869 473.19 267.35 476.412 244.826 477.71C228.794 478.633 207.739 479.423 193.696 469.599C166.286 450.43 196.823 406.571 209.453 388.015C248.141 331.129 297.081 281.867 342.969 231.497C365.487 206.767 388.35 182.077 408.792 155.363C417.036 144.577 437.703 122.917 428.664 108.144Z" stroke="#F7F3D0"/>
<path fill-rule="evenodd" clip-rule="evenodd" d="M449.328 95.5897C409.428 47.7304 354.357 12.1359 306.828 -27.8347C282.972 -47.9024 258.967 -68.517 238.392 -92.4203C227.689 -104.85 214.325 -120.568 212.263 -137.894C206.752 -184.244 289.502 -177.976 314.269 -179.736C362.155 -183.15 416.251 -185.74 459.694 -209.393C486.235 -223.852 499.307 -247.584 494.346 -278.776C492.146 -292.616 488.722 -304.373 494.346 -317.962C500.044 -331.73 511.915 -341.444 523.937 -348.726C558.482 -369.67 601.413 -376.366 640.307 -381.355C685.935 -387.166 731.905 -389.435 777.847 -388.143C818.084 -387.029 858.129 -399.558 897.417 -407.816C949.463 -418.749 1002.45 -428.298 1055.71 -426.855C1097.77 -425.708 1140.17 -416.699 1176.13 -392.757C1212.66 -368.372 1234.63 -331.875 1254.44 -292.491C1284.38 -232.953 1321.69 -153.17 1387.38 -130.559C1396.93 -127.264 1405.84 -126.901 1415.69 -126.328C1420.48 -126.051 1426.66 -125.965 1429.03 -120.7C1434.74 -108.02 1413.63 -83.4376 1407.74 -74.8701C1388.93 -47.5201 1368.54 -21.4025 1349.27 5.58507C1331.27 30.78 1311.67 57.0361 1300.49 86.5609C1282.71 133.583 1339.58 161.078 1337.98 205.886C1336.99 233.704 1311.74 253.653 1291.75 267.453C1267.13 284.424 1231.68 295.581 1219.36 326.549C1210.18 349.615 1224.59 363.04 1235.68 380.544C1254.47 410.201 1255.75 450.402 1253.8 484.731C1251.16 531.121 1240.86 578.196 1223.32 620.835C1215.37 640.165 1205.64 660.272 1191.3 675.285C1177.87 689.355 1165.17 692.96 1147.22 690.08C1092.29 681.249 1036.82 656.634 984.146 634.649C917.96 607.022 852.686 576.522 789.362 542.206C746.181 518.803 702.026 494.043 664.125 461.711C654.247 453.282 644.131 444.121 636.908 433.003C631.448 424.647 629.129 417.747 619.926 412.975C592.647 398.839 554.702 402.536 525.474 404.006C478.738 406.345 432.227 412.573 385.779 418.182C358.674 421.477 307.615 431.843 285.971 406.978C267.29 385.507 289.833 348.897 301.348 329.983C330.477 282.15 367.947 240.169 402.711 196.943C418.644 177.132 435.201 157.17 448.36 135.145C451.721 129.53 457.107 122.09 458.032 115.269C459.069 107.452 454.226 101.488 449.328 95.5897Z" stroke="#F7F3D0"/>
<path fill-rule="evenodd" clip-rule="evenodd" d="M452.453 107.226C415.568 64.8998 371.131 30.1269 331.533 -9.48155C313.778 -27.2407 295.848 -45.8707 282.32 -67.5353C275.043 -79.1856 267.316 -93.8508 269.322 -108.331C275.08 -149.892 343.168 -146.139 370.675 -148.573C411.549 -152.149 458.505 -155.751 494.646 -178.161C518.321 -192.839 527.198 -214.517 522.779 -242.475C518.034 -272.465 528.643 -294.235 552.787 -310.965C583.057 -331.924 621.268 -340.467 656.415 -346.536C698.76 -353.814 741.642 -357.039 784.537 -356.174C826.254 -355.33 866.672 -362.705 908.114 -367.501C963.06 -373.854 1019.77 -376.988 1074.1 -363.965C1121.4 -352.625 1164.12 -327.636 1196.15 -288.99C1229.6 -248.656 1246.16 -197.839 1273.33 -153.217C1290.27 -125.384 1313.89 -88.5665 1345.55 -77.7474C1356.11 -74.1389 1375.35 -79.0074 1366.92 -61.2549C1362.1 -51.1021 1353.08 -42.1961 1345.95 -33.8971C1334.44 -20.4854 1322.54 -7.44307 1310.83 5.78395C1285.87 33.9796 1259.15 62.7756 1240.44 96.163C1216.87 138.199 1251.91 170.551 1247.64 213.174C1245.34 236.112 1230.23 254.419 1214.23 268.8C1203.89 278.115 1192.57 286.183 1181.01 293.711C1168.93 301.574 1154.65 307.564 1144.12 317.73C1129.12 332.198 1135.63 349.323 1138.45 368.026C1143.4 400.894 1144.48 434.281 1141.68 467.43C1138.26 508.061 1130.22 549.853 1113.3 586.776C1106.72 601.151 1098.38 616.39 1085.99 626.029C1073.61 635.667 1060.8 635.007 1046.61 632.104C1004.52 623.528 962.51 603.572 922.581 584.659C872.605 560.982 823.61 534.521 776.822 504.419C744.526 483.639 712.124 461.189 685.104 433.013C677.245 424.813 669.768 416.032 663.723 406.229C659.572 399.507 657.346 390.832 651.332 385.779C632.515 370.005 594.736 374.715 572.667 375.632C528.624 377.46 485.275 386.148 441.288 388.259C417.281 389.413 379.684 392.316 362.054 370.751C345.474 350.478 360.491 318.548 370.4 299.015C389.874 260.607 416.037 226.388 439.487 190.685C449.127 175.994 459.693 160.622 465.938 143.846C471.49 128.897 461.906 118.078 452.453 107.226Z" stroke="#F7F3D0"/>
<path fill-rule="evenodd" clip-rule="evenodd" d="M461.523 107.527C432.139 70.2611 396.717 37.181 367.121 -0.690769C349.797 -22.8694 319.963 -60.1546 333.361 -91.4222C348.059 -125.781 399.292 -126.717 428.907 -129.485C464.155 -132.781 505.548 -137.282 535.713 -158.736C545.254 -165.518 553.381 -174.495 556.826 -186.319C560.514 -198.974 556.482 -210.047 555.957 -222.714C554.856 -249.289 569.898 -270.624 589.804 -285.276C617.937 -305.992 653.116 -315.786 686.345 -322.614C723.991 -330.316 762.261 -334.113 800.609 -333.951C837.257 -333.819 873.518 -334.675 910.204 -335.664C958.18 -336.982 1006.83 -334.853 1053.37 -321.414C1099.22 -308.167 1140.9 -283.338 1173.64 -246.818C1205.58 -211.18 1227.13 -167.621 1246 -123.25C1256.71 -98.066 1274.8 -60.4315 1300.35 -47.7109C1311.71 -42.0492 1322.86 -42.4381 1310.78 -27.7138C1295.57 -9.17339 1275.07 5.70246 1257.45 21.5604C1232.04 44.4442 1205.98 67.7763 1184.65 94.9839C1171.03 112.358 1164.96 129.217 1165.9 151.712C1166.62 168.849 1169.91 185.808 1168.25 203.01C1164.35 243.386 1134.2 271.075 1107.54 296.859C1090.39 313.442 1074.73 326.09 1065.91 349.679C1055.46 377.559 1051.08 407.891 1044.11 436.838C1036.44 468.627 1027.59 501.693 1010.86 529.692C995.966 554.619 977.855 565.797 950.747 559.081C908.466 548.615 866.791 522.831 829.255 498.978C791.05 474.71 753.502 447.423 721.843 414.066C704.75 396.053 693.084 374.903 677.905 355.552C658.812 331.257 615.618 340.458 589.948 342.515C547.335 345.929 413.253 371.475 425.625 288.732C430.789 254.196 451.126 222.322 465.999 191.845C472.164 179.197 481.085 164.018 482.479 149.524C483.998 133.739 470.357 118.744 461.523 107.527Z" stroke="#F7F3D0"/>
<path fill-rule="evenodd" clip-rule="evenodd" d="M476.914 110.305C454.469 76.5472 427.607 44.6553 408.348 8.19512C395.854 -15.4173 383.585 -46.9665 399.702 -71.95C417.893 -100.144 458.005 -106.716 487.478 -110.309C517.844 -114.007 554.095 -117.118 578.914 -138.496C586.81 -145.305 593.319 -154.488 594.531 -165.483C595.699 -176.031 592.401 -186.578 593.494 -197.316C595.943 -221.429 609.805 -241.298 627.677 -255.708C680.545 -298.338 759.231 -307.817 823.019 -308.931C854.947 -309.485 887.806 -306.578 919.94 -304.495C961.638 -301.792 1003.4 -295.991 1043.17 -282.01C1127.72 -252.293 1184.39 -186.387 1223.97 -104.376C1236.43 -78.5617 1245.96 -50.6316 1265.48 -29.8867C1275.55 -19.1748 1273.35 -11.4819 1263.06 -1.71264C1246.97 13.5544 1227.35 25.2222 1209.5 37.9644C1184.1 56.0857 1158.17 74.4773 1135.71 96.1847C1120.23 111.148 1109.24 125.565 1105.9 148.004C1103.52 164.003 1104.08 180.305 1102.65 196.402C1099.93 226.982 1090.6 257.332 1074.09 282.698C1060.97 302.803 1045.35 321.076 1029.21 338.499C1008.23 361.182 990.48 384.227 974.544 411.149C953.417 446.785 923.732 512.52 873.969 495.124C819.083 475.928 767.64 427.154 732.426 379.896C720.6 364.029 710.893 344.57 694.944 332.869C671.069 315.381 646.843 315.994 618.444 316.066C575.928 316.165 483.411 325.901 482.412 258.716C482.018 232.098 492.938 206.93 498.166 181.326C504.063 152.651 492.244 133.311 476.914 110.305Z" stroke="#F7F3D0"/>
<path fill-rule="evenodd" clip-rule="evenodd" d="M493.901 113.601C471.702 69.6363 421.922 -2.60619 459.783 -51.4941C479.783 -77.3302 515.156 -87.0394 544.83 -92.8253C568.711 -97.5055 597.51 -99.263 615.553 -119.102C628.815 -133.689 622.928 -154.918 628.009 -173.177C634.315 -195.814 648.79 -214.337 666.577 -228.259C716.281 -267.168 785.391 -279.109 845.183 -281.65C907.281 -284.283 975.704 -271.967 1034.14 -248.277C1107 -218.728 1161.59 -162.777 1199.76 -91.9235C1206.8 -78.8442 1213.2 -65.4226 1219.96 -52.1853C1224.51 -43.3055 1231.25 -34.7154 1234.83 -25.3749C1240.79 -9.80081 1233.76 2.92968 1222.5 13.0798C1206.3 27.6929 1186.4 38.0931 1167.94 49.0595C1142.68 64.0675 1116.86 78.8056 1093.37 96.4137C1077.58 108.262 1061.06 121.026 1055.41 141.583C1051.55 155.603 1050.75 170.453 1050.89 184.974C1051.19 216.109 1049.64 241.287 1035.85 269.802C1013.17 316.617 978.279 358.712 941.424 393.737C912.5 421.225 866.732 463.926 824.59 445.547C786.779 429.091 764.661 389.702 739.749 357.856C727.637 342.374 714.031 328.235 698.044 317.222C677.889 303.34 658.914 297.514 635.034 295.243C594.841 291.419 534.237 290.425 521.813 239.608C517.225 220.855 519.844 201.43 517.438 182.433C514.294 157.315 505.101 135.777 493.901 113.601Z" stroke="#F7F3D0"/>
<path fill-rule="evenodd" clip-rule="evenodd" d="M517.024 115.181C501.23 67.0045 480.482 6.28837 518.627 -36.5297C537.104 -57.2722 563.094 -68.8677 588.248 -77.533C606.263 -83.7432 634.867 -85.5712 645.912 -104.664C654.025 -118.714 655.148 -138.097 662.486 -153.151C672.57 -173.847 687.846 -190.894 705.767 -204.238C752.456 -239.012 813.265 -252.448 868.721 -256.296C989.217 -264.644 1111.82 -198.154 1176.3 -88.7588C1195.53 -56.1503 1220.34 -21.4431 1189.27 11.8716C1155.35 48.2155 1104.25 65.2424 1063.77 91.0666C1048.3 100.926 1028.59 112.779 1019.96 130.631C1014.76 141.362 1014.41 154.825 1014.17 166.638C1013.55 196.726 1011.18 223.784 999.731 251.859C982.047 295.245 953.848 335.271 921.892 368.058C894.024 396.647 854.281 430.246 813.808 409.635C782.776 393.796 763.095 360.178 738.983 335.396C712.151 307.797 678.966 289.199 642.524 280.112C607.074 271.295 568.192 265.348 549.509 227.889C543.101 215.04 536.405 198.402 534.003 184.18C530.124 160.731 524.446 137.655 517.024 115.181Z" stroke="#F7F3D0"/>
<path fill-rule="evenodd" clip-rule="evenodd" d="M543.098 115.949C535.788 67.2909 534.976 16.5545 568.937 -21.7949C584.787 -39.686 604.822 -52.3965 625.083 -63.9126C639.989 -72.3862 655.383 -79.5334 666.516 -93.4253C676.831 -106.288 684.671 -121.222 694.63 -134.421C707.766 -151.912 723.484 -167.054 741.179 -179.264C785.536 -209.813 839.495 -224.101 891.118 -229.057C916.108 -231.466 943.216 -232.72 968.037 -226.153C992.008 -219.818 1015.71 -209.8 1037.75 -198.119C1084.61 -173.311 1125.22 -136.982 1154.65 -91.0495C1174.84 -59.5437 1185.75 -28.9091 1159.61 3.052C1130.15 39.0784 1083.94 58.9559 1045.85 82.3377C1019.73 98.3743 990.459 114.094 985.58 148.174C981.694 175.291 978.539 201.029 968.486 226.661C953.526 264.469 931.529 298.718 903.8 327.375C878.442 353.482 846.361 375.637 810.089 361.692C781.35 350.625 759.053 325.831 733.945 308.105C705.962 288.306 675.219 277.391 642.844 268.614C613.75 260.694 586.355 248.525 567.55 222.688C563.702 217.408 559.66 211.66 556.692 205.754C552.906 198.217 553.2 190.747 552.456 182.299C550.52 160.007 546.403 137.971 543.098 115.949Z" stroke="#F7F3D0"/>
<path fill-rule="evenodd" clip-rule="evenodd" d="M571.061 111.82C571.685 65.5902 582.209 21.8988 611.033 -14.1293C623.356 -29.5416 638.07 -42.2364 651.63 -56.3594C662.547 -67.745 672.865 -78.3241 685.418 -87.7063C715.198 -109.922 739.399 -138.671 771.046 -158.453C813.291 -184.901 861.683 -199.52 909.699 -205.365C933.145 -208.221 957.366 -209.219 981.087 -205.993C1001.46 -203.222 1020.97 -193.496 1039.07 -183.546C1074.55 -164.054 1108.99 -136.35 1132.02 -101.3C1182.81 -24.0273 1082.68 32.1539 1031.3 65.0546C1007.66 80.1892 971.549 97.7173 961.869 127.696C954.949 149.111 950.733 170.891 941.82 191.646C917.881 247.384 869.284 312.941 804.523 304.213C776.811 300.484 751.553 285.336 725.684 275.167C699.046 264.694 671.553 258.855 643.866 252.449C617.991 246.465 597.367 237.949 580.654 215.118C572.666 204.215 573.372 191.163 572.66 177.787C571.498 155.816 570.78 133.719 571.061 111.82Z" stroke="#F7F3D0"/>
<path fill-rule="evenodd" clip-rule="evenodd" d="M596.462 105.824C606.886 36.0502 645.6 -40.1229 702.526 -80.6438C769.487 -128.31 842.029 -168.448 922.033 -179.987C959.125 -185.337 999.756 -187.97 1034.76 -170.473C1061.39 -157.167 1092.33 -137.276 1106.99 -109.303C1142.86 -40.8816 1063.08 13.5862 1017.64 45.2403C993.166 62.2813 962.019 78.8868 943.577 103.772C932.877 118.2 927.414 137.287 918.775 153.133C892.596 201.155 849.503 239.889 795.823 246.816C771.003 250.015 746.001 246.057 721.369 242.91C696.155 239.691 670.627 237.942 645.569 233.45C625.567 229.861 601.993 223.784 594.626 201.215C585.336 172.774 592.208 134.318 596.462 105.824Z" stroke="#F7F3D0"/>
<path fill-rule="evenodd" clip-rule="evenodd" d="M622.631 94.7116C637.8 29.1291 669.922 -34.8426 723.921 -73.994C752.557 -94.7546 785.799 -109.086 817.714 -123.245C853.891 -139.293 891.688 -151.749 930.293 -157.928C978.36 -165.625 1056.21 -172.562 1081.32 -114.703C1106.25 -57.2733 1043.26 -6.44442 1006.01 22.5214C982.134 41.0773 956.576 58.1082 933.76 78.3935C921.388 89.3911 911.858 102.098 901.388 114.997C872.452 150.736 831.2 179.028 789.153 194.132C748.402 208.773 697.988 215.255 654.972 210.417C636.411 208.337 623.144 201.32 617.531 181.372C609.752 153.64 616.36 121.803 622.631 94.7116Z" stroke="#F7F3D0"/>
<path fill-rule="evenodd" clip-rule="evenodd" d="M647.788 76.8C662.832 19.1144 695.282 -33.5736 742.614 -68.1954C795.671 -107.007 863.991 -128.573 926.785 -139.541C960.163 -145.366 1032.49 -161.16 1049.51 -115.958C1066.52 -70.7566 1017.34 -26.2118 989.031 -1.69023C954.675 28.026 917.634 56.7177 880.637 83.3802C848.492 106.562 814.192 130.263 779.375 148.165C759.738 158.321 739.283 166.613 718.251 172.943C702.677 177.592 682.873 184.527 666.545 181.066C625.361 172.325 640.593 104.382 647.788 76.8Z" stroke="#F7F3D0"/>
<path fill-rule="evenodd" clip-rule="evenodd" d="M678.327 59.8003C711.422 -49.2235 816.277 -102.843 917.235 -121.533C940.695 -125.871 1006.46 -141.513 1019.57 -108.209C1032.28 -75.9182 991.867 -37.624 972.947 -19.4808C914.319 36.7395 841.885 78.4241 773.247 119.72C751.823 132.61 713.183 160.582 686.607 147.679C657.752 133.644 671.471 82.4069 678.327 59.8003Z" stroke="#F7F3D0"/>
<path fill-rule="evenodd" clip-rule="evenodd" d="M711.959 38.8162C740.782 -41.4718 824.617 -87.52 901.695 -102.7C920.573 -106.415 968.52 -117.979 982.819 -95.5745C996.051 -74.8488 964.473 -44.8174 952.659 -32.8838C926.358 -6.30997 895.188 15.5814 864.395 36.6231C835.923 56.0909 807.143 76.0459 777.185 92.5105C761.405 101.178 731.81 119.671 713.879 106.288C694.573 91.8915 705.559 56.6441 711.959 38.8162Z" stroke="#F7F3D0"/>
<path fill-rule="evenodd" clip-rule="evenodd" d="M749.381 14.8934C771.295 -37.6065 829.988 -71.6982 881.762 -83.0269C895.693 -86.0685 925.804 -93.9597 937.556 -79.939C948.375 -67.0268 930.938 -48.0973 923.199 -39.355C888.9 -0.605179 838.672 34.0077 792.652 55.2663C781.082 60.6107 760.282 71.1014 748.379 60.3138C736.17 49.2358 744.347 26.9479 749.381 14.8934Z" stroke="#F7F3D0"/>
<path fill-rule="evenodd" clip-rule="evenodd" d="M789.451 -6.73853C801.739 -32.641 833.856 -52.1836 860.459 -58.4044C879.182 -62.7789 901.688 -59.0001 885.371 -36.4529C869.161 -14.0778 839.084 6.35831 813.592 15.4182C794.143 22.3273 778.899 15.5108 789.451 -6.73853Z" stroke="#F7F3D0"/>
<path fill-rule="evenodd" clip-rule="evenodd" d="M-212.537 173.28C-213.33 121.816 -239.259 68.3299 -226.453 15.8909C-215.938 -27.1772 -163.001 -30.7729 -131.244 -50.2852C-106.008 -65.7871 -91.6859 -93.2479 -78.0382 -119.596C-65.7758 -143.25 -54.7615 -167.616 -41.8439 -190.882C-33.4817 -205.923 -19.1226 -235.458 -0.988002 -235.992C16.3728 -236.505 32.292 -213.489 42.3765 -199.884C55.525 -182.15 67.1821 -163.243 79.9499 -145.226C101.467 -114.835 127.283 -92.3391 156.844 -71.0487C190.484 -46.8235 224.679 -23.4258 259.43 -0.855678C285.015 15.8118 310.776 32.3541 335.369 50.668C350.795 62.1594 384.843 83.7198 385 104.905C385.074 115.013 375.994 126.208 369.872 134.289C359.513 147.966 347.706 160.472 335.862 172.707C313.802 195.499 290.807 217.257 268.06 239.278C238.537 267.859 210.337 295.972 184.383 328.418C157.549 362.003 131.914 396.694 105.754 430.912C88.0375 454.092 70.3397 480.124 44.7853 494.348C12.7783 512.129 -13.4938 493.38 -45.8627 493.163C-73.7073 492.972 -71.6542 424.906 -75.1925 405.98C-78.7433 386.823 -86.5688 368.99 -89.6016 349.787C-93.3833 325.816 -93.4332 301.293 -94.363 277.065C-95.4926 247.431 -95.9419 219.22 -125.964 207.919C-143.051 201.498 -161.535 200.148 -179.22 196.303C-190.677 193.807 -212.288 189.54 -212.537 173.28Z" stroke="#F7F3D0"/>
<path fill-rule="evenodd" clip-rule="evenodd" d="M-199.226 164.565C-202.144 121.397 -219.386 66.1456 -203.082 21.5852C-189.152 -16.4943 -145.589 -21.4308 -116.255 -41.4341C-92.0397 -57.9331 -81.2598 -84.932 -69.1551 -111.456C-59.4439 -132.733 -50.0263 -154.214 -39.0027 -174.812C-30.8787 -189.991 -18.4741 -215.617 -1.58245 -218.758C13.6031 -221.583 29.8885 -198.96 38.4124 -187.45C50.8484 -170.647 61.4845 -152.399 72.4706 -134.534C91.7744 -103.153 111.541 -74.9336 139.793 -51.8813C168.171 -28.7299 199.217 -11.4192 230.594 6.59763C255.141 20.6943 279.563 35.2002 302.885 51.4747C320.258 63.5916 345.236 79.1006 353.185 100.708C359.478 117.801 327.563 146.166 318.152 156.177C298.779 176.761 278.251 196.085 257.685 215.289C232.613 238.692 206.741 259.157 184.6 285.852C144.999 333.58 111.897 393.016 60.9408 428.489C30.2072 449.885 -3.99466 455.356 -38.1778 452.155C-51.7136 450.888 -54.9632 430.713 -56.6692 418.946C-59.5063 399.398 -59.8626 379.513 -62.0435 359.886C-64.087 341.513 -68.6239 324.057 -72.2797 306.04C-75.9793 287.786 -77.0166 269.083 -79.7413 250.703C-81.4286 239.292 -83.0971 226.014 -90.4774 216.84C-98.1139 207.344 -110.712 203.364 -121.723 200.341C-142.402 194.719 -197.164 195.029 -199.226 164.565Z" stroke="#F7F3D0"/>
<path fill-rule="evenodd" clip-rule="evenodd" d="M-180.768 146.341C-185.671 106.777 -192.534 57.4993 -172.561 21.0481C-156.236 -8.75656 -121.417 -15.1861 -96.5478 -34.6061C-75.8628 -50.7555 -68.0497 -76.4405 -57.7822 -100.309C-49.3571 -119.887 -40.8882 -139.551 -30.6768 -158.181C-22.9325 -172.31 -12.9522 -191.467 2.42416 -196.396C15.5709 -200.608 30.4226 -181.74 37.7111 -172.35C50.1208 -156.345 60.2385 -138.412 70.2874 -120.716C86.7255 -91.7607 101.852 -60.8308 125.248 -37.2779C147.981 -14.4227 174.987 -0.931951 202.498 14.2369C223.57 25.8586 244.511 37.9279 264.365 51.7871C279.611 62.4218 298.503 75.0241 306.447 92.72C313.317 107.981 295.68 126.045 286.868 136.812C272.316 154.58 256.165 170.881 240.239 187.247C223.052 204.904 204.015 221.191 187.384 239.282C152.409 277.352 124.467 319.502 81.3607 348.669C53.4434 367.562 15.8769 384.725 -17.1242 381.639C-40.857 379.414 -39.2956 323.99 -41.5752 306.281C-45.3225 277.326 -52.561 246.902 -64.0589 220.23C-73.933 197.375 -97.3972 190.327 -118.982 185.2C-132.503 181.982 -146.674 180.245 -159.752 175.27C-174.891 169.505 -178.713 162.924 -180.768 146.341Z" stroke="#F7F3D0"/>
<path fill-rule="evenodd" clip-rule="evenodd" d="M-164.703 127.957C-167.628 94.4681 -166.97 54.8669 -148.026 25.8978C-131.424 0.523339 -101.865 -6.15731 -80.8422 -26.1463C-64.4344 -41.741 -57.9903 -67.1682 -49.1665 -87.7916C-38.3824 -113.007 -23.271 -159.58 3.93327 -169.069C29.24 -177.891 55.7053 -121.538 64.8674 -104.734C79.3713 -78.1374 91.5018 -48.97 109.093 -24.4084C124.242 -3.26304 144.539 8.42638 166.082 20.988C193.549 37.0321 235.251 56.0563 249.937 87.325C260.884 110.625 225.287 145.263 213.132 161.406C200.419 178.27 190.844 198.259 177.724 214.528C157.02 240.199 123.472 260.869 95.7728 276.642C68.844 291.986 33.8743 308.968 3.3258 307.957C-16.7518 307.296 -20.5719 274.6 -24.8554 258.629C-30.9927 235.924 -39.1527 215.578 -56.6814 200.135C-74.5233 184.415 -95.5528 177.008 -117.659 170.525C-129.007 167.221 -141.952 164.644 -152.103 157.97C-163.319 150.708 -163.576 140.829 -164.703 127.957Z" stroke="#F7F3D0"/>
<path fill-rule="evenodd" clip-rule="evenodd" d="M-144.983 108.291C-144.821 79.3986 -138.548 48.5887 -119.946 26.302C-104.453 7.73857 -80.2017 1.53324 -65.3703 -17.4439C-53.6225 -32.468 -47.6424 -53.5596 -39.7773 -71.0067C-30.1581 -92.3872 -16.5563 -129.737 7.36377 -137.157C30.7096 -144.381 51.3588 -103.242 60.3101 -86.9633C73.4187 -63.0941 84.0304 -37.7935 97.2576 -13.99C107.62 4.68512 120.291 16.7215 137.164 28.7578C156.97 42.8955 184.605 58.5566 195.185 81.9464C202.813 98.8813 184.349 125.942 177.645 140.861C173.15 150.881 169.037 161.059 166.777 171.92C165.017 180.378 164.842 188.205 159.742 195.468C146.902 213.736 118.749 216.119 99.6484 222.141C74.2801 230.132 47.3637 239.214 20.8157 240.947C4.4986 242.031 -3.82847 226.199 -13.1418 215.062C-24.1468 201.896 -39.7273 192.427 -53.3353 182.492C-71.2941 169.359 -90.8384 161.191 -111.057 152.825C-120.177 149.049 -130.888 145.346 -137.954 137.84C-145.333 130.059 -145.039 118.719 -144.983 108.291Z" stroke="#F7F3D0"/>
<path fill-rule="evenodd" clip-rule="evenodd" d="M-123.331 91.1881C-120.118 66.8937 -110.105 43.674 -93.1937 26.4999C-80.2296 13.3143 -63.0128 5.89085 -52.608 -9.95156C-42.913 -24.7194 -36.157 -41.5111 -28.1495 -57.3008C-19.6749 -73.9937 -7.08452 -101.894 12.4611 -106.437C33.5261 -111.329 49.7529 -83.184 58.738 -67.5855C70.0893 -47.8731 78.7133 -26.6642 88.8628 -6.27281C96.509 8.92582 106.262 22.826 117.798 34.965C129.897 47.7615 146.304 60.0175 152.425 77.6136C157.836 93.1989 147.711 112.054 145.924 127.857C144.013 144.741 147.363 162.476 136.765 176.973C114.909 206.871 60.0581 201.327 28.7004 201.966C-2.24013 202.626 -27.1158 184.331 -52.1534 166.926C-68.6916 155.435 -85.9146 145.704 -102.87 134.997C-120.155 124.073 -126.158 112.568 -123.331 91.1881Z" stroke="#F7F3D0"/>
<path fill-rule="evenodd" clip-rule="evenodd" d="M-104.316 77.8816C-94.801 42.6819 -65.083 23.9734 -43.838 -2.62768C-26.4553 -24.4048 -13.4213 -69.5031 15.8537 -75.4687C49.0906 -82.2394 68.9879 -22.4844 80.5431 0.572915C93.3649 26.1445 116.201 46.9449 125.697 74.0145C130.689 88.2224 126.402 101.48 123.744 115.681C120.83 131.275 118.64 147.219 108.583 159.77C88.7853 184.471 50.1201 184.299 22.274 184.979C-6.55177 185.685 -32.0519 168.758 -55.0189 151.864C-79.3773 133.974 -114.062 113.979 -104.316 77.8816Z" stroke="#F7F3D0"/>
<path fill-rule="evenodd" clip-rule="evenodd" d="M-88.2515 67.9605C-77.526 42.785 -54.9875 22.3179 -36.6988 2.99672C-21.4342 -13.1109 -5.01277 -45.5367 18.2614 -47.8482C45.6157 -50.5745 62.1943 -15.9491 72.9575 5.28181C83.551 26.144 98.8156 48.1717 104.681 71.0687C110.798 94.9205 94.5091 127.044 78.9741 143.922C61.6474 162.742 33.2997 169.696 8.97561 168.946C-16.4927 168.182 -39.8611 152.627 -59.1494 136.493C-79.7705 119.247 -100.725 97.1859 -88.2515 67.9605Z" stroke="#F7F3D0"/>
<path fill-rule="evenodd" clip-rule="evenodd" d="M-73.3368 63.312C-63.0912 42.5159 -45.3312 24.9238 -28.9557 9.23177C-16.3186 -2.88289 2.32873 -23.4824 20.5607 -23.9869C40.6178 -24.5438 57.6162 -7.25307 65.59 10.4701C73.4504 27.9509 81.7325 49.8673 82.9094 69.045C85.4645 110.808 33.4433 157.589 -5.61983 153.782C-42.6565 150.172 -93.7652 104.747 -73.3368 63.312Z" stroke="#F7F3D0"/>
<path fill-rule="evenodd" clip-rule="evenodd" d="M-59.5963 60.9936C-45.4275 33.7625 -11.0112 -5.05911 20.8513 -5.98108C57.4241 -7.03477 66.6051 36.1662 61.838 67.4738C56.9953 99.4267 14.8294 145.677 -18.7924 139.427C-51.607 133.329 -76.3882 93.289 -59.5963 60.9936Z" stroke="#F7F3D0"/>
<path fill-rule="evenodd" clip-rule="evenodd" d="M-45.048 56.4674C-33.0906 33.5337 -7.57454 4.88811 19.0382 4.02107C50.7479 2.99517 50.1497 39.6825 42.9591 62.5169C35.4819 86.225 2.55088 126.718 -25.2146 120.324C-52.2136 114.083 -56.5068 78.4481 -45.048 56.4674Z" stroke="#F7F3D0"/>
<path fill-rule="evenodd" clip-rule="evenodd" d="M-32.4472 53.7618C-24.5932 37.3814 -4.93638 16.6784 13.7503 16.016C36.5911 15.2197 32.151 44.3471 26.2496 58.4056C19.2351 75.134 -4.27719 104.201 -24.0086 99.4904C-43.4354 94.8533 -38.9269 67.2582 -32.4472 53.7618Z" stroke="#F7F3D0"/>
</g>
</g>
<defs>
<clipPath id="clip0_184_4800">
<rect width="1440" height="376" fill="white"/>
</clipPath>
</defs>
</svg>
