<svg width="1440" height="2010" viewBox="0 0 1440 2010" fill="none" xmlns="http://www.w3.org/2000/svg">
<g opacity="0.12">
<path fill-rule="evenodd" clip-rule="evenodd" d="M462.5 726.738C462.397 700.26 421.394 670.484 403.879 655.133C369.247 624.771 333.228 596.732 297.542 568.247C261.857 539.761 226.076 511.352 192.047 480.078C169.953 459.777 143.992 436.913 129.007 407.925C97.0858 346.15 197.732 355.324 223.802 353.973C290.124 350.521 366.196 352.096 428.363 319.927C465.474 300.723 480.272 268.515 472.301 221.573C469.732 206.307 462.128 188.74 468.57 173.868C475.449 157.984 491.274 148.818 504.409 142.671C552.317 120.278 607.399 117.683 658.088 114.873C712.747 111.784 767.919 112.687 822.192 112.448C845.205 112.348 869.239 102.41 891.154 94.3326C919.883 83.7459 948.272 71.8543 976.764 60.3564C1039.44 35.1214 1104.03 8.5427 1170.35 2.13355C1211.88 -1.88182 1257.27 3.54666 1289.53 38.4727C1305.73 56.009 1314.21 82.078 1323.57 105.236C1334.91 133.212 1345.79 161.459 1357.86 188.995C1396.74 277.68 1452.25 364.343 1542.34 368.698C1555.97 369.354 1569.35 367.216 1582.92 366.814C1591.56 366.567 1599.25 369.077 1602.46 379.941C1610.53 407.192 1585.15 450.21 1574.75 471.831C1551.97 519.159 1526.28 564.362 1502.21 610.74C1486.29 641.411 1458.73 683.325 1458.44 720.591C1458.18 753.795 1494.92 777.795 1514.92 794.15C1533.66 809.462 1567.62 830.89 1569.68 862.04C1570.67 877.144 1562.39 889.661 1553.73 899.375C1538.57 916.364 1521.1 928.348 1507.46 947.73C1485.09 979.528 1466.4 1023.28 1469.43 1066.13C1471.54 1095.82 1485.63 1115.26 1503.56 1133.85C1511.09 1141.66 1517.21 1147.19 1517.61 1159.88C1518.25 1180.03 1511.68 1201.35 1506.28 1220.03C1486.93 1286.87 1459.45 1351.51 1428.89 1411.87C1413.61 1442.03 1397.11 1472.1 1376.86 1497.83C1363.6 1514.72 1345.71 1534.83 1325.48 1534.81C1302.05 1534.81 1277.27 1524.65 1254.5 1517.05C1211.97 1502.85 1169.96 1486.43 1128.12 1469.59C1031.35 1430.62 935.486 1388.5 840.536 1343.23C773.655 1311.28 705.354 1279.29 642.475 1236.82C630.212 1228.48 618.637 1218.76 607.907 1207.78C596.442 1196.25 582.215 1191.09 567.79 1187.25C478.255 1163.38 380.166 1181.7 290.259 1193.19C267.439 1196.1 244.618 1199.03 221.734 1201.07C202.061 1202.82 178.508 1207.85 159.387 1200.3C121.711 1185.43 154.647 1130.65 168.572 1108.32C217.597 1029.72 280.849 963.22 339.477 895.329C367.352 862.998 395.439 830.751 421.799 796.59C435.524 778.829 462.59 749.95 462.5 726.738Z" stroke="#640E27" stroke-dasharray="11 5"/>
<path fill-rule="evenodd" clip-rule="evenodd" d="M479.154 722.407C464.121 694.401 437.747 673.701 415.854 654.22C384.349 626.176 351.853 599.69 319.847 572.44C289.582 546.671 259.254 520.609 231.227 491.346C214.137 473.5 192.694 452.16 184.599 425.767C167.039 368.559 261.504 377.238 284.824 375.741C342.8 372.038 408.531 371.19 462.167 341.07C495.659 322.26 509.418 291.068 502.275 247.762C499.806 232.78 495.357 219.988 500.989 205.082C507.502 187.831 522.483 177.076 536.217 169.484C579.238 145.698 630.09 140.645 676.724 136.44C724.902 132.097 775.098 129.034 821.726 132.212C840.372 133.478 861.834 126.295 880.287 120.786C908.68 112.299 936.784 102.509 965.036 93.405C1022.45 74.8886 1081.36 57.0512 1141.09 55.0221C1184.22 53.5562 1229.18 61.5028 1265.06 92.2169C1301.42 123.363 1317.55 171.645 1337.71 217.542C1372.53 296.893 1419.57 393.371 1500.13 410.136C1512.35 412.682 1524.09 411.301 1536.29 411.926C1542.57 412.242 1549.71 413.245 1552.89 420.675C1561.15 439.963 1538.52 475.229 1530.9 490.003C1509.85 530.832 1486.18 569.662 1464.12 609.704C1446.6 641.498 1424.39 676.826 1417.61 714.514C1409.39 760.25 1463.12 792.793 1482.02 824.996C1514.78 880.838 1452.71 912.655 1422.11 939.28C1386.98 969.848 1357.97 1025.61 1389.47 1072.91C1401.52 1090.99 1416.35 1101.77 1421.73 1125.37C1430.14 1162.28 1423.78 1204.46 1416.95 1240.94C1406.66 1295.79 1390.38 1350.04 1368.25 1399.61C1352.4 1435.1 1326.09 1490.75 1287.57 1486.58C1261.64 1483.79 1235.28 1473.62 1210.03 1464.62C1172.23 1451.16 1134.89 1435.81 1097.76 1419.87C1012.05 1383.18 927.281 1342.72 844.178 1298.22C787.475 1267.85 629.306 1143.72 617.404 1139.29C581.919 1126.1 541.573 1128.42 504.988 1130.46C456.322 1133.18 407.9 1140.21 359.517 1146.73C336.486 1149.82 313.34 1153.59 290.187 1155.11C273.707 1156.19 252.065 1157.12 237.631 1145.61C209.456 1123.17 240.845 1071.82 253.827 1050.09C293.594 983.488 343.9 925.81 391.068 866.835C414.214 837.88 437.715 808.971 458.727 777.694C467.201 765.064 488.445 739.705 479.154 722.407Z" stroke="#640E27" stroke-dasharray="11 5"/>
<path fill-rule="evenodd" clip-rule="evenodd" d="M500.392 707.709C459.378 651.674 402.771 609.998 353.916 563.199C329.395 539.702 304.72 515.566 283.571 487.579C272.57 473.026 258.832 454.622 256.713 434.336C251.048 380.068 336.107 387.406 361.565 385.346C410.786 381.349 466.391 378.316 511.046 350.622C538.329 333.693 551.764 305.906 546.665 269.385C544.404 253.181 540.885 239.415 546.665 223.504C552.522 207.385 564.725 196.011 577.082 187.484C612.591 162.962 656.719 155.122 696.699 149.281C743.599 142.477 790.851 139.821 838.075 141.333C879.436 142.637 920.597 127.968 960.981 118.3C1014.48 105.498 1068.95 94.3176 1123.69 96.0075C1166.93 97.3501 1210.5 107.898 1247.46 135.932C1285.02 164.482 1307.6 207.215 1327.96 253.327C1358.74 323.036 1397.09 416.45 1464.61 442.925C1474.43 446.783 1483.58 447.207 1493.71 447.879C1498.63 448.203 1504.98 448.303 1507.42 454.468C1513.29 469.314 1491.59 498.096 1485.54 508.127C1466.21 540.15 1445.25 570.73 1425.44 602.328C1406.94 631.827 1386.79 662.569 1375.3 697.138C1357.02 752.194 1415.47 784.386 1413.84 836.849C1412.82 869.42 1386.86 892.777 1366.31 908.935C1341.01 928.805 1304.57 941.868 1291.91 978.127C1282.47 1005.13 1297.28 1020.85 1308.68 1041.35C1328 1076.07 1329.31 1123.14 1327.3 1163.33C1324.59 1217.65 1314 1272.77 1295.97 1322.69C1287.8 1345.32 1277.8 1368.87 1263.06 1386.44C1249.26 1402.92 1236.2 1407.14 1217.75 1403.77C1161.29 1393.43 1104.28 1364.61 1050.13 1338.86C982.098 1306.52 915.003 1270.81 849.912 1230.63C805.527 1203.23 760.139 1174.24 721.181 1136.38C711.027 1126.51 700.629 1115.79 693.205 1102.77C687.592 1092.98 685.209 1084.91 675.749 1079.32C647.709 1062.77 608.706 1067.1 578.662 1068.82C530.622 1071.56 482.814 1078.85 435.069 1085.41C407.209 1089.27 354.725 1101.41 332.478 1072.3C313.275 1047.16 336.447 1004.29 348.284 982.147C378.225 926.143 416.74 876.99 452.474 826.378C468.851 803.183 485.871 779.811 499.396 754.023C502.851 747.448 508.388 738.737 509.338 730.75C510.404 721.599 505.427 714.616 500.392 707.709Z" stroke="#640E27" stroke-dasharray="11 5"/>
<path fill-rule="evenodd" clip-rule="evenodd" d="M503.605 721.335C465.691 671.777 420.014 631.064 379.311 584.688C361.061 563.895 342.631 542.082 328.725 516.716C321.245 503.075 313.302 485.905 315.365 468.95C321.283 420.289 391.27 424.684 419.545 421.834C461.559 417.647 509.825 413.43 546.974 387.191C571.31 370.005 580.435 344.624 575.892 311.889C571.014 276.775 581.92 251.286 606.737 231.698C637.852 207.158 677.129 197.155 713.256 190.049C756.783 181.529 800.861 177.752 844.953 178.764C887.834 179.753 929.379 171.118 971.977 165.502C1028.46 158.064 1086.75 154.395 1142.59 169.642C1191.21 182.92 1235.13 212.179 1268.05 257.426C1302.43 304.652 1319.46 364.15 1347.38 416.396C1364.79 448.984 1389.08 492.092 1421.62 504.759C1432.47 508.984 1452.25 503.284 1443.58 524.07C1438.63 535.957 1429.35 546.384 1422.03 556.101C1410.19 571.804 1397.96 587.075 1385.93 602.562C1360.27 635.574 1332.8 669.29 1313.58 708.382C1289.35 757.599 1325.36 795.478 1320.97 845.384C1318.61 872.24 1303.08 893.675 1286.64 910.513C1276 921.419 1264.36 930.866 1252.48 939.679C1240.07 948.886 1225.39 955.9 1214.57 967.803C1199.15 984.742 1205.84 1004.79 1208.73 1026.69C1213.82 1065.17 1214.94 1104.27 1212.06 1143.08C1208.54 1190.65 1200.28 1239.58 1182.89 1282.81C1176.12 1299.64 1167.55 1317.49 1154.82 1328.77C1142.09 1340.06 1128.92 1339.28 1114.33 1335.89C1071.07 1325.84 1027.89 1302.48 986.847 1280.33C935.477 1252.61 885.116 1221.63 837.023 1186.39C803.826 1162.06 770.519 1135.77 742.746 1102.78C734.668 1093.18 726.982 1082.9 720.768 1071.42C716.501 1063.55 714.214 1053.39 708.032 1047.48C688.689 1029.01 649.856 1034.52 627.172 1035.6C581.9 1037.74 537.342 1047.91 492.128 1050.38C467.452 1051.73 428.805 1055.13 410.683 1029.88C393.641 1006.14 409.077 968.76 419.262 945.889C439.28 900.92 466.173 860.855 490.277 819.052C500.186 801.851 511.046 783.854 517.466 764.211C523.172 746.708 513.321 734.041 503.605 721.335Z" stroke="#640E27" stroke-dasharray="11 5"/>
<path fill-rule="evenodd" clip-rule="evenodd" d="M512.93 721.686C482.726 678.054 446.315 639.322 415.893 594.98C398.086 569.012 367.42 525.357 381.192 488.747C396.3 448.519 448.963 447.423 479.404 444.182C515.635 440.323 558.183 435.052 589.19 409.934C598.996 401.993 607.35 391.482 610.891 377.638C614.682 362.821 610.538 349.857 609.998 335.024C608.867 303.909 624.328 278.929 644.789 261.774C673.707 237.52 709.868 226.052 744.023 218.058C782.719 209.04 822.058 204.595 861.475 204.784C899.146 204.939 936.418 203.935 974.127 202.778C1023.44 201.234 1073.45 203.727 1121.29 219.462C1168.41 234.973 1211.26 264.043 1244.91 306.803C1277.74 348.529 1299.89 399.531 1319.29 451.482C1330.3 480.969 1348.9 525.033 1375.16 539.927C1386.83 546.556 1398.29 546.1 1385.88 563.34C1370.24 585.048 1349.17 602.465 1331.06 621.032C1304.94 647.826 1278.16 675.144 1256.23 707C1242.23 727.342 1235.99 747.082 1236.95 773.42C1237.7 793.485 1241.08 813.341 1239.37 833.482C1235.37 880.756 1204.37 913.176 1176.97 943.365C1159.34 962.781 1143.25 977.59 1134.17 1005.21C1123.44 1037.85 1118.94 1073.37 1111.76 1107.26C1103.89 1144.48 1094.79 1183.19 1077.59 1215.98C1062.28 1245.16 1043.67 1258.25 1015.8 1250.39C972.341 1238.13 929.504 1207.94 890.92 1180.01C851.65 1151.6 813.054 1119.65 780.511 1080.6C762.942 1059.51 750.951 1034.74 735.348 1012.08C715.722 983.64 671.323 994.413 644.937 996.82C601.136 1000.82 463.313 1030.73 476.03 933.849C481.338 893.412 502.243 856.093 517.531 820.409C523.867 805.6 533.037 787.828 534.47 770.858C536.032 752.376 522.01 734.82 512.93 721.686Z" stroke="#640E27" stroke-dasharray="11 5"/>
<path fill-rule="evenodd" clip-rule="evenodd" d="M528.749 724.936C505.678 685.411 478.067 648.071 458.27 605.381C445.428 577.735 432.816 540.796 449.383 511.544C468.082 478.533 509.312 470.838 539.607 466.632C570.821 462.302 608.083 458.659 633.594 433.629C641.711 425.656 648.402 414.905 649.647 402.031C650.848 389.682 647.458 377.332 648.581 364.76C651.099 336.527 665.347 313.264 683.718 296.392C738.061 246.479 818.942 235.38 884.509 234.075C917.328 233.427 951.103 236.831 984.134 239.27C1027 242.434 1069.92 249.226 1110.8 265.596C1197.71 300.39 1255.96 377.556 1296.65 473.578C1309.45 503.802 1319.25 536.504 1339.32 560.793C1349.66 573.335 1347.4 582.343 1336.82 593.781C1320.29 611.656 1300.12 625.317 1281.77 640.237C1255.67 661.454 1229.01 682.988 1205.92 708.403C1190.01 725.924 1178.72 742.803 1175.29 769.076C1172.84 787.808 1173.41 806.895 1171.94 825.743C1169.14 861.547 1159.55 897.082 1142.58 926.781C1129.1 950.322 1113.05 971.717 1096.45 992.116C1074.88 1018.67 1056.64 1045.66 1040.26 1077.18C1018.55 1118.9 988.031 1195.87 936.88 1175.5C880.464 1153.02 827.585 1095.92 791.389 1040.59C779.233 1022.01 769.255 999.224 752.862 985.524C728.32 965.048 703.418 965.766 674.228 965.851C630.525 965.967 535.427 977.366 534.4 898.703C533.995 867.537 545.219 838.069 550.594 808.091C556.656 774.517 544.507 751.872 528.749 724.936Z" stroke="#640E27" stroke-dasharray="11 5"/>
<path fill-rule="evenodd" clip-rule="evenodd" d="M546.21 728.797C523.391 677.322 472.223 592.737 511.14 535.497C531.697 505.247 568.058 493.879 598.56 487.104C623.107 481.625 652.709 479.567 671.256 456.338C684.888 439.259 678.836 414.404 684.059 393.025C690.541 366.52 705.419 344.832 723.702 328.532C774.794 282.976 845.832 268.995 907.292 266.02C971.122 262.937 1041.45 277.357 1101.52 305.095C1176.41 339.692 1232.52 405.202 1271.76 488.16C1279 503.474 1285.58 519.189 1292.53 534.688C1297.2 545.084 1304.12 555.142 1307.81 566.078C1313.93 584.313 1306.71 599.219 1295.14 611.103C1278.49 628.213 1258.03 640.39 1239.05 653.23C1213.09 670.802 1186.55 688.058 1162.4 708.674C1146.17 722.547 1129.19 737.491 1123.38 761.56C1119.42 777.976 1118.59 795.363 1118.74 812.365C1119.04 848.819 1117.45 878.298 1103.28 911.685C1079.96 966.498 1044.1 1015.78 1006.22 1056.79C976.486 1088.98 929.442 1138.97 886.124 1117.46C847.258 1098.19 824.523 1052.07 798.916 1014.78C786.466 996.655 772.481 980.101 756.048 967.207C735.33 950.953 715.826 944.132 691.28 941.473C649.966 936.995 587.671 935.831 574.9 876.333C570.185 854.376 572.876 831.632 570.403 809.39C567.172 779.98 557.722 754.762 546.21 728.797Z" stroke="#640E27" stroke-dasharray="11 5"/>
<path fill-rule="evenodd" clip-rule="evenodd" d="M569.978 730.649C553.744 674.242 532.417 603.152 571.626 553.019C590.619 528.733 617.334 515.156 643.189 505.011C661.707 497.739 691.109 495.599 702.462 473.244C710.801 456.793 711.955 434.099 719.498 416.474C729.864 392.241 745.566 372.282 763.987 356.658C811.978 315.944 874.484 300.212 931.486 295.707C1055.34 285.932 1181.37 363.782 1247.65 491.867C1267.41 530.046 1292.92 570.683 1260.98 609.689C1226.11 652.243 1173.59 672.178 1131.97 702.415C1116.07 713.959 1095.81 727.837 1086.94 748.738C1081.6 761.303 1081.24 777.066 1080.99 790.897C1080.35 826.125 1077.92 857.806 1066.15 890.677C1047.97 941.475 1018.99 988.34 986.142 1026.73C957.496 1060.2 916.644 1099.54 875.042 1075.41C843.144 1056.86 822.914 1017.5 798.13 988.487C770.549 956.172 736.438 934.397 698.98 923.757C662.541 913.434 622.574 906.472 603.37 862.613C596.783 847.568 589.9 828.088 587.431 811.436C583.444 783.981 577.607 756.962 569.978 730.649Z" stroke="#640E27" stroke-dasharray="11 5"/>
<path fill-rule="evenodd" clip-rule="evenodd" d="M596.778 731.545C589.264 674.574 588.43 615.17 623.338 570.269C639.63 549.321 660.225 534.439 681.05 520.955C696.373 511.034 712.196 502.666 723.639 486.4C734.242 471.341 742.301 453.855 752.537 438.401C766.04 417.921 782.196 400.193 800.385 385.896C845.98 350.128 901.444 333.4 954.507 327.597C980.194 324.776 1008.06 323.308 1033.57 330.997C1058.21 338.414 1082.58 350.144 1105.23 363.821C1153.39 392.866 1195.14 435.403 1225.4 489.182C1246.14 526.071 1257.36 561.939 1230.49 599.36C1200.2 641.542 1152.71 664.815 1113.56 692.192C1086.71 710.968 1056.62 729.374 1051.6 769.276C1047.61 801.025 1044.37 831.16 1034.03 861.172C1018.66 905.439 996.045 945.539 967.543 979.092C941.477 1009.66 908.502 1035.6 871.217 1019.27C841.677 1006.31 818.758 977.284 792.949 956.53C764.186 933.349 732.585 920.569 699.307 910.292C669.401 901.02 641.242 886.771 621.912 856.52C617.957 850.339 613.802 843.609 610.752 836.693C606.86 827.869 607.162 819.122 606.398 809.231C604.407 783.13 600.175 757.33 596.778 731.545Z" stroke="#640E27" stroke-dasharray="11 5"/>
<path fill-rule="evenodd" clip-rule="evenodd" d="M625.522 726.711C626.164 672.583 636.981 621.427 666.609 579.243C679.275 561.198 694.4 546.334 708.338 529.799C719.56 516.468 730.166 504.081 743.069 493.096C773.679 467.085 798.556 433.425 831.086 410.262C874.51 379.296 924.251 362.18 973.607 355.336C997.707 351.992 1022.6 350.823 1046.99 354.601C1067.93 357.845 1087.98 369.232 1106.59 380.883C1143.05 403.705 1178.46 436.142 1202.13 477.18C1254.33 567.654 1151.42 633.434 1098.6 671.956C1074.3 689.676 1037.18 710.199 1027.23 745.298C1020.12 770.373 1015.79 795.874 1006.62 820.174C982.017 885.435 932.064 962.192 865.496 951.973C837.011 947.607 811.049 929.871 784.458 917.965C757.078 905.702 728.817 898.866 700.358 891.365C673.761 884.359 652.562 874.388 635.383 847.656C627.172 834.891 627.897 819.609 627.165 803.948C625.971 778.223 625.233 752.351 625.522 726.711Z" stroke="#640E27" stroke-dasharray="11 5"/>
<path fill-rule="evenodd" clip-rule="evenodd" d="M651.632 719.692C662.347 637.998 702.142 548.811 760.655 501.367C829.484 445.558 904.05 398.562 986.286 385.052C1024.41 378.787 1066.18 375.705 1102.15 396.191C1129.53 411.771 1161.34 435.06 1176.4 467.812C1213.27 547.923 1131.27 611.696 1084.56 648.758C1059.4 668.71 1027.39 688.153 1008.43 717.29C997.432 734.183 991.817 756.53 982.938 775.084C956.028 831.311 911.732 876.661 856.555 884.772C831.042 888.518 805.343 883.883 780.024 880.199C754.106 876.429 727.866 874.382 702.109 869.122C681.549 864.92 657.318 857.806 649.746 831.38C640.196 798.08 647.26 753.054 651.632 719.692Z" stroke="#640E27" stroke-dasharray="11 5"/>
<path fill-rule="evenodd" clip-rule="evenodd" d="M678.53 706.68C694.122 629.893 727.14 554.992 782.646 509.152C812.081 484.845 846.25 468.065 879.055 451.486C916.241 432.697 955.093 418.113 994.775 410.879C1044.18 401.867 1124.2 393.744 1150.02 461.488C1175.64 528.729 1110.89 588.242 1072.61 622.157C1048.06 643.883 1021.79 663.823 998.339 687.574C985.622 700.451 975.825 715.329 965.064 730.431C935.32 772.276 892.917 805.402 849.698 823.086C807.809 840.228 755.989 847.818 711.773 842.153C692.694 839.718 679.057 831.502 673.287 808.146C665.292 775.676 672.085 738.4 678.53 706.68Z" stroke="#640E27" stroke-dasharray="11 5"/>
<path fill-rule="evenodd" clip-rule="evenodd" d="M704.39 685.71C719.854 618.169 753.209 556.479 801.862 515.943C856.399 470.5 926.625 445.249 991.17 432.408C1025.48 425.588 1099.83 407.096 1117.32 460.02C1134.8 512.944 1084.25 565.099 1055.15 593.81C1019.84 628.603 981.764 662.197 943.734 693.414C910.693 720.557 875.436 748.307 839.648 769.267C819.463 781.158 798.437 790.866 776.818 798.278C760.81 803.722 740.454 811.841 723.67 807.789C681.338 797.555 696.994 718.004 704.39 685.71Z" stroke="#640E27" stroke-dasharray="11 5"/>
<path fill-rule="evenodd" clip-rule="evenodd" d="M735.782 665.805C769.801 538.155 877.58 475.374 981.355 453.492C1005.47 448.412 1073.07 430.098 1086.55 469.093C1099.61 506.9 1058.07 551.736 1038.62 572.979C978.358 638.805 903.903 687.611 833.35 735.962C811.328 751.054 771.611 783.805 744.293 768.698C714.633 752.264 728.735 692.274 735.782 665.805Z" stroke="#640E27" stroke-dasharray="11 5"/>
<path fill-rule="evenodd" clip-rule="evenodd" d="M770.351 641.234C799.978 547.229 886.152 493.314 965.38 475.54C984.785 471.191 1034.07 457.651 1048.77 483.883C1062.37 508.15 1029.91 543.312 1017.77 557.284C990.731 588.398 958.692 614.03 927.04 638.666C897.773 661.46 868.191 684.824 837.396 704.102C821.177 714.249 790.756 735.902 772.324 720.233C752.48 703.377 763.773 662.108 770.351 641.234Z" stroke="#640E27" stroke-dasharray="11 5"/>
<path fill-rule="evenodd" clip-rule="evenodd" d="M808.817 613.227C831.342 551.758 891.672 511.842 944.891 498.578C959.211 495.017 990.161 485.777 1002.24 502.193C1013.36 517.312 995.438 539.475 987.484 549.711C952.228 595.081 900.599 635.607 853.295 660.498C841.402 666.755 820.022 679.038 807.787 666.408C795.237 653.437 803.642 627.341 808.817 613.227Z" stroke="#640E27" stroke-dasharray="11 5"/>
<path fill-rule="evenodd" clip-rule="evenodd" d="M850.005 587.899C862.636 557.571 895.648 534.69 922.994 527.406C942.239 522.285 965.373 526.709 948.6 553.108C931.938 579.306 901.023 603.234 874.819 613.841C854.827 621.931 839.158 613.95 850.005 587.899Z" stroke="#640E27" stroke-dasharray="11 5"/>
<path fill-rule="evenodd" clip-rule="evenodd" d="M-179.936 798.673C-180.75 738.416 -207.402 675.792 -194.24 614.394C-183.431 563.968 -129.017 559.758 -96.3741 536.912C-70.4339 518.762 -55.7127 486.609 -41.6842 455.76C-29.0797 428.064 -17.7582 399.536 -4.48019 372.295C4.11522 354.684 18.875 320.103 37.5155 319.479C55.3605 318.877 71.7239 345.825 82.0897 361.755C95.605 382.519 107.587 404.655 120.711 425.751C142.828 461.335 169.365 487.673 199.751 512.601C234.329 540.965 269.478 568.36 305.198 594.786C331.498 614.301 357.977 633.67 383.256 655.113C399.113 668.567 434.11 693.811 434.271 718.616C434.348 730.451 425.014 743.559 418.722 753.019C408.074 769.034 395.938 783.676 383.763 798.002C361.088 824.688 337.45 850.163 314.07 875.946C283.723 909.41 254.736 942.325 228.058 980.315C200.475 1019.64 174.125 1060.26 147.235 1100.32C129.024 1127.46 110.833 1157.94 84.5657 1174.59C51.6658 1195.41 24.6608 1173.46 -8.61112 1173.21C-37.2325 1172.98 -35.1222 1093.29 -38.7592 1071.13C-42.409 1048.7 -50.4528 1027.82 -53.5702 1005.33C-57.4574 977.269 -57.5088 948.555 -58.4645 920.189C-59.6255 885.492 -60.0874 852.461 -90.9474 839.229C-108.51 831.712 -127.51 830.131 -145.689 825.628C-157.466 822.706 -179.679 817.71 -179.936 798.673Z" stroke="#640E27" stroke-dasharray="11 5"/>
<path fill-rule="evenodd" clip-rule="evenodd" d="M-166.253 788.471C-169.253 737.928 -186.976 673.237 -170.217 621.064C-155.899 576.478 -111.12 570.699 -80.9681 547.278C-56.0768 527.96 -44.9962 496.348 -32.5538 465.293C-22.5717 440.381 -12.8914 415.23 -1.56025 391.113C6.79035 373.341 19.5411 343.337 36.9039 339.659C52.5131 336.351 69.2529 362.84 78.0146 376.316C90.7974 395.989 101.73 417.354 113.023 438.272C132.865 475.014 153.183 508.055 182.224 535.046C211.393 562.152 243.305 582.421 275.558 603.515C300.789 620.021 325.893 637.005 349.865 656.06C367.723 670.247 393.398 688.405 401.568 713.704C408.037 733.717 375.232 766.928 365.558 778.65C345.645 802.751 324.544 825.376 303.404 847.861C277.633 875.262 251.039 899.223 228.281 930.479C187.575 986.362 153.549 1055.95 101.171 1097.48C69.5805 1122.54 34.4244 1128.94 -0.71234 1125.19C-14.6257 1123.71 -17.966 1100.09 -19.7196 1086.31C-22.6359 1063.42 -23.002 1040.14 -25.2439 1017.16C-27.3443 995.65 -32.0078 975.211 -35.7656 954.117C-39.5684 932.743 -40.6347 910.845 -43.4353 889.325C-45.1697 875.965 -46.8848 860.418 -54.471 849.677C-62.3205 838.558 -75.2704 833.898 -86.5887 830.359C-107.844 823.776 -164.134 824.139 -166.253 788.471Z" stroke="#640E27" stroke-dasharray="11 5"/>
<path fill-rule="evenodd" clip-rule="evenodd" d="M-147.282 767.132C-152.322 720.809 -159.377 663.113 -138.847 620.434C-122.066 585.537 -86.2759 578.009 -60.7126 555.271C-39.4505 536.363 -31.4195 506.29 -20.8655 478.343C-12.2053 455.421 -3.50018 432.398 6.99603 410.584C14.9565 394.041 25.2152 371.612 41.0205 365.84C54.5339 360.909 69.8 383 77.2918 393.995C90.0477 412.734 100.448 433.731 110.777 454.45C127.674 488.352 143.222 524.566 167.27 552.143C190.638 578.903 218.397 594.699 246.676 612.459C268.336 626.066 289.861 640.198 310.269 656.425C325.94 668.876 345.359 683.631 353.525 704.351C360.587 722.219 342.458 743.369 333.399 755.975C318.442 776.779 301.84 795.865 285.47 815.027C267.803 835.7 248.236 854.77 231.14 875.952C195.19 920.526 166.468 969.878 122.159 1004.03C93.463 1026.15 54.8485 1046.24 20.9268 1042.63C-3.46809 1040.03 -1.86315 975.132 -4.20634 954.398C-8.05816 920.495 -15.4986 884.874 -27.3173 853.645C-37.4668 826.885 -61.5857 818.633 -83.7722 812.631C-97.6708 808.863 -112.237 806.829 -125.68 801.004C-141.241 794.254 -145.17 786.549 -147.282 767.132Z" stroke="#640E27" stroke-dasharray="11 5"/>
<path fill-rule="evenodd" clip-rule="evenodd" d="M-130.766 745.608C-133.772 706.397 -133.096 660.03 -113.623 626.112C-96.5584 596.403 -66.1748 588.581 -44.5651 565.177C-27.6996 546.918 -21.0757 517.146 -12.0057 492.999C-0.920851 463.476 14.6121 408.946 42.5754 397.836C68.5881 387.507 95.7917 453.487 105.209 473.162C120.118 504.303 132.587 538.453 150.669 567.211C166.24 591.969 187.103 605.656 209.247 620.364C237.481 639.149 280.346 661.423 295.442 698.034C306.694 725.314 270.105 765.871 257.61 784.772C244.543 804.516 234.7 827.92 221.214 846.968C199.933 877.026 165.449 901.227 136.977 919.695C109.297 937.66 73.3516 957.543 41.9509 956.36C21.3133 955.586 17.3866 917.304 12.9835 898.604C6.67506 872.02 -1.71262 848.198 -19.7304 830.117C-38.07 811.711 -59.6861 803.038 -82.4094 795.449C-94.0736 791.58 -107.379 788.563 -117.814 780.749C-129.343 772.246 -129.607 760.679 -130.766 745.608Z" stroke="#640E27" stroke-dasharray="11 5"/>
<path fill-rule="evenodd" clip-rule="evenodd" d="M-110.498 722.581C-110.331 688.753 -103.883 652.679 -84.7623 626.585C-68.837 604.85 -43.9095 597.584 -28.6643 575.365C-16.5888 557.774 -10.4419 533.079 -2.35736 512.651C7.53021 487.618 21.5114 443.887 46.0988 435.199C70.0959 426.742 91.3211 474.909 100.522 493.969C113.996 521.916 124.904 551.539 138.5 579.409C149.152 601.275 162.177 615.367 179.52 629.46C199.879 646.013 228.284 664.35 239.16 691.736C247.001 711.564 228.021 743.248 221.13 760.715C216.51 772.448 212.282 784.365 209.959 797.081C208.15 806.984 207.97 816.148 202.728 824.652C189.53 846.041 160.592 848.831 140.958 855.882C114.882 865.238 87.2147 875.871 59.926 877.901C43.1537 879.17 34.5943 860.633 25.0212 847.594C13.7092 832.179 -2.30603 821.092 -16.2936 809.46C-34.7534 794.083 -54.843 784.519 -75.6255 774.724C-84.9998 770.303 -96.0102 765.967 -103.273 757.179C-110.858 748.068 -110.556 734.79 -110.498 722.581Z" stroke="#640E27" stroke-dasharray="11 5"/>
<path fill-rule="evenodd" clip-rule="evenodd" d="M-88.2416 702.553C-84.9389 674.108 -74.6471 646.922 -57.2635 626.813C-43.9379 611.375 -26.2407 602.683 -15.5456 584.134C-5.58017 566.844 1.36428 547.183 9.59521 528.696C18.3062 509.151 31.2478 476.484 51.3387 471.165C72.9913 465.438 89.6708 498.391 98.9066 516.654C110.575 539.734 119.439 564.566 129.872 588.442C137.731 606.237 147.757 622.512 159.615 636.725C172.051 651.708 188.916 666.057 195.207 686.66C200.769 704.908 190.362 726.984 188.525 745.487C186.56 765.256 190.004 786.02 179.11 802.994C156.645 838 100.264 831.509 68.031 832.257C36.2274 833.029 10.6577 811.609 -15.0784 791.23C-32.0779 777.776 -49.7814 766.383 -67.2098 753.847C-84.9773 741.056 -91.1473 727.586 -88.2416 702.553Z" stroke="#640E27" stroke-dasharray="11 5"/>
<path fill-rule="evenodd" clip-rule="evenodd" d="M-68.6934 686.974C-58.913 645.761 -28.366 623.856 -6.52835 592.711C11.3394 567.213 24.737 514.41 54.8286 507.425C88.9928 499.498 109.445 569.461 121.323 596.458C134.502 626.398 157.975 650.752 167.736 682.447C172.867 699.082 168.461 714.605 165.729 731.232C162.734 749.49 160.483 768.157 150.145 782.853C129.795 811.774 90.051 811.573 61.428 812.369C31.7981 813.195 5.58655 793.377 -18.0212 773.597C-43.0591 752.65 -78.7111 729.239 -68.6934 686.974Z" stroke="#640E27" stroke-dasharray="11 5"/>
<path fill-rule="evenodd" clip-rule="evenodd" d="M-52.1843 675.36C-41.1596 645.884 -17.9923 621.92 0.806567 599.298C16.497 580.438 33.3766 542.473 57.3 539.766C85.4175 536.574 102.459 577.115 113.522 601.973C124.411 626.4 140.101 652.191 146.131 679C152.419 706.927 135.675 744.538 119.706 764.299C101.896 786.335 72.7578 794.477 47.7552 793.598C21.5764 792.704 -2.44396 774.492 -22.2703 755.602C-43.4666 735.409 -65.0055 709.579 -52.1843 675.36Z" stroke="#640E27" stroke-dasharray="11 5"/>
<path fill-rule="evenodd" clip-rule="evenodd" d="M-36.8545 669.916C-26.323 645.567 -8.06753 624.969 8.76472 606.596C21.7544 592.412 40.922 568.293 59.6626 567.703C80.2792 567.05 97.7518 587.295 105.948 608.046C114.028 628.514 122.541 654.174 123.751 676.629C126.377 725.526 72.9045 780.3 32.7516 775.843C-5.31822 771.616 -57.8527 718.43 -36.8545 669.916Z" stroke="#640E27" stroke-dasharray="11 5"/>
<path fill-rule="evenodd" clip-rule="evenodd" d="M-22.7273 667.203C-8.16326 635.319 27.2131 589.865 59.9645 588.786C97.5576 587.552 106.995 638.134 102.095 674.79C97.1168 712.202 53.7746 766.354 19.2149 759.036C-14.5152 751.896 -39.9877 705.016 -22.7273 667.203Z" stroke="#640E27" stroke-dasharray="11 5"/>
<path fill-rule="evenodd" clip-rule="evenodd" d="M-7.77406 661.901C4.51686 635.05 30.7448 601.51 58.0999 600.495C90.6942 599.294 90.0794 642.249 82.6882 668.984C75.0023 696.743 41.1527 744.154 12.6126 736.668C-15.1396 729.36 -19.5526 687.637 -7.77406 661.901Z" stroke="#640E27" stroke-dasharray="11 5"/>
<path fill-rule="evenodd" clip-rule="evenodd" d="M5.1773 658.734C13.2504 639.555 33.4556 615.315 52.6637 614.54C76.1416 613.608 71.5777 647.711 65.5116 664.171C58.3014 683.758 34.1332 717.791 13.8513 712.275C-6.1174 706.846 -1.48319 674.537 5.1773 658.734Z" stroke="#640E27" stroke-dasharray="11 5"/>
<path fill-rule="evenodd" clip-rule="evenodd" d="M1116.75 1745.03C1064.45 1783.18 1005.33 1814.68 949.582 1846.69C868.11 1893.47 785.438 1938.99 699.832 1973.84C653.935 1992.51 594.462 2019.44 545.214 2004.81C527.209 1999.46 510.789 1983.28 494.644 1972.77C472.383 1958.28 449.794 1944.5 427.244 1930.69C382.008 1903.02 336.631 1875.62 292.172 1846.17C270.764 1831.98 249.992 1814.12 227.704 1802.02C214.68 1794.94 199.094 1798.25 185.178 1798.7C152.941 1799.74 120.723 1801.71 88.5055 1803.4C49.0984 1805.45 9.60145 1807.63 -29.8506 1806.82C-47.6444 1806.45 -91.2239 1810.25 -101.02 1791.82C-106.29 1781.9 -93.8687 1764 -88.1107 1755.72C-77.5384 1740.5 -65.3869 1726.78 -53.3959 1713.21C-25.6652 1681.81 3.78573 1651.91 28.4352 1616.84C41.1002 1598.81 57.6937 1576.79 49.4258 1552.17C41.081 1527.31 26.625 1505.79 17.8051 1481.02C7.65002 1452.51 3.43906 1422.84 -1.35604 1392.61C-4.90582 1370.26 -13.1737 1350.47 -20.9472 1329.87C-29.536 1307.1 -38.433 1284.14 -44.3964 1260.13C-48.3378 1244.27 -54.6991 1215.74 -40.9108 1205.7C-21.3196 1191.42 15.4172 1202.98 37.7493 1207.19C68.6126 1212.99 99.2511 1220.38 130.031 1226.75C152.376 1231.38 174.798 1236.46 197.515 1237C234.137 1237.87 270.88 1234.86 307.405 1232.05C375.037 1226.84 442.184 1219.79 510.044 1219.79C569.497 1219.79 706.887 1302.5 739.047 1317.07C803.238 1346.14 869.137 1373.7 929.881 1412.38C946.314 1422.85 971.606 1436.81 980.252 1458.36C985.587 1471.65 983.135 1479.33 995.716 1487.88C1012.88 1499.56 1034.87 1504.15 1053.87 1509.37C1084.47 1517.78 1115.31 1524.91 1146.05 1532.52C1208.23 1547.89 1269.98 1565.27 1331.9 1582C1350.62 1587.05 1373.26 1588.17 1391.11 1597.08C1402.61 1602.8 1401.42 1610 1392.52 1618.69C1376.9 1633.94 1355.01 1642.4 1336.56 1651.1C1309.53 1663.84 1282.05 1675.21 1254.57 1686.42C1227.08 1697.62 1199.45 1708.48 1171.95 1719.71C1153.79 1727.11 1133.07 1733.12 1116.75 1745.03Z" stroke="#640E27" stroke-dasharray="11 5"/>
<path fill-rule="evenodd" clip-rule="evenodd" d="M1073.37 1736.95C1018.05 1775.14 956.649 1805.56 897.454 1835.25C821.694 1873.26 744.221 1908.89 664.397 1932.65C617.529 1946.59 562.231 1961.98 514.342 1946C497.258 1940.29 484.494 1927.47 469.849 1916.15C453.157 1903.24 435.822 1891.4 418.487 1879.75C382.803 1855.77 346.743 1832.61 310.305 1810.27C291.006 1798.39 269.761 1782.48 247.958 1778.36C230.623 1775.08 210.932 1779.82 193.52 1781.21C162.163 1783.69 130.813 1786.26 99.4438 1788.43C63.2462 1790.94 26.9459 1793.26 -9.32875 1792.86C-29.5462 1792.63 -64.2544 1796.33 -78.5524 1780.64C-91.027 1766.94 -45.6099 1717.41 -37.623 1708C-12.6802 1678.62 13.5531 1650.64 36.7689 1619.22C50.489 1600.69 67.1947 1578.16 72.9794 1553.6C77.9037 1532.67 68.4017 1508.82 62.7904 1489.48C55.773 1465.25 50.1103 1440.12 41.9565 1416.4C34.6952 1395.26 23.1386 1376.44 12.9881 1357.22C1.82321 1336.08 -9.48291 1314.6 -17.7715 1291.54C-22.85 1277.35 -31.2541 1253.59 -21.1614 1240.06C-9.50217 1224.47 26.4387 1234.66 41.2118 1236.88C71.1817 1241.45 100.92 1248.25 130.685 1254.33C180.121 1264.43 227.252 1273.26 277.594 1271.14C343.151 1268.38 408.645 1261.88 474.19 1258.28C498.394 1256.94 522.984 1254.24 547.208 1255.7C561.095 1256.54 571.669 1261.63 579.746 1273.13C590.776 1288.81 616.181 1297.5 633.849 1306.5C661.399 1320.53 689.295 1333.57 717.114 1346.79C778.184 1375.82 840.429 1403.79 898.346 1441.34C916.669 1453.21 937.651 1466.45 951.204 1486.07C958.767 1497.01 956.86 1507.54 961.477 1519.17C967.589 1534.46 987.684 1541.36 999.697 1546.37C1022.88 1556.03 1047.01 1562.51 1070.96 1568.58C1125.15 1582.3 1179.46 1591.33 1234.53 1597.97C1247.44 1599.52 1298.25 1604.87 1271.56 1630.65C1242.08 1659.15 1199.5 1673.11 1164.78 1689.17C1133.51 1703.61 1102.21 1717.04 1073.37 1736.95Z" stroke="#640E27" stroke-dasharray="11 5"/>
<path fill-rule="evenodd" clip-rule="evenodd" d="M997.225 1729.7C945.22 1763.33 887.609 1788.43 831.599 1812.43C763.632 1841.57 693.962 1867.53 622.678 1882.08C577.898 1891.21 528.529 1898.22 484.051 1883.05C453.677 1872.69 430.182 1844.7 403.504 1825.44C376.827 1806.18 349.069 1788.1 320.482 1773.03C302.74 1763.67 283.654 1754.25 263.913 1755.49C215.913 1758.48 167.97 1765.62 119.918 1769.08C88.1302 1771.4 56.2779 1773.3 24.3934 1772.73C5.16624 1772.39 -21.2479 1773.78 -38.2701 1761.62C-57.0858 1748.17 43.0998 1633.33 52.5687 1620.41C76.3085 1588 105.056 1544.98 100.466 1498.89C96.0757 1454.83 77.0477 1421.93 55.5257 1387.41C43.3119 1367.77 4.14406 1315.3 18.6592 1289.76C26.9518 1275.16 54.285 1280.22 67.2703 1281.21C92.8615 1283.17 118.311 1287.38 143.767 1291.04C180.885 1296.34 219.024 1304.53 256.302 1306.93C282.259 1308.6 308.371 1306.37 334.374 1306.32C371.658 1306.26 408.943 1306.6 446.227 1307C477.533 1307.34 509.102 1307 540.299 1310.61C559.693 1312.83 574.414 1317.83 588.325 1331.93C600.43 1344.2 618.693 1351.39 634.121 1359.19C659.603 1372.07 685.419 1384.01 711.151 1396.14C765.027 1421.54 819.52 1446.41 871.088 1478.16C894.629 1492.64 934.208 1512.92 939.73 1548.04C941.723 1560.7 943.188 1566.17 953.474 1573.37C968.072 1583.59 985.558 1588.2 1001.94 1592.2C1040.12 1601.54 1079.41 1600.14 1117.53 1609.37C1133.06 1613.17 1153.32 1621.39 1135.6 1640.18C1114.92 1662.17 1084.82 1674.25 1060.04 1687.83C1047.67 1694.61 1034.93 1700.95 1023.19 1709.22C1014.17 1715.6 1006.45 1723.77 997.225 1729.7Z" stroke="#640E27" stroke-dasharray="11 5"/>
<path fill-rule="evenodd" clip-rule="evenodd" d="M898.63 1719.18C850.588 1746.52 798.414 1766.4 747.176 1784.32C690.266 1804.2 631.982 1820.67 572.928 1827.67C532.151 1832.52 488.704 1833.96 449.128 1819.1C424.099 1809.7 407.131 1789.94 385.594 1773.37C353.089 1748.32 317.921 1728.47 278.871 1733.3C235.09 1738.71 191.167 1742.76 147.1 1745.46C120.518 1747.1 93.8344 1748.32 67.221 1747.18C50.3942 1746.47 28.7159 1745.27 14.0775 1736.1C-5.50874 1723.81 68.0616 1630.34 77.2323 1616.71C99.976 1582.93 116.649 1547.47 126.391 1505.61C134.335 1471.45 118.105 1444.6 101.362 1419.05C90.953 1403.18 57.3188 1363.27 67.85 1342.66C73.6257 1331.3 92.6601 1331.89 102.883 1331.31C122.367 1330.21 141.934 1331.35 161.417 1331.86C190.187 1332.63 220.811 1327.31 249.337 1331.59C312.556 1341.07 375.615 1349.27 439.225 1355.77C474.291 1359.34 509.568 1362.59 544.319 1369.49C556.794 1371.97 569.681 1374.59 581.502 1380.2C589.107 1383.8 593.252 1389.93 599.67 1394.96C630.269 1418.91 670.211 1431.23 704.673 1446.58C750.488 1466.99 796.546 1487.07 841.142 1511.18C864.598 1523.86 897.359 1538.42 913.499 1564.3C918.377 1572.12 916.297 1578.37 919.365 1585.89C922.895 1594.56 933.618 1597.14 940.543 1599.56C956.259 1605.05 1022.05 1613.35 991.729 1645.54C977.264 1660.87 958.833 1670.71 942.526 1682.76C936.622 1687.13 930.865 1691.52 925.943 1697.41C917.709 1707.29 909.597 1712.92 898.63 1719.18Z" stroke="#640E27" stroke-dasharray="11 5"/>
<path fill-rule="evenodd" clip-rule="evenodd" d="M793.243 1706.99C698.491 1751.07 587.446 1781.1 484.142 1775.28C449.789 1773.34 412.828 1766.86 383.049 1744.68C365.49 1731.58 351.459 1716.79 330.366 1712.06C315.14 1708.65 298.744 1712.53 283.427 1713.93C261.242 1715.96 239.045 1717.78 216.828 1719.25C189.285 1721.05 161.652 1722.43 134.058 1721.7C114.341 1721.16 87.1125 1721.76 69.9841 1709.05C49.5342 1693.89 101.588 1622.75 108.912 1610.07C126.663 1579.35 139.108 1549.59 143.605 1512.56C144.929 1501.77 149.388 1490.72 148.809 1479.84C148.205 1468.74 142.507 1458.85 137.245 1450.12C130.364 1438.68 106.49 1411.54 113.325 1397.59C117.103 1389.88 131.283 1388.91 138.632 1387.28C152.42 1384.2 166.407 1382.54 180.278 1380.09C203.812 1375.91 227.178 1362.31 250.796 1362.7C314.304 1363.72 378.732 1387.36 440.968 1400.34C477.968 1408.08 515.219 1415.11 551.769 1425.6C563.334 1428.92 575.245 1432.36 586.238 1437.99C593.909 1441.92 598.837 1448.92 605.943 1453.32C633.19 1470.22 664.523 1480.48 693.782 1491.85C731.765 1506.64 769.876 1520.99 807.596 1536.74C831.239 1546.61 861.641 1555.3 882.014 1573.6C896.893 1586.97 886.723 1590.97 878.872 1603.42C874.863 1609.77 875.788 1616.03 874.047 1623.22C871.561 1633.48 864.532 1640.87 857.94 1647.51C848.849 1656.69 836.739 1664.25 829.305 1675.5C826.684 1679.46 826.806 1684.38 824.686 1687.83C818.518 1697.89 802.154 1702.85 793.243 1706.99Z" stroke="#640E27" stroke-dasharray="11 5"/>
<path fill-rule="evenodd" clip-rule="evenodd" d="M692.586 1691.15C615.614 1718.9 529.969 1734.71 448.606 1727.37C420.297 1724.82 391.816 1718.88 365.446 1705.84C353.448 1699.93 344.442 1693.33 331.295 1692.98C300.792 1692.16 270.191 1695.02 239.694 1695.71C217.869 1696.2 195.934 1696.38 174.16 1694.27C159.602 1692.87 139.914 1691.18 127.987 1680.46C110.655 1664.84 141.943 1611.74 148.31 1597.07C158.864 1572.74 169.333 1545.7 165.148 1517.54C163.864 1508.94 161.592 1501.33 161.296 1492.55C161.014 1485.01 161.803 1478.04 159.576 1470.83C156.822 1461.89 144.574 1448.02 148.785 1439.78C151.655 1434.16 160.167 1433.9 165.828 1432.1C175.011 1429.19 183.977 1425.36 192.635 1420.66C201.75 1415.69 209.511 1408 218.953 1403.9C234.282 1397.24 251.441 1396.62 267.553 1396.65C331.841 1396.77 396.944 1412 459.602 1427.93C492.231 1436.23 525.039 1445.07 556.75 1457.64C566.379 1461.47 577.291 1465.3 585.758 1472.36C591.041 1476.75 594.623 1482.26 600.625 1485.56C651.895 1513.78 711.17 1524.25 765.598 1544.63C779.765 1549.93 858.278 1576.73 817.227 1601.94C792.289 1617.26 765.938 1624.23 743.182 1645.18C736.249 1651.55 731.628 1656.83 728.919 1666.55C727.134 1673.02 731.429 1669.74 725.433 1676.5C718.16 1684.63 701.554 1687.91 692.586 1691.15Z" stroke="#640E27" stroke-dasharray="11 5"/>
<path fill-rule="evenodd" clip-rule="evenodd" d="M612.764 1674.94C522.689 1697.64 427.299 1698.72 335.802 1678.59C312.736 1673.53 288.731 1674.74 265.382 1673.45C242.696 1672.22 202.361 1674.78 185.884 1653.78C173.936 1638.56 186.901 1606.21 191.385 1589.18C197.098 1567.48 202.091 1545.07 192.71 1524C187.216 1511.66 179.688 1499.91 173.795 1487.69C170.977 1481.85 165.173 1472.91 167.592 1467.38C171.594 1458.25 190.317 1454.41 199.402 1450.11C228.438 1436.36 259.186 1432.85 290.23 1432.95C347.569 1433.13 405.205 1442.57 461.45 1455.37C487.327 1461.26 513.565 1467.55 538.522 1477.79C552.645 1483.58 563.062 1494.75 576.547 1501.38C619.97 1522.73 666.622 1534.13 710.791 1553.65C723.576 1559.31 771.329 1578.13 747.272 1600.31C723.981 1621.79 690.01 1619.24 665.792 1639.45C663.052 1641.76 659.661 1644.53 658.072 1648.27C657.132 1650.51 658.786 1654.76 658.072 1656.04C650.634 1669.86 624.197 1672.06 612.764 1674.94Z" stroke="#640E27" stroke-dasharray="11 5"/>
<path fill-rule="evenodd" clip-rule="evenodd" d="M554.434 1660.23C508.144 1667.84 460.837 1669.73 413.767 1670.21C388.039 1670.48 359.771 1672.44 334.597 1664.62C319.132 1659.81 304.196 1655.6 288.255 1652.56C271.103 1649.3 243.486 1646.92 233.041 1629.22C225.238 1615.99 230.586 1588.8 230.87 1572.72C231.173 1555.07 228.157 1541.99 217.777 1529.37C211.25 1521.42 181.307 1492.56 184.767 1484.24C188.06 1476.32 208.924 1475.1 217.944 1473.04C246.457 1466.51 275.349 1464.23 304.351 1464.59C349.268 1465.13 394.353 1470.63 438.568 1480.07C456.848 1484 475.74 1488.06 493.202 1495.9C504.961 1501.19 514.768 1510.56 526.45 1516.02C559.905 1531.7 595.279 1542.34 628.849 1558.3C639.623 1563.43 674.727 1577.1 666.312 1598.15C659.295 1615.73 635.428 1621.08 623.701 1632.86C603.752 1652.95 579.873 1656.05 554.434 1660.23Z" stroke="#640E27" stroke-dasharray="11 5"/>
<path fill-rule="evenodd" clip-rule="evenodd" d="M525.002 1650.36C488.392 1655.4 450.932 1657.61 413.784 1657.71C389.811 1657.78 364.519 1658.18 340.993 1651.69C329.176 1648.44 318.907 1640.83 307.723 1635.4C296.207 1629.82 280.314 1623.59 275.336 1610.79C270.659 1598.76 272.406 1581.22 268.298 1566.71C264.645 1553.84 256.999 1545.9 248.765 1537.2C243.518 1531.64 216.576 1507.58 219.692 1502.26C223.032 1496.57 239.213 1497.04 247.632 1496.25C270.831 1494.05 294.111 1493.34 317.372 1494.15C349.119 1495.32 381.109 1498.59 412.306 1505.99C434.437 1511.23 451.13 1523.72 471.764 1532.88C498.495 1544.78 526.186 1554.18 552.661 1567.2C565.854 1573.68 585.381 1582.02 592.137 1598.76C594.735 1605.18 597.256 1621.49 594.364 1627.91C590.89 1635.62 577.959 1638.89 571.855 1640.87C556.564 1645.81 540.562 1648.22 525.002 1650.36Z" stroke="#640E27" stroke-dasharray="11 5"/>
</g>
</svg>
