<svg width="28" height="28" viewBox="0 0 28 28" fill="none" xmlns="http://www.w3.org/2000/svg">
<path d="M22.7502 4.66634H19.2502V2.91634C19.2502 2.76163 19.1887 2.61326 19.0793 2.50386C18.9699 2.39447 18.8215 2.33301 18.6668 2.33301C18.5121 2.33301 18.3637 2.39447 18.2544 2.50386C18.145 2.61326 18.0835 2.76163 18.0835 2.91634V4.66634H9.91683V2.91634C9.91683 2.76163 9.85537 2.61326 9.74598 2.50386C9.63658 2.39447 9.48821 2.33301 9.3335 2.33301C9.17879 2.33301 9.03041 2.39447 8.92102 2.50386C8.81162 2.61326 8.75016 2.76163 8.75016 2.91634V4.66634H5.25016C4.4769 4.66727 3.73557 4.97486 3.18879 5.52164C2.64201 6.06842 2.33442 6.80974 2.3335 7.58301V22.7497C2.33442 23.5229 2.64201 24.2643 3.18879 24.811C3.73557 25.3578 4.4769 25.6654 5.25016 25.6663H22.7502C23.5235 25.6657 24.265 25.3582 24.8119 24.8114C25.3587 24.2645 25.6662 23.523 25.6668 22.7497V7.58301C25.6662 6.80965 25.3587 6.06814 24.8119 5.5213C24.265 4.97445 23.5235 4.66696 22.7502 4.66634ZM24.5002 22.7497C24.5002 23.7157 23.7162 24.4997 22.7502 24.4997H5.25016C4.28183 24.4997 3.50016 23.7157 3.50016 22.7497V12.833H24.5002V22.7497ZM24.5002 11.6663H3.50016V7.58301C3.50016 6.61701 4.28183 5.83301 5.25016 5.83301H8.75016V7.58301C8.75016 7.73772 8.81162 7.88609 8.92102 7.99549C9.03041 8.10488 9.17879 8.16634 9.3335 8.16634C9.48821 8.16634 9.63658 8.10488 9.74598 7.99549C9.85537 7.88609 9.91683 7.73772 9.91683 7.58301V5.83301H18.0835V7.58301C18.0835 7.73772 18.145 7.88609 18.2544 7.99549C18.3637 8.10488 18.5121 8.16634 18.6668 8.16634C18.8215 8.16634 18.9699 8.10488 19.0793 7.99549C19.1887 7.88609 19.2502 7.73772 19.2502 7.58301V5.83301H22.7502C23.7162 5.83301 24.5002 6.61701 24.5002 7.58301V11.6663Z" fill="#191919"/>
</svg>
