<svg width="336" height="290" viewBox="0 0 336 290" fill="none" xmlns="http://www.w3.org/2000/svg">
<g clip-path="url(#clip0_1252_11080)">
<path d="M74.4459 227.823H32.6108V290H74.4459V227.823Z" fill="#263238"/>
<path d="M305.386 227.823H263.551V290H305.386V227.823Z" fill="#263238"/>
<path d="M59.1736 117.894C59.1736 117.894 43.7254 129.824 42.526 133.998C41.2694 135.609 40.5983 137.6 40.6229 139.643C40.3709 142.684 39.879 145.7 39.1517 148.663C39.1517 148.663 32.1632 162.08 31.4275 168.685C30.6919 175.289 31.4275 236.507 31.4275 236.507H305.37V163.471L297.774 144.953C297.774 144.953 295.871 133.55 293.504 130.224C291.137 126.898 273.61 116.455 273.61 116.455L262.24 86.3901C258.306 77.4186 248.087 65.9363 233.278 66.0003H103.088C92.0211 66.0003 79.6594 75.5955 76.0292 82.6639L59.1736 117.894Z" fill="#E0E0E0"/>
<g opacity="0.3">
<path opacity="0.3" d="M31.1077 191.763H305.37V236.508H31.4275L31.1077 191.763Z" fill="black"/>
</g>
<path d="M73.0867 116.199H263.503C263.503 116.199 261.12 72.5732 232.559 72.5732C203.997 72.5732 103.823 73.4048 103.823 73.4048C103.823 73.4048 91.3335 71.022 80.7788 88.7891C76.8021 95.6067 74.3574 103.208 73.6144 111.066L73.0867 116.199Z" fill="#455A64"/>
<g opacity="0.3">
<path opacity="0.3" d="M116.777 73.3096L151.463 116.2H173.293L136.687 73.3096H116.777Z" fill="white"/>
</g>
<g opacity="0.3">
<path opacity="0.3" d="M103.823 73.4055L136.687 116.2H142.14L109.388 73.3096L103.823 73.4055Z" fill="white"/>
</g>
<path d="M263.503 116.199C263.503 116.199 263.775 116.647 264.255 117.559L266.398 121.589C268.269 125.187 271.019 130.448 274.586 137.245V137.341C274.586 144.953 274.586 154.372 274.682 165.279C274.682 170.732 274.682 176.569 274.682 182.742C274.67 186.116 273.341 189.351 270.978 191.759C268.615 194.167 265.405 195.556 262.032 195.631H168.783H97.9701H81.9781C79.3874 195.631 76.8927 195.631 74.334 195.535C73.0642 195.388 71.821 195.065 70.6399 194.576C68.3352 193.601 66.3669 191.972 64.9787 189.89C64.3048 188.901 63.7669 187.825 63.3795 186.692C62.8014 184.438 62.5962 182.104 62.7718 179.783C62.7718 175.29 62.7718 170.988 62.7718 166.862C62.7718 158.642 62.7718 151.206 62.8518 144.665C62.8518 141.467 62.8517 138.348 62.7718 135.55C62.711 134.182 62.9855 132.821 63.5714 131.583C64.0831 130.4 64.6108 129.297 65.1706 128.289C67.3775 124.227 69.3925 121.269 70.7358 119.254L72.335 116.983L72.9107 116.231C72.9107 116.231 72.7508 116.519 72.415 117.031C72.0791 117.543 71.5514 118.342 70.9117 119.35C69.6004 121.381 67.7133 124.371 65.4904 128.433C64.9627 129.457 64.4349 130.544 63.8912 131.711C63.3349 132.905 63.0823 134.218 63.1557 135.534C63.2516 138.348 63.2675 141.387 63.2995 144.649C63.2995 151.206 63.2995 158.642 63.2995 166.862C63.2995 170.988 63.2995 175.295 63.2995 179.783C63.119 182.04 63.319 184.31 63.8912 186.5C64.2617 187.582 64.7668 188.614 65.3945 189.57C66.0612 190.533 66.8516 191.404 67.7453 192.161C69.596 193.697 71.8615 194.649 74.2541 194.896C76.6849 195.024 79.2756 194.896 81.8343 194.896H97.8263H168.639H261.872C265.065 194.833 268.108 193.526 270.351 191.253C272.595 188.979 273.862 185.92 273.882 182.726C273.882 176.553 273.882 170.716 273.882 165.263C273.882 154.356 273.882 144.937 273.882 137.325V137.421L265.886 121.668L263.839 117.591C263.711 116.695 263.503 116.199 263.503 116.199Z" fill="#263238"/>
<g opacity="0.3">
<path opacity="0.3" d="M97.3784 177.24L126.516 146.839H212.025L241.786 177.24L210.905 155.746H127.443L97.3784 177.24Z" fill="black"/>
</g>
<path d="M300.061 155.746C300.061 155.746 300.061 156.226 300.061 157.169C300.061 158.113 300.061 159.536 300.061 161.343C300.061 165.021 300.061 170.394 300.157 177.239V177.447H299.949L257.746 177.559H244.393H241.786C241.786 177.639 241.194 177.383 241.194 177.319L240.826 177.031C239.931 176.232 239.099 175.432 238.236 174.568L233.118 169.435C226.258 162.414 219.077 154.914 211.609 147.046L211.913 147.174H126.484L126.772 147.046C116.361 157.889 106.574 168.092 97.6023 177.431L97.5064 177.543H97.3465L34.386 177.383H34.1941V177.191C34.1941 171.242 34.274 166.668 34.29 163.534C34.29 162.009 34.29 160.842 34.29 160.032C34.29 159.248 34.29 158.848 34.29 158.848C34.29 158.848 34.29 159.248 34.29 160.032C34.29 160.815 34.29 162.015 34.29 163.534C34.29 166.732 34.29 171.242 34.386 177.191L34.1941 176.999L97.1545 176.823L96.8987 176.935L126.004 146.55L126.116 146.438H211.961L212.089 146.566C219.525 154.402 226.69 161.919 233.534 168.955L238.636 174.105C239.483 174.936 240.331 175.704 241.178 176.535L241.498 176.791L241.594 176.871C241.594 176.871 241.594 176.871 241.594 176.983V176.903H257.586L299.789 177.031L299.581 177.239C299.581 170.394 299.661 165.021 299.677 161.343C299.677 159.541 299.677 158.15 299.677 157.169C300.013 156.226 300.061 155.746 300.061 155.746Z" fill="#263238"/>
<path d="M207.291 155.747H129.81V174.298H207.291V155.747Z" fill="#455A64"/>
<path d="M30.532 225.904L40.2392 214.134L299.869 213.559L305.402 230.046V245.527L282.582 259.232H58.502C58.502 259.232 31.7314 248.837 30.5 237.179L30.532 225.904Z" fill="#263238"/>
<g opacity="0.3">
<path opacity="0.3" d="M267.981 234.284H73.0866C71.1721 234.282 69.2759 234.657 67.5065 235.389C65.7371 236.12 64.1292 237.193 62.7747 238.546C61.4202 239.899 60.3456 241.505 59.6124 243.274C58.8793 245.043 58.502 246.938 58.502 248.853V258.56L68.5129 259.28H280.663V246.95C280.663 245.285 280.334 243.637 279.697 242.099C279.059 240.562 278.125 239.165 276.947 237.988C275.769 236.812 274.371 235.879 272.833 235.244C271.294 234.608 269.646 234.282 267.981 234.284Z" fill="black"/>
</g>
<path d="M79.5795 249.427C79.5827 250.943 79.1362 252.426 78.2964 253.687C77.4566 254.949 76.2613 255.934 74.8619 256.516C73.4624 257.098 71.9218 257.252 70.4348 256.958C68.9478 256.664 67.5814 255.936 66.5085 254.866C65.4357 253.795 64.7045 252.43 64.4076 250.944C64.1108 249.457 64.2615 247.916 64.8408 246.516C65.4201 245.115 66.4019 243.918 67.662 243.075C68.922 242.233 70.4037 241.783 71.9194 241.783C73.9469 241.787 75.8905 242.594 77.3257 244.026C78.7609 245.458 79.5711 247.4 79.5795 249.427Z" fill="#455A64"/>
<path d="M95.9393 249.427C95.9424 250.944 95.4954 252.427 94.6549 253.689C93.8144 254.951 92.6182 255.936 91.2179 256.517C89.8175 257.099 88.276 257.252 86.7886 256.957C85.3012 256.662 83.9348 255.932 82.8625 254.86C81.7903 253.788 81.0604 252.421 80.7653 250.934C80.4703 249.446 80.6233 247.905 81.205 246.505C81.7868 245.104 82.7712 243.908 84.0333 243.068C85.2955 242.227 86.7786 241.78 88.295 241.783C90.3211 241.787 92.263 242.594 93.6956 244.027C95.1283 245.459 95.935 247.401 95.9393 249.427Z" fill="#455A64"/>
<path d="M102.272 258.559C101.851 254.752 101.712 250.92 101.856 247.093C101.711 243.271 101.85 239.444 102.272 235.643C102.826 243.271 102.826 250.93 102.272 258.559Z" fill="#263238"/>
<path d="M123.078 258.559C122.657 254.752 122.518 250.92 122.662 247.093C122.517 243.271 122.656 239.444 123.078 235.643C123.632 243.271 123.632 250.93 123.078 258.559Z" fill="#263238"/>
<path d="M143.883 258.559C143.462 254.752 143.323 250.92 143.467 247.093C143.323 243.271 143.462 239.444 143.883 235.643C144.438 243.271 144.438 250.93 143.883 258.559Z" fill="#263238"/>
<path d="M164.673 258.559C164.118 250.93 164.118 243.271 164.673 235.643C165.094 239.444 165.233 243.271 165.089 247.093C165.233 250.92 165.094 254.752 164.673 258.559Z" fill="#263238"/>
<path d="M185.478 258.559C184.924 250.93 184.924 243.271 185.478 235.643C185.9 239.444 186.039 243.271 185.894 247.093C186.038 250.92 185.899 254.752 185.478 258.559Z" fill="#263238"/>
<path d="M206.284 258.559C205.73 250.93 205.73 243.271 206.284 235.643C206.705 239.444 206.844 243.271 206.7 247.093C206.844 250.92 206.705 254.752 206.284 258.559Z" fill="#263238"/>
<path d="M227.089 258.559C226.535 250.93 226.535 243.271 227.089 235.643C227.644 243.271 227.644 250.93 227.089 258.559Z" fill="#263238"/>
<path d="M247.895 258.559C247.341 250.93 247.341 243.271 247.895 235.643C248.449 243.271 248.449 250.93 247.895 258.559Z" fill="#263238"/>
<path d="M268.573 258.559C268.018 250.93 268.018 243.271 268.573 235.643C268.994 239.444 269.133 243.271 268.988 247.093C269.133 250.92 268.994 254.752 268.573 258.559Z" fill="#263238"/>
<path d="M36.1611 219.027L75.1336 219.155V214.054L40.2071 214.134L36.1611 219.027Z" fill="#FF725E"/>
<path d="M301.596 218.772H264.735V213.559H299.837L301.596 218.772Z" fill="#FF725E"/>
<path d="M272.651 116.406C272.651 116.63 227.393 116.822 171.565 116.822C115.737 116.822 70.48 116.63 70.48 116.406C70.48 116.182 115.737 115.99 171.565 115.99C227.393 115.99 272.651 116.182 272.651 116.406Z" fill="#263238"/>
<path d="M305.37 239.577C305.361 239.771 305.334 239.964 305.29 240.153L304.954 241.752C304.373 243.89 303.391 245.898 302.06 247.669C298.686 252.467 291.121 257.264 280.695 259.471L169.103 259.615L66.4021 259.487C60.4349 259.527 54.5214 258.358 49.0188 256.049C44.8688 254.288 41.0752 251.784 37.8245 248.66C35.7734 246.706 33.9739 244.503 32.4672 242.104C32.0679 241.486 31.7048 240.845 31.3797 240.185C31.2723 239.96 31.1761 239.731 31.0918 239.497L31.4597 240.153C31.6996 240.585 32.0673 241.224 32.6111 242.024C34.1672 244.361 35.9921 246.508 38.0484 248.421C41.2943 251.463 45.0584 253.9 49.1628 255.617C54.6206 257.826 60.4672 258.914 66.3542 258.815L169.055 258.703L280.647 258.863C290.946 256.72 298.478 252.019 301.868 247.397C303.206 245.666 304.215 243.704 304.843 241.608C305.003 240.92 305.146 240.377 305.242 240.009C305.338 239.641 305.37 239.577 305.37 239.577Z" fill="#455A64"/>
<path d="M40.5271 140.715C40.5271 140.715 44.765 134.734 68.4171 134.734H270.412C270.412 134.734 287.587 133.838 297.294 142.218L295.183 152.133H248.807L231.855 141.211H108.141L90.5501 152.133H42.5741L40.5271 140.715Z" fill="#FF725E"/>
<path d="M274.042 137.693C274.042 137.933 225.026 138.109 164.577 138.109C104.127 138.109 55.1116 137.933 55.1116 137.693C55.1116 137.453 104.111 137.277 164.577 137.277C225.042 137.277 274.042 137.533 274.042 137.693Z" fill="white"/>
<g opacity="0.3">
<path opacity="0.3" d="M74.1102 113.703C74.8423 105.846 77.2819 98.2429 81.2586 91.4265C91.8293 73.6434 104.303 76.0422 104.303 76.0422C104.303 76.0422 204.477 75.1946 233.039 75.1946C257.362 75.1946 262.704 106.827 263.743 116.214H264.015C264.015 116.214 261.632 72.5879 233.071 72.5879C204.509 72.5879 104.335 73.4195 104.335 73.4195C104.335 73.4195 91.8613 71.0367 81.2906 88.8038C77.3196 95.6227 74.8804 103.224 74.1423 111.081L73.6145 116.214H73.8703L74.1102 113.703Z" fill="black"/>
</g>
<path d="M139.134 75.6754C139.134 76.3555 139.403 77.008 139.882 77.4904C140.361 77.9728 141.012 78.2459 141.692 78.2501H193.858C194.196 78.2501 194.531 78.1835 194.843 78.0541C195.156 77.9247 195.44 77.7351 195.679 77.496C195.918 77.2569 196.107 76.9731 196.237 76.6607C196.366 76.3483 196.433 76.0135 196.433 75.6754V75.3236C196.433 74.9849 196.366 74.6495 196.235 74.337C196.104 74.0244 195.913 73.7409 195.672 73.5029C195.431 73.2649 195.145 73.0771 194.831 72.9504C194.517 72.8237 194.181 72.7606 193.842 72.7648L141.676 73.1327C141.003 73.1369 140.359 73.4061 139.883 73.8821C139.407 74.358 139.138 75.0023 139.134 75.6754Z" fill="#FF725E"/>
</g>
<defs>
<clipPath id="clip0_1252_11080">
<rect width="335" height="290" fill="white" transform="translate(0.5)"/>
</clipPath>
</defs>
</svg>
