<svg width="277" height="296" viewBox="0 0 277 296" fill="none" xmlns="http://www.w3.org/2000/svg">
<g clip-path="url(#clip0_1252_10878)">
<path d="M264.547 36.9376L262.891 34.3179C248.907 12.1748 223.631 -1.17271 196.978 0.451517C193.542 0.648536 190.125 1.08632 186.756 1.76138C162.522 6.74539 141.437 24.3564 132.701 46.9122C127.562 60.1745 126.124 75.4475 116.345 85.9788C103.697 99.7061 82.1482 100.138 63.1962 99.5489C44.2442 98.9595 22.6822 99.4638 10.0407 113.224C2.12869 121.836 -0.385976 134.09 0.254616 145.623C1.93788 176.176 24.1065 203.486 52.2585 217.063C80.4105 230.64 113.626 231.845 144.429 225.904C187.614 217.534 228.68 194.56 253.364 159.102C278.047 123.644 284.303 75.2379 264.547 36.9376Z" fill="#F5F5F5"/>
<path d="M68.284 34.0828C70.8473 23.7825 64.2366 13.4354 53.5187 10.9721C42.8008 8.50868 32.0343 14.8618 29.471 25.1621C26.9078 35.4624 33.5184 45.8095 44.2363 48.2729C54.9543 50.7362 65.7208 44.3831 68.284 34.0828Z" fill="#F5F5F5"/>
<path d="M273.133 278.541C273.133 278.639 212.7 278.711 138.2 278.711C63.7006 278.711 3.21912 278.639 3.21912 278.541C3.21912 278.443 63.6052 278.345 138.159 278.345C212.713 278.345 273.133 278.45 273.133 278.541Z" fill="#263238"/>
<path d="M150.078 35.0977C150.371 30.1792 153.52 27.1534 157.936 24.6188C160.16 23.3754 162.663 22.6665 165.233 22.5525C167.803 22.4384 170.363 22.9226 172.697 23.9639C175.797 25.3786 178.51 27.8018 181.91 28.2209C187.512 28.9152 192.814 23.9246 198.314 25.1755C199.971 25.5356 201.446 26.4413 202.482 27.7358C203.518 29.0303 204.051 30.6322 203.987 32.2643C203.924 33.8964 203.27 35.4559 202.136 36.673C201.003 37.8901 199.463 38.6881 197.782 38.929C201.448 39.4464 203.527 43.9 202.171 47.2205C200.815 50.5409 196.964 52.4599 193.257 52.5385C189.55 52.6171 185.986 51.1566 182.783 49.3686C179.58 47.5807 176.581 45.439 173.242 43.8934C169.903 42.3478 166.052 41.4571 162.468 42.374C157.622 43.6118 154.181 48.0129 152.927 52.6826C151.673 57.3522 152.205 62.2838 152.961 67.0517C153.717 71.8196 154.672 76.6268 154.195 81.4602C154.212 81.7422 154.159 82.024 154.04 82.2825C153.922 82.541 153.741 82.7687 153.513 82.9469C152.77 83.3398 151.918 82.6652 151.366 82.0365C145.138 74.9455 140.419 66.7478 137.478 57.9089C135.788 52.7939 134.854 47.823 136.885 42.8455C138.916 37.8681 145.744 33.0871 150.072 35.1174" fill="#263238"/>
<path d="M145.356 58.8845L153.533 107.506C155.067 116.584 161.207 125.353 176.022 122.373C188.678 118.856 187.737 110.107 186.088 99.3133C186.088 99.3133 200.017 95.8291 198.77 82.2196C198.164 75.6703 195.779 62.1919 193.468 50.0495C192.271 43.7592 188.652 38.1329 183.333 34.2906C178.014 30.4483 171.385 28.6717 164.764 29.3144L163.401 29.4454C148.797 31.6918 142.616 44.8887 145.356 58.8845Z" fill="#FFBF9D"/>
<path d="M186.122 99.3138C186.122 99.3138 177.263 100.676 167.156 95.8623C167.156 95.8623 172.71 105.974 186.701 103.381L186.122 99.3138Z" fill="#FF9A6C"/>
<path d="M188.705 63.6657C188.758 64.17 188.606 64.6744 188.28 65.0735C187.955 65.4726 187.482 65.7355 186.96 65.8073C186.706 65.8523 186.444 65.8477 186.192 65.7939C185.939 65.7401 185.7 65.6381 185.489 65.494C185.278 65.3498 185.099 65.1665 184.963 64.9549C184.828 64.7432 184.737 64.5075 184.698 64.2617C184.643 63.7573 184.793 63.2521 185.117 62.8517C185.441 62.4513 185.913 62.1868 186.435 62.1135C186.691 62.0686 186.953 62.0733 187.207 62.1275C187.46 62.1817 187.7 62.2841 187.911 62.4288C188.123 62.5736 188.302 62.7576 188.438 62.97C188.575 63.1825 188.665 63.419 188.705 63.6657Z" fill="#263238"/>
<path d="M191.165 57.0118C190.94 57.2869 189.291 56.3569 187.117 56.5665C184.943 56.7761 183.464 57.9811 183.198 57.7454C183.076 57.6471 183.28 57.1625 183.921 56.6123C184.797 55.8951 185.882 55.4539 187.028 55.3483C188.157 55.2333 189.294 55.4624 190.279 56.0033C191.001 56.4486 191.274 56.8874 191.165 57.0118Z" fill="#263238"/>
<path d="M168.335 64.9171C168.39 65.4215 168.24 65.9267 167.916 66.327C167.592 66.7274 167.12 66.9919 166.598 67.0652C166.341 67.11 166.077 67.1046 165.822 67.0492C165.568 66.9938 165.327 66.8897 165.115 66.7429C164.903 66.5962 164.724 66.4099 164.589 66.1952C164.454 65.9805 164.365 65.7418 164.328 65.4934C164.274 64.988 164.425 64.482 164.75 64.0814C165.075 63.6809 165.549 63.417 166.073 63.3452C166.329 63.3014 166.592 63.3076 166.846 63.3634C167.1 63.4193 167.34 63.5236 167.551 63.6703C167.762 63.8169 167.94 64.0029 168.075 64.2171C168.21 64.4312 168.298 64.6693 168.335 64.9171Z" fill="#263238"/>
<path d="M169.835 59.4679C169.61 59.7429 167.967 58.8129 165.793 59.0225C163.619 59.2321 162.134 60.4372 161.875 60.2014C161.745 60.0966 161.95 59.6185 162.597 59.0618C163.473 58.3441 164.559 57.9047 165.705 57.8043C166.833 57.6871 167.971 57.9163 168.955 58.4593C169.671 58.9046 169.944 59.3434 169.835 59.4679Z" fill="#263238"/>
<path d="M179.348 74.1968C179.348 74.0789 180.65 73.7253 182.81 73.2472C183.362 73.1358 183.873 72.9787 183.928 72.5923C183.921 72.0366 183.735 71.4966 183.396 71.0466C182.737 69.811 182.056 68.5011 181.352 67.117C178.462 61.5567 176.315 56.9591 176.547 56.8478C176.779 56.7364 179.314 61.1572 182.197 66.7241C182.878 68.0929 183.56 69.4028 184.2 70.6537C184.614 71.2661 184.792 71.998 184.705 72.7232C184.646 72.9197 184.54 73.1002 184.396 73.2503C184.251 73.4004 184.072 73.516 183.873 73.5877C183.575 73.6997 183.264 73.7745 182.946 73.8104C180.731 74.1706 179.369 74.3147 179.348 74.1968Z" fill="#263238"/>
<path d="M169.542 51.2286C169.385 51.8115 167.184 51.7525 164.669 52.2961C162.154 52.8397 160.158 53.7042 159.762 53.2327C159.585 53.0035 159.892 52.4337 160.662 51.7984C161.695 51.0063 162.91 50.4629 164.206 50.2134C165.494 49.9376 166.832 49.9578 168.11 50.2724C169.085 50.5475 169.603 50.947 169.542 51.2286Z" fill="#263238"/>
<path d="M189.727 51.0457C189.4 51.5565 187.846 51.2094 186.047 51.36C184.248 51.5107 182.755 52.015 182.353 51.5369C182.169 51.3076 182.353 50.8099 182.98 50.299C183.82 49.674 184.833 49.3024 185.892 49.2313C186.951 49.1602 188.008 49.3927 188.93 49.8995C189.611 50.3252 189.877 50.7968 189.727 51.0457Z" fill="#263238"/>
<path d="M147.564 68.8397C147.312 68.7611 137.56 67.0124 138.841 76.2797C140.122 85.5469 149.533 82.3967 149.513 82.1282C149.492 81.8597 147.564 68.8397 147.564 68.8397Z" fill="#FFBF9D"/>
<path d="M146.085 78.9977C146.037 78.9977 145.928 79.1287 145.662 79.2925C145.287 79.5073 144.84 79.5731 144.415 79.4758C143.345 79.2466 142.269 77.7992 141.996 76.1357C141.861 75.3446 141.912 74.5344 142.146 73.7648C142.195 73.4642 142.319 73.1796 142.51 72.9363C142.7 72.693 142.949 72.4985 143.236 72.3698C143.424 72.2927 143.634 72.2834 143.828 72.3436C144.022 72.4037 144.187 72.5294 144.293 72.6973C144.463 72.9396 144.422 73.1296 144.477 73.1427C144.531 73.1558 144.661 72.9593 144.531 72.586C144.447 72.3637 144.286 72.1762 144.075 72.0555C143.783 71.8962 143.438 71.8538 143.114 71.9376C142.728 72.0634 142.383 72.2816 142.11 72.5715C141.837 72.8615 141.645 73.2136 141.553 73.5946C141.256 74.4504 141.179 75.3628 141.328 76.2536C141.648 78.1136 142.889 79.7312 144.333 79.9408C144.603 79.9802 144.878 79.9612 145.138 79.8853C145.399 79.8094 145.638 79.6784 145.84 79.502C146.099 79.2466 146.119 79.0043 146.085 78.9977Z" fill="#FF9A6C"/>
<path d="M192.351 37.3703C190.811 34.8226 188.344 32.9036 185.72 31.3711C180.059 27.9878 173.432 26.4065 166.782 26.8521C160.113 27.3517 153.908 30.3196 149.472 35.1304C146.082 39.0803 143.971 43.8983 143.4 48.9887C142.852 54.0548 143.357 59.1752 144.886 64.0521C145.519 66.2003 146.378 68.4074 148.143 69.8613C149.247 70.7651 151.026 71.2629 152.082 70.3067C152.634 69.6724 152.95 68.8798 152.982 68.0537C154.092 60.6989 155.121 52.8135 151.666 46.166C153.193 43.6082 155.251 41.3791 157.711 39.6167C158.947 38.749 160.349 38.1251 161.837 37.7811C163.324 37.4372 164.868 37.3799 166.379 37.6126C170.823 38.4771 173.876 42.2495 177.638 44.7186C180.33 46.4689 183.416 47.579 186.643 47.957C189.87 48.3351 193.143 47.9704 196.194 46.8929L192.351 37.3703Z" fill="#263238"/>
<path d="M181.256 79.8427C181.147 80.7235 180.903 81.5841 180.534 82.3969C180.349 82.8031 180.076 83.1665 179.733 83.4625C179.389 83.7585 178.984 83.9803 178.544 84.1128C178.063 84.2133 177.564 84.1944 177.093 84.0581C176.622 83.9217 176.195 83.6723 175.852 83.3335C175.167 82.6467 174.728 81.7681 174.598 80.8251C174.455 79.9802 174.639 78.9061 175.477 78.6376C175.837 78.5492 176.214 78.5492 176.574 78.6376L181.495 79.489" fill="#FF9A6C"/>
<path d="M180.227 83.7922C180.179 83.6612 179.266 84.2441 177.747 83.9887C176.89 83.8519 176.115 83.4158 175.573 82.7639C175.26 82.3615 175.038 81.9009 174.921 81.4116C174.804 80.9223 174.793 80.4149 174.891 79.9216C174.944 79.6695 175.032 79.4252 175.15 79.1946C175.286 78.9785 175.259 78.9916 175.457 78.9785C175.654 78.9654 175.982 79.0636 176.24 79.1094L177.051 79.247C178.101 79.4304 179.055 79.581 179.852 79.6989C181.454 79.9347 182.456 80.0263 182.476 79.9216C182.496 79.8168 181.542 79.5286 179.968 79.1487C179.184 78.9654 178.244 78.7492 177.201 78.5331L176.397 78.3628C176.101 78.2929 175.8 78.2382 175.498 78.1991C175.259 78.177 175.019 78.2323 174.816 78.3563C174.636 78.4776 174.493 78.6426 174.4 78.8344C174.251 79.1299 174.141 79.4423 174.073 79.7644C173.946 80.3683 173.96 80.992 174.114 81.5901C174.269 82.1882 174.56 82.7458 174.966 83.2224C175.308 83.603 175.725 83.9147 176.193 84.1395C176.661 84.3643 177.17 84.4978 177.692 84.5323C178.369 84.6034 179.053 84.4923 179.668 84.2113C180.077 84.0214 180.254 83.8315 180.227 83.7922Z" fill="#263238"/>
<path d="M201.537 27.0947C201.628 27.2911 201.692 27.4981 201.728 27.7104C201.846 28.3106 201.866 28.9247 201.789 29.5311C201.631 30.6558 201.24 31.7387 200.639 32.716C200.039 33.6934 199.241 34.5456 198.293 35.2224C195.922 37.0366 192.16 37.7635 188.309 37.1872C184.459 36.6108 180.479 34.8622 176.39 33.2576C172.301 31.653 168.144 30.5397 164.349 31.2077C161.016 31.8159 157.991 33.4781 155.755 35.9297C154.215 37.5596 152.973 39.4286 152.082 41.4573C151.462 42.9047 151.251 43.7496 151.182 43.7365C151.197 43.5144 151.238 43.2947 151.305 43.0816C151.454 42.4939 151.636 41.9145 151.85 41.346C152.672 39.2447 153.882 37.3033 155.421 35.6154C157.691 33.0413 160.802 31.2841 164.246 30.6313C168.179 29.9044 172.526 31.0308 176.636 32.6682C180.745 34.3055 184.609 36.0869 188.398 36.5977C192.187 37.1086 195.744 36.5126 198.034 34.836C199.869 33.5552 201.122 31.6472 201.537 29.5049C201.644 28.7048 201.644 27.8948 201.537 27.0947Z" fill="#455A64"/>
<path d="M138.248 55.3215C138.195 54.4525 138.322 53.5819 138.623 52.7607C139.539 49.6006 141.442 46.7866 144.075 44.6985C144.829 44.0582 145.738 43.6081 146.719 43.3887C147.407 43.2463 148.125 43.3245 148.763 43.6114C149.193 43.8209 149.356 44.0371 149.329 44.0633C148.555 43.7058 147.676 43.6156 146.841 43.8078C145.329 44.1811 143.625 45.7726 142.071 47.5802C140.775 49.1875 139.762 50.9885 139.073 52.9114C138.507 54.3588 138.35 55.3346 138.248 55.3215Z" fill="#455A64"/>
<path d="M140.803 63.3387C140.822 62.4645 141.006 61.601 141.349 60.791C142.79 56.7557 145.732 53.374 149.608 51.2945C150.378 50.8273 151.23 50.4988 152.123 50.3252C151.385 50.7983 150.623 51.2355 149.84 51.6351C146.209 53.846 143.386 57.09 141.764 60.9154C141.488 61.7387 141.167 62.5475 140.803 63.3387Z" fill="#455A64"/>
<path d="M192.732 115.805C192.732 115.805 203.07 128.622 205.558 133.435C208.045 138.249 225.873 191.436 225.873 191.436L218.138 194.56L192.732 115.805Z" fill="#455A64"/>
<path d="M151.141 103.807V97.3818L188.705 109.125L198.763 124.601L206.519 146.22L184.779 114.816L151.141 103.807Z" fill="#EBEBEB"/>
<path d="M148.906 109.982C148.906 109.982 132.973 128.32 133.314 140.214C133.655 151.943 150.208 223.219 150.208 223.219L146.201 235.958L141.86 278.41H232.156L225.873 191.436C224.871 191.383 206.11 141.589 206.11 141.589L185.072 113.565L150.487 101.586L148.906 109.982Z" fill="#455A64"/>
<path d="M217.715 170.721C217.715 170.721 224.033 170.485 227.331 171.9C230.63 173.314 233.417 172.607 235.747 176.988C238.078 181.37 240.804 183.354 241.376 190.002C241.949 196.649 234.48 212.053 229.546 214.234C224.612 216.415 217.715 170.721 217.715 170.721Z" fill="#455A64"/>
<g opacity="0.3">
<path opacity="0.3" d="M147.08 170.119C147.08 170.119 183.996 203.422 188.691 206.605C193.387 209.788 194.082 229.927 199.867 230.313C205.653 230.7 224.401 217.372 224.401 217.372L168.867 167.093L147.08 170.119Z" fill="black"/>
</g>
<path d="M199.063 199.937C199.063 199.937 191.035 209.806 190.115 212.282C189.195 214.758 188.303 216.401 189.284 217.227C189.636 217.587 190.095 217.835 190.598 217.936C191.101 218.038 191.625 217.989 192.099 217.796C193.407 217.312 199.861 209.132 199.861 209.132C199.861 209.132 191.301 220.862 190.913 222.885C190.524 224.909 192.201 225.891 194.163 225.538C196.126 225.184 199.861 219.886 199.861 219.886C199.861 219.886 194.566 225.78 195.683 226.776C196.801 227.771 198.089 227.895 199.561 227.188C201.033 226.481 204.767 221.831 204.767 221.831C204.767 221.831 202.191 224.451 203.602 225.105C205.013 225.76 205.135 225.826 206.362 224.85C207.589 223.874 218.411 213.716 218.411 213.716L211.596 209.223L199.063 199.937Z" fill="#FFBF9D"/>
<path d="M202.355 205.969C201.98 206.548 201.561 207.099 201.101 207.619L197.966 211.549C196.739 213.075 195.588 214.43 194.715 215.387C194.277 215.925 193.784 216.421 193.243 216.867C193.627 216.291 194.055 215.744 194.525 215.229L197.687 211.339C198.913 209.813 200.051 208.444 200.903 207.475C201.336 206.93 201.822 206.425 202.355 205.969Z" fill="#FF9A6C"/>
<path d="M208.045 210.697C206.71 212.473 205.282 214.183 203.766 215.819C202.336 217.525 200.816 219.16 199.213 220.718C200.546 218.94 201.974 217.23 203.493 215.596C204.923 213.89 206.442 212.255 208.045 210.697Z" fill="#FF9A6C"/>
<path d="M212.604 213.664C211.2 215.39 209.703 217.045 208.12 218.622C206.618 220.277 205.025 221.856 203.35 223.35C204.756 221.626 206.253 219.971 207.834 218.393C209.334 216.735 210.927 215.157 212.604 213.664Z" fill="#FF9A6C"/>
<path d="M153.792 121.384C158.979 120.33 165.562 119.891 170.577 122.622L197.966 146.37C197.966 146.37 236.572 187.991 238.085 190.309C239.598 192.627 241.635 206.329 235.788 213.31C229.941 220.292 223.344 217.606 215.848 215.963C209.912 214.653 168.403 185.345 151.339 173.17C145.409 168.974 141.133 162.972 139.209 156.141C137.907 151.747 137.445 147.163 137.846 142.611" fill="#455A64"/>
<path d="M137.853 142.644C137.853 142.644 137.853 142.88 137.805 143.332C137.757 143.784 137.737 144.452 137.723 145.336C137.723 147.912 137.992 150.481 138.527 153.005C138.897 154.828 139.398 156.625 140.027 158.382C140.795 160.468 141.798 162.466 143.018 164.342C144.416 166.491 146.08 168.471 147.973 170.236C149.956 172.149 152.423 173.76 154.924 175.554C164.982 182.673 176.97 191.128 190.47 200.265C193.877 202.544 197.326 204.849 200.903 207.181C204.481 209.512 208.161 211.857 212.039 214.018C213.007 214.556 214.006 215.041 215.03 215.472C215.547 215.677 216.084 215.833 216.632 215.937L218.295 216.324C220.504 216.921 222.757 217.359 225.035 217.633C227.335 217.908 229.668 217.499 231.72 216.461C233.757 215.337 235.461 213.729 236.667 211.791C238.637 208.517 239.359 204.718 239.489 201.031C239.565 199.188 239.488 197.341 239.257 195.51C239.141 194.606 238.985 193.702 238.787 192.818C238.617 191.941 238.306 191.095 237.867 190.31C236.749 188.895 235.482 187.533 234.289 186.171L230.664 182.149L223.542 174.343L197.864 146.456L170.509 122.669C168.343 121.545 165.952 120.875 163.497 120.704C161.709 120.564 159.912 120.58 158.127 120.75C156.689 120.887 155.598 121.064 154.869 121.182L154.051 121.326C153.867 121.359 153.772 121.365 153.772 121.365C153.772 121.365 154.14 121.28 154.862 121.136C155.585 120.992 156.675 120.815 158.12 120.665C159.91 120.479 161.715 120.45 163.51 120.579C165.991 120.745 168.407 121.415 170.598 122.544L198.027 146.246C205.715 154.518 214.383 163.896 223.753 174.094L230.882 181.9L234.507 185.922C235.72 187.291 236.954 188.62 238.119 190.094C238.255 190.302 238.371 190.521 238.467 190.749C238.562 190.965 238.63 191.181 238.712 191.404C238.869 191.842 238.971 192.288 239.087 192.713C239.291 193.611 239.448 194.521 239.564 195.438C239.797 197.287 239.877 199.15 239.802 201.011C239.666 204.731 238.944 208.582 236.926 211.936C235.691 213.927 233.943 215.578 231.849 216.73C229.736 217.794 227.335 218.214 224.966 217.935C222.664 217.665 220.385 217.227 218.152 216.625L216.489 216.238C215.925 216.129 215.372 215.969 214.84 215.76C213.8 215.319 212.787 214.821 211.807 214.267C207.909 212.093 204.243 209.728 200.658 207.417C197.073 205.105 193.598 202.767 190.224 200.481C176.724 191.312 164.751 182.857 154.713 175.711C152.225 173.91 149.751 172.286 147.755 170.354C145.853 168.566 144.185 166.562 142.787 164.388C141.571 162.498 140.572 160.486 139.808 158.389C139.185 156.621 138.691 154.813 138.33 152.979C137.807 150.445 137.56 147.866 137.594 145.283C137.624 144.399 137.71 143.518 137.853 142.644Z" fill="#263238"/>
<path d="M207.296 144.641L207.139 144.549L206.703 144.235C206.335 143.953 205.749 143.58 205.067 142.997C203.656 141.897 201.728 140.187 199.418 138.006C197.107 135.825 194.436 133.147 191.397 130.252C189.87 128.818 188.269 127.305 186.517 125.838C184.739 124.294 182.849 122.874 180.861 121.587C180.03 121.011 179.13 120.572 178.292 120.081L178.169 120.009V119.891C178.312 119.295 178.455 118.706 178.592 118.129L178.707 118.326L157.759 111.993L151.55 110.08L149.888 109.55L149.451 109.406L149.308 109.347C149.308 109.347 149.363 109.347 149.465 109.347L149.901 109.465L151.591 109.936L157.834 111.757L178.844 117.992L178.994 118.038L178.96 118.188C178.823 118.765 178.687 119.354 178.544 119.95L178.455 119.767C179.307 120.264 180.22 120.71 181.052 121.286C183.054 122.579 184.956 124.011 186.742 125.569C188.5 127.049 190.102 128.569 191.628 130.016C194.654 132.931 197.305 135.616 199.595 137.816C201.885 140.017 203.779 141.746 205.156 142.879C205.837 143.469 206.389 143.868 206.75 144.189L207.166 144.523C207.213 144.558 207.257 144.597 207.296 144.641Z" fill="#263238"/>
<path d="M220.85 171.454C220.562 171.024 220.305 170.576 220.08 170.112L218.111 166.352C216.462 163.163 214.213 158.755 211.746 153.87C209.279 148.984 207.071 144.55 205.49 141.334C204.726 139.749 204.093 138.459 203.636 137.516C203.438 137.09 203.275 136.743 203.152 136.468C203.086 136.35 203.036 136.225 203.002 136.095C203.088 136.201 203.159 136.318 203.214 136.442C203.357 136.704 203.541 137.044 203.759 137.457C204.243 138.387 204.91 139.664 205.715 141.229C207.364 144.458 209.599 148.859 212.066 153.719L218.336 166.248L220.21 170.053C220.448 170.509 220.662 170.977 220.85 171.454Z" fill="#263238"/>
<path d="M157.043 243.3H157.289L157.97 243.346L160.696 243.555L170.659 244.381L204.263 247.282L204.072 247.485L201.885 239.05C201.544 237.74 201.203 236.43 200.876 235.12L201.033 235.251L163.415 231.053L163.531 230.994C161.323 234.76 159.619 237.792 158.508 239.908C157.956 240.962 157.554 241.787 157.309 242.357C157.216 242.57 157.138 242.789 157.077 243.012C157.054 243.086 157.042 243.163 157.043 243.241C157.02 242.925 157.091 242.609 157.248 242.331C157.473 241.748 157.861 240.91 158.399 239.842C159.476 237.713 161.125 234.662 163.326 230.876L163.367 230.811H163.442L201.074 234.891H201.196V235.009L202.205 238.938C202.941 241.82 203.67 244.643 204.365 247.348L204.427 247.577H204.181L170.509 244.551L160.58 243.627L157.922 243.366L157.241 243.293C157.176 243.305 157.109 243.307 157.043 243.3Z" fill="#263238"/>
<g opacity="0.3">
<path opacity="0.3" d="M158.263 243.411L159.878 247.446L204.222 249.987V247.446L158.263 243.411Z" fill="black"/>
</g>
<path d="M97.2703 40.3169C97.134 38.0378 95.1645 36.1319 92.902 35.4443C90.6395 34.7566 88.1317 35.1037 85.9032 35.8241C80.9897 37.3894 76.86 40.5985 72.8528 43.7488C66.6309 48.628 60.5862 55.3345 58.2146 62.7417C56.4223 68.2955 55.9044 71.9107 57.7444 77.8051C59.3663 83.0445 60.6543 88.094 60.334 92.469C59.8229 99.3785 58.9711 100.983 57.1038 107.781C55.9521 112.019 59.8843 123.107 59.8843 123.107L84.7515 113.938C93.6108 109.929 112.733 102.45 112.733 102.45L97.2703 40.3169Z" fill="#263238"/>
<path d="M83.3069 121.352C83.3478 115.536 83.4091 111.489 83.4023 111.528C83.3955 111.567 72.5463 109.118 70.3587 94.2378C69.0861 84.6035 68.8076 74.872 69.5273 65.1851C70.2701 56.2911 76.6079 45.4652 85.8215 46.5523L114.526 54.0316C117.326 54.3657 118.26 56.6514 118.158 59.3693L118.369 60.6399L116.263 103.132L117.17 121.201C116.802 129.277 108.494 136.618 100.092 136.985C97.9039 137.085 95.718 136.752 93.6689 136.008C91.6199 135.264 89.7513 134.125 88.1784 132.66C86.6055 131.195 85.3618 129.436 84.5239 127.491C83.686 125.546 83.2718 123.457 83.3069 121.352Z" fill="#B56760"/>
<path d="M76.0286 77.0389C76.0118 77.5368 76.1986 78.0212 76.5488 78.3885C76.8991 78.7557 77.3851 78.9765 77.9027 79.0037C78.1522 79.0233 78.4033 78.9953 78.6414 78.9211C78.8795 78.847 79.1 78.7283 79.2901 78.5718C79.4802 78.4153 79.6362 78.2241 79.7489 78.0093C79.8617 77.7945 79.9291 77.5604 79.9472 77.3205C79.964 76.8226 79.7772 76.3381 79.4269 75.9709C79.0767 75.6037 78.5907 75.3828 78.0731 75.3557C77.8236 75.336 77.5725 75.3641 77.3344 75.4382C77.0963 75.5124 76.8758 75.6311 76.6857 75.7876C76.4956 75.9441 76.3396 76.1353 76.2268 76.35C76.1141 76.5648 76.0467 76.7989 76.0286 77.0389Z" fill="#263238"/>
<path d="M73.4185 71.8843C73.657 72.1332 75.1767 71.0919 77.3098 71.1312C79.4428 71.1705 80.983 72.2249 81.2215 71.976C81.3373 71.8647 81.092 71.4128 80.4173 70.9281C79.5084 70.297 78.4175 69.9537 77.2961 69.9457C76.1865 69.9205 75.0975 70.2372 74.1886 70.8495C73.5344 71.3211 73.3027 71.7664 73.4185 71.8843Z" fill="#263238"/>
<path d="M95.9755 76.8163C95.9587 77.3143 96.1455 77.7987 96.4957 78.1659C96.846 78.5332 97.332 78.754 97.8496 78.7811C98.0991 78.8008 98.3501 78.7728 98.5883 78.6986C98.8264 78.6245 99.0469 78.5057 99.237 78.3492C99.4271 78.1927 99.5831 78.0016 99.6958 77.7868C99.8086 77.572 99.876 77.3379 99.8941 77.098C99.9145 76.6002 99.7299 76.1148 99.3803 75.747C99.0308 75.3792 98.5444 75.1586 98.0268 75.1332C97.7766 75.1117 97.5244 75.1384 97.2851 75.2118C97.0458 75.2852 96.8241 75.4037 96.6331 75.5605C96.442 75.7172 96.2855 75.909 96.1726 76.1247C96.0597 76.3404 95.9927 76.5755 95.9755 76.8163Z" fill="#263238"/>
<path d="M93.8629 71.8255C94.1083 72.0743 95.628 71.033 97.761 71.0723C99.8941 71.1116 101.434 72.166 101.673 71.9171C101.789 71.8058 101.543 71.3539 100.869 70.8693C99.9596 70.2381 98.8687 69.8948 97.7474 69.8869C96.6381 69.8644 95.55 70.1808 94.6398 70.7907C93.9788 71.2622 93.7471 71.7076 93.8629 71.8255Z" fill="#263238"/>
<path d="M85.3104 87.3147C85.3104 87.2033 84.0019 86.961 81.8553 86.6597C81.3169 86.5942 80.799 86.4829 80.7172 86.1227C80.6784 85.5834 80.814 85.0458 81.1056 84.5836L82.7889 80.6213C85.1264 74.9889 86.8233 70.352 86.5848 70.2668C86.3462 70.1817 84.2677 74.6745 81.9302 80.3069C81.3646 81.6953 80.8262 83.0183 80.3151 84.2889C79.9599 84.912 79.8464 85.6362 79.9948 86.3323C80.0692 86.5191 80.1871 86.687 80.3395 86.8233C80.4919 86.9595 80.6747 87.0604 80.8739 87.1182C81.1759 87.2001 81.4871 87.2463 81.8008 87.2557C83.9611 87.3998 85.2968 87.4325 85.3104 87.3147Z" fill="#263238"/>
<path d="M83.4023 111.534C90.6729 111.758 97.8658 110.04 104.181 106.569C104.181 106.569 98.7765 116.963 83.3409 115.319L83.4023 111.534Z" fill="#8A4A43"/>
<path d="M93.1814 64.5819C93.4336 65.1254 95.5325 64.7194 98.054 64.8438C100.576 64.9683 102.634 65.4988 102.927 64.9683C103.056 64.7194 102.668 64.2216 101.816 63.737C100.683 63.1502 99.4262 62.8188 98.1405 62.7677C96.8547 62.7166 95.5738 62.9473 94.3945 63.4423C93.5017 63.8549 93.0724 64.3199 93.1814 64.5819Z" fill="#263238"/>
<path d="M72.8257 65.4922C73.2618 65.9638 75.0064 65.4922 77.0918 65.4922C79.1771 65.4922 80.949 65.8655 81.3647 65.3874C81.5487 65.1516 81.2761 64.6801 80.5128 64.2282C79.4563 63.6613 78.2604 63.3785 77.0509 63.4095C75.8535 63.401 74.676 63.7043 73.6435 64.2871C72.887 64.7783 72.6349 65.2564 72.8257 65.4922Z" fill="#263238"/>
<path d="M85.8147 92.3441C86.2692 91.7122 86.8929 91.2101 87.6198 90.8908C88.3467 90.5715 89.1499 90.4468 89.9445 90.53H90.0944C90.5264 90.5295 90.9491 90.6501 91.3108 90.8769C91.6725 91.1038 91.9576 91.4271 92.1312 91.8072C92.3047 92.1873 92.3592 92.6078 92.288 93.0172C92.2167 93.4267 92.0228 93.8073 91.73 94.1124C91.1953 94.7072 90.4804 95.1263 89.6855 95.3109C89.1848 95.4663 88.6554 95.5175 88.1325 95.461C87.6097 95.4045 87.1053 95.2418 86.6529 94.9835C86.2087 94.7118 85.8801 94.2966 85.7264 93.8126C85.5727 93.3287 85.604 92.8078 85.8147 92.3441Z" fill="#8A4A43"/>
<path d="M91.7776 89.2598C91.6754 89.2598 91.5459 89.7772 91.1507 90.5696C90.6569 91.5607 89.9035 92.4114 88.9645 93.0383C88.0254 93.6651 86.933 94.0467 85.7942 94.1456C84.9151 94.2372 84.3495 94.1456 84.329 94.27C84.3086 94.3944 84.8538 94.5844 85.8147 94.6171C87.081 94.6427 88.3232 94.2818 89.3628 93.5863C90.4023 92.8909 91.1857 91.8966 91.6004 90.7465C91.9071 89.8492 91.8594 89.2663 91.7776 89.2598Z" fill="#263238"/>
<path d="M69.132 82.3306L65.9358 69.887C63.06 66.0753 65.302 59.8535 67.3397 55.5768C69.3773 51.3001 73.2617 48.0189 77.5619 45.8052C81.862 43.5915 86.6597 42.3406 91.4164 41.2207C89.452 46.995 85.4032 51.9036 80.0016 55.0594C80.0016 55.0594 72.1441 60.253 70.6925 66.3438C69.166 73.0175 69.132 82.3306 69.132 82.3306Z" fill="#263238"/>
<path d="M87.0959 49.073L109.632 62.0864C110.26 68.7658 111.878 75.3246 114.437 81.564C118.594 78.1453 121.163 84.7339 122.41 79.6713C122.478 79.4028 121.265 90.2877 116.911 90.6283L116.229 102.463L137.723 97.3806C137.723 97.3806 136.565 83.0376 132.898 74.3336C130.615 68.9239 129.409 64.3852 127.16 58.9624C125.45 54.856 122.424 48.7193 120.148 45.7983C115.268 39.5306 97.1886 39.249 97.1886 39.249C89.2221 41.0566 94.5854 40.1987 87.8728 44.7111L85.583 50.6055" fill="#263238"/>
<path d="M114.43 81.4794C114.43 78.3553 117.899 76.0827 120.856 77.4908C122.478 78.2702 123.787 79.9272 123.834 83.2477C123.957 92.1023 114.512 90.406 114.491 90.1506C114.471 89.8952 114.45 85.1404 114.43 81.4794Z" fill="#B56760"/>
<path d="M117.306 86.7585C117.347 86.7585 117.476 86.8633 117.749 86.9812C118.144 87.1282 118.581 87.1282 118.976 86.9812C119.964 86.621 120.775 85.1277 120.795 83.5297C120.808 82.7705 120.643 82.0184 120.311 81.3291C120.215 81.0532 120.052 80.8034 119.835 80.6005C119.618 80.3977 119.354 80.2478 119.064 80.1633C118.876 80.1183 118.677 80.1375 118.502 80.2175C118.327 80.2975 118.186 80.4335 118.103 80.6022C117.981 80.851 118.042 81.0213 117.994 81.041C117.947 81.0606 117.79 80.8969 117.858 80.5301C117.91 80.3091 118.037 80.1109 118.219 79.9669C118.476 79.7788 118.798 79.6943 119.119 79.7311C119.503 79.7951 119.864 79.9527 120.167 80.1889C120.47 80.4251 120.705 80.732 120.85 81.0803C121.258 81.8385 121.464 82.6825 121.449 83.5362C121.449 85.3242 120.475 87.0074 119.119 87.3938C118.868 87.4666 118.603 87.485 118.344 87.4476C118.085 87.4102 117.837 87.318 117.619 87.1777C117.326 86.9746 117.279 86.7781 117.306 86.7585Z" fill="#8A4A43"/>
<path d="M97.8429 39.2296C97.7383 39.4222 97.6077 39.6005 97.4544 39.7601C97.175 40.081 96.7729 40.5264 96.2005 41.07C95.1101 42.1244 93.5359 43.5194 91.7913 45.0454C90.0467 46.5714 88.4793 47.9598 87.3617 48.975C86.7865 49.5539 86.1815 50.1047 85.549 50.6254C85.6568 50.4355 85.7922 50.2613 85.951 50.108C86.2304 49.7871 86.6325 49.3417 87.1845 48.7982C88.2612 47.7175 89.8082 46.2963 91.5528 44.7703L96.0301 40.8408C97.175 39.8846 97.802 39.1969 97.8429 39.2296Z" fill="#455A64"/>
<path d="M72.7711 46.7288C72.9473 46.4915 73.1483 46.272 73.3708 46.0739C73.954 45.4838 74.5803 44.9344 75.2449 44.43C77.4473 42.7554 79.9818 41.5298 82.6935 40.8279C84.1936 40.383 85.7952 40.3626 87.3071 40.7689C87.9291 40.9398 88.5063 41.2353 89.0008 41.636C89.4953 42.0368 89.8959 42.5336 90.1761 43.0939C90.5321 43.8625 90.5783 44.7308 90.3056 45.5303C90.2325 45.7448 90.1269 45.9478 89.9921 46.1328C89.8967 46.2551 89.8422 46.314 89.8286 46.3096C89.9618 46.0438 90.0778 45.7704 90.1761 45.491C90.3782 44.722 90.2963 43.9095 89.9444 43.1922C89.6687 42.6757 89.2838 42.2202 88.8144 41.8548C88.3451 41.4894 87.8015 41.2222 87.2185 41.0702C85.7627 40.7001 84.2281 40.7296 82.7889 41.1553C80.1233 41.8523 77.6191 43.0278 75.4084 44.6199C73.7047 45.8446 72.8188 46.7746 72.7711 46.7288Z" fill="#455A64"/>
<path d="M67.6191 55.6682C67.7866 55.4282 67.9833 55.2083 68.2052 55.0133C68.6005 54.6203 69.1865 54.0571 69.9225 53.3825C71.8231 51.5842 73.9472 50.018 76.2467 48.7194C77.5132 47.9983 78.8946 47.4828 80.3356 47.1934C81.5492 46.9563 82.8109 47.1372 83.8997 47.7043C84.6231 48.0979 85.1963 48.7038 85.5353 49.4333C85.6189 49.6443 85.6761 49.8642 85.7057 50.0882C85.716 50.1621 85.716 50.237 85.7057 50.3109C85.6648 50.3109 85.6375 50.0096 85.399 49.5184C85.0323 48.8494 84.4648 48.3018 83.7702 47.9466C82.718 47.4355 81.5142 47.2897 80.3628 47.534C78.9537 47.8323 77.6032 48.3452 76.3625 49.0534C74.09 50.3423 71.9696 51.864 70.0384 53.5921L68.2461 55.1377C68.054 55.3321 67.8441 55.5097 67.6191 55.6682Z" fill="#455A64"/>
<path d="M121.565 91.0352C121.586 91.6461 121.419 92.2493 121.083 92.7686C120.748 93.2879 120.26 93.7 119.68 93.9527C119.101 94.2055 118.457 94.2876 117.83 94.1886C117.202 94.0897 116.619 93.8141 116.154 93.3968C115.69 92.9795 115.364 92.4391 115.219 91.844C115.074 91.2489 115.115 90.6258 115.338 90.0534C115.561 89.4811 115.956 88.9851 116.473 88.6283C116.989 88.2715 117.604 88.0698 118.24 88.0487C118.662 88.0347 119.083 88.1009 119.479 88.2434C119.875 88.386 120.238 88.6021 120.546 88.8795C120.855 89.1568 121.104 89.49 121.279 89.8599C121.454 90.2298 121.551 90.6292 121.565 91.0352Z" fill="#455A64"/>
<path d="M62.5148 179.482C61.7448 179.974 53.2467 181.952 51.1886 187.152C49.1305 192.352 38.1996 202.909 46.1116 213.218L62.5148 204.475V179.482Z" fill="#640E27"/>
<path d="M46.1192 213.245C44.7326 211.49 43.8111 209.438 43.4341 207.265C43.1395 205.332 43.2601 203.362 43.7885 201.475C44.763 197.736 46.9778 194.271 48.7565 191.442C49.6877 190.079 50.5035 188.647 51.1962 187.159C52.8795 182.908 58.8629 180.806 61.4184 179.909C61.7948 179.781 62.1614 179.627 62.5156 179.45V204.482L46.1192 213.245ZM62.5156 179.509C62.1607 179.669 61.7966 179.808 61.4252 179.928C58.8765 180.819 52.8999 182.921 51.203 187.133C50.5133 188.624 49.6973 190.059 48.7633 191.422C46.9847 194.225 44.7698 197.71 43.8021 201.449C43.2736 203.329 43.153 205.293 43.4478 207.219C43.8234 209.381 44.7376 211.424 46.1124 213.173L62.4679 204.436L62.5156 179.509Z" fill="#263238"/>
<path d="M81.46 136.408L82.8025 118.574L116.577 105.03L117.776 111.684L94.7693 122.936L81.46 136.408Z" fill="#E0E0E0"/>
<path d="M117.776 107.762C117.776 107.762 97.0864 115.804 87.9069 123.663C79.2793 131.051 61.3291 160.182 59.4073 168.127C57.4855 176.071 57.8604 198.044 57.8604 198.044C57.8604 198.044 57.8127 220.717 57.8127 221.274C57.8127 221.831 43.0177 258.402 45.7027 278.345H130.091C130.091 278.345 132.592 250.261 126.826 239.363C121.061 228.465 120.863 230.679 120.863 230.679C120.863 230.679 124.325 226.985 123.944 223.658C123.607 221.47 122.752 219.386 121.443 217.567L136.244 173.228C136.244 173.228 137.778 150.876 133.743 135.897C129.982 121.895 128.55 122.688 123.848 118.201C123.746 118.11 123.91 118.326 123.848 118.201L119.548 114.815L117.776 107.762Z" fill="#640E27"/>
<path d="M62.5148 243.299C62.2559 242.343 68.9071 230.993 68.9071 230.993L107.07 237.149L109.721 247.445L62.5148 243.299Z" fill="#640E27"/>
<path d="M62.5148 243.299H62.7669L63.4484 243.345L66.1743 243.555L76.1444 244.393L109.721 247.281L109.53 247.484C108.89 244.989 108.215 242.369 107.527 239.71C107.309 238.859 107.09 238.008 106.845 237.189L106.988 237.313L68.8594 231.105L68.982 231.046C66.774 234.805 65.0772 237.844 63.9663 239.953C63.4075 241.007 63.0054 241.839 62.7601 242.409C62.6642 242.621 62.5844 242.84 62.5216 243.064C62.4807 243.214 62.5216 243.286 62.5216 243.293C62.5083 242.975 62.5811 242.659 62.7329 242.376C62.9577 241.793 63.3462 240.961 63.8846 239.894C64.9613 237.759 66.6105 234.707 68.8117 230.928L68.8526 230.862H68.9343L107.097 236.96H107.213V237.064L107.861 239.586C108.542 242.252 109.224 244.871 109.864 247.367L109.925 247.596H109.68L76.0149 244.57L66.0857 243.647L63.4212 243.385L62.7397 243.313C62.6644 243.318 62.5888 243.313 62.5148 243.299Z" fill="#263238"/>
<g opacity="0.3">
<path opacity="0.3" d="M54.337 225.688L55.1889 232.329C61.2677 236.468 69.868 235.682 76.3761 232.185C82.8843 228.688 87.7092 222.944 92.1661 217.207C105.693 199.818 117.476 181.042 125.511 160.752C104.555 184.938 75.5107 201.665 54.337 225.688Z" fill="black"/>
</g>
<path d="M122.485 126.526C129.566 131.942 135.74 148.891 124.775 163.542C124.775 163.542 76.8668 226.009 68.9343 231C61.0019 235.99 50.3231 233.05 47.2701 225.721C44.217 218.393 45.4369 211.352 49.7098 206.368C53.9826 201.384 82.0597 153.869 82.0597 153.869C82.0597 153.869 88.4588 131.85 99.3693 125.458" fill="#640E27"/>
<path d="M99.3557 125.451L98.8651 125.785C98.3746 126.1 97.9014 126.439 97.4476 126.8C95.7106 128.232 94.1593 129.859 92.8272 131.647C89.2971 136.271 85.3309 143.842 82.1552 153.914C76.0218 164.334 68.3075 177.308 59.3528 191.9C57.0971 195.529 54.7869 199.275 52.2926 203.034C51.6112 203.964 51.0523 204.927 50.33 205.837C49.9824 206.302 49.6485 206.754 49.2737 207.193C48.9231 207.645 48.5978 208.115 48.2992 208.601C47.6964 209.579 47.1921 210.609 46.7931 211.679C46.4013 212.766 46.1183 213.887 45.948 215.026C45.6178 217.343 45.7216 219.699 46.2547 221.981C46.391 222.558 46.5341 223.134 46.7249 223.697C46.9157 224.26 47.1134 224.824 47.3246 225.38C47.5359 225.937 47.8357 226.454 48.0947 226.991L48.599 227.738C48.7583 227.993 48.9407 228.234 49.1442 228.458C50.7479 230.338 52.8753 231.74 55.2775 232.499C57.687 233.287 60.2595 233.501 62.7738 233.122C65.0977 232.76 67.3049 231.893 69.2275 230.587C70.9997 229.129 72.6516 227.542 74.1682 225.839C77.2621 222.499 80.1857 219.1 83.0275 215.74C88.6974 209.007 94.0334 202.412 99.09 196.092C104.147 189.772 108.896 183.753 113.326 178.101L119.718 169.901L122.717 166.031C123.685 164.76 124.693 163.555 125.497 162.271C127.147 159.893 128.428 157.296 129.3 154.563C129.484 153.908 129.668 153.253 129.845 152.637C130.022 152.022 130.097 151.36 130.22 150.731C131.164 145.464 130.569 140.048 128.503 135.085C127.551 132.67 126.185 130.426 124.462 128.444C124.155 128.11 123.91 127.789 123.657 127.573L123.01 126.997C122.662 126.689 122.492 126.519 122.492 126.519C122.492 126.519 122.683 126.669 123.037 126.971L123.719 127.534C123.984 127.757 124.23 128.071 124.543 128.398C126.289 130.373 127.672 132.619 128.632 135.039C130.205 138.863 130.952 142.954 130.827 147.064C130.773 148.304 130.641 149.54 130.431 150.764C130.309 151.419 130.24 152.074 130.063 152.683C129.886 153.292 129.702 153.993 129.511 154.648C128.637 157.405 127.347 160.025 125.681 162.422C124.87 163.732 123.862 164.924 122.901 166.201L119.909 170.078C117.865 172.698 115.739 175.435 113.531 178.291C109.115 183.949 104.365 189.988 99.3217 196.301C94.2787 202.615 88.9427 209.217 83.2728 215.949C80.431 219.316 77.5143 222.721 74.4135 226.061C73.6435 226.9 72.8393 227.725 72.0283 228.537C71.2165 229.37 70.3443 230.147 69.4183 230.862C67.4527 232.21 65.1911 233.107 62.8079 233.482C60.2261 233.871 57.5844 233.646 55.114 232.827C52.661 232.041 50.4913 230.601 48.858 228.675C48.6446 228.446 48.4552 228.198 48.2923 227.935L47.7744 227.168C47.5086 226.612 47.1952 226.075 46.9771 225.505C46.759 224.935 46.5341 224.378 46.3706 223.802C46.207 223.226 46.0366 222.643 45.9003 222.06C45.0494 218.587 45.2408 214.953 46.4523 211.581C46.8641 210.492 47.3797 209.442 47.9925 208.444C48.306 207.953 48.6263 207.468 48.9875 207.01C49.3486 206.551 49.7098 206.106 50.0437 205.654C50.7252 204.763 51.3522 203.794 51.9996 202.87C54.487 199.118 56.804 195.378 59.0666 191.737C68.028 177.191 75.7492 164.23 81.9439 153.829C85.1196 143.75 89.1676 136.192 92.7386 131.562C94.0821 129.772 95.6551 128.153 97.4203 126.741C97.8802 126.384 98.3603 126.052 98.8583 125.746C99.1786 125.549 99.3557 125.451 99.3557 125.451Z" fill="#263238"/>
<path d="M78.2298 173.804C78.2298 173.804 76.9963 170.706 74.5294 170.294C72.0624 169.881 67.2989 170.294 67.2989 170.294C67.2989 170.294 65.1999 171.813 65.2203 173.896C65.2213 175.087 65.37 176.275 65.6633 177.432C65.6633 177.432 63.9392 175.199 61.6698 177.315C59.4005 179.43 57.4106 183.72 57.4106 183.72C57.4106 183.72 54.3916 184.65 53.2399 186.058C52.428 187.185 51.8091 188.43 51.4067 189.745C50.6569 190.241 50.065 190.928 49.6968 191.728C49.3287 192.528 49.1987 193.41 49.3214 194.277C49.4574 195.199 49.8186 196.076 50.3753 196.838C50.932 197.599 51.6684 198.223 52.5243 198.659C52.5243 198.659 61.5267 205.031 62.6239 204.206C63.7211 203.381 65.9768 202.084 62.7398 199.327L57.4719 194.84L58.9984 192.574C58.9984 192.574 67.81 198.397 69.2206 198.115C70.6313 197.834 73.0369 197.788 72.0488 195.698C71.0606 193.609 62.8283 187.518 62.8283 187.518L63.8029 184.244C63.8029 184.244 73.3436 190.439 74.8906 189.45C76.4375 188.461 77.8414 187.996 76.2535 185.953C74.6657 183.91 67.7895 179.03 67.7895 179.03L70.604 176.502C70.604 176.502 77.2621 177.622 78.2298 173.804Z" fill="#B56760"/>
<path d="M119.521 114.815L119.282 114.881L118.601 115.064C117.987 115.215 117.081 115.444 115.916 115.765C112.633 116.639 109.4 117.679 106.232 118.883C105.23 119.269 104.187 119.695 103.131 120.192C102.6 120.435 102.061 120.684 101.523 120.965C101.257 121.109 100.978 121.24 100.712 121.391C100.446 121.542 100.187 121.699 99.9418 121.882C97.8634 123.531 95.9513 125.364 94.2309 127.357C90.4964 131.503 86.6869 136.31 82.7889 141.406C78.8908 146.501 75.2926 151.465 72.0555 155.991C70.4404 158.257 68.9275 160.418 67.5237 162.455C66.1909 164.316 64.9823 166.256 63.905 168.264C62.4081 171.206 61.1416 174.251 60.116 177.374C59.7412 178.481 59.4754 179.339 59.2982 179.929L59.1006 180.583C59.0808 180.662 59.0534 180.739 59.0188 180.813C59.0188 180.813 59.0188 180.728 59.0665 180.577L59.2301 179.922C59.3868 179.333 59.6321 178.461 59.9797 177.348C60.9618 174.203 62.1991 171.138 63.6801 168.179C64.7472 166.155 65.9491 164.199 67.2784 162.324C68.6413 160.274 70.1815 158.106 71.783 155.834C74.9995 151.295 78.5978 146.344 82.5027 141.229C86.4075 136.114 90.2238 131.32 93.9856 127.167C95.7243 125.162 97.662 123.324 99.7714 121.679C100.024 121.489 100.303 121.339 100.569 121.168C100.834 120.998 101.121 120.887 101.393 120.743C101.932 120.461 102.477 120.212 103.015 119.976C104.085 119.492 105.128 119.066 106.136 118.666C109.322 117.479 112.575 116.468 115.882 115.641C117.054 115.339 117.967 115.136 118.608 114.986L119.289 114.842C119.365 114.826 119.443 114.817 119.521 114.815Z" fill="#263238"/>
<path d="M114.164 226.762C113.797 226.598 113.443 226.405 113.108 226.186C112.427 225.806 111.493 225.21 110.348 224.443C104.392 220.414 99.1916 215.442 94.9669 209.74C94.1628 208.647 93.5358 207.743 93.1338 207.121C92.909 206.796 92.7086 206.457 92.5341 206.105C92.7877 206.399 93.0156 206.712 93.2155 207.042C93.6517 207.664 94.3059 208.542 95.1373 209.616C99.4514 215.212 104.618 220.151 110.464 224.267C111.581 225.059 112.508 225.681 113.149 226.094C113.504 226.293 113.843 226.516 114.164 226.762Z" fill="#263238"/>
<g opacity="0.3">
<path opacity="0.3" d="M63.7551 243.41L64.9068 247.445L108.099 247.307L63.7551 243.41Z" fill="black"/>
</g>
</g>
<defs>
<clipPath id="clip0_1252_10878">
<rect width="276" height="296" fill="white" transform="translate(0.5)"/>
</clipPath>
</defs>
</svg>
