<svg width="277" height="288" viewBox="0 0 277 288" fill="none" xmlns="http://www.w3.org/2000/svg">
<g clip-path="url(#clip0_1252_10604)">
<path d="M197.29 138.09C201.817 140.664 205.788 144.111 208.974 148.231C212.16 152.35 214.497 157.061 215.85 162.09C220.68 179.37 235.45 224.37 235.45 224.37C235.45 224.37 243.89 234.3 244.79 241.65C245.69 249 243.89 266.79 241.17 270.11C240.382 271.073 239.371 271.829 238.224 272.312C237.077 272.795 235.829 272.99 234.59 272.88L199.06 269.51L185.06 175.83L197.29 138.09Z" fill="#455A64"/>
<path d="M79.8099 136.46C79.8099 136.46 54.3999 144.46 48.0699 151.36L68.8699 248.12L68.4999 278.66H188.98C188.98 277.15 190.06 177.28 190.06 177.28L197.29 138.09L154.5 130.56L146.06 123.92L98.4299 126.34L91.1899 133.57L79.8099 136.46Z" fill="#455A64"/>
<g opacity="0.3">
<path opacity="0.3" d="M89.4999 220.41C89.1299 219.59 88.5899 218.7 87.7099 218.52C86.2599 218.22 85.2899 219.93 84.7999 221.33C80.9584 232.299 75.6359 242.692 68.9799 252.22L68.6699 267.08C75.6699 261.17 82.6099 254.84 87.0899 246.83C91.5699 238.82 93.2399 228.77 89.4999 220.41Z" fill="black"/>
</g>
<path d="M48.07 151.359C48.07 151.359 39.7 162.769 36.23 170.219C32.76 177.669 3.94994 240.219 2.22994 246.689C0.509939 253.159 -3.97006 273.499 9.17994 278.219H36.2499L63.4099 223.289L64.7999 159.539L48.07 151.359Z" fill="#455A64"/>
<path d="M37.9599 238.54C37.9599 238.54 37.3599 238.01 36.1099 237.3C34.3257 236.343 32.4126 235.649 30.4299 235.24C29.0667 234.941 27.6827 234.747 26.2899 234.66C24.6852 234.539 23.0714 234.654 21.4999 235C17.9425 235.913 14.7583 237.913 12.3899 240.72C9.9817 243.495 8.21935 246.771 7.22987 250.31C6.41311 253.202 5.87072 256.166 5.60987 259.16C5.34987 261.72 5.25987 263.81 5.16987 265.24C5.16987 265.92 5.08988 266.47 5.06988 266.9C5.07043 267.096 5.0435 267.291 4.98988 267.48C4.97701 267.287 4.97701 267.093 4.98988 266.9C4.98988 266.46 4.98988 265.9 4.98988 265.24C4.98988 263.79 5.04987 261.71 5.25987 259.13C5.4713 256.087 5.9838 253.072 6.78987 250.13C7.77237 246.511 9.56027 243.161 12.0199 240.33C14.4622 237.444 17.751 235.401 21.4199 234.49C23.0238 234.156 24.6689 234.065 26.2999 234.22C27.7117 234.324 29.1129 234.541 30.4899 234.87C32.4948 235.316 34.4179 236.071 36.1899 237.11C36.6671 237.405 37.1187 237.739 37.5399 238.11C37.6947 238.238 37.8355 238.382 37.9599 238.54Z" fill="#263238"/>
<path d="M25.1299 227.6C25.4258 227.514 25.7317 227.467 26.0399 227.46C26.8753 227.395 27.7145 227.395 28.5499 227.46C29.7938 227.533 31.0287 227.717 32.2399 228.01C35.2198 228.73 38.0162 230.065 40.4499 231.93C41.4413 232.684 42.3618 233.528 43.1999 234.45C43.768 235.075 44.2862 235.744 44.7499 236.45C44.9387 236.695 45.0934 236.964 45.2099 237.25C45.1299 237.31 44.3899 236.25 42.9299 234.73C42.0673 233.865 41.1414 233.067 40.1599 232.34C38.9512 231.46 37.6661 230.69 36.3199 230.04C34.9661 229.408 33.561 228.893 32.1199 228.5C30.9379 228.195 29.7344 227.981 28.5199 227.86C26.4399 227.59 25.1299 227.7 25.1299 227.6Z" fill="#263238"/>
<path d="M49.5899 224.59C49.1712 224.607 48.7519 224.576 48.3399 224.5C47.5399 224.4 46.3899 224.28 44.9499 224.17C37.4713 223.612 29.9555 224.512 22.8199 226.82C21.4499 227.26 20.3499 227.65 19.5999 227.94C19.2172 228.109 18.8185 228.239 18.4099 228.33C18.7541 228.09 19.1271 227.896 19.5199 227.75C20.2499 227.4 21.3399 226.96 22.6999 226.47C29.8408 223.941 37.4546 223.032 44.9899 223.81C46.4199 223.96 47.5799 224.13 48.3699 224.3C48.7849 224.357 49.1934 224.454 49.5899 224.59Z" fill="#263238"/>
<path d="M126.68 171.14C126.57 171.045 126.476 170.934 126.4 170.81L125.66 169.81L122.94 166.05C120.61 162.75 117.35 158.15 113.52 152.75L113.94 152.69C112.48 156.97 110.87 161.69 109.18 166.69L109.07 167L108.79 166.82L108.23 166.46C106.051 165.065 104.07 163.383 102.34 161.46C100.741 159.669 99.3303 157.719 98.1299 155.64C96.132 152.122 94.5769 148.37 93.4999 144.47C92.7769 141.836 92.1928 139.165 91.7499 136.47C91.5899 135.57 91.4699 134.84 91.3699 134.29C91.3416 134.103 91.2981 133.919 91.2399 133.74C91.2399 133.62 91.1699 133.56 91.1799 133.55C91.1899 133.54 91.59 134.55 91.95 136.44C92.31 138.33 92.8799 141.05 93.8599 144.34C94.9674 148.204 96.5424 151.918 98.5499 155.4C99.747 157.44 101.144 159.356 102.72 161.12C104.42 162.997 106.364 164.639 108.5 166L109.05 166.36L108.67 166.5C110.38 161.5 112 156.81 113.48 152.5L113.63 152.06L113.9 152.44C117.66 157.89 120.9 162.53 123.17 165.85C124.26 167.47 125.17 168.76 125.78 169.7L126.45 170.7C126.542 170.838 126.619 170.986 126.68 171.14Z" fill="#263238"/>
<g opacity="0.3">
<path opacity="0.3" d="M158.03 217.33C156.951 228.614 159.397 239.954 165.03 249.79C170.63 259.53 178.85 268.22 189.08 272.88C189.41 262.95 188.93 251.25 189.26 241.32L158.03 217.33Z" fill="black"/>
</g>
<path d="M156.9 204.26C156.9 204.26 152.52 205.47 155.8 214.44C159.08 223.41 160.18 222.86 162.37 231.24C164.56 239.62 167.11 247.24 170.93 252.02C174.75 256.8 188.98 266.42 188.98 266.42L201.74 254.42C201.74 254.42 199.64 245.42 200.14 239.36C200.64 233.3 201.92 218.36 201.74 215.77C201.56 213.18 198.82 207.02 198.82 207.02V202.78L192.26 182.6C192.26 182.6 188.61 180.96 187.34 186.79L185.15 180.6C185.15 180.6 181.69 180.05 180.78 187.16C179.87 194.27 181.51 204.11 181.51 204.11L179.68 216.5L176.95 224.89L174.58 225.25C174.58 225.25 171.01 224.25 169.06 217.56C167.11 210.87 161.82 202.8 156.9 204.26Z" fill="#FFBE9D"/>
<path d="M197.5 236C197.5 236 197.5 235.85 197.44 235.55C197.38 235.25 197.38 234.76 197.35 234.21C197.28 232.99 197.19 231.3 197.08 229.21C196.88 224.86 196.61 218.8 196.29 211.73L196.34 211.88C196.013 211.542 195.6 211.299 195.145 211.179C194.69 211.059 194.211 211.067 193.76 211.2C193.271 211.319 192.81 211.534 192.405 211.833C192 212.132 191.658 212.508 191.4 212.94C190.28 214.73 190.22 217.07 189.87 219.32C189.18 224.43 188.52 229.32 187.92 233.73C187.62 235.95 187.3 238.05 186.87 240C186.465 241.809 185.934 243.586 185.28 245.32C184.72 246.91 184.22 248.32 183.91 249.65C183.633 250.745 183.496 251.871 183.5 253C183.535 253.972 183.703 254.934 184 255.86C183.88 255.636 183.78 255.402 183.7 255.16C183.463 254.467 183.328 253.743 183.3 253.01C183.252 251.851 183.363 250.69 183.63 249.56C183.981 248.076 184.418 246.613 184.94 245.18C185.558 243.453 186.059 241.685 186.44 239.89C186.85 237.96 187.16 235.89 187.44 233.65C188.02 229.21 188.67 224.35 189.35 219.23C189.51 218.1 189.63 216.97 189.83 215.85C189.994 214.718 190.374 213.629 190.95 212.64C191.248 212.155 191.639 211.734 192.1 211.401C192.562 211.067 193.085 210.829 193.64 210.7C194.179 210.538 194.753 210.531 195.295 210.68C195.838 210.828 196.328 211.126 196.71 211.54L196.76 211.61V211.69C197.01 218.76 197.22 224.82 197.37 229.18C197.37 231.29 197.46 232.98 197.5 234.18C197.5 234.73 197.5 235.18 197.5 235.52C197.517 235.68 197.517 235.841 197.5 236Z" fill="#EB996E"/>
<path d="M190.5 213C190.272 212.644 190.091 212.261 189.96 211.86C189.542 210.794 189.185 209.706 188.89 208.6C188.461 206.959 188.157 205.287 187.98 203.6C187.856 202.605 187.836 201.599 187.92 200.6C188.013 199.483 188.391 198.408 189.02 197.48C189.581 196.648 190.405 196.028 191.36 195.72L191.55 195.67L191.65 195.84C193.5 199.1 195.11 201.98 196.23 204.05L197.54 206.5C197.719 206.787 197.86 207.096 197.96 207.42C197.736 207.166 197.542 206.887 197.38 206.59L195.94 204.22C194.74 202.22 193.07 199.35 191.21 196.1L191.5 196.22C190.663 196.5 189.942 197.048 189.45 197.78C188.874 198.638 188.53 199.63 188.45 200.66C188.35 201.637 188.35 202.622 188.45 203.6C188.6 205.282 188.864 206.953 189.24 208.6C189.56 210 189.91 211.12 190.14 211.89C190.296 212.247 190.417 212.619 190.5 213Z" fill="#EB996E"/>
<path d="M187.44 214.64C187.351 214.256 187.311 213.863 187.32 213.47C187.32 212.61 187.24 211.55 187.19 210.3C187.11 207.62 187.02 203.92 186.97 199.83C186.821 196.333 186.874 192.83 187.13 189.34C187.255 188.28 187.483 187.235 187.81 186.22C187.907 185.837 188.066 185.472 188.28 185.14C187.913 186.532 187.649 187.949 187.49 189.38C187.24 192.03 187.49 195.73 187.49 199.82C187.49 203.91 187.57 207.61 187.56 210.29C187.56 211.55 187.56 212.61 187.56 213.47C187.563 213.863 187.523 214.255 187.44 214.64Z" fill="#EB996E"/>
<path d="M176.65 248.25C176.58 248.19 177.38 247.25 178.36 245.54C178.934 244.542 179.433 243.502 179.85 242.43C180.341 241.11 180.722 239.752 180.99 238.37C181.224 236.982 181.341 235.577 181.34 234.17C181.325 233.02 181.224 231.874 181.04 230.74C180.71 228.79 180.29 227.63 180.38 227.6C180.538 227.844 180.659 228.11 180.74 228.39C181.022 229.13 181.243 229.893 181.4 230.67C181.645 231.818 181.785 232.986 181.82 234.16C181.908 237.052 181.386 239.931 180.29 242.61C179.848 243.696 179.309 244.74 178.68 245.73C178.263 246.401 177.791 247.036 177.27 247.63C176.9 248.05 176.68 248.27 176.65 248.25Z" fill="#EB996E"/>
<path d="M199.05 242L210.12 245.84C210.12 245.84 220.7 240.37 227.99 245.84C235.28 251.31 241.61 265.72 239.61 271.55C239.61 271.55 234.61 277.77 230.75 278.68C226.89 279.59 212.04 275.98 205.85 274.68C199.66 273.38 188.98 266.44 188.98 266.44L199.05 242Z" fill="#FFBE9D"/>
<path d="M200.41 258.29C200.332 257.962 200.292 257.627 200.29 257.29C200.29 256.54 200.2 255.65 200.14 254.61C200.02 252.35 199.87 249.23 199.82 245.77C199.77 242.31 199.87 239.18 200.07 236.92C200.17 235.79 200.3 234.92 200.41 234.25C200.434 233.907 200.512 233.569 200.64 233.25C200.72 233.25 200.55 234.65 200.44 236.91C200.33 239.17 200.29 242.28 200.34 245.73C200.39 249.18 200.46 252.16 200.5 254.56C200.5 255.69 200.5 256.61 200.5 257.24C200.527 257.593 200.496 257.947 200.41 258.29Z" fill="#EB996E"/>
<path d="M236.92 245.379C235.773 244.188 234.543 243.078 233.24 242.059C230.038 239.664 226.199 238.269 222.206 238.05C218.213 237.831 214.245 238.798 210.8 240.829C209.402 241.701 208.066 242.666 206.8 243.719C207.064 243.352 207.369 243.017 207.71 242.719C208.61 241.883 209.591 241.14 210.64 240.499C214.118 238.333 218.18 237.293 222.271 237.52C226.362 237.747 230.283 239.231 233.5 241.769C234.473 242.518 235.364 243.366 236.16 244.299C236.455 244.628 236.71 244.991 236.92 245.379Z" fill="#263238"/>
<path d="M235.5 236.15C234.07 235.123 232.522 234.27 230.89 233.61C226.878 232.186 222.52 232.056 218.43 233.24C216.18 233.871 214.015 234.771 211.98 235.92C210.324 236.872 208.76 237.977 207.31 239.22C206.07 240.28 205.12 241.22 204.47 241.85C204.151 242.214 203.799 242.549 203.42 242.85C203.68 242.446 203.982 242.071 204.32 241.73C205.184 240.756 206.102 239.831 207.07 238.96C208.507 237.662 210.072 236.513 211.74 235.53C213.795 234.329 215.997 233.398 218.29 232.76C222.48 231.536 226.956 231.722 231.03 233.29C232.247 233.776 233.393 234.422 234.44 235.21C234.81 235.48 235.06 235.74 235.25 235.9C235.44 236.06 235.5 236.14 235.5 236.15Z" fill="#263238"/>
<path d="M235.59 228.15C235.59 228.25 233.59 227.66 230.41 227.23C228.531 226.978 226.636 226.857 224.74 226.87C222.417 226.895 220.1 227.102 217.81 227.49C215.524 227.91 213.274 228.505 211.08 229.27C209.291 229.905 207.55 230.667 205.87 231.55C203 233.05 201.38 234.27 201.32 234.18C201.66 233.85 202.031 233.555 202.43 233.3C202.866 232.957 203.323 232.643 203.8 232.36C204.35 232.01 204.97 231.6 205.69 231.22C207.371 230.29 209.119 229.488 210.92 228.82C213.13 228.013 215.405 227.398 217.72 226.98C220.033 226.588 222.374 226.391 224.72 226.39C226.639 226.399 228.555 226.556 230.45 226.86C231.26 226.96 231.98 227.15 232.61 227.28C233.157 227.39 233.698 227.531 234.23 227.7C234.695 227.81 235.15 227.961 235.59 228.15Z" fill="#263238"/>
<path d="M150.76 130.229C151.175 131.161 151.431 132.154 151.52 133.169C151.818 136.038 151.677 138.934 151.1 141.759C150.749 143.787 150.272 145.791 149.67 147.759C148.882 150.05 147.912 152.273 146.77 154.41C144.38 159.01 141.38 164.02 137.9 169.41L137.5 170.04V169.29C137.5 165.75 137.5 162.039 137.5 158.189L137.89 158.38L128.5 165.869L128.58 165.749C126.353 173.049 124.983 180.583 124.5 188.2C123.58 200.37 124.32 212.01 124.89 222.57C125.46 233.13 125.71 242.66 126.04 250.66C126.37 258.66 126.64 265.119 126.88 269.589C127.02 271.809 127.12 273.53 127.19 274.73C127.19 275.3 127.26 275.73 127.28 276.07C127.3 276.41 127.28 276.529 127.28 276.529C127.28 276.529 127.28 276.379 127.21 276.079C127.14 275.779 127.13 275.309 127.07 274.739C126.96 273.569 126.82 271.84 126.67 269.6C126.37 265.139 126.02 258.67 125.67 250.67C125.32 242.67 124.89 233.159 124.41 222.589C123.93 212.019 123.06 200.369 123.98 188.16C124.486 180.498 125.892 172.922 128.17 165.589V165.519H128.23L137.59 158.01L137.98 157.689V158.189C137.98 162.039 137.98 165.75 137.98 169.29L137.57 169.16C144.44 158.51 150.03 149.249 150.89 141.759C151.484 138.961 151.666 136.091 151.43 133.24C151.348 132.49 151.211 131.748 151.02 131.02C150.82 130.48 150.76 130.229 150.76 130.229Z" fill="#263238"/>
<path d="M132.82 259.22H132.5C131.772 259.266 131.09 259.595 130.6 260.135C130.109 260.675 129.848 261.385 129.871 262.114C129.895 262.843 130.201 263.535 130.725 264.043C131.249 264.55 131.95 264.834 132.68 264.834C133.41 264.834 134.111 264.55 134.635 264.043C135.159 263.535 135.465 262.843 135.488 262.114C135.512 261.385 135.251 260.675 134.76 260.135C134.269 259.595 133.588 259.266 132.86 259.22H132.82Z" fill="white"/>
<path d="M132.82 220.68H132.5C131.774 220.726 131.095 221.054 130.607 221.592C130.118 222.13 129.858 222.837 129.881 223.564C129.905 224.291 130.21 224.98 130.732 225.485C131.254 225.991 131.953 226.274 132.68 226.274C133.407 226.274 134.105 225.991 134.628 225.485C135.15 224.98 135.455 224.291 135.478 223.564C135.502 222.837 135.242 222.13 134.753 221.592C134.264 221.054 133.585 220.726 132.86 220.68H132.82Z" fill="white"/>
<path d="M132.5 186.2C133.247 186.249 133.982 186 134.545 185.507C135.107 185.013 135.451 184.317 135.5 183.57C135.549 182.824 135.299 182.088 134.806 181.526C134.313 180.963 133.617 180.619 132.87 180.57H132.5C131.752 180.57 131.035 180.867 130.506 181.396C129.977 181.925 129.68 182.642 129.68 183.39C129.68 184.138 129.977 184.855 130.506 185.384C131.035 185.913 131.752 186.21 132.5 186.21V186.2Z" fill="white"/>
<path d="M89.27 85.0699C85.77 81.1799 82.27 77.2598 79.68 72.6998C77.09 68.1398 75.6 62.8098 76.44 57.6998C76.94 54.6998 78.22 51.7998 78.44 48.6998C78.72 44.4998 76.96 40.1098 78.44 36.1798C80.76 30.0198 89.05 29.0699 94.07 24.8199C97.98 21.5099 99.88 16.1399 104.18 13.3599C107.94 10.9199 112.77 10.9798 117.18 11.5998C121.59 12.2198 126.07 13.3498 130.51 12.7498C133.67 12.3298 136.65 11.0498 139.74 10.2798C142.83 9.50985 146.3 9.27985 149.05 10.9198C151.8 12.5598 153.36 16.4298 151.55 19.0598C156.69 16.6898 163.22 20.6998 164.63 26.1798C166.04 31.6598 163.22 37.5898 158.86 41.1798C154.5 44.7698 148.86 46.4799 143.31 47.5299C127.57 50.5299 110.48 48.8199 96.91 40.2999" fill="#263238"/>
<path d="M144.64 137.999C143.87 131.999 143.24 127.069 143.2 126.449C143.2 126.449 163.12 121.969 162.02 101.829C161.49 92.0894 158.77 72.1294 156.09 54.0994C154.713 44.7527 149.864 36.2683 142.51 30.3375C135.155 24.4067 125.836 21.4652 116.41 22.0994L114.41 22.2194C93.5599 24.8494 84.1299 44.0294 87.3299 64.8094L98.5899 134.479C98.5899 134.479 103.39 149.889 113.66 152.559L126.66 171.079L128.8 163.079L138.46 154.659C140.311 152.483 141.911 150.104 143.23 147.569C144.705 144.61 145.199 141.258 144.64 137.999Z" fill="#FFBE9D"/>
<path d="M143.21 126.17C143.21 126.17 130.56 128.05 116.47 120.46C116.47 120.46 123.65 134.53 143.61 131.38L143.21 126.17Z" fill="#EB996E"/>
<path d="M149.62 71.42C149.676 72.1694 149.438 72.9112 148.956 73.488C148.475 74.0649 147.787 74.4315 147.04 74.51C146.676 74.5633 146.305 74.5431 145.949 74.4506C145.593 74.3581 145.26 74.1951 144.968 73.9714C144.676 73.7476 144.432 73.4676 144.25 73.1478C144.069 72.8281 143.953 72.4752 143.91 72.11C143.843 71.3546 144.078 70.6035 144.563 70.0207C145.049 69.438 145.745 69.071 146.5 69C146.865 68.9482 147.236 68.9702 147.592 69.0646C147.948 69.159 148.281 69.324 148.572 69.5497C148.863 69.7754 149.106 70.0572 149.286 70.3785C149.466 70.6998 149.579 71.054 149.62 71.42Z" fill="#263238"/>
<path d="M152.43 64.2797C152.1 64.6797 149.81 63.2097 146.72 63.4297C143.63 63.6497 141.5 65.3397 141.1 64.9997C140.93 64.8497 141.25 64.1497 142.19 63.3597C143.464 62.3414 145.022 61.7439 146.65 61.6497C148.26 61.5327 149.866 61.9359 151.23 62.7997C152.23 63.4397 152.59 64.0997 152.43 64.2797Z" fill="#263238"/>
<path d="M120.4 73.5102C120.458 74.2591 120.221 75.0011 119.739 75.5769C119.256 76.1528 118.567 76.5166 117.82 76.5902C117.457 76.645 117.086 76.6261 116.73 76.5348C116.374 76.4435 116.04 76.2815 115.748 76.0586C115.456 75.8356 115.212 75.5562 115.03 75.2369C114.849 74.9176 114.733 74.5651 114.69 74.2002C114.634 73.4523 114.87 72.7119 115.35 72.1353C115.829 71.5587 116.514 71.1911 117.26 71.1102C117.624 71.0568 117.996 71.0769 118.352 71.1693C118.709 71.2617 119.043 71.4246 119.336 71.6482C119.628 71.8719 119.873 72.1519 120.056 72.4716C120.239 72.7914 120.356 73.1445 120.4 73.5102Z" fill="#263238"/>
<path d="M122.07 66.8901C121.73 67.2901 119.45 65.8201 116.36 66.0401C113.27 66.2601 111.1 67.9501 110.74 67.5901C110.56 67.4401 110.88 66.7401 111.82 65.9501C113.098 64.9333 114.659 64.3361 116.29 64.2401C117.897 64.1246 119.499 64.5277 120.86 65.3901C121.86 66.0501 122.23 66.7101 122.07 66.8901Z" fill="#263238"/>
<path d="M134.82 89.08C134.82 88.9 136.7 88.44 139.82 87.83C140.6 87.7 141.34 87.49 141.44 86.95C141.45 86.1278 141.209 85.3221 140.75 84.64L138.01 78.78C134.2 70.44 131.38 63.55 131.72 63.4C132.06 63.25 135.42 69.89 139.24 78.24L141.88 84.14C142.439 85.0593 142.659 86.1456 142.5 87.21C142.403 87.4952 142.243 87.7548 142.032 87.9695C141.821 88.1843 141.564 88.3485 141.28 88.45C140.85 88.5991 140.403 88.6932 139.95 88.73C136.79 89.11 134.85 89.25 134.82 89.08Z" fill="#263238"/>
<path d="M122.05 54.7096C121.8 55.5796 118.69 55.3796 115.05 56.0596C111.41 56.7396 108.58 57.9296 108.05 57.2096C107.81 56.8596 108.27 56.0396 109.4 55.1396C110.913 54.0412 112.656 53.2997 114.497 52.9706C116.338 52.6416 118.23 52.7335 120.03 53.2396C121.44 53.6896 122.16 54.3096 122.05 54.7096Z" fill="#263238"/>
<path d="M150.69 55.4002C150.2 56.1402 148.02 55.5602 145.45 55.6902C142.88 55.8202 140.75 56.4802 140.2 55.7802C139.96 55.4402 140.26 54.7102 141.2 53.9802C142.421 53.1015 143.876 52.6041 145.379 52.5507C146.883 52.4973 148.369 52.8903 149.65 53.6802C150.57 54.3402 150.91 55.0002 150.69 55.4002Z" fill="#263238"/>
<path d="M90.0199 79.6602C89.6699 79.5402 75.9199 76.5002 77.2799 90.2302C78.6399 103.96 93.4999 99.4802 93.4999 99.0902C93.4999 98.7002 90.0199 79.6602 90.0199 79.6602Z" fill="#FFBE9D"/>
<path d="M87.4199 94.5797C87.3499 94.5797 87.1999 94.7697 86.8099 94.9897C86.268 95.2923 85.6292 95.3713 85.0299 95.2097C83.5199 94.8197 82.0299 92.6397 81.7599 90.2097C81.6106 89.0362 81.7232 87.8443 82.0899 86.7197C82.1795 86.2807 82.3735 85.8698 82.6555 85.5217C82.9375 85.1736 83.2991 84.8985 83.7099 84.7197C83.9786 84.6205 84.2734 84.6182 84.5436 84.7131C84.8137 84.808 85.0423 84.9943 85.1899 85.2397C85.4099 85.6097 85.3499 85.8897 85.4199 85.8997C85.4899 85.9097 85.6899 85.6497 85.5299 85.0897C85.4173 84.7563 85.1952 84.4709 84.8999 84.2797C84.6965 84.1431 84.4681 84.048 84.2278 84C83.9876 83.9519 83.7402 83.9518 83.4999 83.9997C82.9483 84.1688 82.4493 84.4763 82.0502 84.8929C81.6511 85.3095 81.3652 85.8214 81.2199 86.3797C80.7511 87.6263 80.5966 88.9691 80.7699 90.2897C81.1299 93.0497 82.7699 95.4997 84.8399 95.8697C85.2204 95.942 85.6123 95.9274 85.9863 95.827C86.3603 95.7265 86.7068 95.5428 86.9999 95.2897C87.4299 94.9097 87.4999 94.5997 87.4199 94.5797Z" fill="#EB996E"/>
<path d="M155.08 35.3499C154.14 40.8199 143.08 45.8299 133.86 45.5599C125.39 45.3099 121.2 41.1099 115.05 38.1199C111.15 36.2299 111.15 36.2299 105.86 37.1199C101.59 37.8099 99.37 42.8599 96.97 46.4599C101.54 56.4599 99.69 68.02 97.75 78.82C97.6664 80.0379 97.177 81.1928 96.36 82.0999C94.82 83.4599 92.36 82.6499 90.8 81.2599C88.37 79.0299 87.26 75.7299 86.47 72.5299C84.5323 65.2517 84.0699 57.6595 85.11 50.1999C86.1613 42.704 89.3878 35.6808 94.39 29.9999C100.932 23.1063 109.895 19.0226 119.39 18.6099C128.837 18.2713 138.151 20.9164 146.01 26.1699C149.65 28.5599 153.01 31.5099 155.11 35.3399" fill="#263238"/>
<path d="M136.85 95.9999L129.85 92.7399C129.466 92.5129 129.025 92.4018 128.58 92.4199C128.088 92.5308 127.655 92.8237 127.37 93.2399C126.549 94.222 126.038 95.4248 125.899 96.6969C125.76 97.9691 126.001 99.254 126.59 100.39C127.231 101.496 128.238 102.344 129.438 102.786C130.638 103.228 131.955 103.236 133.16 102.81C135.64 101.81 136.84 98.8999 137.04 96.2199L136.85 95.9999Z" fill="#EB996E"/>
<path d="M133.38 103.33C133.38 103.39 133.05 103.59 132.38 103.74C131.377 103.92 130.346 103.845 129.38 103.52C127.904 103.023 126.666 101.992 125.91 100.63C125.432 99.8004 125.145 98.874 125.07 97.919C124.996 96.9639 125.136 96.0043 125.48 95.1103C125.832 94.1837 126.385 93.3469 127.1 92.6603C127.447 92.3322 127.829 92.0438 128.24 91.8003C128.486 91.6537 128.764 91.568 129.05 91.5503C129.328 91.5392 129.605 91.5904 129.86 91.7003C130.234 91.8885 130.597 92.0955 130.95 92.3203L131.9 92.9103L133.61 93.9703C135.68 95.2903 136.93 96.1703 136.86 96.2903C136.79 96.4103 135.41 95.7703 133.24 94.6103L131.47 93.6103L130.47 93.0603C130.13 92.8903 129.77 92.6603 129.47 92.5403C129.347 92.4813 129.21 92.4575 129.074 92.4716C128.938 92.4857 128.808 92.5372 128.7 92.6203C128.368 92.8298 128.059 93.0746 127.78 93.3503C127.186 93.9412 126.723 94.6497 126.42 95.4303C126.13 96.1877 126.006 96.9987 126.058 97.8081C126.11 98.6174 126.336 99.4061 126.72 100.12C127.343 101.317 128.366 102.258 129.61 102.78C130.471 103.127 131.392 103.3 132.32 103.29C132.98 103.32 133.35 103.26 133.38 103.33Z" fill="#263238"/>
<path d="M131.17 71.7697C131.071 70.598 130.887 69.4349 130.62 68.2897C130.125 66.3749 129.234 64.5848 128.006 63.0346C126.778 61.4844 125.239 60.2082 123.488 59.2881C121.738 58.368 119.814 57.8243 117.84 57.692C115.867 57.5596 113.888 57.8416 112.03 58.5197C110.749 58.9792 109.546 59.6299 108.46 60.4497C107.302 61.2786 106.289 62.2921 105.46 63.4497C103.678 65.8594 102.716 68.7775 102.716 71.7747C102.716 74.7719 103.678 77.69 105.46 80.0997C106.289 81.2572 107.302 82.2707 108.46 83.0997C109.546 83.9195 110.749 84.5702 112.03 85.0297C113.888 85.7014 115.866 85.9785 117.837 85.8432C119.809 85.7079 121.73 85.1633 123.479 84.244C125.229 83.3248 126.767 82.0511 127.996 80.5042C129.226 78.9573 130.119 77.1711 130.62 75.2597C130.885 74.1175 131.069 72.9579 131.17 71.7897C131.181 71.8659 131.181 71.9434 131.17 72.0197C131.17 72.1997 131.17 72.4297 131.17 72.6997C131.179 73.0714 131.152 73.4431 131.09 73.8097C131.034 74.3152 130.944 74.8164 130.82 75.3097C130.503 76.671 129.981 77.9761 129.27 79.1797C127.562 82.099 124.885 84.3277 121.704 85.4786C118.524 86.6295 115.041 86.6299 111.86 85.4797C110.535 85.0058 109.29 84.3312 108.17 83.4797C106.976 82.6243 105.929 81.5807 105.07 80.3897C103.223 77.8934 102.226 74.87 102.226 71.7647C102.226 68.6593 103.223 65.6359 105.07 63.1397C105.923 61.9467 106.967 60.9027 108.16 60.0497C109.28 59.1981 110.525 58.5236 111.85 58.0497C114.301 57.1697 116.942 56.9625 119.5 57.4497C121.525 57.837 123.443 58.6531 125.127 59.8432C126.81 61.0333 128.22 62.5699 129.26 64.3497C129.971 65.5533 130.493 66.8583 130.81 68.2197C130.934 68.7129 131.024 69.2141 131.08 69.7197C131.142 70.0863 131.169 70.458 131.16 70.8297C131.16 71.0997 131.16 71.3297 131.16 71.5097C131.176 71.5953 131.18 71.683 131.17 71.7697Z" fill="#263238"/>
<path d="M165.41 70.4199C165.312 69.279 165.135 68.1463 164.88 67.0299C164.078 64.0054 162.282 61.3388 159.78 59.4599C158.075 58.1635 156.088 57.2896 153.98 56.9099C151.562 56.466 149.069 56.6766 146.76 57.5199C145.518 57.9693 144.348 58.5994 143.29 59.3899C142.176 60.2052 141.198 61.1906 140.39 62.3099C138.661 64.6606 137.729 67.5021 137.729 70.4199C137.729 73.3377 138.661 76.1792 140.39 78.5299C141.195 79.6484 142.174 80.6308 143.29 81.4399C144.346 82.2372 145.515 82.8709 146.76 83.3199C149.07 84.1584 151.562 84.3689 153.98 83.9299C156.088 83.5502 158.075 82.6763 159.78 81.3799C162.282 79.501 164.078 76.8344 164.88 73.8099C165.135 72.6935 165.312 71.5608 165.41 70.4199C165.434 70.7161 165.434 71.0137 165.41 71.3099C165.414 71.6748 165.387 72.0394 165.33 72.3999C165.277 72.8919 165.19 73.3798 165.07 73.8599C164.433 76.4789 163.058 78.8602 161.108 80.7213C159.158 82.5824 156.716 83.8452 154.07 84.3599C151.575 84.8308 149 84.6272 146.61 83.7699C143.967 82.8071 141.665 81.0894 139.99 78.8299C138.19 76.3951 137.219 73.4474 137.219 70.4199C137.219 67.3924 138.19 64.4447 139.99 62.0099C141.665 59.7504 143.967 58.0327 146.61 57.0699C149 56.2126 151.575 56.0089 154.07 56.4799C156.716 56.9946 159.158 58.2574 161.108 60.1185C163.058 61.9796 164.433 64.3609 165.07 66.9799C165.19 67.46 165.277 67.9479 165.33 68.4399C165.387 68.8004 165.414 69.165 165.41 69.5299C165.434 69.8261 165.434 70.1237 165.41 70.4199Z" fill="#263238"/>
<path d="M137.5 67.2601C137.44 67.3101 137.11 67.0402 136.5 66.7502C135.713 66.3757 134.851 66.1874 133.98 66.2001C133.111 66.2126 132.257 66.432 131.49 66.8401C130.89 67.1501 130.57 67.4402 130.49 67.3802C130.41 67.3202 130.67 66.9402 131.27 66.5202C132.06 65.9819 132.991 65.6866 133.946 65.6706C134.902 65.6546 135.842 65.9186 136.65 66.4301C137.26 66.8301 137.5 67.2201 137.5 67.2601Z" fill="#263238"/>
<path d="M103.35 69.7295C101.371 71.5268 99.2803 73.1969 97.09 74.7295C94.9948 76.3956 92.7972 77.9286 90.51 79.3195C92.4867 77.5155 94.5813 75.8451 96.78 74.3195C98.869 72.6498 101.064 71.1166 103.35 69.7295Z" fill="#263238"/>
<g opacity="0.3">
<path opacity="0.3" d="M91.4999 134.81C90.1099 148.38 95.2699 162.71 106.16 170.93C107.01 171.58 108.08 172.22 109.09 171.85C109.763 171.523 110.301 170.971 110.61 170.29C113.66 165.02 114.804 158.862 113.85 152.85C112.13 157.39 110.65 161.85 108.91 166.59C99.4399 160.83 93.4999 148.59 91.4999 134.81Z" fill="black"/>
</g>
<path opacity="0.3" d="M128.37 165.67L136.37 162.75L137.69 176.26C137.69 176.26 146.31 160.55 149.88 153.39C153.45 146.23 151.61 133.57 151.61 133.57C151.61 133.57 152.88 144.57 144.25 158.64L137.73 169.24V158.14L128.37 165.67Z" fill="black"/>
<g opacity="0.3">
<path opacity="0.3" d="M35.4999 234.33C31.8529 232.781 27.8464 232.278 23.9299 232.88C19.7564 233.221 15.7636 234.732 12.4099 237.24C9.16991 239.85 6.97991 243.97 7.40991 248.11L7.8099 248.16C10.5999 240.62 16.1399 235.16 23.2899 234.47C30.4399 233.78 37.4099 236.98 42.2899 242.23C41.7599 238.31 39.0199 236 35.4999 234.33Z" fill="black"/>
</g>
<g opacity="0.3">
<path opacity="0.3" d="M237.44 241.999C234.668 239.155 231.046 237.291 227.12 236.689C223.7 236.117 220.196 236.321 216.866 237.285C213.536 238.249 210.465 239.949 207.88 242.259L209.4 241.019C213.267 238.691 217.706 237.486 222.22 237.539C226.75 237.617 231.094 239.353 234.43 242.419C237.43 245.259 239.22 249.109 240.93 252.859C241.207 250.903 241.037 248.91 240.432 247.029C239.828 245.148 238.805 243.428 237.44 241.999Z" fill="black"/>
</g>
<path d="M185.95 179.3C186.031 178.925 186.152 178.559 186.31 178.21C186.62 177.42 187 176.45 187.44 175.3C188.44 172.85 189.74 169.47 191.14 165.7C192.54 161.93 193.75 158.5 194.62 156.02L195.62 153.07C195.727 152.701 195.875 152.346 196.06 152.01C196.029 152.393 195.945 152.77 195.81 153.13C195.62 153.85 195.32 154.87 194.93 156.13C194.15 158.65 192.99 162.13 191.59 165.88C190.19 169.63 188.8 173.03 187.74 175.44C187.22 176.65 186.74 177.62 186.45 178.29C186.325 178.646 186.157 178.985 185.95 179.3Z" fill="#263238"/>
<path d="M59.88 180.28C59.74 180.28 58.65 175.55 57.45 169.65C56.25 163.75 55.39 159 55.5 158.92C55.61 158.84 56.72 163.65 57.92 169.55C59.12 175.45 60.02 180.25 59.88 180.28Z" fill="#263238"/>
<path d="M57.99 239.769C58.31 239.929 54.33 208.609 54.33 208.609C54.33 208.609 56.84 184.839 58.25 183.739V175.349C58.25 175.349 62.14 172.999 63.18 176.799C63.18 176.799 66.63 173.799 67.18 180.929C67.73 188.059 67.91 195.339 67.91 195.339L75.58 214.519L76.84 215.159C76.84 215.159 78.49 200.159 79.45 197.919C80.41 195.679 81.07 190.329 84.7 191.139C88.33 191.949 88.64 194.949 87.99 199.849C87.34 204.749 86.52 209.849 86.83 212.989C87.14 216.129 88.57 223.119 88.13 228.659C87.69 234.199 84.65 240.039 81.47 244.139C78.29 248.239 72.2 256.729 68.9 259.279C67.83 260.179 57.99 239.769 57.99 239.769Z" fill="#FFBE9D"/>
<path d="M61.8699 214.28C61.8199 213.835 61.8199 213.385 61.8699 212.94C61.9299 211.94 62.0199 210.76 62.1199 209.3C62.3499 206.23 62.7099 201.99 63.1199 197.3C63.3399 194.97 63.5499 192.75 63.7399 190.71C63.854 189.77 63.854 188.82 63.7399 187.88C63.6335 187.075 63.2847 186.322 62.7399 185.72C62.3403 185.289 61.8561 184.945 61.3176 184.709C60.7791 184.473 60.1978 184.351 59.6099 184.35C59.1699 184.371 58.732 184.424 58.2999 184.51C58.3982 184.441 58.506 184.387 58.6199 184.35C58.9407 184.23 59.2779 184.159 59.6199 184.14C60.2505 184.104 60.8814 184.204 61.4698 184.434C62.0582 184.663 62.5903 185.017 63.0299 185.47C63.6346 186.119 64.0225 186.941 64.14 187.82C64.2653 188.793 64.2653 189.777 64.14 190.75C63.96 192.75 63.7599 195.02 63.5599 197.35C63.1299 202.03 62.7099 206.26 62.3799 209.35L61.9699 212.98C61.9739 213.415 61.9404 213.85 61.8699 214.28Z" fill="#EB996E"/>
<path d="M65.99 201.47C65.4314 202.23 64.9742 203.061 64.63 203.94C64.02 206.154 63.5952 208.415 63.36 210.7C62.94 213.38 62.54 215.8 62.22 217.55C62.1038 218.504 61.8962 219.445 61.6 220.36C61.6038 219.397 61.6908 218.437 61.86 217.49C62.08 215.73 62.43 213.3 62.86 210.62C63.29 207.94 63.57 205.49 64.31 203.81C64.573 203.151 64.9411 202.54 65.4 202C65.73 201.6 65.97 201.45 65.99 201.47Z" fill="#EB996E"/>
<path d="M63.1699 176.39C63.3092 176.708 63.4002 177.045 63.4399 177.39C63.5799 178.03 63.7499 178.96 63.9399 180.12C64.3199 182.43 64.7399 185.64 65.0099 189.21C65.2799 192.78 65.3299 196.02 65.2899 198.36C65.2899 199.53 65.2399 200.48 65.1899 201.13C65.1983 201.467 65.1579 201.804 65.0699 202.13C64.9486 200.873 64.8986 199.611 64.9199 198.35C64.8699 196.01 64.7499 192.79 64.4899 189.24C64.2299 185.69 63.8699 182.48 63.5799 180.16C63.3687 178.912 63.2318 177.653 63.1699 176.39Z" fill="#EB996E"/>
<path d="M85.2999 205.75C84.9207 205.994 84.4872 206.143 84.0374 206.181C83.5876 206.219 83.1352 206.147 82.7199 205.97C81.2499 205.53 80.5699 204.4 80.7199 204.35C81.4085 204.787 82.1347 205.162 82.89 205.47C83.6841 205.63 84.4902 205.723 85.2999 205.75Z" fill="#EB996E"/>
<path d="M58.4199 235.87L38.1599 244.39H26.0799C26.0799 244.39 14.1399 248.12 12.2999 259.32C10.4599 270.52 10.1999 276.27 15.4499 277.66C20.6999 279.05 35.5299 279.2 42.8799 276.76C50.2299 274.32 69.4899 258.76 69.4899 258.76L71.3399 247.52L58.4199 235.87Z" fill="#FFBE9D"/>
<path d="M63.17 248.25C63.17 248.25 62.9399 248.08 62.5899 247.72C62.1076 247.197 61.6695 246.635 61.2799 246.04C60.0115 244.062 59.0569 241.899 58.45 239.63C57.8227 237.38 57.4043 235.076 57.2 232.75C57.0652 231.789 57.0383 230.816 57.1199 229.85C57.3366 230.787 57.4837 231.74 57.5599 232.7C57.8686 234.992 58.333 237.26 58.95 239.49C59.5537 241.714 60.441 243.852 61.5899 245.85C62.4999 247.36 63.24 248.18 63.17 248.25Z" fill="#EB996E"/>
<path d="M72 251.8C72.5364 250.398 72.9219 248.943 73.15 247.46C73.6036 243.842 72.6278 240.19 70.43 237.28C69.2 235.56 67.81 234.06 66.64 232.6C65.5745 231.327 64.6554 229.938 63.9 228.46C63.4041 227.451 63.0668 226.372 62.9 225.26C62.8387 224.856 62.8387 224.444 62.9 224.04C63.1344 225.52 63.6001 226.954 64.28 228.29C65.0676 229.717 66.0027 231.058 67.07 232.29C68.24 233.71 69.64 235.21 70.9 236.97C72.1257 238.621 72.9879 240.512 73.43 242.52C73.7707 244.166 73.8147 245.859 73.56 247.52C73.3919 248.628 73.0827 249.71 72.64 250.74C72.48 251.1 72.33 251.37 72.23 251.55C72.13 251.73 72.01 251.81 72 251.8Z" fill="#EB996E"/>
<path d="M40.75 203C38.9527 200.085 37.3039 197.081 35.81 194C33.21 189 31.21 184.84 31.33 184.77C33.1273 187.684 34.776 190.688 36.27 193.77C37.9197 196.768 39.415 199.848 40.75 203Z" fill="white"/>
<path d="M73.5 166.509C74.3526 163.946 75.3714 161.441 76.55 159.009C77.573 156.511 78.752 154.08 80.08 151.729C79.2221 154.291 78.2035 156.796 77.03 159.229C76.0096 161.729 74.8305 164.16 73.5 166.509Z" fill="white"/>
<path d="M105.63 190.19C103.971 188.594 102.433 186.876 101.03 185.05C99.5005 183.332 98.1001 181.504 96.84 179.58C98.5004 181.172 100.035 182.891 101.43 184.72C102.964 186.436 104.368 188.265 105.63 190.19Z" fill="white"/>
<path d="M98.24 222.76C99.2547 220.932 100.412 219.186 101.7 217.54C102.86 215.799 104.161 214.157 105.59 212.63C104.578 214.46 103.421 216.205 102.13 217.85C100.976 219.595 99.6749 221.238 98.24 222.76Z" fill="white"/>
<path d="M88.2999 268.77C87.8332 268.151 87.4405 267.48 87.1299 266.77C86.4699 265.49 85.6199 263.7 84.7599 261.69C83.8999 259.68 83.2099 257.81 82.7599 256.46C82.4609 255.74 82.2461 254.989 82.1199 254.22C82.5317 254.883 82.8672 255.591 83.1199 256.33L85.2699 261.48C86.0999 263.39 86.8399 265.12 87.4899 266.61C87.8394 267.297 88.111 268.022 88.2999 268.77Z" fill="white"/>
<path d="M116.5 249.21C114.455 249.074 112.425 248.77 110.43 248.3C108.393 247.998 106.386 247.523 104.43 246.88C108.488 247.317 112.503 248.097 116.43 249.21H116.5Z" fill="white"/>
<path d="M138.5 206.22C140.292 203.899 142.222 201.689 144.28 199.6C146.215 197.388 148.279 195.291 150.46 193.32C148.661 195.641 146.728 197.855 144.67 199.95C142.735 202.157 140.675 204.25 138.5 206.22Z" fill="white"/>
<path d="M160.5 263.549C160.39 263.649 157.16 259.899 153.28 255.199C149.4 250.499 146.35 246.599 146.46 246.509C146.57 246.419 149.8 250.159 153.68 254.859C157.56 259.559 160.59 263.459 160.5 263.549Z" fill="white"/>
<path d="M23.6999 239.12C23.7699 239.26 20.8199 240.76 17.5999 243.23C14.3799 245.7 12.1399 248.14 12.0199 248.03C12.3834 247.397 12.8421 246.824 13.3799 246.33C14.5776 245.051 15.8823 243.877 17.2799 242.82C18.6715 241.758 20.1501 240.815 21.6999 240C22.3202 239.611 22.994 239.315 23.6999 239.12Z" fill="white"/>
<path d="M31.9399 217C31.3045 218.415 30.5165 219.756 29.5899 221C28.8005 222.339 27.8648 223.587 26.7999 224.72C27.437 223.306 28.2249 221.965 29.1499 220.72C29.9373 219.379 30.8732 218.131 31.9399 217Z" fill="white"/>
<path d="M50.4999 238.72C48.8988 236.174 48.2144 233.158 48.5599 230.17C48.7099 230.17 48.7599 232.17 49.3099 234.5C49.8599 236.83 50.6399 238.65 50.4999 238.72Z" fill="white"/>
<path d="M53.25 169.8C52.0067 170.234 50.7127 170.506 49.4 170.61C48.1087 170.881 46.787 170.979 45.47 170.9C46.7169 170.467 48.0141 170.194 49.33 170.09C50.6186 169.824 51.9363 169.727 53.25 169.8Z" fill="white"/>
<path d="M67.1899 145.07C65.0362 146.664 62.6828 147.968 60.1899 148.95C61.2133 148.082 62.3464 147.353 63.5599 146.78C64.6927 146.059 65.9124 145.484 67.1899 145.07Z" fill="white"/>
<path d="M106.4 155.52C104.987 154.083 103.696 152.531 102.54 150.88C101.257 149.329 100.106 147.673 99.1 145.93C101.806 148.91 104.248 152.118 106.4 155.52Z" fill="white"/>
<path d="M156.17 180.38C153.414 177.664 151.34 174.333 150.12 170.66C150.27 170.6 151.34 172.93 153.02 175.6C154.7 178.27 156.29 180.28 156.17 180.38Z" fill="white"/>
<path d="M175.17 186.64C173.963 190.155 172.423 193.547 170.57 196.77C171.103 194.988 171.796 193.257 172.64 191.6C173.324 189.87 174.171 188.209 175.17 186.64Z" fill="white"/>
<path d="M177.83 160.71C176.012 158.945 174.321 157.053 172.77 155.05C171.084 153.158 169.531 151.154 168.12 149.05C171.619 152.71 174.863 156.606 177.83 160.71Z" fill="white"/>
<path d="M148.81 139.649C148.493 138.056 148.342 136.434 148.36 134.809C148.209 133.188 148.233 131.556 148.43 129.939C148.747 131.533 148.898 133.155 148.88 134.779C149.037 136.4 149.013 138.034 148.81 139.649Z" fill="white"/>
<path d="M172.5 138.34C170.473 138.871 168.406 139.236 166.32 139.43C164.259 139.792 162.172 139.983 160.08 140C162.107 139.469 164.174 139.104 166.26 138.91C168.321 138.547 170.408 138.357 172.5 138.34Z" fill="white"/>
<path d="M209.73 165.71C208.341 163.431 207.099 161.067 206.01 158.63C204.773 156.266 203.691 153.824 202.77 151.32C204.164 153.598 205.41 155.963 206.5 158.4C207.732 160.765 208.811 163.207 209.73 165.71Z" fill="white"/>
<path d="M203.5 189.36C203.918 185.541 204.675 181.766 205.76 178.08C205.639 179.999 205.348 181.903 204.89 183.77C204.598 185.672 204.133 187.543 203.5 189.36Z" fill="white"/>
<path d="M220.74 208C219.574 205.508 218.572 202.943 217.74 200.32C216.749 197.756 215.924 195.13 215.27 192.46C216.429 194.958 217.431 197.527 218.27 200.15C219.257 202.712 220.082 205.334 220.74 208Z" fill="white"/>
<path d="M218.33 218.91C216.545 218.642 214.829 218.027 213.28 217.1C211.653 216.319 210.201 215.217 209.01 213.86C209.11 213.74 210.95 215.26 213.53 216.64C216.11 218.02 218.38 218.76 218.33 218.91Z" fill="white"/>
<path d="M240.5 243.77C239.153 241.586 238.107 239.232 237.39 236.77C238.736 238.953 239.782 241.307 240.5 243.77Z" fill="white"/>
<path d="M109.71 278.45C109.284 277.008 109.022 275.522 108.93 274.02C108.677 272.538 108.59 271.032 108.67 269.53C109.127 270.981 109.405 272.482 109.5 274C109.739 275.471 109.81 276.964 109.71 278.45Z" fill="white"/>
<path d="M177.64 276.73C177.686 275.266 177.904 273.812 178.29 272.4C178.515 270.952 178.908 269.536 179.46 268.18C179.414 269.644 179.192 271.098 178.8 272.51C178.581 273.957 178.191 275.374 177.64 276.73Z" fill="white"/>
<path d="M190.66 78.4405L199.5 63.0005C194.048 54.2004 192.086 43.6792 193.999 33.5055C195.911 23.3319 201.561 14.2418 209.836 8.0225C218.112 1.80324 228.415 -1.0952 238.719 -0.102958C249.023 0.889286 258.583 5.70043 265.52 13.3845C272.457 21.0686 276.268 31.0697 276.204 41.4215C276.14 51.7732 272.206 61.7266 265.176 69.3247C258.145 76.9228 248.526 81.6158 238.21 82.4811C227.895 83.3463 217.628 80.3212 209.43 74.0005L190.66 78.4405Z" fill="#FAFAFA"/>
<path d="M190.66 78.4404L209.43 74.1604H209.62L209.5 74.0004L209.32 74.1704C211.95 76.2098 214.809 77.9348 217.84 79.3104C221.453 80.9271 225.278 82.0182 229.2 82.5504C231.373 82.8538 233.568 82.9642 235.76 82.8804C236.89 82.8204 238.03 82.7904 239.19 82.7004L242.69 82.1704C253.12 80.1252 262.378 74.1819 268.58 65.5504C272.025 60.7758 274.412 55.321 275.58 49.5504C276.77 43.4455 276.603 37.1535 275.09 31.1204C273.518 24.8304 270.475 19.0038 266.21 14.1204L264.5 12.1704C263.94 11.5404 263.28 11.0304 262.68 10.4504C262.08 9.87043 261.48 9.29043 260.8 8.81043L258.8 7.33044C258.148 6.82682 257.459 6.37224 256.74 5.97044L254.64 4.69044L252.44 3.62044C251.72 3.24421 250.979 2.91031 250.22 2.62044C244.32 0.295722 237.975 -0.678121 231.65 -0.229566C225.685 0.171555 219.882 1.87847 214.65 4.77043C205.217 10.0169 198.166 18.6937 194.96 29.0004C193.675 33.3721 193.068 37.9149 193.16 42.4704C193.262 46.4233 193.936 50.3405 195.16 54.1004C196.192 57.2251 197.584 60.2187 199.31 63.0204V62.8904C193.77 72.8204 191.06 77.6704 190.63 78.4304C191.07 77.6804 193.85 72.8604 199.52 63.0104V62.9504V62.8904C197.836 60.0949 196.487 57.1111 195.5 54.0004C194.283 50.2663 193.609 46.3765 193.5 42.4504C193.434 37.9369 194.051 33.4394 195.33 29.1104C198.54 18.943 205.521 10.3907 214.84 5.21044C220.021 2.32465 225.774 0.617402 231.69 0.210436C237.938 -0.229894 244.205 0.737191 250.03 3.04044C250.779 3.33024 251.51 3.66416 252.22 4.04044L254.4 5.10044L256.5 6.40044C257.197 6.80031 257.865 7.24805 258.5 7.74043L260.5 9.21044C261.17 9.69044 261.73 10.2904 262.35 10.8304C262.97 11.3704 263.6 11.9104 264.15 12.5304L265.82 14.3604C270.036 19.1972 273.045 24.9651 274.6 31.1904C276.103 37.1469 276.27 43.3618 275.09 49.3904C273.947 55.0994 271.594 60.4973 268.19 65.2204C262.067 73.7663 252.921 79.6619 242.61 81.7104L239.15 82.2504C238 82.3404 236.87 82.3804 235.75 82.4404C233.579 82.529 231.404 82.4286 229.25 82.1404C225.353 81.6364 221.548 80.5791 217.95 79.0004C214.932 77.651 212.083 75.9528 209.46 73.9404L208.69 73.3504L209.28 74.1204L209.35 73.9204L190.66 78.4404Z" fill="#263238"/>
<path d="M245.9 39.5503C245.91 40.3371 246.152 41.1035 246.595 41.7536C247.038 42.4036 247.663 42.9085 248.392 43.2051C249.121 43.5016 249.921 43.5766 250.692 43.4207C251.464 43.2647 252.172 42.8848 252.728 42.3284C253.284 41.772 253.664 41.0639 253.82 40.2927C253.976 39.5215 253.901 38.7214 253.605 37.9925C253.308 37.2637 252.803 36.6385 252.153 36.1952C251.503 35.7519 250.737 35.5102 249.95 35.5003C249.416 35.4936 248.887 35.5938 248.392 35.7949C247.898 35.9961 247.449 36.2941 247.071 36.6716C246.694 37.049 246.396 37.4981 246.195 37.9925C245.993 38.4869 245.893 39.0166 245.9 39.5503Z" fill="#263238"/>
<path d="M229.71 39.55C229.72 40.3389 229.963 41.1073 230.408 41.7585C230.854 42.4097 231.482 42.9146 232.214 43.2097C232.945 43.5048 233.748 43.5769 234.521 43.4169C235.293 43.257 236.001 42.8722 236.556 42.3108C237.11 41.7495 237.486 41.0367 237.636 40.2622C237.787 39.4876 237.705 38.6859 237.401 37.9579C237.096 37.23 236.584 36.6082 235.927 36.1708C235.27 35.7335 234.499 35.5001 233.71 35.5C233.181 35.5 232.656 35.6051 232.168 35.8092C231.679 36.0133 231.236 36.3124 230.864 36.6892C230.492 37.0659 230.198 37.5128 230 38.0039C229.802 38.495 229.703 39.0205 229.71 39.55Z" fill="#263238"/>
<path d="M213.56 37.5306C213.173 38.2167 212.998 39.0018 213.056 39.7873C213.113 40.5728 213.402 41.3237 213.885 41.946C214.367 42.5683 215.023 43.0342 215.77 43.2854C216.516 43.5365 217.32 43.5617 218.081 43.3577C218.842 43.1537 219.525 42.7297 220.046 42.1388C220.567 41.5479 220.901 40.8164 221.008 40.0361C221.115 39.2557 220.989 38.4613 220.646 37.7523C220.303 37.0433 219.758 36.4513 219.08 36.0506C218.622 35.7798 218.114 35.6031 217.587 35.531C217.06 35.4589 216.523 35.4928 216.009 35.6306C215.495 35.7684 215.014 36.0075 214.593 36.3337C214.173 36.66 213.821 37.0669 213.56 37.5306Z" fill="#263238"/>
</g>
<defs>
<clipPath id="clip0_1252_10604">
<rect width="277" height="288" fill="white"/>
</clipPath>
</defs>
</svg>
