<svg width="32" height="32" viewBox="0 0 32 32" fill="none" xmlns="http://www.w3.org/2000/svg">
<path opacity="0.1" fill-rule="evenodd" clip-rule="evenodd" d="M0 16C0 7.16344 7.16344 0 16 0C24.8366 0 32 7.16344 32 16C32 24.8366 24.8366 32 16 32C7.16344 32 0 24.8366 0 16Z" fill="white"/>
<path d="M25.6875 16C25.6875 10.6484 21.3516 6.3125 16 6.3125C10.6484 6.3125 6.3125 10.6484 6.3125 16C6.3125 20.8352 9.85508 24.843 14.4863 25.5703V18.8004H12.0254V16H14.4863V13.8656C14.4863 11.4379 15.9316 10.0969 18.1453 10.0969C19.2055 10.0969 20.3141 10.2859 20.3141 10.2859V12.6688H19.0922C17.8891 12.6688 17.5137 13.4156 17.5137 14.1816V16H20.2004L19.7707 18.8004H17.5137V25.5703C22.1449 24.843 25.6875 20.8352 25.6875 16Z" fill="white"/>
</svg>
