<svg width="24" height="24" viewBox="0 0 24 24" fill="none" xmlns="http://www.w3.org/2000/svg">
<path d="M13.4133 22.6668H3.93333C3.68232 22.6748 3.43225 22.6323 3.198 22.5418C2.96375 22.4512 2.75009 22.3145 2.56973 22.1398C2.38937 21.965 2.24599 21.7558 2.14811 21.5245C2.05024 21.2932 1.99987 21.0446 2 20.7934V3.2401C2.01911 2.72842 2.24041 2.24522 2.61536 1.89652C2.99031 1.54781 3.48828 1.36209 4 1.3801H13.48C13.7255 1.37461 13.9695 1.41901 14.1973 1.51062C14.425 1.60223 14.6318 1.73915 14.8051 1.91307C14.9784 2.08698 15.1146 2.29428 15.2054 2.52239C15.2962 2.7505 15.3397 2.99467 15.3333 3.2401V20.7934C15.3325 21.0432 15.2819 21.2902 15.1846 21.5202C15.0872 21.7502 14.945 21.9584 14.7663 22.1328C14.5875 22.3072 14.3758 22.4443 14.1435 22.5359C13.9112 22.6276 13.663 22.6721 13.4133 22.6668ZM3.93333 2.66677C3.85606 2.6641 3.77903 2.67691 3.70678 2.70444C3.63452 2.73197 3.5685 2.77367 3.5126 2.82709C3.4567 2.88051 3.41204 2.94456 3.38126 3.01549C3.35047 3.08642 3.33418 3.16279 3.33333 3.2401V20.7934C3.33333 20.9473 3.39444 21.0948 3.50321 21.2036C3.61198 21.3123 3.75951 21.3734 3.91333 21.3734H13.4133C13.5729 21.3756 13.7273 21.3168 13.845 21.209C13.9627 21.1012 14.0348 20.9526 14.0467 20.7934V3.2401C14.0332 3.08216 13.9604 2.93518 13.8428 2.82879C13.7253 2.72241 13.5718 2.66451 13.4133 2.66677H3.93333Z" fill="#191919"/>
<path d="M19.6866 22.667C19.3785 22.6696 19.0729 22.6112 18.7875 22.4952C18.5021 22.3791 18.2425 22.2076 18.0237 21.9907C17.8049 21.7738 17.6312 21.5156 17.5127 21.2312C17.3942 20.9468 17.3332 20.6418 17.3332 20.3337V15.3337C17.3332 14.98 17.1927 14.6409 16.9427 14.3909C16.6926 14.1408 16.3535 14.0003 15.9999 14.0003H15.0465C14.8697 14.0003 14.7002 13.9301 14.5751 13.8051C14.4501 13.68 14.3799 13.5105 14.3799 13.3337C14.3799 13.1568 14.4501 12.9873 14.5751 12.8623C14.7002 12.7372 14.8697 12.667 15.0465 12.667H15.9999C16.7071 12.667 17.3854 12.9479 17.8855 13.448C18.3856 13.9481 18.6665 14.6264 18.6665 15.3337V20.3337C18.6665 20.5989 18.7719 20.8532 18.9594 21.0408C19.147 21.2283 19.4013 21.3337 19.6665 21.3337C19.9318 21.3337 20.1861 21.2283 20.3737 21.0408C20.5612 20.8532 20.6665 20.5989 20.6665 20.3337V11.5337L18.5799 6.86699C18.4552 6.60694 18.2594 6.38752 18.0152 6.23414C17.771 6.08076 17.4883 5.99969 17.1999 6.00033H16.7132C16.5364 6.00033 16.3668 5.93009 16.2418 5.80506C16.1168 5.68004 16.0465 5.51047 16.0465 5.33366C16.0465 5.15685 16.1168 4.98728 16.2418 4.86225C16.3668 4.73723 16.5364 4.66699 16.7132 4.66699H17.1999C17.7542 4.66671 18.2967 4.82714 18.7617 5.12886C19.2267 5.43059 19.5943 5.86066 19.8199 6.36699L21.9599 11.1403C21.999 11.2262 22.0194 11.3193 22.0199 11.4137V20.3337C22.0199 20.9525 21.7741 21.546 21.3365 21.9836C20.8989 22.4212 20.3054 22.667 19.6866 22.667Z" fill="#191919"/>
<path d="M11.9998 6.00033H5.33317C5.15636 6.00033 4.98679 5.93009 4.86177 5.80506C4.73674 5.68004 4.6665 5.51047 4.6665 5.33366C4.6665 5.15685 4.73674 4.98728 4.86177 4.86225C4.98679 4.73723 5.15636 4.66699 5.33317 4.66699H11.9998C12.1766 4.66699 12.3462 4.73723 12.4712 4.86225C12.5963 4.98728 12.6665 5.15685 12.6665 5.33366C12.6665 5.51047 12.5963 5.68004 12.4712 5.80506C12.3462 5.93009 12.1766 6.00033 11.9998 6.00033Z" fill="#191919"/>
<path d="M11.9998 8.66634H5.33317C5.15636 8.66634 4.98679 8.5961 4.86177 8.47108C4.73674 8.34605 4.6665 8.17649 4.6665 7.99967C4.6665 7.82286 4.73674 7.65329 4.86177 7.52827C4.98679 7.40325 5.15636 7.33301 5.33317 7.33301H11.9998C12.1766 7.33301 12.3462 7.40325 12.4712 7.52827C12.5963 7.65329 12.6665 7.82286 12.6665 7.99967C12.6665 8.17649 12.5963 8.34605 12.4712 8.47108C12.3462 8.5961 12.1766 8.66634 11.9998 8.66634Z" fill="#191919"/>
<path d="M16.6667 8.05306C16.4899 8.05306 16.3203 7.98282 16.1953 7.8578C16.0702 7.73277 16 7.5632 16 7.38639V3.38639C16 3.20958 16.0702 3.04001 16.1953 2.91499C16.3203 2.78996 16.4899 2.71973 16.6667 2.71973C16.8435 2.71973 17.013 2.78996 17.1381 2.91499C17.2631 3.04001 17.3333 3.20958 17.3333 3.38639V7.38639C17.3333 7.5632 17.2631 7.73277 17.1381 7.8578C17.013 7.98282 16.8435 8.05306 16.6667 8.05306Z" fill="#191919"/>
</svg>
