<svg width="26" height="24" viewBox="0 0 26 24" fill="none" xmlns="http://www.w3.org/2000/svg">
<path d="M20.4647 6.67007C18.8914 5.09672 16.8868 4.02526 14.7045 3.59117C12.5222 3.15709 10.2602 3.37987 8.20457 4.23136C6.1489 5.08285 4.39189 6.5248 3.15572 8.37486C1.91956 10.2249 1.25976 12.4 1.25977 14.625V18.75H8.00977V17.25H2.75977V14.625C2.75977 9.2489 7.13362 4.87504 12.5098 4.87504C17.8859 4.87504 22.2598 9.2489 22.2598 14.625V17.25H17.0098V18.75H23.7598V14.625C23.7638 13.1471 23.4746 11.683 22.9091 10.3175C22.3435 8.95204 21.5127 7.71231 20.4647 6.67007Z" fill="#FAFAFA"/>
<path d="M4.25977 12.375H5.75977V13.875H4.25977V12.375Z" fill="#FAFAFA"/>
<path d="M11.7598 6H13.2598V7.5H11.7598V6Z" fill="#FAFAFA"/>
<path d="M6.88477 7.875H8.38477V9.375H6.88477V7.875Z" fill="#FAFAFA"/>
<path d="M19.2598 12.375H20.7598V13.875H19.2598V12.375Z" fill="#FAFAFA"/>
<path d="M14.4418 15.708L17.6856 8.94991L16.3332 8.30078L13.0903 15.0571C12.3724 14.9141 11.6271 15.0378 10.994 15.4051C10.3609 15.7724 9.88349 16.358 9.65134 17.0521C9.41919 17.7463 9.44821 18.5012 9.73298 19.1755C10.0177 19.8498 10.5387 20.397 11.1981 20.7146C11.8576 21.0322 12.6102 21.0983 13.3149 20.9006C14.0196 20.7028 14.628 20.2548 15.026 19.6406C15.424 19.0263 15.5842 18.2879 15.4767 17.5639C15.3691 16.84 15.0012 16.1801 14.4418 15.708ZM12.5095 19.5002C12.2129 19.5002 11.9228 19.4122 11.6762 19.2474C11.4295 19.0826 11.2372 18.8483 11.1237 18.5742C11.0102 18.3001 10.9805 17.9985 11.0383 17.7076C11.0962 17.4166 11.2391 17.1493 11.4489 16.9395C11.6586 16.7298 11.9259 16.5869 12.2169 16.529C12.5079 16.4711 12.8095 16.5009 13.0836 16.6144C13.3576 16.7279 13.5919 16.9202 13.7567 17.1668C13.9216 17.4135 14.0095 17.7035 14.0095 18.0002C14.0091 18.3979 13.8509 18.7792 13.5697 19.0604C13.2885 19.3416 12.9072 19.4998 12.5095 19.5002Z" fill="#FAFAFA"/>
</svg>
