<svg width="28" height="21" viewBox="0 0 28 21" fill="none" xmlns="http://www.w3.org/2000/svg">
<g clip-path="url(#clip0_1345_7701)">
<path d="M22.3494 3.78175C20.5873 1.94618 18.3422 0.696136 15.898 0.189701C13.4538 -0.316733 10.9204 -0.0568143 8.61803 0.936589C6.31567 1.92999 4.34782 3.61226 2.96331 5.77066C1.57881 7.92907 0.839836 10.4667 0.839844 13.0625V17.875H8.39984V16.125H2.51984V13.0625C2.51984 6.79038 7.41857 1.68755 13.4398 1.68755C19.4611 1.68755 24.3598 6.79038 24.3598 13.0625V16.125H18.4798V17.875H26.0398V13.0625C26.0444 11.3382 25.7205 9.63014 25.087 8.03709C24.4536 6.44404 23.5231 4.99769 22.3494 3.78175Z" fill="#191919"/>
<path d="M4.2002 10.4375H5.8802V12.1875H4.2002V10.4375Z" fill="#191919"/>
<path d="M12.6001 3H14.2801V4.75H12.6001V3Z" fill="#191919"/>
<path d="M7.14014 5.1875H8.82014V6.9375H7.14014V5.1875Z" fill="#191919"/>
<path d="M21 10.4375H22.68V12.1875H21V10.4375Z" fill="#191919"/>
<path d="M15.6037 14.3263L19.2367 6.44188L17.722 5.68457L14.0899 13.567C13.286 13.4001 12.4512 13.5444 11.7421 13.9729C11.033 14.4014 10.4983 15.0846 10.2383 15.8945C9.97832 16.7043 10.0108 17.5851 10.3298 18.3717C10.6487 19.1584 11.2322 19.7968 11.9707 20.1673C12.7093 20.5379 13.5523 20.615 14.3415 20.3843C15.1308 20.1536 15.8122 19.631 16.258 18.9143C16.7037 18.1977 16.8832 17.3362 16.7627 16.4916C16.6422 15.6469 16.2301 14.8771 15.6037 14.3263ZM13.4395 18.7506C13.1072 18.7506 12.7824 18.6479 12.5061 18.4556C12.2299 18.2633 12.0145 17.99 11.8874 17.6703C11.7602 17.3505 11.727 16.9986 11.7918 16.6592C11.8566 16.3197 12.0166 16.0079 12.2516 15.7631C12.4865 15.5184 12.7859 15.3517 13.1117 15.2842C13.4376 15.2167 13.7754 15.2513 14.0824 15.3838C14.3894 15.5162 14.6518 15.7405 14.8364 16.0283C15.021 16.3161 15.1195 16.6544 15.1195 17.0006C15.119 17.4645 14.9418 17.9093 14.6269 18.2374C14.3119 18.5655 13.8849 18.75 13.4395 18.7506Z" fill="#191919"/>
</g>
<defs>
<clipPath id="clip0_1345_7701">
<rect width="28" height="21" fill="white"/>
</clipPath>
</defs>
</svg>
