<svg width="557" height="476" viewBox="0 0 557 476" fill="none" xmlns="http://www.w3.org/2000/svg">
<g clip-path="url(#clip0_1287_7508)">
<path d="M329.307 39.1617V8.7207C305.976 14.5217 284.561 24.7437 263.553 39.1335L329.307 39.1617Z" fill="#F3D147"/>
<path d="M499.492 50.1299H338.473V249.981H499.492V50.1299Z" fill="#F3D147"/>
<path d="M329.307 50.1299H248.474C230.409 63.6467 211.866 77.3324 190.225 85.1328C182.988 87.7516 175.666 90.0467 168.288 92.1728V249.981H329.307V50.1299Z" fill="#F3D147"/>
<path d="M531.341 82.1051C525.246 71.1557 517.606 61.1407 508.658 52.3682V249.981H525.216C550.672 199.054 559.008 132.3 531.341 82.1051Z" fill="#F3D147"/>
<path d="M159.136 94.749C150.364 97.1567 141.522 99.4236 132.68 101.789C63.392 120.304 20.4339 182.566 28.3891 249.981H159.136V94.749Z" fill="#F3D147"/>
<path d="M508.658 260.95V277.409C510.695 274.687 512.642 271.871 514.501 268.961C516.162 266.356 517.767 263.667 519.344 260.936L508.658 260.95Z" fill="#F3D147"/>
<path d="M499.492 260.949H338.473V345.232C351.863 345.401 365.141 346.471 378.686 344.993C423.15 340.149 468.713 321.958 499.492 288.419V260.949Z" fill="#F3D147"/>
<path d="M338.473 39.1613H493.269C461.856 15.7603 421.123 4.13021 382.572 3.20093C367.788 2.76462 353.002 3.9402 338.473 6.70685V39.1613Z" fill="#F3D147"/>
<path d="M329.307 260.949H168.288V380.911C196.209 381.39 224.256 373.364 250.726 364.381C271.762 357.256 292.966 349.878 315.185 346.556C319.85 345.876 324.552 345.472 329.265 345.345L329.307 260.949Z" fill="#F3D147"/>
<path d="M159.136 260.949H30.1353C40.301 310.229 79.5279 355.158 128.864 373.66C138.596 377.295 148.783 379.574 159.136 380.432V260.949Z" fill="#F3D147"/>
<g opacity="0.7">
<path opacity="0.7" d="M329.307 39.1617V8.7207C305.976 14.5217 284.561 24.7437 263.553 39.1335L329.307 39.1617Z" fill="white"/>
<path opacity="0.7" d="M499.492 50.1299H338.473V249.981H499.492V50.1299Z" fill="white"/>
<path opacity="0.7" d="M329.307 50.1299H248.474C230.409 63.6467 211.866 77.3324 190.225 85.1328C182.988 87.7516 175.666 90.0467 168.288 92.1728V249.981H329.307V50.1299Z" fill="white"/>
<path opacity="0.7" d="M531.341 82.1051C525.246 71.1557 517.606 61.1407 508.658 52.3682V249.981H525.216C550.672 199.054 559.008 132.3 531.341 82.1051Z" fill="white"/>
<path opacity="0.7" d="M159.136 94.749C150.364 97.1567 141.522 99.4236 132.68 101.789C63.392 120.304 20.4339 182.566 28.3891 249.981H159.136V94.749Z" fill="white"/>
<path opacity="0.7" d="M508.658 260.95V277.409C510.695 274.687 512.642 271.871 514.501 268.961C516.162 266.356 517.767 263.667 519.344 260.936L508.658 260.95Z" fill="white"/>
<path opacity="0.7" d="M499.492 260.949H338.473V345.232C351.863 345.401 365.141 346.471 378.686 344.993C423.15 340.149 468.713 321.958 499.492 288.419V260.949Z" fill="white"/>
<path opacity="0.7" d="M338.473 39.1613H493.269C461.856 15.7603 421.123 4.13021 382.572 3.20093C367.788 2.76462 353.002 3.9402 338.473 6.70685V39.1613Z" fill="white"/>
<path opacity="0.7" d="M329.307 260.949H168.288V380.911C196.209 381.39 224.256 373.364 250.726 364.381C271.762 357.256 292.966 349.878 315.185 346.556C319.85 345.876 324.552 345.472 329.265 345.345L329.307 260.949Z" fill="white"/>
<path opacity="0.7" d="M159.136 260.949H30.1353C40.301 310.229 79.5279 355.158 128.864 373.66C138.596 377.295 148.783 379.574 159.136 380.432V260.949Z" fill="white"/>
</g>
<path d="M531.087 294.572H525.117H255.528H249.558V306.512H255.528V427.882H525.117V306.512H531.087V294.572Z" fill="#F3D147"/>
<path opacity="0.5" d="M531.087 294.572H525.117H255.528H249.558V306.512H255.528V427.882H525.117V306.512H531.087V294.572Z" fill="white"/>
<path d="M262.736 357.988H336.276V318.705H262.736V357.988ZM264.229 320.198H334.784V356.496H264.229V320.198Z" fill="white"/>
<path d="M354.06 357.988H427.585V318.705H354.06V357.988ZM355.552 320.198H426.093V356.496H355.552V320.198Z" fill="white"/>
<path d="M445.368 318.705V357.988H518.894V318.705H445.368ZM517.401 356.496H446.861V320.198H517.401V356.496Z" fill="white"/>
<path d="M262.736 410.718H336.276V371.421H262.736V410.718ZM264.229 372.913H334.784V409.226H264.229V372.913Z" fill="white"/>
<path d="M354.06 410.718H427.585V371.421H354.06V410.718ZM355.552 372.913H426.093V409.226H355.552V372.913Z" fill="white"/>
<path d="M445.368 410.718H518.894V371.421H445.368V410.718ZM446.861 372.913H517.401V409.226H446.861V372.913Z" fill="white"/>
<path d="M300.288 343.317C306.882 343.317 312.227 341.313 312.227 338.84C312.227 336.367 306.882 334.362 300.288 334.362C293.693 334.362 288.348 336.367 288.348 338.84C288.348 341.313 293.693 343.317 300.288 343.317Z" fill="white"/>
<path d="M391.16 343.317C397.754 343.317 403.1 341.313 403.1 338.84C403.1 336.367 397.754 334.362 391.16 334.362C384.566 334.362 379.22 336.367 379.22 338.84C379.22 341.313 384.566 343.317 391.16 343.317Z" fill="white"/>
<path d="M484.68 343.317C491.274 343.317 496.619 341.313 496.619 338.84C496.619 336.367 491.274 334.362 484.68 334.362C478.085 334.362 472.74 336.367 472.74 338.84C472.74 341.313 478.085 343.317 484.68 343.317Z" fill="white"/>
<path d="M300.288 387.092C293.699 387.092 288.362 389.091 288.362 391.569C288.362 394.047 293.699 396.047 300.288 396.047C306.878 396.047 312.228 394.047 312.228 391.569C312.228 389.091 306.892 387.092 300.288 387.092Z" fill="white"/>
<path d="M391.16 387.092C384.571 387.092 379.234 389.091 379.234 391.569C379.234 394.047 384.571 396.047 391.16 396.047C397.75 396.047 403.1 394.047 403.1 391.569C403.1 389.091 397.764 387.092 391.16 387.092Z" fill="white"/>
<path d="M484.68 387.092C478.09 387.092 472.74 389.091 472.74 391.569C472.74 394.047 478.09 396.047 484.68 396.047C491.269 396.047 496.619 394.047 496.619 391.569C496.619 389.091 491.269 387.092 484.68 387.092Z" fill="white"/>
<path d="M146.971 284.154C141.536 292.207 133.961 302.697 129.92 311.117C131.455 305.569 132.961 300.331 134.327 295.629C136.397 291.574 141.944 281.295 148.407 274.509C156.531 265.807 160.009 260.232 155.63 259.739C152.603 259.401 143.733 271.214 138.171 282.957C139.382 278.944 140.339 275.917 140.917 274.086C141.184 273.284 141.437 272.383 141.691 271.439C147.448 263.399 152.687 254.999 157.376 246.292C165.585 230.945 168.232 216.471 162.755 222.708C157.714 228.439 148.942 256.923 141.987 270.341C142.564 268.032 143.127 265.469 143.62 262.949C144.605 260.513 145.901 258.035 146.633 255.782C147.773 252.333 148.773 248.827 149.576 245.279C150.898 239.744 151.569 234.073 151.575 228.383C151.715 221.699 149.894 215.12 146.337 209.459C145.394 208.051 139.635 199.434 137.889 203.827C137.664 204.561 137.621 205.339 137.763 206.094C138.607 213.43 141.269 220.174 142.916 227.313C145.38 237.999 143.747 255.951 142.916 263.583C142.606 264.779 142.212 266.286 141.747 268.018C142.888 254.712 137.129 238.957 131.793 236.211C125.189 232.804 131.666 246.18 136.763 257.852C139.183 262.965 140.319 268.59 140.072 274.241C139.03 278.085 137.833 282.394 136.594 286.758C136.355 287.364 136.115 287.955 135.89 288.546C136.46 285.697 136.697 282.791 136.594 279.887C136.101 272.256 127.456 256.979 121.711 259.133C115.967 261.288 125.696 269.355 130.892 278.733C133.547 283.875 134.56 289.709 133.792 295.446C133.792 295.784 133.679 296.122 133.637 296.459C133.046 298.445 132.454 300.374 131.877 302.19C130.469 306.414 129.272 310.469 128.076 314.383C129.546 308.709 130.191 302.853 129.99 296.994C129.272 285.801 122.725 275.241 117.318 273.805C111.912 272.369 122.232 290.602 125.696 300.852C127.579 306.839 127.899 313.208 126.625 319.354C124.95 324.901 123.373 330.364 121.754 336.165C122.211 328.585 122.051 320.98 121.275 313.426C120.219 300.979 112.827 293.024 107.716 293.348C102.605 293.672 107.941 300.74 115.291 315.876C119.17 323.823 120.899 332.649 120.303 341.473C119.642 343.923 118.895 346.429 118.276 349.048C117.487 352.033 116.868 355.272 116.319 358.594C115.573 355.638 114.474 351.301 113.193 346.514C111.701 341.217 110.618 335.813 109.955 330.35C109.265 324 107.589 316.087 101.366 312.778C100.945 312.481 100.463 312.281 99.956 312.191C99.4487 312.101 98.9277 312.124 98.4303 312.259C97.9329 312.393 97.4712 312.636 97.0782 312.969C96.6851 313.302 96.3703 313.718 96.1562 314.186C95.5719 315.545 95.4387 317.055 95.776 318.495C96.6028 322.81 98.0244 326.989 100 330.913C98.7677 333.254 98.2073 335.891 98.3808 338.531C98.3808 339.53 98.4653 340.516 98.5357 341.487C97.9866 340.488 97.4656 339.558 96.9728 338.671C96.0817 337.18 94.9817 335.824 93.7063 334.644C94.0243 332.311 94.1842 329.959 94.185 327.604C94.185 324.507 90.5664 316.65 87.2999 322.479C86.0045 324.803 86.2439 329.393 86.1172 332.434C85.2301 333.265 84.9626 334.982 85.7088 337.7C84.9683 344.754 85.3389 351.881 86.8071 358.82L85.6947 356.849C84.0949 348.705 83.1532 340.447 82.8788 332.152C82.3437 318.481 84.512 307.217 80.7949 302.993C77.0778 298.769 74.9799 313.623 76.5709 329.745C77.3266 337.136 79.2961 344.353 82.4 351.104C78.7392 344.529 75.1207 337.827 71.6992 331.392C70.2912 327.928 66.7994 318.607 67.6583 309.146C68.7424 297.206 69.5309 287.448 64.9972 280.732C60.4634 274.016 59.52 278.367 61.7447 292.362C63.2653 301.979 64.8845 314.82 67.6864 323.732C65.0253 318.621 62.5332 313.764 60.3085 309.357C59.0413 304.978 56.0845 293.686 56.0845 284.322C56.0845 272.425 54.8032 266.019 51.2832 268.595C48.8333 270.426 50.4103 285.111 54.3527 297.473C52.5082 293.714 51.1143 290.827 50.3117 289.124C49.9456 288.349 49.5373 287.533 49.0727 286.66C47.8143 276.858 45.9332 267.147 43.4407 257.585C38.9773 240.689 31.0362 228.383 31.2756 236.662C31.5008 244.293 44.5389 271.101 48.608 285.66C47.4535 283.576 46.1159 281.323 44.7642 279.141C43.8208 276.691 43.0746 274.002 42.0749 271.848C40.5402 268.553 38.8928 265.3 37.0484 262.161C34.2388 257.2 30.8551 252.588 26.9671 248.418C22.5044 243.437 16.6791 239.873 10.2119 238.168C8.55044 237.774 -1.53084 235.352 0.186917 239.858C0.515812 240.54 0.997623 241.138 1.59492 241.604C7.22692 246.391 13.76 249.503 19.8989 253.6C28.9946 259.725 40.0474 273.96 44.6093 280.127L46.7776 284.182C38.5408 273.678 23.5738 266.089 17.801 267.722C10.6484 269.736 24.5172 275.1 36.2036 280.155C41.4636 282.239 46.1334 285.579 49.8048 289.884C51.6634 293.39 53.7332 297.361 55.8029 301.402C56.0423 302.007 56.2676 302.598 56.521 303.176C54.9898 300.706 53.1753 298.423 51.1143 296.375C45.4823 291.137 28.7975 285.871 26.08 291.362C23.3626 296.854 35.936 296.107 46.1581 299.416C51.667 301.334 56.4442 304.916 59.8298 309.666L60.4071 310.525C61.3364 312.384 62.2093 314.186 63.04 315.918C64.9549 319.945 66.7853 323.732 68.5876 327.421C65.7935 322.247 62.2651 317.505 58.112 313.341C49.9456 305.654 37.9495 302.401 32.9792 305.076C28.009 307.752 48.0448 314.003 57.5629 319.156C63.0253 322.244 67.6059 326.68 70.8685 332.04C73.4311 337.235 76.0077 342.318 78.7815 347.654C73.9117 341.803 68.5768 336.355 62.8288 331.364C53.5642 323 42.7226 322.24 39.2167 325.943C35.7108 329.646 44.4263 331.195 60.1114 337.207C68.3643 340.375 75.6452 345.646 81.2314 352.498C82.4141 354.737 83.625 357.032 84.9204 359.411C86.4701 362.271 88.1666 365.048 90.0032 367.732C87.4407 366.071 83.6672 363.649 79.4714 361.03C74.7663 358.181 70.2894 354.97 66.0813 351.428C61.2378 347.204 54.6061 342.614 47.7773 344.388C47.2701 344.464 46.7857 344.651 46.358 344.934C45.9304 345.217 45.5698 345.591 45.3016 346.028C45.0333 346.465 44.8639 346.956 44.8051 347.465C44.7463 347.975 44.7997 348.491 44.9613 348.978C45.4586 350.37 46.3919 351.565 47.6224 352.385C54.0429 357.37 62.674 359.763 70.1504 362.692C77.0022 365.39 84.0246 367.634 91.1719 369.408C92.946 371.956 94.8045 374.463 96.649 376.87L93.298 376.969C89.3274 377.082 71.4176 368.971 62.322 366.353C53.2263 363.734 44.722 368.69 54.2541 373.815C63.7863 378.94 89.7076 377.8 89.7076 377.8L97.184 377.617C98.944 379.869 100.676 381.995 102.295 383.953H66.7853V393.809H73.8253L79.4573 428.84H126.752L132.384 393.837H139.424V383.981H115.882C115.692 379.726 115.805 375.463 116.22 371.224C117.789 369.626 119.531 368.21 121.416 367C131.75 359.862 149.266 359.27 153.926 345.528C155.053 342.205 153.786 337.953 149.815 338.136C146.999 338.277 143.944 340.769 142.17 342.825C136.256 349.654 131.807 356.736 124.119 361.903C123.767 362.143 118.924 366.001 116.516 368.394C116.783 366.155 117.121 363.762 117.558 361.185C119.415 357.89 121.534 354.75 123.894 351.794C130.188 343.994 139.762 339.418 146.563 331.969C148.646 329.688 151.392 321.494 145.028 323.521C142.212 324.436 138.861 328.717 136.65 330.688C130.399 336.32 123.978 342.318 119.895 349.724C120.064 348.992 120.247 348.316 120.416 347.514C124.81 340.484 129.753 333.812 135.2 327.562C144.239 317.27 153.504 310.539 153.659 304.922C153.814 299.304 142.156 308.723 132.257 321.62C127.767 327.537 124.285 334.155 121.951 341.206C123.767 333.898 125.696 326.534 127.583 319.466C128.878 315.946 132.722 306.794 139.804 300.444C148.745 292.461 155.982 285.871 157.263 277.916C158.545 269.961 154.912 272.397 146.971 284.154ZM96.9728 374.716C95.6399 372.895 94.2319 370.905 92.7488 368.746C91.8624 365.068 91.2738 361.325 90.9888 357.553C90.796 354.322 90.9423 351.08 91.4253 347.88C93.8248 350.854 96.3767 353.702 99.0708 356.412C99.0066 359.232 98.6623 362.038 98.0429 364.79C98.0007 365.198 97.0996 371.323 96.9728 374.716ZM104.632 383.981C102.816 382.052 100.831 379.757 98.6765 376.941C98.7306 374.707 99.0376 372.487 99.5917 370.323C100.454 366.912 101.691 363.606 103.281 360.467C106.618 363.635 109.068 365.747 109.068 365.747L114.7 370.675C114.263 375.603 114.01 380.207 113.855 383.953L104.632 383.981ZM114.77 369.816L112.25 367.606C110.842 366.339 108.307 361.439 105.548 355.807C106.733 353.43 107.777 350.985 108.673 348.485C111.658 354.019 114.305 358.341 115.868 360.636C115.488 363.706 115.066 366.803 114.77 369.816Z" fill="#F3D147"/>
<path opacity="0.5" d="M146.971 284.154C141.536 292.207 133.961 302.697 129.92 311.117C131.455 305.569 132.961 300.331 134.327 295.629C136.397 291.574 141.944 281.295 148.407 274.509C156.531 265.807 160.009 260.232 155.63 259.739C152.603 259.401 143.733 271.214 138.171 282.957C139.382 278.944 140.339 275.917 140.917 274.086C141.184 273.284 141.437 272.383 141.691 271.439C147.448 263.399 152.687 254.999 157.376 246.292C165.585 230.945 168.232 216.471 162.755 222.708C157.714 228.439 148.942 256.923 141.987 270.341C142.564 268.032 143.127 265.469 143.62 262.949C144.605 260.513 145.901 258.035 146.633 255.782C147.773 252.333 148.773 248.827 149.576 245.279C150.898 239.744 151.569 234.073 151.575 228.383C151.715 221.699 149.894 215.12 146.337 209.459C145.394 208.051 139.635 199.434 137.889 203.827C137.664 204.561 137.621 205.339 137.763 206.094C138.607 213.43 141.269 220.174 142.916 227.313C145.38 237.999 143.747 255.951 142.916 263.583C142.606 264.779 142.212 266.286 141.747 268.018C142.888 254.712 137.129 238.957 131.793 236.211C125.189 232.804 131.666 246.18 136.763 257.852C139.183 262.965 140.319 268.59 140.072 274.241C139.03 278.085 137.833 282.394 136.594 286.758C136.355 287.364 136.115 287.955 135.89 288.546C136.46 285.697 136.697 282.791 136.594 279.887C136.101 272.256 127.456 256.979 121.711 259.133C115.967 261.288 125.696 269.355 130.892 278.733C133.547 283.875 134.56 289.709 133.792 295.446C133.792 295.784 133.679 296.122 133.637 296.459C133.046 298.445 132.454 300.374 131.877 302.19C130.469 306.414 129.272 310.469 128.076 314.383C129.546 308.709 130.191 302.853 129.99 296.994C129.272 285.801 122.725 275.241 117.318 273.805C111.912 272.369 122.232 290.602 125.696 300.852C127.579 306.839 127.899 313.208 126.625 319.354C124.95 324.901 123.373 330.364 121.754 336.165C122.211 328.585 122.051 320.98 121.275 313.426C120.219 300.979 112.827 293.024 107.716 293.348C102.605 293.672 107.941 300.74 115.291 315.876C119.17 323.823 120.899 332.649 120.303 341.473C119.642 343.923 118.895 346.429 118.276 349.048C117.487 352.033 116.868 355.272 116.319 358.594C115.573 355.638 114.474 351.301 113.193 346.514C111.701 341.217 110.618 335.813 109.955 330.35C109.265 324 107.589 316.087 101.366 312.778C100.945 312.481 100.463 312.281 99.956 312.191C99.4487 312.101 98.9277 312.124 98.4303 312.259C97.9329 312.393 97.4712 312.636 97.0782 312.969C96.6851 313.302 96.3703 313.718 96.1562 314.186C95.5719 315.545 95.4387 317.055 95.776 318.495C96.6028 322.81 98.0244 326.989 100 330.913C98.7677 333.254 98.2073 335.891 98.3808 338.531C98.3808 339.53 98.4653 340.516 98.5357 341.487C97.9866 340.488 97.4656 339.558 96.9728 338.671C96.0817 337.18 94.9817 335.824 93.7063 334.644C94.0243 332.311 94.1842 329.959 94.185 327.604C94.185 324.507 90.5664 316.65 87.2999 322.479C86.0045 324.803 86.2439 329.393 86.1172 332.434C85.2301 333.265 84.9626 334.982 85.7088 337.7C84.9683 344.754 85.3389 351.881 86.8071 358.82L85.6947 356.849C84.0949 348.705 83.1532 340.447 82.8788 332.152C82.3437 318.481 84.512 307.217 80.7949 302.993C77.0778 298.769 74.9799 313.623 76.5709 329.745C77.3266 337.136 79.2961 344.353 82.4 351.104C78.7392 344.529 75.1207 337.827 71.6992 331.392C70.2912 327.928 66.7994 318.607 67.6583 309.146C68.7424 297.206 69.5309 287.448 64.9972 280.732C60.4634 274.016 59.52 278.367 61.7447 292.362C63.2653 301.979 64.8845 314.82 67.6864 323.732C65.0253 318.621 62.5332 313.764 60.3085 309.357C59.0413 304.978 56.0845 293.686 56.0845 284.322C56.0845 272.425 54.8032 266.019 51.2832 268.595C48.8333 270.426 50.4103 285.111 54.3527 297.473C52.5082 293.714 51.1143 290.827 50.3117 289.124C49.9456 288.349 49.5373 287.533 49.0727 286.66C47.8143 276.858 45.9332 267.147 43.4407 257.585C38.9773 240.689 31.0362 228.383 31.2756 236.662C31.5008 244.293 44.5389 271.101 48.608 285.66C47.4535 283.576 46.1159 281.323 44.7642 279.141C43.8208 276.691 43.0746 274.002 42.0749 271.848C40.5402 268.553 38.8928 265.3 37.0484 262.161C34.2388 257.2 30.8551 252.588 26.9671 248.418C22.5044 243.437 16.6791 239.873 10.2119 238.168C8.55044 237.774 -1.53084 235.352 0.186917 239.858C0.515812 240.54 0.997623 241.138 1.59492 241.604C7.22692 246.391 13.76 249.503 19.8989 253.6C28.9946 259.725 40.0474 273.96 44.6093 280.127L46.7776 284.182C38.5408 273.678 23.5738 266.089 17.801 267.722C10.6484 269.736 24.5172 275.1 36.2036 280.155C41.4636 282.239 46.1334 285.579 49.8048 289.884C51.6634 293.39 53.7332 297.361 55.8029 301.402C56.0423 302.007 56.2676 302.598 56.521 303.176C54.9898 300.706 53.1753 298.423 51.1143 296.375C45.4823 291.137 28.7975 285.871 26.08 291.362C23.3626 296.854 35.936 296.107 46.1581 299.416C51.667 301.334 56.4442 304.916 59.8298 309.666L60.4071 310.525C61.3364 312.384 62.2093 314.186 63.04 315.918C64.9549 319.945 66.7853 323.732 68.5876 327.421C65.7935 322.247 62.2651 317.505 58.112 313.341C49.9456 305.654 37.9495 302.401 32.9792 305.076C28.009 307.752 48.0448 314.003 57.5629 319.156C63.0253 322.244 67.6059 326.68 70.8685 332.04C73.4311 337.235 76.0077 342.318 78.7815 347.654C73.9117 341.803 68.5768 336.355 62.8288 331.364C53.5642 323 42.7226 322.24 39.2167 325.943C35.7108 329.646 44.4263 331.195 60.1114 337.207C68.3643 340.375 75.6452 345.646 81.2314 352.498C82.4141 354.737 83.625 357.032 84.9204 359.411C86.4701 362.271 88.1666 365.048 90.0032 367.732C87.4407 366.071 83.6672 363.649 79.4714 361.03C74.7663 358.181 70.2894 354.97 66.0813 351.428C61.2378 347.204 54.6061 342.614 47.7773 344.388C47.2701 344.464 46.7857 344.651 46.358 344.934C45.9304 345.217 45.5698 345.591 45.3016 346.028C45.0333 346.465 44.8639 346.956 44.8051 347.465C44.7463 347.975 44.7997 348.491 44.9613 348.978C45.4586 350.37 46.3919 351.565 47.6224 352.385C54.0429 357.37 62.674 359.763 70.1504 362.692C77.0022 365.39 84.0246 367.634 91.1719 369.408C92.946 371.956 94.8045 374.463 96.649 376.87L93.298 376.969C89.3274 377.082 71.4176 368.971 62.322 366.353C53.2263 363.734 44.722 368.69 54.2541 373.815C63.7863 378.94 89.7076 377.8 89.7076 377.8L97.184 377.617C98.944 379.869 100.676 381.995 102.295 383.953H66.7853V393.809H73.8253L79.4573 428.84H126.752L132.384 393.837H139.424V383.981H115.882C115.692 379.726 115.805 375.463 116.22 371.224C117.789 369.626 119.531 368.21 121.416 367C131.75 359.862 149.266 359.27 153.926 345.528C155.053 342.205 153.786 337.953 149.815 338.136C146.999 338.277 143.944 340.769 142.17 342.825C136.256 349.654 131.807 356.736 124.119 361.903C123.767 362.143 118.924 366.001 116.516 368.394C116.783 366.155 117.121 363.762 117.558 361.185C119.415 357.89 121.534 354.75 123.894 351.794C130.188 343.994 139.762 339.418 146.563 331.969C148.646 329.688 151.392 321.494 145.028 323.521C142.212 324.436 138.861 328.717 136.65 330.688C130.399 336.32 123.978 342.318 119.895 349.724C120.064 348.992 120.247 348.316 120.416 347.514C124.81 340.484 129.753 333.812 135.2 327.562C144.239 317.27 153.504 310.539 153.659 304.922C153.814 299.304 142.156 308.723 132.257 321.62C127.767 327.537 124.285 334.155 121.951 341.206C123.767 333.898 125.696 326.534 127.583 319.466C128.878 315.946 132.722 306.794 139.804 300.444C148.745 292.461 155.982 285.871 157.263 277.916C158.545 269.961 154.912 272.397 146.971 284.154ZM96.9728 374.716C95.6399 372.895 94.2319 370.905 92.7488 368.746C91.8624 365.068 91.2738 361.325 90.9888 357.553C90.796 354.322 90.9423 351.08 91.4253 347.88C93.8248 350.854 96.3767 353.702 99.0708 356.412C99.0066 359.232 98.6623 362.038 98.0429 364.79C98.0007 365.198 97.0996 371.323 96.9728 374.716ZM104.632 383.981C102.816 382.052 100.831 379.757 98.6765 376.941C98.7306 374.707 99.0376 372.487 99.5917 370.323C100.454 366.912 101.691 363.606 103.281 360.467C106.618 363.635 109.068 365.747 109.068 365.747L114.7 370.675C114.263 375.603 114.01 380.207 113.855 383.953L104.632 383.981ZM114.77 369.816L112.25 367.606C110.842 366.339 108.307 361.439 105.548 355.807C106.733 353.43 107.777 350.985 108.673 348.485C111.658 354.019 114.305 358.341 115.868 360.636C115.488 363.706 115.066 366.803 114.77 369.816Z" fill="white"/>
<path d="M154.898 464.461C187.542 464.461 214.006 458.731 214.006 451.662C214.006 444.593 187.542 438.863 154.898 438.863C122.254 438.863 95.79 444.593 95.79 451.662C95.79 458.731 122.254 464.461 154.898 464.461Z" fill="#F3D147"/>
<path opacity="0.5" d="M154.898 464.461C187.542 464.461 214.006 458.731 214.006 451.662C214.006 444.593 187.542 438.863 154.898 438.863C122.254 438.863 95.79 444.593 95.79 451.662C95.79 458.731 122.254 464.461 154.898 464.461Z" fill="white"/>
<path d="M369.364 464.461C402.009 464.461 428.472 458.731 428.472 451.662C428.472 444.593 402.009 438.863 369.364 438.863C336.72 438.863 310.256 444.593 310.256 451.662C310.256 458.731 336.72 464.461 369.364 464.461Z" fill="#F3D147"/>
<path opacity="0.5" d="M369.364 464.461C402.009 464.461 428.472 458.731 428.472 451.662C428.472 444.593 402.009 438.863 369.364 438.863C336.72 438.863 310.256 444.593 310.256 451.662C310.256 458.731 336.72 464.461 369.364 464.461Z" fill="white"/>
<path d="M270.157 217.991C272.538 219.482 274.574 221.465 276.127 223.806C277.901 227.031 285.335 229.128 285.335 229.128H288.081L289.207 242.04C286.376 242.132 283.555 242.405 280.759 242.856C279.111 243.22 277.433 243.432 275.746 243.49C275.746 243.49 267.031 232.522 265.581 230.424C264.13 228.326 263.976 223.975 264.623 223.159C265.271 222.342 270.157 217.991 270.157 217.991Z" fill="white" stroke="#263238" stroke-width="0.75" stroke-linecap="round" stroke-linejoin="round"/>
<path d="M258.541 239.942C258.541 239.942 253.697 241.561 255.795 242.856C256.874 243.336 258.075 243.469 259.232 243.237C260.39 243.005 261.447 242.419 262.258 241.561C263.06 240.265 260.512 239.294 258.541 239.942Z" fill="white" stroke="#263238" stroke-width="0.75" stroke-linecap="round" stroke-linejoin="round"/>
<path d="M253.218 225.101C253.218 225.101 267.58 219.933 268.228 220.412C268.875 220.891 270.002 225.256 270.002 225.256C270.002 225.256 279.999 231.226 280.815 233.492C281.463 237.011 281.463 240.618 280.815 244.137C280.322 244.954 277.591 245.911 276.591 246.235C275.583 246.485 274.53 246.485 273.522 246.235C273.043 246.08 265.285 240.603 265.285 240.603C265.285 240.603 257.386 241.405 255.612 241.405C253.838 241.405 252.05 241.251 252.05 241.251L253.218 225.101Z" fill="white" stroke="#263238" stroke-width="0.75" stroke-linecap="round" stroke-linejoin="round"/>
<path d="M271.128 231.184C271.128 231.184 276.45 234.098 277.591 235.703C278.731 237.308 279.843 244.264 279.843 244.264" stroke="#263238" stroke-width="0.75" stroke-linecap="round" stroke-linejoin="round"/>
<path d="M268.875 234.141C268.875 234.141 275.169 237.52 275.803 239.139C276.405 241.205 276.876 243.307 277.211 245.433" stroke="#263238" stroke-width="0.75" stroke-linecap="round" stroke-linejoin="round"/>
<path d="M272.1 221.06C272.1 221.06 265.158 228.804 263.539 229.621C261.92 230.438 261.61 229.452 260.723 228.804C259.836 228.157 265.89 219.455 265.736 218.808C266.581 218.183 267.612 217.859 268.663 217.887C269.714 217.915 270.725 218.294 271.537 218.963" fill="white"/>
<path d="M272.1 221.06C272.1 221.06 265.158 228.804 263.539 229.621C261.92 230.438 261.61 229.452 260.723 228.804C259.836 228.157 265.89 219.455 265.736 218.808C266.581 218.183 267.612 217.859 268.663 217.887C269.714 217.915 270.725 218.294 271.537 218.963" stroke="#263238" stroke-width="0.75" stroke-linecap="round" stroke-linejoin="round"/>
<path d="M261.92 238.224L261.666 239.097C261.156 240.641 260.858 242.247 260.779 243.87C261.103 244.518 263.046 245.166 263.694 244.194C264.342 243.223 265.623 238.393 265.299 237.746C264.975 237.098 263.708 234.296 261.92 238.224Z" fill="white" stroke="#263238" stroke-width="0.75" stroke-linecap="round" stroke-linejoin="round"/>
<path d="M268.059 237.52C267.552 238.154 265.243 245.109 265.806 245.968C266.369 246.827 268.707 247.108 269.354 246.137C270.002 245.165 272.255 239.097 271.607 237.689C270.959 236.281 270.368 234.774 268.059 237.52Z" fill="white" stroke="#263238" stroke-width="0.75" stroke-linecap="round" stroke-linejoin="round"/>
<path d="M272.1 238.97L271.861 239.533C271.157 241.209 269.143 246.263 269.678 247.207C270.213 248.15 273.381 248.615 274.029 247.052C274.677 245.489 276.944 239.463 275.437 238.012C275.201 237.731 274.888 237.525 274.537 237.418C274.186 237.311 273.811 237.307 273.458 237.409C273.105 237.51 272.789 237.711 272.548 237.988C272.307 238.265 272.151 238.606 272.1 238.97Z" fill="white" stroke="#263238" stroke-width="0.75" stroke-linecap="round" stroke-linejoin="round"/>
<path d="M161.023 103.253C161.023 103.253 161.867 108.449 160.896 110.518C159.924 112.588 158.474 116.925 158.474 116.925L179.904 135.933C179.904 135.933 186.437 127.696 187.648 126.077C188.859 124.457 190.464 122.317 190.464 122.317C190.464 122.317 179.932 115.657 177.792 110.814C175.652 105.97 176.708 99.8034 172.16 98.8319C167.612 97.8603 162.36 100.353 161.023 103.253Z" fill="white" stroke="#263238" stroke-width="0.75" stroke-linecap="round" stroke-linejoin="round"/>
<path d="M201.812 71.1788C201.812 71.1788 210.767 71.052 208.951 62.4632C207.135 53.8744 186.198 52.044 182.326 56.0428C178.454 60.0415 179.059 61.6748 179.059 61.6748C179.059 61.6748 161.023 61.196 156.419 70.9957C151.814 80.7954 153.884 93.5237 156.911 100.169C159.939 106.815 165.021 107.547 167.683 106.703C170.344 105.858 172.273 104.281 172.273 101.859C172.273 99.4373 173.976 93.6364 176.032 95.0866C178.088 96.5368 180.256 97.0156 183.903 93.5096C187.549 90.0037 192.731 85.6389 190.802 82.133C188.873 78.6271 185.592 78.5004 187.409 76.9234C189.225 75.3464 199.517 74.1074 200.475 73.0514C201.008 72.4944 201.459 71.8638 201.812 71.1788Z" fill="#263238" stroke="#263238" stroke-width="0.75" stroke-linecap="round" stroke-linejoin="round"/>
<path d="M201.376 66.0254C201.376 66.0254 202.643 68.5739 190.591 71.7419C178.538 74.9099 158.207 75.5435 157.601 83.1607" stroke="white" stroke-width="0.75" stroke-linecap="round" stroke-linejoin="round"/>
<path d="M177.933 80.626C177.933 80.626 163.346 85.0612 160.164 90.1441C156.982 95.2269 161.445 99.6481 161.445 99.6481" stroke="white" stroke-width="0.75" stroke-linecap="round" stroke-linejoin="round"/>
<path d="M201.813 71.1787C201.813 71.1787 205.206 82.668 205.206 84.9771C205.206 87.2862 202.784 89.5672 203.868 92.1157C204.952 94.6641 208.585 99.6203 208.585 101.197C208.585 102.774 203.263 104.337 203.263 104.337C203.263 104.337 198.785 121.233 197.814 123.345C196.842 125.457 193.59 125.767 189.704 124.753C185.818 123.739 175.553 118.333 172.808 114.109C170.062 109.885 172.076 102.718 172.076 102.718C172.076 102.718 166.444 100.183 165.303 94.8613C164.163 89.539 168.33 86.019 171.963 87.2299C172.984 87.532 173.931 88.0436 174.743 88.7321C175.555 89.4206 176.215 90.2709 176.68 91.2286C176.68 91.2286 177.046 92.5521 178.088 92.2001C179.13 91.8481 180.143 89.6517 181.115 89.5249C182.086 89.3982 188.986 86.9905 188.155 84.3294C187.324 81.6683 178.707 81.5134 179.313 78.5144C179.918 75.5154 201.813 71.1787 201.813 71.1787Z" fill="white" stroke="#263238" stroke-width="0.75" stroke-linecap="round" stroke-linejoin="round"/>
<path d="M191.041 101.915L187.535 104.337" stroke="#263238" stroke-width="0.75" stroke-linecap="round" stroke-linejoin="round"/>
<path d="M189.704 103.492C189.704 103.492 190.802 106.393 195.336 107.364L189.704 103.492Z" fill="white"/>
<path d="M189.704 103.492C189.704 103.492 190.802 106.393 195.336 107.364" stroke="#263238" stroke-width="0.75" stroke-linecap="round" stroke-linejoin="round"/>
<path d="M189.831 104.337C189.831 104.337 187.775 109.969 190.309 111.236C192.844 112.503 193.942 107.251 193.942 107.251L189.831 104.337Z" fill="black"/>
<path d="M203.502 93.0306C203.361 95.9733 202.615 98.3247 201.84 98.2824C201.066 98.2402 200.573 95.8325 200.728 92.8898C200.883 89.9471 201.615 87.6098 202.39 87.6379C203.164 87.6661 203.657 90.0879 203.502 93.0306Z" fill="white" stroke="#263238" stroke-width="0.75" stroke-linecap="round" stroke-linejoin="round"/>
<path d="M200.729 90.0605H176.032" stroke="#263238" stroke-width="0.75" stroke-linecap="round" stroke-linejoin="round"/>
<path d="M199.024 86.7939C199.209 86.1337 199.546 85.5261 200.008 85.0199C200.47 84.5136 201.045 84.123 201.686 83.8794C203.755 83.2739 204.107 84.3722 204.107 84.3722" fill="white"/>
<path d="M199.024 86.7939C199.209 86.1337 199.546 85.5261 200.008 85.0199C200.47 84.5136 201.045 84.123 201.686 83.8794C203.755 83.2739 204.107 84.3722 204.107 84.3722" stroke="#263238" stroke-width="0.75" stroke-linecap="round" stroke-linejoin="round"/>
<path d="M115.066 291.911L190.112 289.658C190.112 289.658 194.787 341.613 193.66 342.754C192.534 343.894 118.135 346.978 118.135 346.978C118.135 346.978 112.376 347.386 111.56 344.81C110.743 342.233 115.066 291.911 115.066 291.911Z" fill="white" stroke="#263238" stroke-width="0.75" stroke-linecap="round" stroke-linejoin="round"/>
<path d="M115.066 291.911C115.066 291.911 108.026 343.388 109.251 344.852C110.476 346.316 116.291 347.372 118.135 346.95C119.825 346.64 115.066 291.911 115.066 291.911Z" fill="white" stroke="#263238" stroke-width="0.75" stroke-linecap="round" stroke-linejoin="round"/>
<path d="M137.171 432.964C133.046 435.484 131.046 439.737 132.018 443.13C132.99 446.523 133.299 446.847 135.89 447.354C138.481 447.861 150.083 446.059 162.642 443.961C175.201 441.863 177.018 441.384 178.13 439.61C179.242 437.836 181.199 436.062 168.767 433.978C156.334 431.894 155.208 429.613 155.208 429.613C155.208 429.613 143.789 428.923 137.171 432.964Z" fill="#F3D147" stroke="#263238" stroke-width="0.75" stroke-linecap="round" stroke-linejoin="round"/>
<path d="M177.792 436.315C176.947 438.047 174.3 441.159 165.979 442.159C157.179 443.215 141.254 444.806 132.849 445.524C133.426 446.721 134.13 446.932 135.89 447.326C138.467 447.805 150.083 446.031 162.642 443.933C175.201 441.835 177.018 441.356 178.13 439.582C178.848 438.512 179.82 437.442 177.792 436.315Z" fill="#263238" stroke="#263238" stroke-width="0.75" stroke-linecap="round" stroke-linejoin="round"/>
<path d="M159.446 437.315C159.446 437.315 172.357 443.454 179.467 444.905C186.578 446.355 188.338 446.524 187.535 448.777C186.733 451.029 186.564 451.691 175.75 454.268C164.937 456.844 153.152 453.944 147.984 452.972C142.817 452.001 141.212 453.465 138.959 452.494C136.706 451.522 137.34 446.679 137.34 446.679L159.446 437.315Z" fill="#F3D147" stroke="#263238" stroke-width="0.75" stroke-linecap="round" stroke-linejoin="round"/>
<path d="M175.75 454.267C184.832 452.099 186.395 451.296 187.141 449.748C177.285 453.972 164.219 452.226 154.25 451.085C147.829 450.339 141.705 449.677 137.354 449.325C137.331 449.951 137.471 450.571 137.76 451.127C138.048 451.682 138.476 452.153 139.001 452.493C141.254 453.465 142.873 452.014 148.027 452.972C153.18 453.929 164.937 456.844 175.75 454.267Z" fill="#263238" stroke="#263238" stroke-width="0.75" stroke-linecap="round" stroke-linejoin="round"/>
<path d="M144.929 318.705C144.929 318.705 142.662 337.094 138.142 345.007C133.623 352.92 127.498 358.397 126.526 369.858C125.555 381.319 128.779 428.121 129.103 432.162C129.427 436.203 127.695 437.484 129.427 440.061C130.512 441.642 131.697 443.151 132.975 444.581L138.311 439.906C138.311 439.906 142.183 427.473 141.212 403.749C140.24 380.024 140.409 364.057 144.605 348.231C148.801 332.405 149.604 328.224 147.661 322.085C145.718 315.946 144.929 318.705 144.929 318.705Z" fill="#263238" stroke="#263238" stroke-width="0.75" stroke-linecap="round" stroke-linejoin="round"/>
<path d="M134.763 280.576C134.763 280.576 140.086 290.615 141.296 293.248C142.507 295.881 145.281 326.421 143.113 336.587C140.944 346.752 132.496 364.029 133.257 379.193C134.017 394.357 134.665 434.555 134.665 435.034C134.179 437.432 134.179 439.902 134.665 442.299C135.467 446.65 137.889 447.931 137.889 447.931C141.998 446.019 146.26 444.455 150.631 443.257C158.544 440.99 160.797 437.766 160.797 437.766C160.107 435.675 159.298 433.626 158.375 431.627C157.249 429.374 155.32 425.826 155.644 424.685C155.968 423.545 158.066 386.444 162.262 374.18C166.457 361.917 168.865 349.005 172.427 337.699C175.99 326.393 184.48 296.107 184.48 288.363V278.845L134.13 277.873L134.763 280.576Z" fill="#263238" stroke="#263238" stroke-width="0.75" stroke-linecap="round" stroke-linejoin="round"/>
<path d="M138.917 352.892C137.509 357.214 135.946 362.058 134.763 365.902C131.947 375.054 134.763 426.446 134.763 426.446C135.071 430.192 135.161 433.953 135.031 437.71C134.763 442.37 135.031 444.214 136.185 445.468" stroke="white" stroke-width="0.75" stroke-linecap="round" stroke-linejoin="round"/>
<path d="M142.508 341.966C142.508 341.966 141.466 345.078 140.072 349.344" stroke="white" stroke-width="0.75" stroke-linecap="round" stroke-linejoin="round"/>
<path d="M156.912 112.574C156.912 112.574 162.544 114.503 170.992 121.895C179.44 129.287 188.056 136.299 186.24 138.791C184.424 141.283 181.031 150.055 181.031 150.055C181.031 150.055 177.891 144.846 168.57 137.383C159.249 129.921 152.096 123.219 152.096 123.219C152.096 123.219 155.94 114.151 156.912 112.574Z" fill="white" stroke="#263238" stroke-width="0.75" stroke-linecap="round" stroke-linejoin="round"/>
<path d="M149.407 124.43C149.407 124.43 131.37 137.257 128.287 149.605C125.203 161.953 123.922 168.007 124.175 191.605C124.429 215.203 125.865 230.1 125.865 231.184C125.865 232.268 121.12 276.099 121.12 276.578C121.12 277.057 129.568 284.815 153.194 285.294C169.229 285.396 185.243 284.143 201.066 281.548L190.774 196.576C190.774 196.576 186.775 160.376 182.664 153.603C178.552 146.831 149.407 124.43 149.407 124.43Z" fill="#640E27" stroke="#263238" stroke-width="0.75" stroke-linecap="round" stroke-linejoin="round"/>
<path d="M159.812 242.209C159.812 242.209 174.821 245.236 185.156 241.477" stroke="#263238" stroke-width="0.75" stroke-linecap="round" stroke-linejoin="round"/>
<path d="M159.812 246.672C159.812 246.672 174.821 249.699 185.156 245.954" stroke="#263238" stroke-width="0.75" stroke-linecap="round" stroke-linejoin="round"/>
<path d="M250.628 222.68L254.345 224.454L252.078 241.237L248.375 240.589L250.628 222.68Z" fill="white" stroke="#263238" stroke-width="0.75" stroke-linecap="round" stroke-linejoin="round"/>
<path d="M165.416 146.507C163.303 147.174 161.411 148.4 159.939 150.055C157.517 152.871 144.451 169.091 145.408 176.202C146.365 183.312 163.36 209.275 168.992 217.357C175.926 227.599 185.913 235.394 197.532 239.632C211.739 244.799 248.699 242.223 248.699 242.223L250.656 222.187C250.656 222.187 230.493 215.738 216.611 211.542C208.889 209.259 201.338 206.436 194.012 203.094C194.012 203.094 190.788 195.181 188.521 193.9C186.254 192.619 185.944 191.802 185.944 191.802C185.944 191.802 181.594 168.077 179.327 160.319C177.06 152.561 174.004 150.646 174.004 150.646" fill="#640E27"/>
<path d="M165.416 146.507C163.303 147.174 161.411 148.4 159.939 150.055C157.517 152.871 144.451 169.091 145.408 176.202C146.365 183.312 163.36 209.275 168.992 217.357C175.926 227.599 185.913 235.394 197.532 239.632C211.739 244.799 248.699 242.223 248.699 242.223L250.656 222.187C250.656 222.187 230.493 215.738 216.611 211.542C208.889 209.259 201.338 206.436 194.012 203.094C194.012 203.094 190.788 195.181 188.521 193.9C186.254 192.619 185.944 191.802 185.944 191.802C185.944 191.802 181.594 168.077 179.327 160.319C177.06 152.561 174.004 150.646 174.004 150.646" stroke="#263238" stroke-width="0.75" stroke-linecap="round" stroke-linejoin="round"/>
<path d="M354.088 429.219C348.331 432.543 342.346 435.455 336.178 437.934C327.941 441.004 325.998 442.158 327.617 443.904C329.236 445.65 343.274 446.974 351.173 445.312C359.072 443.651 362.155 442.581 365.704 442.736C369.252 442.89 374.152 443.862 375.869 441.44C377.587 439.018 378.291 438.54 376.996 434.499C375.7 430.458 354.088 429.219 354.088 429.219Z" fill="#640E27" stroke="#263238" stroke-width="0.75" stroke-linecap="round" stroke-linejoin="round"/>
<path d="M351.173 445.355C359.086 443.75 362.156 442.623 365.704 442.778C369.252 442.933 374.152 443.905 375.87 441.483C377.137 439.751 377.827 439.005 377.644 437.259C371.899 436.78 360.818 438.597 347.611 441.483C340.927 443.111 333.996 443.464 327.181 442.525C327.104 442.776 327.104 443.045 327.182 443.296C327.26 443.547 327.412 443.769 327.617 443.933C329.237 445.679 343.274 446.974 351.173 445.355Z" fill="#263238" stroke="#263238" stroke-width="0.75" stroke-linecap="round" stroke-linejoin="round"/>
<path d="M384.585 439.878C381.353 443.374 377.906 446.666 374.265 449.734C368.928 454.085 359.734 460.069 360.706 462.645C361.677 465.222 368.281 467.644 382.163 464.053C391.048 461.625 399.453 457.696 407.015 452.437C408.566 452.15 409.949 451.284 410.887 450.016C412.027 448.073 410.732 445.017 410.732 445.017L384.585 439.878Z" fill="#640E27" stroke="#263238" stroke-width="0.75" stroke-linecap="round" stroke-linejoin="round"/>
<path d="M382.163 464.082C391.048 461.653 399.452 457.724 407.014 452.466C408.565 452.178 409.949 451.313 410.886 450.044C411.501 448.556 411.501 446.885 410.886 445.397C390.808 460.59 372.025 463.701 362.085 464.152C364.704 465.954 371.152 466.898 382.163 464.082Z" fill="#263238" stroke="#263238" stroke-width="0.75" stroke-linecap="round" stroke-linejoin="round"/>
<path d="M360.48 251.853C360.48 251.853 351.933 252.994 345.794 250.727C339.656 248.46 333.855 246.7 333.855 246.7C333.855 246.7 330.461 290.757 334.178 308.511C337.896 326.266 347.737 347.935 347.892 352.892C348.089 358.854 348.791 364.789 349.99 370.632C351.117 375.152 356.608 410.056 356.932 413.886C357.147 415.818 357.147 417.769 356.932 419.701C356.932 419.701 353.06 420.997 353.06 422.123V430.346C356.253 432.025 359.607 433.378 363.071 434.387C369.04 436.161 377.432 437.611 377.432 437.611C378.153 434.358 378.688 431.068 379.037 427.755C379.037 425.502 377.629 419.532 377.629 416.294C377.629 413.055 378.446 374.335 378.446 374.335C378.446 374.335 386.345 407.423 386.345 418.392C386.345 429.36 386.19 432.922 386.19 432.922C386.19 432.922 382.642 431.796 382.642 434.218C382.642 436.639 382.473 442.44 382.473 442.44C382.473 442.44 395.06 445.665 401.03 447.439C404.59 448.513 408.352 448.735 412.013 448.086C412.013 448.086 415.237 435.823 414.913 431.796C414.589 427.769 410.562 424.362 410.562 422.109C410.562 419.856 412.66 397.582 409.591 378.207C406.521 358.833 398.454 349.963 398.13 340.445C397.806 330.927 399.538 296.712 399.749 291.165C399.96 285.617 405.55 274.058 406.367 268.89C407.183 263.723 406.521 248.404 406.521 248.404C406.521 248.404 370.336 253.628 360.48 251.853Z" fill="#263238" stroke="#263238" stroke-width="0.75" stroke-linecap="round" stroke-linejoin="round"/>
<path d="M345.048 273.973L353.764 279.619" stroke="white" stroke-width="0.75" stroke-linecap="round" stroke-linejoin="round"/>
<path d="M376.503 369.393C377.714 372.532 378.46 374.349 378.46 374.349" stroke="white" stroke-width="0.75" stroke-linecap="round" stroke-linejoin="round"/>
<path d="M350.863 278.169C350.863 278.169 356.664 312.214 363.606 333.517C367.168 344.444 370.984 354.919 373.856 362.508" stroke="white" stroke-width="0.75" stroke-linecap="round" stroke-linejoin="round"/>
<path d="M285.335 226.875C285.49 227.354 286.292 244.954 286.292 244.954L332.616 240.73L331.658 217.977L285.335 226.875Z" fill="#263238" stroke="#263238" stroke-width="0.75" stroke-linecap="round" stroke-linejoin="round"/>
<path d="M376.193 134.694C376.193 134.694 365.704 138.397 363.606 140.987C361.508 143.578 349.075 187.296 344.992 200.208C340.909 213.119 339.67 252.177 339.67 252.177C341.927 253.012 344.249 253.662 346.611 254.12C348.936 254.513 351.295 254.673 353.651 254.599C353.651 254.599 367.21 208.923 373.828 193.28C380.446 177.638 391.569 155.194 395.779 146.479C399.989 137.763 403.678 136.144 403.199 131.948C402.72 127.752 400.777 126.133 398.355 125.809C395.934 125.485 376.193 134.694 376.193 134.694Z" fill="white" stroke="#263238" stroke-width="0.75" stroke-linecap="round" stroke-linejoin="round"/>
<path d="M377.503 133.412C377.503 133.412 367.013 137.115 364.915 139.706C362.817 142.297 350.399 186.015 346.4 198.927C342.401 211.838 341.036 250.896 341.036 250.896C343.293 251.731 345.614 252.381 347.977 252.839C350.303 253.223 352.66 253.384 355.017 253.318C355.017 253.318 368.576 207.642 375.194 191.985C381.811 176.328 392.949 153.969 397.144 145.183C401.34 136.397 405.043 134.863 404.565 130.667C404.086 126.471 402.143 124.852 399.721 124.528C397.299 124.204 377.503 133.412 377.503 133.412Z" fill="#F3D147" stroke="#263238" stroke-width="0.75" stroke-linecap="round" stroke-linejoin="round"/>
<path d="M391.681 138.72C385.103 149.973 379.334 161.68 374.419 173.752C367.801 190.859 362.479 206.136 355.693 228.945C351.614 243.029 350.247 257.76 351.666 272.354C351.666 272.354 354.89 277.845 373.94 278.493C392.99 279.14 416.87 273.001 416.87 273.001C416.87 273.001 413.632 253.627 413.308 242.18C412.984 230.733 422.192 190.535 426.064 180.045C429.936 169.556 438.328 159.066 430.288 148.9C422.249 138.735 403.015 127.273 403.015 127.273C403.015 127.273 393.779 135.172 391.681 138.72Z" fill="#263238" stroke="#263238" stroke-width="0.75" stroke-linecap="round" stroke-linejoin="round"/>
<path d="M369.9 138.566C369.9 138.566 364.901 144.86 360.381 158.278C355.862 171.696 347.47 207.347 343.598 222.511C339.726 237.675 337.783 271.411 337.783 271.411C337.783 271.411 335.685 271.256 331.334 271.256C328.468 271.171 325.656 270.455 323.098 269.158C323.098 269.158 326.167 236.07 328.913 220.582C331.658 205.094 339.726 177.483 341.176 166.67C342.627 155.856 343.105 153.125 345.048 151.66C346.991 150.196 362.156 141.016 365.225 138.918C368.294 136.82 369.9 138.566 369.9 138.566Z" fill="#263238" stroke="#263238" stroke-width="0.75" stroke-linecap="round" stroke-linejoin="round"/>
<path d="M407.986 130.822C407.986 130.822 398.792 149.056 396.37 152.449C394.966 154.386 393.723 156.434 392.653 158.574L384.585 161.643L387.809 166.811C387.809 166.811 371.519 195.985 367.323 205.7C363.127 215.415 358.875 225.876 358.875 225.876" stroke="white" stroke-width="0.75" stroke-linecap="round" stroke-linejoin="round"/>
<path d="M341.683 212.979C341.387 216.203 341.331 217.484 341.331 217.484" stroke="white" stroke-width="0.75" stroke-linecap="round" stroke-linejoin="round"/>
<path d="M361.677 144.212L352.637 158.095L354.735 161.319L349.723 167.458C349.723 167.458 344.4 189.564 342.95 201.503C342.668 203.827 342.429 205.854 342.246 207.614" stroke="white" stroke-width="0.75" stroke-linecap="round" stroke-linejoin="round"/>
<path d="M363.451 138.242L361.677 146.789L370.871 140.664L363.451 138.242Z" fill="white" stroke="#263238" stroke-width="0.75" stroke-linecap="round" stroke-linejoin="round"/>
<path d="M371.195 131.47C371.026 131.948 363.451 138.242 363.451 138.242L371.997 141.79L373.771 134.849L371.195 131.47Z" fill="white" stroke="#263238" stroke-width="0.75" stroke-linecap="round" stroke-linejoin="round"/>
<path d="M368.126 67.0673C364.483 69.3366 361.611 72.6545 359.889 76.5854C356.988 83.203 354.735 85.9486 355.383 88.0465C355.848 89.4657 356.168 90.928 356.341 92.4114C356.341 92.8901 349.568 99.3528 349.399 101.282C349.23 103.211 353.764 106.773 353.764 106.773C353.764 106.773 354.243 117.91 354.243 118.882C354.243 119.853 354.566 124.852 359.255 126.133C362.444 126.868 365.764 126.815 368.928 125.978L371.998 141.79C371.998 141.79 393.47 128.555 395.722 127.428C397.975 126.302 400.721 124.852 400.89 123.078C401.059 121.304 399.594 111.448 399.594 111.448C399.594 111.448 411.055 100.958 410.858 88.6942C410.661 76.4306 404.128 68.6865 392.174 65.0398C380.22 61.3931 368.126 67.0673 368.126 67.0673Z" fill="white" stroke="#263238" stroke-width="0.75" stroke-linecap="round" stroke-linejoin="round"/>
<path d="M410.886 88.6938C410.732 76.4301 404.114 68.6861 392.174 64.969C380.234 61.2518 368.126 67.0669 368.126 67.0669C367.182 67.6323 366.296 68.2877 365.479 69.024C369.421 68.32 375.912 67.8272 380.558 70.784C387.598 75.3037 383.135 79.8234 380.713 82.2451C378.291 84.6669 377.813 85.6243 379.587 87.8771C381.361 90.1299 384.754 90.1299 383.937 92.2278C383.121 94.3258 380.713 97.2403 382.656 98.0429C384.599 98.8454 386.359 97.0714 387.176 94.6496C387.992 92.2278 392.005 92.2278 393.624 97.2403C394.211 99.1251 394.2 101.145 393.592 103.023C392.985 104.902 391.81 106.546 390.231 107.73C388.931 108.693 387.324 109.149 385.711 109.011C388.484 110.419 391.408 111.505 394.427 112.25C396.179 112.396 397.943 112.258 399.651 111.841C399.651 111.588 399.651 111.433 399.651 111.433C399.651 111.433 411.055 100.957 410.886 88.6938Z" fill="#263238" stroke="#263238" stroke-width="0.75" stroke-linecap="round" stroke-linejoin="round"/>
<path d="M363.93 94.9882C363.93 96.2413 363.536 97.255 363.043 97.255C362.55 97.255 362.156 96.2413 362.156 94.9882C362.156 93.735 362.55 92.7354 363.043 92.7354C363.536 92.7354 363.93 93.7491 363.93 94.9882Z" fill="black"/>
<path d="M359.734 88.2153C359.734 88.2153 360.382 85.9484 363.958 86.1174C367.534 86.2864 367.675 88.863 367.675 88.863" fill="white"/>
<path d="M359.734 88.2153C359.734 88.2153 360.382 85.9484 363.958 86.1174C367.534 86.2864 367.675 88.863 367.675 88.863" stroke="#263238" stroke-width="0.75" stroke-linecap="round" stroke-linejoin="round"/>
<path d="M353.764 106.773C354.75 107.129 355.808 107.242 356.847 107.102C357.886 106.963 358.876 106.574 359.734 105.97C362.31 103.872 360.212 102.084 360.212 102.084" fill="white"/>
<path d="M353.764 106.773C354.75 107.129 355.808 107.242 356.847 107.102C357.886 106.963 358.876 106.574 359.734 105.97C362.31 103.872 360.212 102.084 360.212 102.084" stroke="#263238" stroke-width="0.75" stroke-linecap="round" stroke-linejoin="round"/>
<path d="M354.411 109.35C354.411 109.35 362.958 105.126 366.83 104.999C370.702 104.872 374.743 111.504 373.152 117.136C371.561 122.768 369.773 125.584 364.281 127.794C358.79 130.005 353.623 129.568 352.665 125.851C351.708 122.134 356.045 116.826 358.142 115.855C360.24 114.883 361.86 114.728 361.536 116.502C361.212 118.276 360.24 119.558 364.281 118.755C368.322 117.952 370.575 116.826 370.73 112.461C370.885 108.096 369.322 106.491 365.098 107.139C360.874 107.787 354.608 111.166 354.608 111.166L354.411 109.35Z" fill="#263238" stroke="#263238" stroke-width="0.75" stroke-linecap="round" stroke-linejoin="round"/>
<path d="M357.791 112.743C357.791 112.743 364.577 112.419 366.999 109.674L357.791 112.743Z" fill="white"/>
<path d="M357.791 112.743C357.791 112.743 364.577 112.419 366.999 109.674" stroke="#263238" stroke-width="0.75" stroke-linecap="round" stroke-linejoin="round"/>
<path d="M385.078 108.871C385.088 110.196 384.802 111.507 384.242 112.707C383.682 113.908 382.861 114.969 381.839 115.813" fill="white"/>
<path d="M385.078 108.871C385.088 110.196 384.802 111.507 384.242 112.707C383.682 113.908 382.861 114.969 381.839 115.813" stroke="#263238" stroke-width="0.75" stroke-linecap="round" stroke-linejoin="round"/>
<path d="M371.998 141.79L376.686 152.604C376.686 152.604 394.427 139.368 398.792 134.201C403.157 129.034 406.536 126.457 404.114 122.937C401.692 119.417 398.144 122.289 397.496 122.613C396.849 122.937 371.998 141.79 371.998 141.79Z" fill="white" stroke="#263238" stroke-width="0.75" stroke-linecap="round" stroke-linejoin="round"/>
<path d="M336.544 237.168C334.534 230.63 332.922 223.977 331.714 217.245C330.743 211.063 330.306 204.77 330.306 204.77C322.511 204.059 314.89 202.041 307.764 198.8C297.12 193.646 294.853 191.76 294.853 191.76C294.853 191.76 309.215 238.562 312.129 248.404C315.044 258.246 315.677 260.343 315.677 260.343C320.283 262.625 325.161 264.31 330.194 265.356C334.19 266.101 338.239 266.53 342.303 266.637L336.544 237.168Z" fill="white" stroke="#263238" stroke-width="0.75" stroke-linecap="round" stroke-linejoin="round"/>
<path d="M352.637 237.167C349.224 236.533 345.909 235.449 342.781 233.943C340.434 232.582 337.872 231.629 335.206 231.127H334.558L336.487 237.097C334.106 237.623 331.675 237.897 329.236 237.913C325.364 237.913 317.282 236.618 316.972 237.097C316.673 238.254 316.563 239.453 316.649 240.645C316.649 241.785 322.45 248.727 325.843 251.149C329.236 253.57 332.291 255.176 335.361 255.176C338.43 255.176 354.89 252.923 354.89 252.923L352.637 237.167Z" fill="white" stroke="#263238" stroke-width="0.75" stroke-linecap="round" stroke-linejoin="round"/>
<path d="M399.594 174.23C399.594 174.23 400.397 192.309 400.889 205.375C401.382 218.441 402.185 219.582 402.185 219.582C402.185 219.582 366.027 233.141 360.536 234.267C355.045 235.393 350.863 236.689 350.863 236.689L353.285 254.275C365.117 255.273 377.032 254.182 388.485 251.05C406.085 245.883 433.189 240.716 433.682 238.308C434.175 235.9 433.682 228.621 433.682 227.044C433.682 225.467 433.189 190.732 433.189 175.244C433.189 159.756 434.315 156.193 432.386 152.969C430.457 149.745 420.601 148.126 414.955 151.35" fill="#263238"/>
<path d="M399.594 174.23C399.594 174.23 400.397 192.309 400.889 205.375C401.382 218.441 402.185 219.582 402.185 219.582C402.185 219.582 366.027 233.141 360.536 234.267C355.045 235.393 350.863 236.689 350.863 236.689L353.285 254.275C365.117 255.273 377.032 254.182 388.485 251.05C406.085 245.883 433.189 240.716 433.682 238.308C434.175 235.9 433.682 228.621 433.682 227.044C433.682 225.467 433.189 190.732 433.189 175.244C433.189 159.756 434.315 156.193 432.386 152.969C430.457 149.745 420.601 148.126 414.955 151.35" stroke="#263238" stroke-width="0.75" stroke-linecap="round" stroke-linejoin="round"/>
<path d="M372.293 229.959L402.185 219.582L399.538 179.75" stroke="white" stroke-width="0.75" stroke-linecap="round" stroke-linejoin="round"/>
<path d="M363.901 232.873L368.224 231.381" stroke="white" stroke-width="0.75" stroke-linecap="round" stroke-linejoin="round"/>
<path d="M409.901 159.671C409.901 159.671 421.165 145.591 432.358 152.927" stroke="white" stroke-width="0.75" stroke-linecap="round" stroke-linejoin="round"/>
<path d="M317.283 238.787C317.283 238.787 324.717 243.786 329.715 244.602" stroke="#263238" stroke-width="0.75" stroke-linecap="round" stroke-linejoin="round"/>
<path d="M318.578 243.631C320.769 245.559 323.28 247.089 325.998 248.151L329.392 249.108" stroke="#263238" stroke-width="0.75" stroke-linecap="round" stroke-linejoin="round"/>
<path d="M326.688 251.698C328.609 252.402 330.618 252.838 332.658 252.994" stroke="#263238" stroke-width="0.75" stroke-linecap="round" stroke-linejoin="round"/>
<path d="M189.633 191.267C189.633 191.267 187.408 168.528 184.79 152.505C183.382 143.649 178.017 136.102 172.413 129.343C167.781 123.711 160.783 118.558 156.925 112.574C155.588 110.518 148.576 125.387 148.562 125.401C147.154 128.569 163.839 138.608 166.091 140.889C169.048 143.846 171.723 147.338 174.413 150.52C175.638 151.928 178.862 157.292 180.706 157.743L183.691 158.489L181.453 165.205L189.633 191.267Z" fill="#F3D147" stroke="#263238" stroke-width="0.75" stroke-linecap="round" stroke-linejoin="round"/>
</g>
<defs>
<clipPath id="clip0_1287_7508">
<rect width="557" height="476" fill="white"/>
</clipPath>
</defs>
</svg>
