<svg width="28" height="28" viewBox="0 0 28 28" fill="none" xmlns="http://www.w3.org/2000/svg">
<path d="M7.58333 19.2497L4.08333 2.33301C4.08333 2.33301 10.2083 3.49967 10.2083 5.83301C10.2083 7.29134 7.875 8.16634 8.75 9.04134C9.625 9.91634 12.8333 10.7913 12.8333 13.1247C12.8333 14.583 11.8767 15.668 12.8333 16.6247C13.7083 17.4997 14.5833 17.0412 16.0417 16.6247C17.675 16.158 21 15.7497 22.1667 16.0413C23.3333 16.333 24.5 16.9163 24.5 18.6663C24.5 19.6288 23.9167 20.708 22.4583 20.9997C21 21.2913 19.25 19.833 16.9167 19.833C14.5833 19.833 11.6667 21.583 9.91667 21.583C8.16667 21.583 7.58333 19.2497 7.58333 19.2497Z" stroke="black" stroke-linejoin="round"/>
<path d="M22.1665 21L23.9165 25.6667H4.6665L8.1665 21" stroke="black" stroke-linejoin="round"/>
</svg>
