<svg width="28" height="28" viewBox="0 0 28 28" fill="none" xmlns="http://www.w3.org/2000/svg">
<path d="M10.5 1.75V7H12.25V7.93012C8.66075 8.3125 7.10938 10.9637 7.10938 10.9637L7 11.1562V26.25H19.25V11.1562L19.1406 10.9646C19.1406 10.9646 17.5893 8.3125 14 7.92925V7H15.75V1.75H10.5ZM21 1.75C20.5188 1.75 20.125 2.14375 20.125 2.625C20.125 3.10625 20.5188 3.5 21 3.5C21.4812 3.5 21.875 3.10625 21.875 2.625C21.875 2.14375 21.4812 1.75 21 1.75ZM12.25 3.5H14V5.25H12.25V3.5ZM18.375 3.5C17.8938 3.5 17.5 3.89375 17.5 4.375C17.5 4.85625 17.8938 5.25 18.375 5.25C18.8562 5.25 19.25 4.85625 19.25 4.375C19.25 3.89375 18.8562 3.5 18.375 3.5ZM21 5.25C20.5188 5.25 20.125 5.64375 20.125 6.125C20.125 6.60625 20.5188 7 21 7C21.4812 7 21.875 6.60625 21.875 6.125C21.875 5.64375 21.4812 5.25 21 5.25ZM13.125 9.625C14.6458 9.625 15.6712 10.045 16.352 10.5H9.89887C10.5787 10.045 11.6042 9.625 13.125 9.625ZM8.75 12.25H17.5V24.5H8.75V12.25ZM13.125 15.75C11.6856 15.75 10.5 16.9356 10.5 18.375C10.5 19.8144 11.6856 21 13.125 21C14.5644 21 15.75 19.8144 15.75 18.375C15.75 16.9356 14.5644 15.75 13.125 15.75ZM13.125 17.5C13.6176 17.5 14 17.8832 14 18.375C14 18.8676 13.6167 19.25 13.125 19.25C12.6324 19.25 12.25 18.8668 12.25 18.375C12.25 17.8824 12.6333 17.5 13.125 17.5Z" fill="#191919"/>
</svg>
