<svg width="636" height="358" viewBox="0 0 636 358" fill="none" xmlns="http://www.w3.org/2000/svg">
<path d="M601.231 119.321C601.231 119.321 553.155 30.5203 456.419 9.97351C359.684 -10.5733 311.81 39.2858 247.085 52.2224C182.36 65.1589 149.345 -8.62446 73.154 48.8537C-3.03721 106.332 -29.0189 250.795 42.2545 292.056C113.528 333.317 185.127 335.072 278.452 323.361C371.776 311.65 422.435 339.587 488.676 339.896C554.917 340.204 649.088 245.01 601.231 119.321Z" fill="#F3D147"/>
<path opacity="0.7" d="M601.231 119.321C601.231 119.321 553.155 30.5203 456.419 9.97351C359.684 -10.5733 311.81 39.2858 247.085 52.2224C182.36 65.1589 149.345 -8.62446 73.154 48.8537C-3.03722 106.332 -29.0189 250.795 42.2545 292.056C113.528 333.317 185.127 335.072 278.452 323.361C371.776 311.65 422.435 339.587 488.676 339.896C554.917 340.204 649.088 245.01 601.231 119.321Z" fill="white"/>
<path d="M598.103 246.298V232.982L587.527 231.721C586.848 228.534 585.683 225.471 584.072 222.638L590.55 214.402L581.137 204.984L573.205 211.227C570.324 209.403 567.17 208.051 563.863 207.224L562.664 197.188H549.356L548.166 207.206C544.9 208.023 541.783 209.35 538.93 211.139L530.786 204.728L521.374 214.146L527.993 222.55C526.434 225.289 525.284 228.243 524.582 231.316L513.583 232.63V246.007L525.04 247.365C525.821 250.156 526.98 252.826 528.486 255.302L521.136 264.526L530.548 273.944L540.014 266.492C542.391 267.855 544.932 268.907 547.576 269.623L549.021 281.739H562.329L563.731 269.817C566.435 269.147 569.042 268.131 571.486 266.792L580.899 274.226L590.312 264.808L583.261 255.813C584.868 253.28 586.114 250.534 586.963 247.656L598.103 246.298ZM556.01 256.88C552.374 256.878 548.821 255.798 545.799 253.776C542.776 251.753 540.421 248.88 539.031 245.518C537.641 242.157 537.278 238.459 537.989 234.891C538.699 231.323 540.451 228.046 543.022 225.474C545.594 222.903 548.87 221.152 552.436 220.443C556.002 219.734 559.698 220.098 563.057 221.491C566.415 222.883 569.286 225.241 571.306 228.266C573.326 231.291 574.404 234.847 574.404 238.485C574.407 240.904 573.934 243.299 573.011 245.535C572.088 247.77 570.734 249.801 569.025 251.512C567.317 253.224 565.288 254.581 563.054 255.506C560.821 256.432 558.427 256.908 556.01 256.907V256.88Z" stroke="#263238" stroke-linejoin="round"/>
<path d="M588.355 147.391V140.433L582.829 139.781C582.486 138.116 581.892 136.513 581.066 135.028L584.451 130.724L579.533 125.804L575.391 129.067C573.883 128.118 572.235 127.412 570.508 126.977L569.882 121.686H562.849L562.224 126.977C560.518 127.402 558.891 128.096 557.403 129.031L553.146 125.68L548.228 130.601L551.683 135.01C550.875 136.442 550.282 137.983 549.92 139.587L544.174 140.275V147.241L550.14 147.955C550.539 149.407 551.132 150.799 551.903 152.091L548.14 156.941L553.058 161.862L558.002 157.973C559.251 158.676 560.583 159.218 561.968 159.587L562.717 165.919H569.671L570.411 159.684C571.825 159.335 573.188 158.805 574.465 158.105L579.374 161.968L584.292 157.047L580.591 152.347C581.436 151.027 582.089 149.592 582.529 148.088L588.355 147.391ZM566.322 152.938C564.422 152.938 562.564 152.374 560.985 151.318C559.405 150.262 558.174 148.761 557.446 147.004C556.719 145.248 556.529 143.315 556.9 141.451C557.27 139.586 558.185 137.873 559.529 136.529C560.872 135.185 562.584 134.269 564.448 133.899C566.311 133.528 568.243 133.718 569.998 134.445C571.753 135.173 573.254 136.405 574.309 137.986C575.365 139.566 575.928 141.425 575.928 143.326C575.926 145.865 574.92 148.301 573.131 150.101C571.341 151.902 568.913 152.922 566.375 152.938H566.322Z" stroke="#263238" stroke-linejoin="round"/>
<path d="M449.157 255.839V249.737L444.31 249.164C443.998 247.705 443.466 246.301 442.732 245.002L445.702 241.227L441.384 236.906L437.753 239.772C436.432 238.936 434.986 238.316 433.47 237.938L432.923 233.335H426.824L426.278 237.938C424.785 238.303 423.358 238.898 422.047 239.702L418.311 236.801L414.001 241.113L417.033 244.966C416.32 246.224 415.794 247.578 415.473 248.988L410.432 249.587V255.707L415.667 256.333C416.026 257.607 416.557 258.827 417.244 259.958L413.895 264.217L418.205 268.538L422.541 265.116C423.628 265.744 424.793 266.227 426.005 266.554L426.666 272.109H432.765L433.417 266.642C434.646 266.333 435.831 265.868 436.942 265.258L441.252 268.644L445.561 264.332L442.318 260.205C443.056 259.046 443.628 257.791 444.019 256.474L449.157 255.839ZM429.874 260.698C428.207 260.698 426.578 260.204 425.192 259.277C423.806 258.35 422.726 257.033 422.089 255.492C421.451 253.951 421.285 252.256 421.611 250.62C421.937 248.985 422.74 247.482 423.919 246.304C425.098 245.125 426.6 244.323 428.235 243.999C429.87 243.674 431.565 243.842 433.104 244.482C434.644 245.121 435.959 246.203 436.884 247.591C437.808 248.978 438.301 250.609 438.299 252.277C438.299 254.507 437.415 256.647 435.84 258.226C434.266 259.804 432.129 260.694 429.9 260.698H429.874Z" stroke="#263238" stroke-linejoin="round"/>
<path d="M25.6592 132.549C30.8943 132.716 41.6906 128.14 41.6994 128.14C41.7082 128.14 36.5172 121.967 36.1382 121.588C31.7315 117.531 20.9088 112.284 15.0832 115.565C10.8968 117.928 10.1918 123.351 12.8534 127.125C15.515 130.9 21.2084 132.399 25.6592 132.549Z" fill="#F3D147"/>
<path d="M136.83 91.0315C136.954 91.0315 135.949 82.9979 135.808 82.4953C134.389 76.7016 128.237 66.3312 121.566 65.855C116.763 65.5111 113.193 69.6469 113.334 74.2677C113.475 78.8886 117.388 83.2801 121.019 85.8639C125.285 88.8974 136.822 91.0315 136.83 91.0315Z" fill="#F3D147"/>
<path d="M560.999 63.6156C556.592 65.7849 545.531 66.0318 545.522 66.0318C545.514 66.0318 547.576 58.7038 547.761 58.254C549.956 53.0776 557.235 44.3739 563.502 44.9383C568.014 45.3439 570.711 49.7266 569.883 53.9947C569.054 58.2628 564.762 61.7637 560.999 63.6156Z" fill="#F3D147"/>
<path d="M449.554 71.023C449.457 71.0847 447.218 63.7742 447.13 63.298C446.108 57.7689 447.386 46.5431 452.921 43.5096C456.904 41.3579 461.567 43.5096 463.232 47.5396C464.898 51.5696 463.232 56.843 461.126 60.4674C458.632 64.7178 449.563 71.0141 449.554 71.023Z" fill="#F3D147"/>
<path d="M591.74 297.973C589.977 298.599 585.896 298.246 585.888 298.246C585.879 298.246 586.945 295.601 587.042 295.442C588.064 293.608 591.123 290.662 593.432 291.13C593.813 291.218 594.171 291.386 594.483 291.622C594.795 291.858 595.055 292.157 595.244 292.499C595.433 292.842 595.549 293.22 595.583 293.61C595.617 294 595.569 294.393 595.441 294.763C594.948 296.35 593.22 297.435 591.74 297.973Z" fill="#F3D147"/>
<path d="M550 296.191C550 296.191 549.427 293.405 549.409 293.228C549.259 291.13 550.185 286.985 552.37 286.103C552.736 285.966 553.126 285.907 553.515 285.931C553.905 285.955 554.285 286.06 554.631 286.241C554.977 286.421 555.281 286.673 555.523 286.979C555.765 287.285 555.94 287.639 556.037 288.017C556.504 289.613 555.667 291.482 554.732 292.743C553.631 294.225 550 296.191 550 296.191Z" fill="#F3D147"/>
<path d="M426.463 316.721C427.673 316.959 428.912 317.015 430.138 316.888C430.138 316.888 429.477 315.231 429.416 315.125C428.772 313.969 426.851 312.126 425.406 312.417C425.168 312.475 424.944 312.58 424.75 312.728C424.555 312.877 424.393 313.064 424.275 313.277C424.156 313.491 424.084 313.728 424.061 313.971C424.039 314.215 424.068 314.461 424.145 314.693C424.361 315.179 424.68 315.612 425.08 315.963C425.481 316.313 425.953 316.572 426.463 316.721Z" fill="#F3D147"/>
<path d="M452.683 315.601C452.683 315.601 453.044 313.837 453.053 313.74C453.15 312.426 452.559 309.825 451.193 309.269C450.963 309.186 450.719 309.152 450.475 309.169C450.231 309.186 449.994 309.254 449.778 309.367C449.561 309.481 449.371 309.638 449.219 309.829C449.066 310.02 448.956 310.241 448.893 310.477C448.804 311 448.831 311.535 448.973 312.046C449.114 312.557 449.367 313.03 449.713 313.431C450.589 314.299 451.59 315.03 452.683 315.601Z" fill="#F3D147"/>
<path d="M252.973 297.973C251.21 298.599 247.121 298.246 247.121 298.246C247.121 298.246 248.178 295.601 248.266 295.442C249.297 293.608 252.356 290.662 254.665 291.13C255.046 291.218 255.404 291.386 255.716 291.622C256.028 291.858 256.287 292.157 256.475 292.5C256.664 292.842 256.779 293.221 256.811 293.611C256.844 294.001 256.794 294.393 256.665 294.763C256.145 296.35 254.444 297.435 252.973 297.973Z" fill="#F3D147"/>
<path d="M250.778 309.825C249.016 309.966 245.411 308.661 245.12 308.564C244.374 310.631 243.491 312.646 242.476 314.596C241.894 315.733 241.269 316.862 240.634 317.982L241.383 317.047C242.864 315.548 246.592 313.52 248.689 314.578C249.034 314.763 249.335 315.019 249.574 315.328C249.813 315.638 249.985 315.995 250.077 316.375C250.169 316.755 250.181 317.15 250.11 317.535C250.04 317.92 249.889 318.285 249.668 318.608C248.786 320.01 246.821 320.601 245.261 320.724C243.701 320.848 240.581 319.843 239.762 319.516L239.021 320.804C237.814 322.858 236.606 324.904 235.496 326.977C235.099 327.7 234.738 328.423 234.368 329.146C234.694 328.723 234.976 328.379 235.02 328.326C236.492 326.827 240.22 324.798 242.326 325.857C242.671 326.042 242.972 326.298 243.211 326.607C243.45 326.917 243.621 327.273 243.714 327.653C243.806 328.033 243.817 328.429 243.747 328.814C243.676 329.198 243.526 329.564 243.305 329.887C242.423 331.289 240.449 331.888 238.898 332.012C237.347 332.135 234.491 331.192 233.539 330.848C233.187 331.606 232.834 332.356 232.526 333.097C232.323 333.608 232.094 334.084 231.926 334.613L231.389 336.148C231.08 337.135 230.763 338.158 230.508 339.128C230.314 339.799 230.137 340.451 229.961 341.095C230.349 340.381 231.133 338.978 231.213 338.873C232.438 337.171 235.822 334.605 238.061 335.345C238.429 335.476 238.766 335.683 239.049 335.953C239.332 336.223 239.555 336.55 239.703 336.912C239.852 337.274 239.922 337.663 239.909 338.054C239.896 338.446 239.801 338.83 239.629 339.181C238.96 340.698 237.118 341.589 235.593 341.95C233.91 342.347 230.305 341.65 229.838 341.562C229.547 342.638 229.282 343.687 229.036 344.684C228.789 345.68 228.63 346.448 228.445 347.232L226.973 347.135C227.194 346.254 227.423 345.319 227.687 344.34C227.952 343.361 228.304 342.083 228.657 340.883C227.587 340.374 226.549 339.803 225.546 339.172C224.259 340.398 221.086 341.721 220.672 341.889C221.024 342.947 221.377 343.97 221.729 344.931C221.967 345.601 222.197 346.236 222.426 346.844L220.875 346.739C220.716 346.307 220.566 345.857 220.407 345.389C220.046 344.322 219.676 343.167 219.315 341.977C218.865 342.038 215.208 342.541 213.551 342.056C212.044 341.615 210.246 340.627 209.664 339.075C209.513 338.715 209.439 338.328 209.447 337.937C209.455 337.547 209.545 337.162 209.711 336.809C209.878 336.455 210.116 336.141 210.412 335.886C210.707 335.631 211.053 335.44 211.427 335.328C213.701 334.728 216.935 337.471 218.072 339.243C218.134 339.34 218.733 340.557 219.103 341.333L218.662 339.869C218.372 338.881 218.107 337.876 217.825 336.809L217.455 335.222C217.323 334.693 217.252 334.12 217.147 333.564C216.917 332.276 216.759 330.918 216.627 329.622C215.745 329.878 212.661 330.742 211.101 330.504C209.541 330.266 207.619 329.622 206.809 328.141C206.604 327.807 206.472 327.434 206.422 327.047C206.372 326.659 206.404 326.265 206.516 325.89C206.628 325.516 206.818 325.169 207.074 324.873C207.329 324.577 207.644 324.338 207.998 324.172C210.158 323.229 213.771 325.46 215.164 327.03C215.252 327.127 216.115 328.37 216.582 329.067C216.512 328.264 216.433 327.462 216.389 326.65C216.248 324.305 216.177 321.924 216.098 319.543C216.098 318.82 216.045 318.097 216.018 317.365C215.71 317.462 212.052 318.564 210.299 318.326C208.747 318.114 206.773 317.444 206.006 315.971C205.802 315.637 205.67 315.264 205.62 314.875C205.569 314.487 205.601 314.092 205.713 313.717C205.826 313.342 206.016 312.994 206.271 312.697C206.527 312.4 206.842 312.161 207.196 311.994C209.356 311.051 212.969 313.282 214.362 314.86C214.467 314.975 215.71 316.765 216.01 317.232C215.948 315.636 215.869 314.049 215.719 312.479C215.537 310.365 215.219 308.265 214.767 306.192C214.626 306.192 210.81 307.4 209.021 307.153C207.461 306.95 205.539 306.271 204.729 304.798C204.524 304.465 204.392 304.092 204.342 303.704C204.292 303.317 204.324 302.922 204.436 302.548C204.548 302.173 204.738 301.827 204.994 301.531C205.249 301.235 205.564 300.996 205.918 300.83C208.078 299.887 211.691 302.109 213.075 303.687C213.189 303.811 214.529 305.733 214.749 306.104C214.749 305.98 214.749 305.857 214.679 305.733C214.167 303.667 213.471 301.651 212.599 299.71C212.132 298.626 211.629 297.62 211.118 296.65C210.422 296.941 207.267 298.238 205.628 298.193C203.988 298.149 202.102 297.673 201.106 296.324C200.867 296.014 200.695 295.657 200.602 295.277C200.51 294.896 200.499 294.5 200.569 294.115C200.64 293.73 200.791 293.364 201.013 293.041C201.234 292.718 201.521 292.445 201.855 292.241C203.891 291.068 207.734 292.885 209.285 294.296C209.373 294.375 210.166 295.257 210.695 295.901C210.457 295.469 210.219 295.019 209.981 294.604C209.1 293.061 208.219 291.703 207.337 290.504C206.87 289.834 206.456 289.225 206.024 288.67C205.196 288.599 201.882 288.282 200.472 287.506C199.062 286.73 197.555 285.407 197.317 283.758C197.249 283.373 197.263 282.978 197.357 282.599C197.451 282.22 197.624 281.864 197.864 281.556C198.104 281.248 198.406 280.993 198.751 280.809C199.095 280.625 199.474 280.515 199.864 280.486C202.217 280.389 204.781 283.767 205.513 285.733C205.575 285.909 206.253 288.687 206.209 288.678H206.165C206.571 289.208 207.002 289.781 207.461 290.442C208.342 291.624 209.223 292.964 210.166 294.499C211.182 296.136 212.1 297.832 212.916 299.578C213.839 301.527 214.588 303.555 215.155 305.636C215.15 305.659 215.15 305.683 215.155 305.707C215.155 305.019 215.34 303.061 215.366 302.955C215.772 300.892 217.763 297.144 220.099 296.862C220.488 296.826 220.881 296.872 221.251 296.998C221.621 297.125 221.96 297.328 222.246 297.594C222.532 297.86 222.759 298.184 222.911 298.544C223.064 298.904 223.139 299.293 223.131 299.684C223.131 301.342 221.862 302.92 220.619 303.89C219.226 304.984 215.498 305.883 215.208 305.962C215.728 308.092 216.105 310.255 216.336 312.435C216.486 313.714 216.582 314.992 216.671 316.289C216.724 315.689 216.768 315.16 216.785 315.089C217.191 313.026 219.174 309.269 221.518 308.996C221.907 308.96 222.3 309.006 222.67 309.133C223.04 309.259 223.379 309.462 223.665 309.728C223.951 309.994 224.178 310.318 224.33 310.678C224.483 311.039 224.558 311.427 224.55 311.818C224.55 313.476 223.272 315.054 222.038 316.024C220.804 316.994 217.631 317.841 216.75 318.052C216.75 318.546 216.812 319.04 216.838 319.534C216.97 321.915 217.085 324.287 217.279 326.589C217.34 327.409 217.437 328.211 217.526 329.014C217.57 328.485 217.614 328.044 217.622 327.973C218.028 325.91 220.02 322.162 222.355 321.88C222.744 321.845 223.136 321.892 223.505 322.019C223.875 322.146 224.213 322.349 224.499 322.615C224.785 322.881 225.012 323.204 225.165 323.564C225.318 323.923 225.394 324.311 225.387 324.701C225.387 326.368 224.118 327.947 222.884 328.908C221.65 329.869 218.768 330.672 217.772 330.901C217.896 331.721 218.01 332.541 218.16 333.335C218.283 333.873 218.354 334.393 218.504 334.931L218.9 336.509C219.191 337.497 219.482 338.529 219.782 339.49C219.993 340.16 220.205 340.795 220.416 341.43C220.337 340.619 220.222 339.023 220.231 338.89C220.366 337.048 220.973 335.271 221.994 333.732C222.002 333.524 222.029 333.317 222.073 333.114C222.148 332.733 222.301 332.372 222.524 332.054C222.746 331.736 223.032 331.468 223.364 331.267C223.696 331.066 224.066 330.937 224.451 330.888C224.836 330.838 225.227 330.87 225.599 330.98C227.828 331.73 229.009 335.804 228.983 337.903C228.983 338.035 228.815 339.375 228.692 340.222C228.842 339.737 228.974 339.261 229.133 338.758C229.432 337.77 229.767 336.791 230.12 335.742C230.305 335.239 230.499 334.728 230.693 334.217C230.887 333.705 231.124 333.185 231.336 332.664C231.865 331.465 232.464 330.275 233.099 329.093C232.217 328.828 229.177 327.832 227.996 326.791C226.815 325.751 225.599 324.146 225.713 322.453C225.727 322.062 225.824 321.68 225.996 321.329C226.169 320.978 226.413 320.668 226.713 320.419C227.013 320.169 227.363 319.986 227.739 319.88C228.115 319.775 228.509 319.75 228.895 319.807C231.213 320.204 233.002 324.058 233.301 326.139C233.301 326.271 233.363 327.788 233.372 328.626C233.751 327.911 234.13 327.206 234.535 326.5C235.716 324.463 236.968 322.435 238.21 320.416C238.598 319.798 238.968 319.172 239.339 318.555C239.03 318.458 235.373 317.356 234.051 316.192C232.87 315.16 231.653 313.546 231.777 311.862C231.792 311.472 231.89 311.09 232.063 310.74C232.235 310.39 232.479 310.08 232.779 309.831C233.079 309.582 233.428 309.398 233.804 309.292C234.179 309.186 234.572 309.161 234.958 309.216C237.276 309.622 239.065 313.467 239.365 315.548C239.365 315.707 239.444 317.894 239.427 318.449C240.255 317.082 241.066 315.707 241.806 314.322C242.813 312.457 243.696 310.527 244.45 308.546C244.3 308.502 240.475 307.373 239.118 306.183C237.937 305.151 236.721 303.537 236.836 301.844C236.852 301.454 236.951 301.072 237.125 300.722C237.298 300.372 237.543 300.062 237.844 299.813C238.145 299.564 238.494 299.38 238.87 299.275C239.246 299.169 239.64 299.143 240.026 299.199C242.344 299.604 244.124 303.458 244.433 305.539C244.433 305.698 244.521 308.052 244.494 308.476C244.538 308.361 244.6 308.246 244.644 308.132C245.353 306.125 245.883 304.059 246.231 301.959C246.442 300.795 246.574 299.684 246.671 298.59C245.94 298.449 242.591 297.779 241.251 296.827C239.911 295.874 238.607 294.428 238.51 292.77C238.481 292.38 238.535 291.988 238.668 291.62C238.8 291.252 239.009 290.916 239.28 290.634C239.551 290.352 239.879 290.13 240.241 289.983C240.603 289.836 240.992 289.767 241.383 289.781C243.728 289.931 245.931 293.564 246.451 295.601C246.451 295.707 246.636 296.862 246.742 297.708C246.786 297.215 246.83 296.712 246.865 296.236C246.971 294.472 246.962 292.823 246.944 291.377C246.944 290.557 246.9 289.816 246.856 289.119C246.213 288.608 243.622 286.474 242.873 285.089C242.124 283.705 241.604 281.721 242.309 280.222C242.462 279.862 242.69 279.539 242.977 279.274C243.264 279.009 243.604 278.807 243.974 278.683C244.344 278.558 244.736 278.513 245.125 278.55C245.514 278.587 245.891 278.706 246.231 278.899C248.249 280.107 248.531 284.349 248.046 286.394C248.046 286.571 247.041 289.26 247.006 289.234C247.059 289.895 247.103 290.618 247.129 291.403C247.182 292.849 247.226 294.49 247.129 296.271C247.071 298.199 246.9 300.122 246.618 302.029C246.318 304.165 245.825 306.27 245.146 308.317C245.141 308.34 245.141 308.364 245.146 308.387C245.552 307.832 246.742 306.306 246.847 306.201C248.319 304.701 252.047 302.673 254.145 303.731C254.489 303.917 254.791 304.172 255.03 304.482C255.269 304.791 255.44 305.148 255.532 305.528C255.625 305.908 255.636 306.304 255.565 306.688C255.495 307.073 255.344 307.439 255.123 307.761C254.304 309.102 252.347 309.701 250.778 309.825Z" fill="#F3D147"/>
<path d="M211.197 296.192C211.153 296.192 210.616 293.405 210.607 293.229C210.448 291.13 211.383 286.985 213.559 286.103C213.925 285.965 214.316 285.905 214.707 285.928C215.097 285.951 215.478 286.056 215.825 286.237C216.172 286.417 216.477 286.669 216.72 286.976C216.963 287.283 217.138 287.638 217.235 288.017C217.702 289.613 216.864 291.483 215.921 292.744C214.864 294.225 211.197 296.192 211.197 296.192Z" fill="#F3D147"/>
<path d="M151.769 182.585L165.147 140.098C165.147 140.098 164.187 137.832 156.422 135.892C148.658 133.952 145.256 139.128 140.893 140.583C136.531 142.038 131.04 133.528 125.364 133.308C114.788 132.92 112.268 137.188 105.472 140.098C98.6773 143.008 98.6773 137.188 91.3711 134.763C84.0648 132.338 77.2698 140.583 77.2698 140.583L96.0598 180.469C63.9352 191.641 40.7473 223.679 40.7473 261.413C40.7473 308.467 76.7586 346.607 121.178 346.607C165.597 346.607 201.608 308.467 201.608 261.413C201.67 225.813 181.047 195.319 151.769 182.585Z" fill="white" stroke="#263238" stroke-linejoin="round"/>
<path d="M104.142 175.274L98.1838 166.209" stroke="#263238" stroke-miterlimit="10"/>
<path d="M142.753 162.646L139.183 175.759" stroke="#263238" stroke-miterlimit="10"/>
<path d="M105.799 162.946L105.349 159.075" stroke="#263238" stroke-miterlimit="10"/>
<path d="M107.279 175.759L106.169 166.156" stroke="#263238" stroke-miterlimit="10"/>
<path d="M149.16 159.851L150.544 156.896" stroke="#263238" stroke-miterlimit="10"/>
<path d="M141.836 175.521L147.838 162.682" stroke="#263238" stroke-miterlimit="10"/>
<path d="M157.013 230.671C156.195 230.671 155.408 230.358 154.812 229.798C154.217 229.238 153.856 228.472 153.805 227.655C152.148 200.645 134.715 182.928 134.521 182.761C133.917 182.158 133.577 181.339 133.576 180.485C133.575 179.63 133.914 178.811 134.517 178.206C135.12 177.602 135.938 177.262 136.792 177.261C137.646 177.26 138.465 177.598 139.069 178.202C139.853 178.995 158.37 197.84 160.221 227.25C160.248 227.671 160.192 228.094 160.056 228.494C159.92 228.894 159.706 229.263 159.427 229.581C159.147 229.898 158.808 230.156 158.429 230.342C158.049 230.528 157.637 230.637 157.215 230.662L157.013 230.671Z" fill="white" stroke="#263238" stroke-linejoin="round"/>
<path d="M173.582 224.305C172.792 224.515 171.952 224.416 171.233 224.027C170.514 223.639 169.971 222.991 169.713 222.215C161.138 196.545 139.748 183.908 139.554 183.784C139.171 183.582 138.834 183.304 138.561 182.967C138.288 182.631 138.087 182.243 137.967 181.827C137.848 181.41 137.814 180.974 137.867 180.544C137.921 180.115 138.06 179.7 138.277 179.325C138.494 178.951 138.785 178.624 139.131 178.364C139.478 178.105 139.873 177.918 140.293 177.814C140.714 177.711 141.15 177.694 141.578 177.764C142.005 177.833 142.414 177.989 142.779 178.22C143.74 178.776 166.478 192.224 175.812 220.178C175.946 220.578 176 221.001 175.97 221.422C175.941 221.843 175.829 222.254 175.641 222.631C175.452 223.009 175.192 223.345 174.873 223.622C174.555 223.899 174.185 224.11 173.785 224.243L173.582 224.305Z" fill="white" stroke="#263238" stroke-linejoin="round"/>
<path d="M150.482 184.048H94.6233C94.0748 184.049 93.5315 183.942 93.0246 183.732C92.5177 183.523 92.0573 183.215 91.6699 182.826C91.2824 182.438 90.9756 181.976 90.767 181.469C90.5585 180.961 90.4523 180.417 90.4546 179.868C90.4546 178.764 90.8929 177.706 91.673 176.925C92.4532 176.145 93.5112 175.706 94.6145 175.706H150.473C151.577 175.706 152.635 176.145 153.415 176.925C154.195 177.706 154.633 178.764 154.633 179.868C154.636 180.416 154.53 180.958 154.323 181.465C154.115 181.971 153.81 182.432 153.424 182.82C153.039 183.208 152.58 183.516 152.076 183.727C151.571 183.938 151.029 184.047 150.482 184.048Z" fill="white" stroke="#263238" stroke-linejoin="round"/>
<path d="M120.905 290.981V283.132C115.111 282.915 110.784 281.06 107.923 277.568C105.061 274.076 103.516 268.876 103.287 261.968L115.176 259.94C115.227 262.316 115.522 264.68 116.057 266.995C116.373 268.571 117.117 270.029 118.208 271.21C118.702 271.678 119.285 272.042 119.923 272.281C120.56 272.52 121.238 272.63 121.918 272.603C123.681 272.603 124.853 272.039 125.496 270.919C126.16 269.736 126.495 268.396 126.466 267.039C126.555 264.49 125.867 261.974 124.492 259.825C122.944 257.64 121.116 255.669 119.054 253.961L111.889 247.788C110.317 246.343 108.845 244.793 107.482 243.15C106.167 241.532 105.128 239.709 104.406 237.753C103.603 235.45 103.218 233.022 103.269 230.584C103.269 225.293 104.773 221.177 107.782 218.238C110.79 215.299 114.821 213.626 119.873 213.22V205.707H123.945V213.22C126.567 213.269 129.135 213.978 131.41 215.284C133.246 216.396 134.764 217.963 135.817 219.834C136.846 221.708 137.585 223.727 138.011 225.822C138.445 227.894 138.725 229.996 138.849 232.109L126.801 233.873C126.762 232.02 126.591 230.172 126.29 228.344C126.109 226.986 125.587 225.697 124.774 224.596C124.355 224.128 123.829 223.769 123.241 223.548C122.654 223.327 122.021 223.251 121.398 223.326C120.695 223.319 120.001 223.484 119.377 223.809C118.752 224.133 118.218 224.607 117.82 225.187C117.008 226.346 116.58 227.731 116.595 229.146C116.483 231.379 117.139 233.583 118.455 235.39C119.733 237.018 121.142 238.54 122.667 239.94L129.674 246.007C131.529 247.696 133.247 249.53 134.812 251.492C136.394 253.471 137.674 255.673 138.611 258.027C139.605 260.653 140.089 263.446 140.038 266.254C140.09 269.067 139.486 271.854 138.276 274.393C137.092 276.804 135.288 278.855 133.049 280.337C130.634 281.9 127.863 282.828 124.994 283.035V290.972L120.905 290.981Z" fill="#263238"/>
<path d="M164.663 322.859H76.3884V346.951H164.663V322.859Z" fill="#F3D147" stroke="#263238" stroke-miterlimit="10"/>
<path d="M206.852 322.859H164.539V346.951H206.852V322.859Z" fill="#A3A3A3" stroke="#263238" stroke-linejoin="round"/>
<path d="M77.0317 327.453H98.7743" stroke="#263238" stroke-linejoin="round"/>
<path d="M89.5027 333.186H107.729" stroke="#263238" stroke-linejoin="round"/>
<path d="M155.382 330.126H164.98H171.114" stroke="#263238" stroke-linejoin="round"/>
<path d="M77.0317 340.072H84.7082" stroke="#263238" stroke-linejoin="round"/>
<path d="M87.8987 340.072H94.2972" stroke="#263238" stroke-linejoin="round"/>
<path d="M164.98 338.159H131.075" stroke="#263238" stroke-linejoin="round"/>
<path d="M131.084 322.859H111.377V346.951H131.084V322.859Z" fill="white" stroke="#263238" stroke-linejoin="round"/>
<path d="M206.623 335.275H193.5" stroke="#263238" stroke-linejoin="round"/>
<path d="M164.548 342.621H174.278" stroke="#263238" stroke-linejoin="round"/>
<path d="M164.777 334.641H183.321" stroke="#263238" stroke-linejoin="round"/>
<path d="M206.623 330.487H188.979" stroke="#263238" stroke-linejoin="round"/>
<path d="M178.121 342.621H182.871" stroke="#263238" stroke-linejoin="round"/>
<path d="M158.026 299.199H69.752V323.291H158.026V299.199Z" fill="#F3D147" stroke="#263238" stroke-miterlimit="10"/>
<path d="M200.216 299.199H157.903V323.291H200.216V299.199Z" fill="#A3A3A3" stroke="#263238" stroke-linejoin="round"/>
<path d="M70.3953 303.785H92.1378" stroke="#263238" stroke-linejoin="round"/>
<path d="M82.8662 309.517H101.092" stroke="#263238" stroke-linejoin="round"/>
<path d="M148.746 306.466H158.344H164.478" stroke="#263238" stroke-linejoin="round"/>
<path d="M70.3953 316.404H78.0717" stroke="#263238" stroke-linejoin="round"/>
<path d="M81.271 316.404H87.6607" stroke="#263238" stroke-linejoin="round"/>
<path d="M158.344 314.49H124.439" stroke="#263238" stroke-linejoin="round"/>
<path d="M124.448 299.19H104.741V323.282H124.448V299.19Z" fill="white" stroke="#263238" stroke-linejoin="round"/>
<path d="M199.987 311.615H186.864" stroke="#263238" stroke-linejoin="round"/>
<path d="M157.921 318.952H167.642" stroke="#263238" stroke-linejoin="round"/>
<path d="M158.141 310.972H176.693" stroke="#263238" stroke-linejoin="round"/>
<path d="M199.987 306.827H182.342" stroke="#263238" stroke-linejoin="round"/>
<path d="M171.484 318.952H176.235" stroke="#263238" stroke-linejoin="round"/>
<path d="M165.103 275.531H76.8291V299.623H165.103V275.531Z" fill="#F3D147" stroke="#263238" stroke-miterlimit="10"/>
<path d="M207.293 275.531H164.98V299.623H207.293V275.531Z" fill="#A3A3A3" stroke="#263238" stroke-linejoin="round"/>
<path d="M77.4724 280.116H99.2149" stroke="#263238" stroke-linejoin="round"/>
<path d="M89.9434 285.857H108.169" stroke="#263238" stroke-linejoin="round"/>
<path d="M155.823 282.797H165.421H171.555" stroke="#263238" stroke-linejoin="round"/>
<path d="M77.4724 292.735H85.1488" stroke="#263238" stroke-linejoin="round"/>
<path d="M88.3394 292.735H94.7378" stroke="#263238" stroke-linejoin="round"/>
<path d="M165.421 290.821H131.516" stroke="#263238" stroke-linejoin="round"/>
<path d="M131.525 275.531H111.818V299.623H131.525V275.531Z" fill="white" stroke="#263238" stroke-linejoin="round"/>
<path d="M207.064 287.947H193.941" stroke="#263238" stroke-linejoin="round"/>
<path d="M164.989 295.293H174.719" stroke="#263238" stroke-linejoin="round"/>
<path d="M165.218 287.312H183.761" stroke="#263238" stroke-linejoin="round"/>
<path d="M207.064 283.158H189.419" stroke="#263238" stroke-linejoin="round"/>
<path d="M178.562 295.293H183.312" stroke="#263238" stroke-linejoin="round"/>
<path d="M201.309 296.21H91.6707V346.96H201.309V296.21Z" fill="#CCCCCC" stroke="#263238" stroke-linejoin="round"/>
<path d="M191.032 296.475V317.639" stroke="#263238" stroke-linejoin="round"/>
<path d="M193.976 296.625V303.062" stroke="#263238" stroke-linejoin="round"/>
<path d="M193.095 346.819V327.647" stroke="#263238" stroke-linejoin="round"/>
<path d="M196.162 347.11V343.741" stroke="#263238" stroke-linejoin="round"/>
<path d="M199.088 346.959V337.453" stroke="#263238" stroke-linejoin="round"/>
<path d="M192.945 325.743V321.792" stroke="#263238" stroke-linejoin="round"/>
<path d="M193.826 304.676V307.013" stroke="#263238" stroke-linejoin="round"/>
<path d="M188.6 296.21H91.6707V346.96H188.6V296.21Z" fill="#F3D147" stroke="#263238" stroke-linejoin="round"/>
<path d="M182.245 338.873V304.305C181.331 304.305 180.455 303.942 179.809 303.296C179.162 302.649 178.799 301.772 178.799 300.857H101.965C101.965 301.772 101.602 302.649 100.955 303.296C100.309 303.942 99.4326 304.305 98.5187 304.305C98.3564 304.3 98.1946 304.285 98.0339 304.261V338.926C98.1938 338.895 98.3559 338.878 98.5187 338.873C98.9719 338.873 99.4208 338.963 99.8394 339.137C100.258 339.311 100.638 339.565 100.958 339.886C101.279 340.208 101.532 340.589 101.705 341.008C101.878 341.427 101.966 341.877 101.965 342.33H178.799C178.798 341.877 178.886 341.427 179.059 341.008C179.232 340.589 179.485 340.208 179.806 339.886C180.126 339.565 180.506 339.311 180.925 339.137C181.343 338.963 181.792 338.873 182.245 338.873ZM140.135 335.902C137.306 335.902 134.541 335.062 132.188 333.49C129.836 331.917 128.003 329.682 126.92 327.066C125.837 324.451 125.554 321.574 126.106 318.797C126.658 316.021 128.02 313.471 130.021 311.469C132.021 309.468 134.57 308.104 137.345 307.552C140.119 307 142.995 307.283 145.609 308.367C148.223 309.45 150.457 311.284 152.029 313.638C153.6 315.992 154.439 318.759 154.439 321.589C154.439 325.385 152.932 329.026 150.25 331.71C147.567 334.394 143.929 335.902 140.135 335.902Z" fill="white" stroke="#263238" stroke-linejoin="round"/>
<path d="M144.577 296.068H135.808V346.889H144.577V296.068Z" fill="white" stroke="#263238" stroke-linejoin="round"/>
<path d="M84.5583 334.076H47.2427V346.951H84.5583V334.076Z" fill="white" stroke="#263238" stroke-linejoin="round"/>
<path d="M56.7435 334.076H51.9932V346.951H56.7435V334.076Z" fill="#263238" stroke="#263238" stroke-linejoin="round"/>
<path d="M61.3352 334.076H58.9556V346.951H61.3352V334.076Z" fill="#263238" stroke="#263238" stroke-linejoin="round"/>
<path d="M87.6694 321.166H50.3538V334.041H87.6694V321.166Z" fill="white" stroke="#263238" stroke-linejoin="round"/>
<path d="M59.8546 321.166H55.1042V334.041H59.8546V321.166Z" fill="#263238" stroke="#263238" stroke-linejoin="round"/>
<path d="M64.4465 321.166H62.0669V334.041H64.4465V321.166Z" fill="#263238" stroke="#263238" stroke-linejoin="round"/>
<path d="M84.5583 308.247H47.2427V321.122H84.5583V308.247Z" fill="white" stroke="#263238" stroke-linejoin="round"/>
<path d="M56.7435 308.247H51.9932V321.122H56.7435V308.247Z" fill="#263238" stroke="#263238" stroke-linejoin="round"/>
<path d="M61.3352 308.247H58.9556V321.122H61.3352V308.247Z" fill="#263238" stroke="#263238" stroke-linejoin="round"/>
<path d="M82.7075 295.337H45.3918V308.212H82.7075V295.337Z" fill="white" stroke="#263238" stroke-linejoin="round"/>
<path d="M54.9015 295.337H50.1511V308.212H54.9015V295.337Z" fill="#263238" stroke="#263238" stroke-linejoin="round"/>
<path d="M59.4934 295.337H57.1138V308.212H59.4934V295.337Z" fill="#263238" stroke="#263238" stroke-linejoin="round"/>
<path d="M84.5583 282.427H47.2427V295.302H84.5583V282.427Z" fill="white" stroke="#263238" stroke-linejoin="round"/>
<path d="M56.7435 282.427H51.9932V295.302H56.7435V282.427Z" fill="#263238" stroke="#263238" stroke-linejoin="round"/>
<path d="M61.3352 282.427H58.9556V295.302H61.3352V282.427Z" fill="#263238" stroke="#263238" stroke-linejoin="round"/>
<path d="M52.1518 334.076H14.8362V346.951H52.1518V334.076Z" fill="white" stroke="#263238" stroke-linejoin="round"/>
<path d="M24.3456 334.076H19.5952V346.951H24.3456V334.076Z" fill="#263238" stroke="#263238" stroke-linejoin="round"/>
<path d="M28.9375 334.076H26.5579V346.951H28.9375V334.076Z" fill="#263238" stroke="#263238" stroke-linejoin="round"/>
<path d="M55.2629 321.166H17.9473V334.041H55.2629V321.166Z" fill="white" stroke="#263238" stroke-linejoin="round"/>
<path d="M27.4569 321.166H22.7065V334.041H27.4569V321.166Z" fill="#263238" stroke="#263238" stroke-linejoin="round"/>
<path d="M32.0486 321.166H29.6689V334.041H32.0486V321.166Z" fill="#263238" stroke="#263238" stroke-linejoin="round"/>
<path d="M52.1518 308.247H14.8362V321.122H52.1518V308.247Z" fill="white" stroke="#263238" stroke-linejoin="round"/>
<path d="M24.3456 308.247H19.5952V321.122H24.3456V308.247Z" fill="#263238" stroke="#263238" stroke-linejoin="round"/>
<path d="M28.9375 308.247H26.5579V321.122H28.9375V308.247Z" fill="#263238" stroke="#263238" stroke-linejoin="round"/>
<path d="M50.3098 295.337H12.9941V308.212H50.3098V295.337Z" fill="white" stroke="#263238" stroke-linejoin="round"/>
<path d="M22.495 295.337H17.7446V308.212H22.495V295.337Z" fill="#263238" stroke="#263238" stroke-linejoin="round"/>
<path d="M27.0866 295.337H24.707V308.212H27.0866V295.337Z" fill="#263238" stroke="#263238" stroke-linejoin="round"/>
<path d="M52.1518 282.427H14.8362V295.302H52.1518V282.427Z" fill="white" stroke="#263238" stroke-linejoin="round"/>
<path d="M24.3456 282.427H19.5952V295.302H24.3456V282.427Z" fill="#263238" stroke="#263238" stroke-linejoin="round"/>
<path d="M28.9375 282.427H26.5579V295.302H28.9375V282.427Z" fill="#263238" stroke="#263238" stroke-linejoin="round"/>
<path d="M52.1518 269.72H14.8362V282.595H52.1518V269.72Z" fill="white" stroke="#263238" stroke-linejoin="round"/>
<path d="M24.3456 269.72H19.5952V282.595H24.3456V269.72Z" fill="#263238" stroke="#263238" stroke-linejoin="round"/>
<path d="M28.9375 269.72H26.5579V282.595H28.9375V269.72Z" fill="#263238" stroke="#263238" stroke-linejoin="round"/>
<path d="M52.1518 257.021H14.8362V269.895H52.1518V257.021Z" fill="white" stroke="#263238" stroke-linejoin="round"/>
<path d="M24.3456 257.021H19.5952V269.895H24.3456V257.021Z" fill="#263238" stroke="#263238" stroke-linejoin="round"/>
<path d="M28.9375 257.021H26.5579V269.895H28.9375V257.021Z" fill="#263238" stroke="#263238" stroke-linejoin="round"/>
<path d="M63.2036 346.766C73.2452 346.766 81.3855 338.621 81.3855 328.573C81.3855 318.526 73.2452 310.381 63.2036 310.381C53.162 310.381 45.0217 318.526 45.0217 328.573C45.0217 338.621 53.162 346.766 63.2036 346.766Z" fill="white" stroke="#263238" stroke-linejoin="round"/>
<path d="M61.3706 346.766C71.4122 346.766 79.5525 338.621 79.5525 328.573C79.5525 318.526 71.4122 310.381 61.3706 310.381C51.329 310.381 43.1887 318.526 43.1887 328.573C43.1887 338.621 51.329 346.766 61.3706 346.766Z" fill="white" stroke="#263238" stroke-linejoin="round"/>
<path d="M61.3705 344.155C69.9713 344.155 76.9437 337.179 76.9437 328.573C76.9437 319.968 69.9713 312.991 61.3705 312.991C52.7697 312.991 45.7974 319.968 45.7974 328.573C45.7974 337.179 52.7697 344.155 61.3705 344.155Z" fill="white" stroke="#263238" stroke-linejoin="round"/>
<path d="M61.2207 341.898V339.412C60.4489 339.435 59.6813 339.29 58.9718 338.985C58.2622 338.68 57.628 338.224 57.1136 337.648C56.0962 336.207 55.5791 334.472 55.6418 332.71L59.4051 332.066C59.4232 332.817 59.5177 333.565 59.6871 334.297C59.7881 334.797 60.0226 335.26 60.3658 335.637C60.6855 335.935 61.1102 336.094 61.5467 336.078C61.766 336.101 61.9874 336.063 62.1864 335.968C62.3854 335.873 62.5545 335.725 62.6749 335.54C62.8878 335.168 62.9945 334.744 62.9833 334.315C63.0114 333.507 62.7931 332.711 62.3576 332.031C61.8549 331.335 61.2622 330.709 60.5949 330.17L58.3211 328.221C57.8371 327.763 57.3837 327.274 56.9638 326.757C56.5464 326.244 56.216 325.666 55.9855 325.046C55.7324 324.318 55.6101 323.551 55.6242 322.78C55.5817 322.064 55.6865 321.348 55.9321 320.674C56.1777 320.001 56.5588 319.385 57.0519 318.865C58.0968 317.89 59.4583 317.327 60.8857 317.277V314.896H62.1637V317.277C62.9938 317.289 63.807 317.514 64.5257 317.93C65.1102 318.278 65.5933 318.774 65.927 319.367C66.255 319.96 66.4898 320.599 66.6232 321.263C66.7604 321.92 66.8487 322.586 66.8876 323.256L63.0715 323.821C63.0608 323.23 63.0078 322.64 62.9128 322.057C62.8563 321.629 62.6926 321.223 62.4369 320.875C62.3054 320.726 62.1396 320.611 61.9538 320.541C61.768 320.47 61.5678 320.446 61.3705 320.47C61.1467 320.465 60.9255 320.517 60.7269 320.62C60.5283 320.724 60.3587 320.875 60.2336 321.061C59.9783 321.428 59.8429 321.865 59.8458 322.313C59.809 323.02 60.0177 323.717 60.4363 324.288C60.8393 324.806 61.2844 325.29 61.7671 325.734L64.0145 327.665C64.6058 328.207 65.1511 328.797 65.6449 329.429C66.1484 330.051 66.5528 330.747 66.8436 331.493C67.1681 332.336 67.3238 333.235 67.3019 334.138C67.312 335.029 67.1159 335.911 66.729 336.713C66.3552 337.477 65.7829 338.126 65.0721 338.591C64.3124 339.098 63.4354 339.402 62.525 339.473V341.987L61.2207 341.898Z" fill="#263238"/>
<path d="M359.358 175.46C359.358 175.46 336.303 178.881 334.17 178.74C332.037 178.599 323.497 177.312 323.497 177.312L316.376 178.308L318.94 188.987C318.94 188.987 324.061 189.869 326.484 188.846C328.162 188.119 329.78 187.261 331.323 186.28C331.323 186.28 361.35 190.689 364.056 188.282C366.761 185.874 359.358 175.46 359.358 175.46Z" fill="white" stroke="#263238" stroke-miterlimit="10"/>
<path d="M260.781 333.097C260.781 333.097 265.655 335.689 269.771 337.823C273.887 339.957 279.21 341.174 280.126 341.933C281.043 342.691 279.668 346.659 279.668 346.659H241.286C240.809 344.811 240.809 342.872 241.286 341.024C241.744 338.997 242.353 337.007 243.11 335.072L260.781 333.097Z" fill="white" stroke="#263238" stroke-miterlimit="10"/>
<path d="M237.752 215.777L240.59 231.897C240.59 231.897 244.635 265.319 244.177 269.437C243.719 273.555 239.303 282.999 239.453 291.386C239.603 299.772 242.652 322.321 242.652 322.77C242.652 323.22 240.37 325.821 240.37 325.821C240.37 325.821 242.652 335.883 242.811 336.492C242.969 337.1 252.25 337.374 255.449 336.642C257.621 336.071 259.718 335.249 261.698 334.19C261.698 334.19 262.579 328.396 262.306 325.372C261.911 322.87 261.246 320.419 260.323 318.061C260.323 318.061 273.27 268.378 273.728 260.742C274.186 253.105 276.011 220.177 276.011 220.177L253.625 207.99L237.752 215.777Z" fill="#263238" stroke="#263238" stroke-miterlimit="10"/>
<path d="M284.392 158.59C284.392 158.59 287.283 175.345 287.133 189.833C286.983 204.322 287.133 217.417 286.675 219.251C286.216 221.086 278.143 219.86 278.143 219.86L283.467 164.877L284.392 158.59Z" fill="white" stroke="#263238" stroke-miterlimit="10"/>
<path d="M251.492 111.491C251.492 111.491 233.663 129.604 232.905 133.44C232.147 137.276 232.755 146.394 232.905 147.461C233.054 148.528 237.311 189.375 237.311 189.375C237.311 189.375 232.596 199.587 232.746 200.045C232.896 200.504 233.046 218.943 233.046 218.943C233.046 218.943 235.637 221.386 240.978 222.294C246.318 223.202 247.068 223.176 247.068 223.176L250.725 215.707L251.95 223.943C256.286 225.951 261.098 226.703 265.84 226.113C273.464 225.046 279.703 223.211 280.311 222.753C280.92 222.294 284.577 182.673 284.886 179.014C285.194 175.354 284.736 163.467 284.427 158.59C284.119 153.714 279.095 133.59 278.487 131.156C277.879 128.722 265.69 118.352 261.742 116.826C258.207 115.285 254.783 113.502 251.492 111.491Z" fill="white" stroke="#263238" stroke-linejoin="round"/>
<path d="M284.815 168.114C284.701 164.445 284.533 160.795 284.392 158.59C284.084 153.713 279.06 133.59 278.452 131.156C277.844 128.722 265.655 118.352 261.707 116.826C258.188 115.297 254.778 113.529 251.501 111.535C251.501 111.535 250.285 112.77 248.478 114.666L261.248 131.5L268.863 131.2L265.514 136.685L284.815 168.114Z" fill="white" stroke="#263238" stroke-linejoin="round"/>
<path d="M251.492 111.491L274.653 132.832L281.96 156.306C281.96 156.306 279.827 134.816 278.434 131.156C277.042 127.497 271.727 122.77 271.727 122.77L251.492 111.491Z" fill="#263238" stroke="#263238" stroke-linejoin="round"/>
<path d="M284.392 75.5207C284.392 75.5207 286.833 83.907 286.675 86.041C286.516 88.1751 285 91.0675 285.15 91.5261C285.3 91.9846 289.724 98.0781 289.266 98.8453C288.808 99.6125 285.458 101.429 285.458 101.429C285.458 101.429 284.701 110.248 284.084 112.408C283.467 114.569 281.193 115.3 277.077 114.692L272.97 114.083L271.295 125.054L253.625 111.491L254.083 103.872C254.083 103.872 247.834 94.7271 246.918 91.9846C246.001 89.2421 249.659 71.7023 250.884 70.0357C252.109 68.369 261.997 65.7676 269.771 65.7676C277.544 65.7676 285.15 69.8858 285.917 72.1697C286.684 74.4537 284.392 75.5207 284.392 75.5207Z" fill="white" stroke="#263238" stroke-linejoin="round"/>
<path d="M284.084 112.408C284.595 110.644 285.203 104.242 285.397 102.126C284.911 102.066 284.423 102.036 283.934 102.038C280.839 102.007 277.847 103.151 275.561 105.239C273.27 107.373 273.27 107.831 271.745 106.923C270.209 105.871 268.956 104.456 268.096 102.805C267.638 101.738 267.788 88.325 267.788 88.325C267.788 88.325 270.679 85.7324 271.745 84.6654C272.811 83.5983 270.379 77.6548 270.229 76.5877C270.079 75.5207 284.392 75.5207 284.392 75.5207C284.392 75.5207 286.675 74.4537 285.917 72.1697C285.159 69.8858 277.535 65.7676 269.771 65.7676C262.006 65.7676 252.144 68.3602 250.884 70.0357C249.623 71.7112 246.001 89.2421 246.918 91.9846C247.834 94.7271 254.083 103.872 254.083 103.872L260.323 100.821C258.814 99.4739 257.484 97.9386 256.366 96.2527C254.991 93.9599 256.515 90.1504 258.957 88.3162C261.398 86.482 263.064 88.9247 263.672 89.6919C264.28 90.4591 264.553 93.6513 264.553 95.9353C264.553 98.2192 263.672 105.389 264.254 107.523C264.835 109.657 272.935 114.075 272.935 114.075L277.042 114.683C281.193 115.3 283.467 114.542 284.084 112.408Z" fill="#263238" stroke="#263238" stroke-linejoin="round"/>
<path d="M281.193 93.8095C281.699 93.8095 282.109 93.0239 282.109 92.0547C282.109 91.0855 281.699 90.2998 281.193 90.2998C280.687 90.2998 280.276 91.0855 280.276 92.0547C280.276 93.0239 280.687 93.8095 281.193 93.8095Z" fill="#263238"/>
<path d="M279.06 88.4744C279.06 88.4744 281.043 86.3404 283.467 87.716" stroke="#263238" stroke-linejoin="round"/>
<path d="M284.242 106.764C284.242 106.764 280.435 106.464 279.21 104.63" stroke="white" stroke-linejoin="round"/>
<path d="M253.316 108.898L273.878 123.378L273.27 131.764L251.492 111.491L253.316 108.898Z" fill="white" stroke="#263238" stroke-linejoin="round"/>
<path d="M305.72 177.638C305.72 177.638 311.96 175.204 312.577 174.895C313.194 174.587 316.834 175.663 316.834 175.663C316.834 175.663 324.457 187.127 324.607 188.008C324.757 188.89 324.757 189.834 322.933 190.292C321.108 190.751 320.888 190.601 320.888 190.601C320.888 190.601 317.01 191.959 314.877 190.742C312.745 189.525 306.179 188.767 306.179 188.767L305.72 177.638Z" fill="white" stroke="#263238" stroke-miterlimit="10"/>
<path d="M300.388 177.029L305.72 177.638L306.179 188.767L300.688 187.55L300.388 177.029Z" fill="white" stroke="#263238" stroke-miterlimit="10"/>
<path d="M237.479 145.786C237.479 145.786 251.034 174.004 254.224 179.772C257.415 185.539 260.623 185.874 261.381 186.174C262.138 186.474 300.988 189.983 300.988 189.983L301.446 177.179L271.296 171.05L260.023 136.182C260.023 136.182 253.924 126.579 250.426 125.512C246.927 124.445 242.811 125.821 242.811 125.821" fill="white"/>
<path d="M237.479 145.786C237.479 145.786 251.034 174.004 254.224 179.772C257.415 185.539 260.623 185.874 261.381 186.174C262.138 186.474 300.988 189.983 300.988 189.983L301.446 177.179L271.296 171.05L260.023 136.182C260.023 136.182 253.924 126.579 250.426 125.512C246.927 124.445 242.811 125.821 242.811 125.821" stroke="#263238" stroke-linejoin="round"/>
<path d="M251.792 175.504C251.792 175.504 243.86 180.539 241.586 181.606" stroke="#263238" stroke-miterlimit="10"/>
<path d="M251.642 180.38C251.642 180.38 243.11 187.091 240.37 188.916" stroke="#263238" stroke-miterlimit="10"/>
<path d="M364.056 188.282C366.761 185.857 359.358 175.46 359.358 175.46L356.362 175.901C357.173 178.396 359.579 185.672 361.024 188.952C362.549 188.864 363.668 188.688 364.056 188.282Z" fill="#F3D147" stroke="#263238" stroke-miterlimit="10"/>
<path d="M368.321 168.625C368.321 168.625 359.217 173.916 359.358 175.459C359.499 177.002 362.346 187.567 364.056 188.281C365.766 188.995 373.019 184.577 373.019 184.577L368.321 168.625Z" fill="#F3D147" stroke="#263238" stroke-miterlimit="10"/>
<path d="M392.796 78.396C392.796 78.396 395.625 73.6165 398.313 71.9762C401.001 70.336 407.417 73.3166 410.255 76.456C413.093 79.5953 417.72 90.6448 419.069 98.8635C420.417 107.082 416.83 114.393 415.482 115.618C414.133 116.844 410.105 118.264 411.454 122.188C412.802 126.112 414.583 123.952 414.583 123.952C414.583 123.952 414.442 128.132 412.194 130.081C410.629 131.442 408.66 132.251 406.59 132.385C404.521 132.519 402.464 131.97 400.737 130.821C395.81 127.841 391.042 122.003 390.734 117.982C390.465 115.322 390.668 112.635 391.333 110.045C391.633 109.296 398.199 103.176 398.648 97.1968C399.098 91.218 395.361 83.7576 393.272 82.2673C391.183 80.777 392.796 78.396 392.796 78.396Z" fill="#263238" stroke="#263238" stroke-miterlimit="10"/>
<path d="M408.466 204.763C405.329 193.854 404.438 191.764 404.438 191.764L371.291 191.015C371.291 191.015 370.41 203.863 371.291 212.523C372.173 221.182 372.79 227.911 372.79 227.911C372.79 227.911 372.041 246.879 374.429 261.967C376.817 277.056 379.206 287.056 379.506 288.855C379.673 289.878 380.59 302.77 381.33 313.546L379.03 313.476L380.916 328.546L377.267 336.932C375.028 338.872 366.074 343.652 365.325 344.992C364.576 346.333 367.563 346.941 369.053 346.941H395.625C396.189 346.77 396.696 346.448 397.091 346.01C397.485 345.572 397.752 345.034 397.864 344.454C398.066 342.576 396.815 332.312 396.815 332.312L399.952 314.102L397.758 314.04C399.053 304.772 400.402 293.273 399.811 289.428C398.763 282.708 396.974 275.089 396.974 273.299C396.974 271.509 399.811 243.722 401.301 237.752C402.79 231.782 407.867 222.814 407.867 222.814C407.867 222.814 411.604 215.662 408.466 204.763Z" fill="#263238" stroke="#263238" stroke-miterlimit="10"/>
<path d="M366.418 90.0354C366.418 90.0354 362.311 86.6315 362.311 83.8008C362.311 80.9701 373.768 75.4321 375.196 74.4445C376.624 73.4568 386.389 74.0212 390.179 76.0053C393.968 77.9895 400.517 83.6509 401.636 87.1959C402.755 90.7409 402.764 97.9719 402.059 102.505C401.354 107.037 393.413 112.99 393.413 112.99L396.11 123.051C399.743 125.577 402.668 128.993 404.606 132.972C408.008 139.78 407.012 173.219 407.012 173.219C407.012 173.219 406.871 184.136 407.012 185.838C407.273 187.604 407.079 189.407 406.448 191.076C405.567 193.775 405.029 193.775 403.187 193.634C401.345 193.493 374.579 194.198 374.579 194.198C372.994 194.098 371.468 193.557 370.172 192.637C368.471 191.217 369.035 176.2 368.894 175.776C368.753 175.353 365.492 164.313 364.928 160.891C364.491 157.518 365.136 154.094 366.77 151.111C368.189 148.563 381.136 125.018 381.136 125.018L377.567 117.258C377.567 117.258 371.195 119.242 369.917 119.242C368.639 119.242 365.704 107.919 365.704 107.919C365.704 107.919 362.311 104.938 362.029 104.233C361.747 103.528 366.277 99.4093 366.277 99.4093C366.277 99.4093 365.995 95.2999 366.418 93.7479C366.789 92.8742 367.26 92.0457 367.819 91.2788L366.418 90.0354Z" fill="white" stroke="#263238" stroke-miterlimit="10"/>
<path d="M366.418 90.0353L367.819 91.2523L372.226 86.7725C372.226 86.7725 371.803 91.7373 374.209 95.2734C376.615 98.8096 381.709 100.803 382.282 101.226C382.855 101.649 383.41 102.646 382.987 105.476C382.634 107.84 380.907 108.827 380.096 108.836C380.977 109.242 383.251 110.221 384.406 109.162C385.966 107.751 385.825 104.912 385.675 103.351C385.525 101.79 385.825 100.706 387.949 99.6738C390.073 98.6421 393.757 98.3951 393.757 101.367C393.757 104.339 392.338 107.319 391.06 107.893C390.108 108.267 389.108 108.504 388.09 108.598C388.09 108.598 389.791 112.566 393.466 113.007C393.466 113.007 401.398 107.055 402.112 102.522C402.826 97.9895 402.817 90.7584 401.689 87.2134C400.561 83.6684 394.039 78.0071 390.231 76.0229C386.424 74.0388 376.632 73.4656 375.249 74.4621C373.865 75.4585 362.364 80.9789 362.364 83.8184C362.364 86.6579 366.418 90.0353 366.418 90.0353Z" fill="#263238" stroke="#263238" stroke-miterlimit="10"/>
<path d="M379.726 108.74C379.832 108.82 379.965 108.855 380.096 108.837C379.779 108.704 379.62 108.634 379.726 108.74Z" stroke="#263238" stroke-miterlimit="10"/>
<path d="M370.516 100.662C370.516 101.605 370.102 102.364 369.635 102.364C369.168 102.364 368.753 101.605 368.753 100.662C368.753 99.7183 369.159 98.96 369.635 98.96C370.111 98.96 370.516 99.7272 370.516 100.662Z" fill="#263238"/>
<path d="M367.546 97.117C367.546 97.117 369.82 94.7096 371.803 97.3992" stroke="#263238" stroke-miterlimit="10"/>
<path d="M367.837 110.864C368.902 110.93 369.968 110.747 370.95 110.329C371.932 109.911 372.803 109.27 373.495 108.457" stroke="#263238" stroke-miterlimit="10"/>
<path d="M404.659 132.972C402.721 128.993 399.796 125.577 396.163 123.052C394.774 123.048 393.402 123.355 392.147 123.95C390.892 124.545 389.786 125.413 388.909 126.491C385.772 130.23 376.668 144.269 376.668 144.269L371.08 143.087C369.079 146.914 367.352 150.204 366.841 151.112C365.207 154.094 364.562 157.519 364.999 160.891C365.563 164.295 368.824 175.345 368.965 175.777C369.106 176.209 368.542 191.218 370.243 192.638C371.538 193.557 373.064 194.098 374.649 194.198C374.649 194.198 401.416 193.493 403.258 193.634C405.099 193.775 405.664 193.775 406.518 191.077C407.149 189.407 407.343 187.604 407.082 185.839C406.941 184.137 407.082 173.22 407.082 173.22C407.082 173.22 408.061 139.78 404.659 132.972Z" fill="#F3D147" stroke="#263238" stroke-miterlimit="10"/>
<path d="M388.01 189.675L381.145 224.948C381.145 224.948 376.668 229.878 375.927 231.121C375.187 232.365 375.478 237.841 375.478 239.331C375.478 240.821 376.218 243.52 376.818 244.111C377.417 244.702 378.316 245.874 379.655 245.76C380.995 245.645 381.894 245.31 381.594 244.111C381.41 242.272 381.46 240.417 381.744 238.59C381.894 237.991 384.582 236.201 385.772 233.061C386.962 229.922 387.27 224.402 387.27 224.402L401.565 191.615L388.01 189.675Z" fill="white" stroke="#263238" stroke-miterlimit="10"/>
<path d="M401.565 191.615L387.975 189.675L387.015 194.622C390.269 197.178 394.206 198.712 398.331 199.031L401.565 191.615Z" fill="#F3D147" stroke="#263238" stroke-miterlimit="10"/>
<path d="M380.995 245.689C380.193 244.953 379.587 244.029 379.232 242.999C379.077 241.21 379.077 239.41 379.232 237.62" fill="white"/>
<path d="M380.995 245.689C380.193 244.953 379.587 244.029 379.232 242.999C379.077 241.21 379.077 239.41 379.232 237.62" stroke="#263238" stroke-miterlimit="10"/>
<path d="M378.166 245.239C377.756 244.074 377.461 242.872 377.285 241.65C377.135 240.16 377.285 235.83 377.285 235.83" fill="white"/>
<path d="M378.166 245.239C377.756 244.074 377.461 242.872 377.285 241.65C377.135 240.16 377.285 235.83 377.285 235.83" stroke="#263238" stroke-miterlimit="10"/>
<path d="M388.345 139.64C387.013 143.599 386.21 147.718 385.957 151.888C385.807 157.708 385.366 185.495 385.366 187.735C385.366 189.975 388.345 192.215 391.871 193.255C395.396 194.296 399.635 194.305 401.275 193.105C402.914 191.906 402.614 192.224 403.037 186.835C403.46 181.447 403.487 175.636 403.487 175.636C403.487 175.636 407.444 148.088 406.025 140.53C404.606 132.973 400.948 126.941 395.722 126.791C390.496 126.641 389.306 128.431 389.306 128.431" fill="#F3D147"/>
<path d="M388.345 139.64C387.013 143.599 386.21 147.718 385.957 151.888C385.807 157.708 385.366 185.495 385.366 187.735C385.366 189.975 388.345 192.215 391.871 193.255C395.396 194.296 399.635 194.305 401.275 193.105C402.914 191.906 402.614 192.224 403.037 186.835C403.46 181.447 403.487 175.636 403.487 175.636C403.487 175.636 407.444 148.088 406.025 140.53C404.606 132.973 400.948 126.941 395.722 126.791C390.496 126.641 389.306 128.431 389.306 128.431" stroke="#263238" stroke-miterlimit="10"/>
<path d="M311.088 187.664C311.088 187.664 309.757 190.089 309.995 190.557C310.233 191.024 311.008 191.571 311.555 191.104C312.358 190.318 312.831 189.255 312.877 188.132C312.797 187.038 312.18 186.412 311.088 187.664Z" fill="white" stroke="#263238" stroke-miterlimit="10"/>
<path d="M313.661 188.29C313.661 188.29 312.33 190.715 312.568 191.183C312.806 191.65 313.582 192.197 314.128 191.73C314.935 190.945 315.411 189.882 315.459 188.758C315.38 187.664 314.754 187.038 313.661 188.29Z" fill="white" stroke="#263238" stroke-miterlimit="10"/>
<path d="M315.609 188.916C315.609 188.916 314.287 191.333 314.516 191.809C314.745 192.285 315.538 192.823 316.085 192.356C316.888 191.57 317.361 190.507 317.407 189.384C317.328 188.29 316.702 187.664 315.609 188.916Z" fill="white" stroke="#263238" stroke-miterlimit="10"/>
<path d="M317.936 189.419C317.936 189.419 316.904 191.297 317.054 191.659C317.204 192.02 317.839 192.443 318.262 192.082C318.887 191.475 319.256 190.651 319.293 189.78C319.266 188.934 318.782 188.449 317.936 189.419Z" fill="white" stroke="#263238" stroke-miterlimit="10"/>
<path d="M329.446 178.758C329.446 178.758 318.782 173.423 317.988 174.49C316.591 176.461 315.368 178.55 314.331 180.733C313.873 182.109 314.022 182.567 315.547 181.959C316.975 181.209 318.307 180.288 319.513 179.216C319.513 179.216 323.162 184.093 325.753 183.326" fill="white"/>
<path d="M329.446 178.758C329.446 178.758 318.782 173.423 317.988 174.49C316.591 176.461 315.368 178.55 314.331 180.733C313.873 182.109 314.022 182.567 315.547 181.959C316.975 181.209 318.307 180.288 319.513 179.216C319.513 179.216 323.162 184.093 325.753 183.326" stroke="#263238" stroke-miterlimit="10"/>
<path d="M4.17212 346.959H605.709" stroke="#263238" stroke-miterlimit="10"/>
</svg>
