<svg width="30" height="26" viewBox="0 0 30 26" fill="none" xmlns="http://www.w3.org/2000/svg">
<g clip-path="url(#clip0_599_2464)">
<path d="M1.61648 14.3855C1.44502 14.4422 1.29817 14.4751 1.21484 14.4823L1.61648 14.3855C2.10923 14.2225 2.80523 13.8633 2.78078 13.3555C2.73957 12.5 3.85221 7.78408 4.22309 7.55455C4.51979 7.37092 3.82473 6.87986 3.44012 6.65728L3.3577 5.53047L3.91402 4.92533L4.7588 4.67493L5.29451 4.5706L5.58298 4.84187H5.76842L7.62281 3.04732L7.31375 1.79532L7.99369 0.981514L8.69424 0.772847L9.4566 0.856314L9.95111 1.25278L10.1159 1.37798L12.2176 0.647646L15.3495 0.125977L18.9346 0.647646L20.789 1.25278L22.8083 2.40045L25.0541 4.42453L26.8673 6.92854L27.5267 7.47108L28.1448 7.78408L28.5363 8.26402L28.3714 9.20302L28.8453 9.43256L29.5253 9.91249L29.8962 10.5802V11.4358L28.6805 12.9173L28.5363 14.3571L26.7849 19.3651L24.6833 22.0361L22.4786 23.8932L20.2121 25.02L16.5445 25.8338L12.7121 25.5417L10.219 24.6027L7.5816 22.8916L5.58298 20.8467L5.04726 20.0955L2.55413 20.5128L3.76979 19.9077L2.78078 17.3202C2.66701 16.4067 2.76468 15.9779 2.87574 15.6509C3.01934 15.228 3.18532 14.9753 2.94561 14.065L1.61648 14.3855Z" fill="#F7F3D0"/>
<path d="M2.4694 15.9088C2.75736 15.7005 3.01173 15.4121 3.13223 15.0245C3.41245 14.123 3.24899 15.6644 3.13223 16.5478C2.88498 16.4226 2.20916 16.2097 1.48388 16.36L1.56415 16.3232L2.4694 15.9088Z" fill="#F7F3D0"/>
<path d="M15.0197 0.0292887C13.5527 0.0960624 11.9043 0.480011 10.598 1.05593L10.1735 1.24373L9.97986 1.04759C9.61722 0.680332 9.05678 0.492531 8.57876 0.584345C7.87409 0.713719 7.25184 1.3439 7.18591 1.99494C7.15706 2.27038 7.21475 2.60007 7.34662 2.85882L7.42904 3.02158L7.22711 3.20521C7.11585 3.3012 6.91805 3.45979 6.78618 3.5516C6.58426 3.69349 6.22574 4.08162 6.22162 4.16508C6.2175 4.18178 6.12272 4.3028 6.00321 4.43635L5.78481 4.68258L5.54167 4.5699C5.40569 4.51147 5.17492 4.44052 5.02244 4.41548C4.49909 4.32367 3.95101 4.5532 3.57601 5.02479C3.22574 5.47134 3.11448 5.8845 3.22986 6.34357C3.34525 6.79847 3.5142 7.04887 3.92217 7.37022L4.03755 7.46203L3.89744 7.77086C3.4359 8.79333 3.06915 10.1288 2.90431 11.3725C2.82189 12.0152 2.76832 13.5635 2.83426 13.5635C2.85898 13.5635 2.92904 13.5426 2.98673 13.5134C3.08563 13.4675 3.08975 13.455 3.08975 13.0627C3.08975 11.6396 3.39057 9.92849 3.86448 8.63892C4.04579 8.15064 4.35486 7.43282 4.41255 7.3577C4.4414 7.32431 4.38783 7.26589 4.22299 7.15738C3.45239 6.63988 3.3164 5.82608 3.89744 5.17921C4.33014 4.69093 4.87409 4.61581 5.53755 4.95385L5.82601 5.09991L5.92492 4.98306C6.54717 4.2402 7.03755 3.74357 7.7175 3.16348L7.83288 3.06749L7.72986 2.87969C7.56091 2.57086 7.48673 2.20778 7.5403 1.95321C7.59387 1.68611 7.69689 1.51918 7.93591 1.29382C8.33563 0.922387 8.80541 0.822226 9.29992 1.00585C9.48536 1.07263 9.59662 1.15609 9.79442 1.36476L10.0458 1.63186L10.5609 1.40232C12.2175 0.659465 13.767 0.333944 15.6378 0.333944C16.6268 0.333944 17.2985 0.396544 18.131 0.567651C21.6584 1.28547 24.7779 3.57247 26.5417 6.7317C26.69 7.00296 26.7354 7.05304 26.8054 7.03635C26.8507 7.02383 26.9208 7.01131 26.9579 7.01131C27.0115 7.01131 26.9909 6.94871 26.8507 6.68579C26.2409 5.57568 25.3425 4.41548 24.3947 3.52239C21.8398 1.11019 18.4895 -0.137645 15.0197 0.0292887Z" fill="#272833"/>
<path d="M15.016 1.18524C14.5668 1.29375 14.1588 1.65683 14.027 2.05747C13.9363 2.33709 13.9363 2.84206 14.027 3.06325C14.2042 3.48893 14.4432 3.64752 15.222 3.84367C15.972 4.03147 16.174 4.23596 15.8237 4.44046C15.6218 4.56148 15.1479 4.54896 14.6286 4.41124C14.4143 4.35282 14.2042 4.29439 14.1671 4.2777C13.994 4.20675 13.8869 4.91622 14.0352 5.17079C14.2124 5.47545 14.6863 5.609 15.5146 5.58395C15.9844 5.57143 16.0792 5.55474 16.277 5.46293C16.7056 5.25843 16.9322 4.99134 17.0435 4.54062C17.1671 4.06068 17.0229 3.51397 16.6973 3.20514C16.5201 3.03404 16.4583 3.009 15.9267 2.8671C15.2797 2.68765 15.119 2.61253 15.0654 2.44977C14.9789 2.20354 15.2838 2.1159 15.869 2.22858C16.3882 2.32874 16.4954 2.32039 16.619 2.17432C16.7179 2.0533 16.8333 1.62762 16.8086 1.48155C16.788 1.38973 16.5902 1.31461 16.0915 1.20611C15.6712 1.11847 15.3209 1.11012 15.016 1.18524Z" fill="#640E27"/>
<path d="M8.46313 1.50311C8.07576 1.72847 7.90269 2.04564 7.99335 2.38369C8.01807 2.4755 8.26945 2.993 8.54967 3.5397C8.82989 4.08224 9.05653 4.53296 9.04829 4.53714C9.04005 4.54548 8.80516 4.46619 8.52494 4.35768C7.87384 4.11145 7.56478 4.07807 7.2928 4.22414C7.18978 4.28256 7.05379 4.40776 6.98373 4.50375C6.87247 4.66234 6.86011 4.71242 6.86423 4.95865C6.86835 5.18401 6.90543 5.33425 7.06203 5.73489C7.16917 6.00616 7.24335 6.23987 7.23511 6.25239C7.22274 6.26073 6.75296 6.03955 6.19252 5.75993C5.29417 5.30921 5.1417 5.24243 4.91505 5.22574C4.61423 5.20487 4.40406 5.30086 4.20214 5.55544C4.04554 5.75158 3.99609 5.88513 3.99609 6.09797C3.99609 6.54452 4.20626 6.74067 5.23236 7.24982C5.67329 7.46683 6.73648 7.99268 7.59362 8.41836L9.15544 9.19043L9.4439 8.90664C9.94252 8.41001 9.95901 8.26394 9.60049 7.29573C9.4645 6.92847 9.35324 6.6113 9.35324 6.5946C9.35324 6.57374 9.61697 6.64886 9.94252 6.76571C10.264 6.88256 10.676 7.0328 10.8615 7.0954L11.1953 7.21226L11.4302 7.00359C11.7227 6.74067 11.8258 6.54452 11.8258 6.24821C11.8258 5.96443 11.7887 5.86426 11.5002 5.30921C11.3683 5.06298 10.9109 4.18658 10.4824 3.36025C9.6417 1.73681 9.48923 1.51145 9.1678 1.42381C8.88758 1.34452 8.68978 1.36956 8.46313 1.50311Z" fill="#640E27"/>
<path d="M18.0083 2.82555C17.7734 3.46408 17.4396 4.36969 17.2665 4.84128L16.9492 5.69682L17.2418 5.81368C17.691 5.99313 17.8599 6.02234 18.0248 5.9514C18.2102 5.8721 18.2555 5.79698 18.4822 5.17515C18.5893 4.88719 18.6882 4.64096 18.7047 4.6201C18.7294 4.59506 19.4259 4.84128 19.4794 4.89554C19.4877 4.90388 19.4011 5.16681 19.2858 5.47146C19.1745 5.78029 19.0797 6.09746 19.0797 6.18093C19.0797 6.3729 19.1827 6.50645 19.4259 6.63165C19.7555 6.79859 20.1099 6.74433 20.2336 6.51063C20.283 6.41464 21.5935 2.87981 21.5935 2.84225C21.5935 2.82555 21.4204 2.75461 21.2143 2.67949C20.4932 2.42491 20.3778 2.48751 20.0893 3.2888C19.9863 3.58093 19.8874 3.84385 19.8709 3.86889C19.8503 3.90645 19.7391 3.88141 19.4794 3.78125C19.2816 3.70613 19.1086 3.63101 19.0962 3.61849C19.0797 3.6018 19.158 3.3514 19.2693 3.05926C19.4877 2.46665 19.5124 2.27467 19.3847 2.09939C19.2981 1.98254 18.8077 1.73631 18.5564 1.68623L18.4327 1.66119L18.0083 2.82555Z" fill="#640E27"/>
<path d="M11.8483 1.86144C11.3662 2.04089 11.189 2.21618 11.2178 2.4791C11.2426 2.65855 12.5283 6.10991 12.6025 6.18503C12.6354 6.21425 13.2494 5.97637 13.4143 5.86786C13.5544 5.77605 13.6492 5.54651 13.6162 5.3921C13.5832 5.2669 12.3058 1.86979 12.2522 1.77797C12.2233 1.72789 12.1533 1.74459 11.8483 1.86144Z" fill="#640E27"/>
<path d="M14.958 6.38938C14.0556 6.48954 13.0418 6.84845 12.2877 7.33256C11.6449 7.74572 10.9072 8.44267 10.5075 9.0186L10.3262 9.27734L10.5322 9.2523C10.6517 9.23561 10.7547 9.19388 10.7877 9.14797C10.9567 8.91009 11.3852 8.43433 11.5995 8.24653C12.7657 7.20736 14.1339 6.67734 15.6421 6.67734C16.6229 6.67734 17.5295 6.89018 18.3743 7.32004C18.5927 7.43272 18.7575 7.48697 18.9718 7.50784C19.1325 7.52871 19.2726 7.53705 19.2808 7.52871C19.3097 7.50367 18.7575 7.16563 18.399 6.99035C17.3234 6.46868 16.1119 6.26001 14.958 6.38938Z" fill="#272833"/>
<path d="M23.2014 7.05715C23.0778 7.18652 22.9129 7.4411 22.7811 7.69567L22.5668 8.11718L22.5214 7.85426C22.4431 7.42858 22.2371 7.24912 21.9404 7.34928C21.6148 7.45362 21.1368 8.09631 20.9514 8.67641L20.8813 8.8976L20.5887 8.8809C20.1313 8.85169 19.8882 8.68476 19.7275 8.29663C19.6286 8.05875 19.4885 7.9878 18.9363 7.91268C17.8937 7.76662 16.3319 7.64559 16.1382 7.69567C15.9651 7.7374 15.9363 7.88347 16.0104 8.30081C16.0475 8.49695 16.1176 8.78074 16.1629 8.93098C16.2742 9.28572 16.2742 9.2732 16.1547 9.30659C15.9651 9.35667 15.8415 9.27737 15.7014 9.01028C15.4871 8.60129 15.1615 8.41766 14.6588 8.42183C14.3662 8.42183 13.95 8.60964 13.7852 8.8183C13.4514 9.23564 13.3401 9.28989 12.7261 9.34832C11.7536 9.43596 10.3978 9.60707 10.1588 9.66549C9.85386 9.74061 9.44589 9.92842 9.19452 10.112C9.0338 10.2331 8.9349 10.2665 8.55166 10.3291C7.09699 10.5711 5.9349 11.001 5.09836 11.6061C4.57089 11.9859 4.21649 12.4241 3.74259 13.2921C3.36347 13.9807 2.80303 15.8254 2.67941 16.7852C2.53105 17.9579 2.78243 18.9011 3.47886 19.7358C3.56127 19.836 3.62309 19.9403 3.61484 19.9653C3.59836 20.0154 3.54891 20.0321 2.79067 20.2783C2.2838 20.4453 1.9088 20.6039 1.94589 20.6372C1.97061 20.6623 5.75358 19.6398 5.9349 19.5605C6.0132 19.5271 6.4871 19.3894 6.98572 19.26C7.48435 19.1265 8.3827 18.8928 8.98435 18.7342C9.586 18.5756 10.2824 18.3962 10.5297 18.3377C10.7811 18.2751 11.0489 18.1917 11.1313 18.1499C11.3497 18.0372 11.4486 18.0498 11.7907 18.2417C12.8951 18.851 13.6286 19.1557 14.4363 19.331C15.042 19.4604 16.233 19.4604 16.8552 19.3268C17.9802 19.0848 18.8703 18.6507 19.7481 17.9079C20.3044 17.4363 20.9514 16.6225 21.5201 15.671C21.6684 15.4289 21.7879 15.2745 21.8662 15.2369C22.2 15.07 23.7 14.6193 26.086 13.964C27.5613 13.5634 28.4514 13.2629 28.7893 13.0584C29.3209 12.7329 29.8072 12.0193 29.9431 11.3515C30.1533 10.3458 29.7206 9.61124 28.7728 9.35667C28.6039 9.31076 28.4473 9.25233 28.4225 9.22729C28.3896 9.1939 28.4019 9.09374 28.472 8.85586C28.6121 8.38427 28.6409 8.20482 28.5997 8.05041C28.4802 7.63724 27.9157 7.40354 27.0956 7.43692L26.6506 7.45362L26.5228 7.61638C26.2838 7.92521 26.1808 8.00033 25.8305 8.10883C24.9528 8.38845 24.5283 8.51365 24.4418 8.51365C24.3923 8.51365 24.2975 8.46357 24.2357 8.39679C24.1368 8.30081 24.1162 8.22569 24.075 7.90434C23.9802 7.16983 23.8154 6.84431 23.5311 6.84431C23.4322 6.84431 23.358 6.89021 23.2014 7.05715ZM23.6547 7.15731C23.7659 7.29503 23.8566 7.97529 23.7948 8.21317C23.7701 8.30498 23.7536 8.30915 23.3951 8.30081C23.0901 8.29663 23.0159 8.30498 22.9747 8.36341C22.9459 8.40097 22.8841 8.43018 22.8305 8.43018C22.7481 8.43018 22.7398 8.41349 22.7604 8.29246C22.7728 8.22151 22.8676 7.97946 22.9706 7.7541C23.2261 7.21156 23.5022 6.96951 23.6547 7.15731ZM22.2536 7.77079C22.2783 7.84591 22.3113 8.05875 22.3236 8.24238C22.3401 8.50948 22.3278 8.62633 22.2618 8.8183C22.1712 9.08957 22.2083 9.15217 22.3978 9.06453C22.4926 9.01862 22.4926 9.0228 22.4514 9.14382C22.4267 9.21477 22.3854 9.28154 22.3607 9.28989C22.2495 9.33163 21.0833 9.59455 21.0668 9.58203C21.0338 9.54864 21.314 8.48444 21.4129 8.26325C21.5201 8.02119 21.7385 7.76244 21.9404 7.63307C22.0887 7.54126 22.1835 7.58299 22.2536 7.77079ZM27.9115 7.72071C28.1547 7.81253 28.3525 8.00032 28.3525 8.14222C28.3525 8.22151 28.3319 8.22569 27.858 8.19647C27.417 8.17143 27.3552 8.17561 27.2811 8.24238C27.1739 8.34254 27.0874 8.63468 27.0585 9.01028C27.042 9.18139 27.0214 9.33163 27.0132 9.33997C27.005 9.35249 26.8854 9.32745 26.7536 9.28989C26.6217 9.25233 26.461 9.22312 26.4033 9.22312C26.3374 9.22312 26.2797 9.19391 26.2632 9.15634C26.2385 9.0854 26.3415 8.53034 26.4404 8.21734C26.5187 7.97529 26.7536 7.6915 26.9225 7.63724C27.1203 7.57882 27.6478 7.62055 27.9115 7.72071ZM18.2934 8.13387L19.2206 8.20899L19.3484 8.35506C19.5008 8.52199 19.6492 8.91429 19.5833 8.98106C19.5626 9.00193 19.2412 9.01862 18.8085 9.01862C18.1451 9.01445 17.7989 9.03532 17.2838 9.12296L17.1148 9.148L16.9459 8.80161C16.8181 8.54286 16.7893 8.4427 16.8264 8.41766C16.88 8.3801 18.8291 8.41349 19.0393 8.45939C19.1382 8.47609 19.1959 8.53452 19.2907 8.69728C19.4102 8.8976 19.4184 8.82248 19.3072 8.59712C19.1753 8.33837 19.1506 8.33002 18.1822 8.29246C17.6876 8.27577 17.1272 8.26742 16.9294 8.27159L16.5709 8.28411L16.7769 8.74318C16.8882 8.99358 17.0407 9.3358 17.1148 9.50273C17.292 9.90755 17.3868 9.9159 17.2467 9.51525C17.2137 9.41509 17.1931 9.32745 17.2014 9.31911C17.2096 9.30659 17.3168 9.2732 17.4404 9.24399C17.8113 9.14383 18.5324 9.09792 19.1753 9.12713L19.7893 9.15217L19.5173 9.22312C19.2124 9.29824 19.0599 9.3984 18.9363 9.59037C18.8621 9.7114 18.8333 9.71975 18.6066 9.72809C18.4706 9.73227 18.1368 9.74896 17.8648 9.76565C17.4115 9.7907 17.4363 9.79487 18.1657 9.79069C18.5984 9.78652 18.9569 9.79904 18.9569 9.81156C18.9569 9.82408 18.9033 9.93676 18.8333 10.0661C18.5407 10.6128 18.4706 11.0135 18.4335 12.3823C18.4088 13.3714 18.4047 13.4382 18.3305 13.4382C18.2646 13.4382 18.2563 13.3923 18.2481 12.904C18.2275 11.773 18.2852 11.1929 18.4871 10.4793C18.5242 10.3541 18.5365 10.2414 18.5159 10.2206C18.4953 10.1997 18.2852 10.1997 18.0256 10.2247C17.0365 10.3249 16.3319 10.3958 16.1794 10.4209L16.0187 10.4459L16.0434 10.2331C16.0764 9.93259 16.167 9.78235 16.3401 9.72392C16.4596 9.68636 16.5091 9.68636 16.6162 9.74061C16.6863 9.77817 16.7481 9.80321 16.7522 9.79904C16.7563 9.79069 16.6533 9.40257 16.5214 8.93098C16.3854 8.45939 16.2783 8.05875 16.2783 8.03789C16.2783 7.99615 16.9871 8.02954 18.2934 8.13387ZM28.2989 8.4427C28.3278 8.45939 28.3072 8.59294 28.2453 8.83082C28.1918 9.02697 28.1135 9.41509 28.0681 9.69053C28.0228 9.97015 27.9775 10.1997 27.9692 10.208C27.961 10.2164 27.8868 10.1246 27.8044 10.0035C27.7179 9.87834 27.5489 9.70723 27.4253 9.61541C27.3017 9.52777 27.1904 9.42761 27.178 9.3984C27.1574 9.33997 27.2852 8.6931 27.3593 8.49695L27.4047 8.37593L27.8291 8.39679C28.064 8.40514 28.2742 8.42601 28.2989 8.4427ZM25.6739 8.49278C25.6739 8.5846 25.5214 8.7098 25.3731 8.73484C25.1547 8.77657 23.7989 9.09374 23.7206 9.12296C23.6588 9.148 23.6506 9.13131 23.6629 9.03532C23.6794 8.8976 23.7206 8.87256 24.0256 8.80996C24.1492 8.78492 24.5572 8.6931 24.9322 8.60129C25.7398 8.40514 25.6739 8.41766 25.6739 8.49278ZM15.0709 8.85169C15.244 8.90594 15.5036 9.19808 15.4871 9.31911C15.4747 9.40257 15.4376 9.41509 15.0956 9.45683C14.7742 9.49856 14.6959 9.5236 14.5599 9.63628C14.3621 9.79487 14.0242 9.93259 13.8264 9.93259C13.7028 9.93259 13.6822 9.92007 13.6822 9.8366C13.6822 9.64045 13.8099 9.31911 13.9541 9.148C14.2426 8.80161 14.6011 8.7098 15.0709 8.85169ZM25.0475 9.2106C25.0352 9.36084 25.0311 9.36501 24.7467 9.45683C24.5901 9.50691 24.3264 9.59037 24.1657 9.63628C23.8937 9.71557 23.8731 9.73227 23.8896 9.82408C23.9184 9.97015 23.8154 10.1329 23.5187 10.4209C23.3703 10.5586 23.1725 10.7923 23.0778 10.9342C22.8593 11.2597 22.6327 11.4934 22.4308 11.5936C22.2824 11.6729 20.8731 12.1069 20.3209 12.2488C19.8882 12.3615 19.7604 12.2321 19.8552 11.7772C19.9789 11.1762 20.3291 10.7005 20.7618 10.5461C20.9637 10.471 20.9802 10.4543 21.0379 10.2539C21.0709 10.1371 21.0997 10.0202 21.0997 9.99102C21.0997 9.95763 21.1368 9.9159 21.1822 9.89086C21.2934 9.83243 22.3195 9.5862 23.0159 9.45265C23.9308 9.28155 24.6148 9.14382 24.7467 9.10209C24.8168 9.08122 24.9115 9.06036 24.9651 9.06036C25.0517 9.05618 25.0599 9.07288 25.0475 9.2106ZM20.4775 9.39005C20.5887 9.44848 20.6876 9.73644 20.6876 9.99519V10.2247L20.3291 10.496C19.917 10.8006 19.8635 10.8716 19.5997 11.46C19.3648 11.9859 19.3484 12.182 19.5338 12.4157C19.6039 12.5034 19.6574 12.5868 19.6574 12.5994C19.6574 12.6745 19.4514 13.2045 19.4019 13.2546C19.3731 13.2838 19.2247 13.3214 19.0764 13.338C18.7508 13.3714 18.7014 13.3339 18.6025 12.9958C18.5448 12.7997 18.5448 12.6661 18.5778 12.0485C18.6396 11.0218 18.7714 10.4584 19.0764 9.92424C19.2536 9.61124 19.4019 9.49021 19.6657 9.43596C19.7852 9.41509 19.9212 9.38588 19.9665 9.37753C20.1231 9.33997 20.4033 9.34832 20.4775 9.39005ZM26.667 9.42344C27.1863 9.56116 27.586 9.88668 27.7838 10.3332C27.9198 10.6462 27.9363 11.2472 27.8168 11.5769C27.7055 11.8732 27.5159 12.0944 27.2604 12.2238C26.9184 12.3949 26.7536 12.2363 26.9431 11.9149C27.0997 11.6562 27.1739 11.3432 27.1739 10.9551C27.1739 10.6295 27.1615 10.5461 27.0585 10.3165C26.8607 9.88668 26.5517 9.66967 26.0159 9.59455C25.8387 9.56951 25.5791 9.56116 25.439 9.57368C25.2907 9.59037 25.1794 9.5862 25.1794 9.56116C25.1794 9.53195 25.4102 9.461 25.8181 9.37753C26.0077 9.3358 26.4157 9.35667 26.667 9.42344ZM28.917 9.57785C29.2055 9.66549 29.4734 9.9159 29.6382 10.2581C29.7659 10.5169 29.7742 10.5669 29.7742 10.9551C29.7742 11.3265 29.7618 11.3891 29.6794 11.5101C29.6176 11.5978 29.5475 11.6437 29.4816 11.6437C29.3662 11.6437 29.3621 11.6228 29.4486 11.3223C29.5434 10.9968 29.5146 10.5127 29.3909 10.2665C29.2261 9.94511 29.0283 9.774 28.7028 9.67384C28.5462 9.62376 28.3978 9.56533 28.3772 9.54864C28.3072 9.49021 28.6986 9.51108 28.917 9.57785ZM15.9157 10.1079C15.8827 10.2539 15.8497 10.3917 15.8456 10.4125C15.8415 10.4376 15.5778 10.4876 15.2646 10.5336C14.9473 10.5753 13.9418 10.7172 13.0228 10.8549C12.108 10.9884 11.3497 11.0886 11.3374 11.0803C11.2962 11.0344 11.4239 10.5753 11.5063 10.4876C11.6217 10.3624 11.7618 10.3291 12.5489 10.2456C13.4431 10.1538 15.5942 9.88668 15.6148 9.86582C15.6231 9.85747 15.7096 9.84912 15.8044 9.84912H15.9775L15.9157 10.1079ZM28.4802 9.99936C28.6451 10.1997 28.3813 11.2848 28.1052 11.5393L28.0146 11.6228L28.0434 11.122C28.0599 10.8466 28.0887 10.5586 28.1135 10.4876C28.1341 10.4125 28.1506 10.2706 28.1464 10.1746C28.1423 10.0745 28.1423 9.98267 28.1423 9.9618C28.1506 9.90338 28.4267 9.93259 28.4802 9.99936ZM26.2179 10.0202C26.3909 10.0578 26.4734 10.1079 26.6093 10.2498C27.0008 10.6588 27.0173 11.41 26.6506 12.1236C26.4898 12.4366 25.7563 13.1878 25.4102 13.3923C24.5448 13.9098 23.5311 13.8096 23.2096 13.1753C23.0695 12.8998 23.0407 12.4616 23.1396 12.1194C23.2632 11.6771 23.4404 11.4016 23.9019 10.93C24.2687 10.5586 24.3923 10.4584 24.7096 10.2957C25.3072 9.98684 25.7151 9.91172 26.2179 10.0202ZM10.5585 10.1413C10.4926 10.2665 10.4926 10.2748 10.5668 10.3291C10.6245 10.3708 10.7563 10.3917 10.9953 10.3917H11.3415L11.3209 10.5043C11.3044 10.5711 11.2756 10.7339 11.2508 10.8758L11.2055 11.1262L10.8264 11.1762C10.2701 11.2472 7.97886 11.6311 7.38545 11.7522C6.86622 11.8607 6.18215 12.0443 6.14094 12.0902C6.12858 12.1027 6.16567 12.1027 6.22336 12.0902C6.71375 11.9608 8.10248 11.6645 8.50633 11.6019C9.53243 11.4392 11.1684 11.2096 11.1808 11.2305C11.189 11.2388 11.1849 11.4809 11.1643 11.7689C11.1478 12.0568 11.1231 12.8831 11.1148 13.6051L11.0984 14.9197L10.7934 15.1201C10.3195 15.4289 9.39232 15.8713 9.33875 15.8128C9.3305 15.8045 9.28105 15.5666 9.23572 15.287C9.14919 14.7904 8.98023 14.2103 8.88957 14.1268C8.86072 14.0976 8.8566 14.1101 8.87721 14.1685C8.96375 14.4106 9.19039 15.3872 9.21512 15.625C9.24397 15.8921 9.23985 15.9005 9.1327 15.938C8.94726 16.0132 8.92254 15.9714 8.86485 15.4706C8.68765 13.843 7.74397 12.8206 6.31402 12.7037C5.93078 12.6745 5.54754 12.7454 5.09012 12.9416C4.72748 13.0918 4.20825 13.4299 4.0805 13.5926C3.91155 13.8096 3.961 13.651 4.17116 13.2921C4.44314 12.8331 5.01594 12.2154 5.43215 11.9316C6.17391 11.4308 6.95276 11.1429 8.22199 10.8966L9.08737 10.7297L9.20276 10.8632C9.28105 10.9509 9.3099 10.9676 9.2893 10.9133C9.23985 10.7881 9.25221 10.6128 9.31402 10.5336C9.39232 10.4417 9.77556 10.2539 10.097 10.1496C10.2453 10.0995 10.3937 10.0536 10.4267 10.0411C10.4596 10.0327 10.5214 10.0202 10.5585 10.0202C10.6245 10.0161 10.6245 10.0244 10.5585 10.1413ZM28.8223 10.208C29.1931 10.5711 29.2179 11.1095 28.8964 11.748C28.6904 12.1528 28.0681 12.7872 27.6931 12.9708C27.4129 13.1043 27.1574 13.1753 27.1574 13.1169C27.1574 13.1002 27.347 12.9624 27.5778 12.8164C28.1382 12.4533 28.5256 12.0527 28.7769 11.5685C28.9335 11.2639 28.9706 11.1554 28.9706 10.9801C28.9706 10.7255 28.8964 10.5294 28.7234 10.3165C28.505 10.0453 28.575 9.96598 28.8223 10.208ZM18.3635 10.4835C18.1615 11.4976 18.1245 11.7856 18.108 12.5201C18.0956 12.9458 18.0791 13.3339 18.0709 13.384C18.0503 13.4799 17.8648 13.5634 17.6629 13.5634C17.5929 13.5634 16.9418 13.6844 16.2165 13.8347C15.042 14.0726 14.667 14.1602 13.9665 14.3605C13.8058 14.4023 13.7234 14.4023 13.472 14.3522C13.1135 14.2812 12.6231 14.2854 12.3635 14.3522C12.2604 14.3814 11.9596 14.5066 11.6918 14.6318C11.428 14.757 11.2014 14.8571 11.189 14.8571C11.1313 14.8571 11.189 12.5827 11.2756 11.5519L11.3044 11.2263L11.4528 11.1888C11.5352 11.1637 12.0544 11.0928 12.6107 11.0218C14.7865 10.7464 15.6478 10.6421 15.7343 10.6421C15.8168 10.6421 15.825 10.6629 15.825 10.8507C15.825 11.0302 15.8374 11.0594 15.9074 11.0594C15.9775 11.0594 15.9898 11.0302 15.9898 10.8549C15.9898 10.738 16.0104 10.6337 16.0352 10.617C16.097 10.5795 17.8772 10.3624 18.1698 10.3541L18.3923 10.3499L18.3635 10.4835ZM22.9912 12.1027C22.8964 12.4157 22.847 12.8581 22.8882 13.0751C22.9253 13.2713 23.2179 13.5968 23.494 13.7512C23.6753 13.8472 23.7783 13.8764 24.0585 13.8889C24.5489 13.914 24.4253 13.9933 23.8937 13.9933C23.5517 13.9933 23.4322 13.9766 23.2838 13.9098C22.8841 13.7262 22.6945 13.3965 22.6904 12.8957C22.6863 12.7246 22.711 12.5075 22.7398 12.4157C22.7934 12.2363 23.0324 11.7939 23.0572 11.8189C23.0654 11.8273 23.0365 11.9567 22.9912 12.1027ZM21.7385 12.2864C21.8168 12.3406 21.8168 12.3531 21.7467 12.5785C21.6684 12.8206 21.5572 12.9374 21.4047 12.9374C21.2769 12.9374 21.1822 12.8957 21.1822 12.8372C21.1822 12.7872 21.347 12.3657 21.4006 12.278C21.4459 12.2112 21.6437 12.2154 21.7385 12.2864ZM22.2041 13.0876C22.2206 13.2921 22.1712 13.3422 21.8992 13.3923C21.7879 13.4173 21.178 13.5467 20.5434 13.6886C19.9088 13.8305 19.2247 13.9807 19.0187 14.0225C18.8168 14.0684 17.5723 14.3355 16.2618 14.6234C14.9473 14.9114 13.8593 15.1368 13.847 15.1284C13.8017 15.0992 13.8635 14.8154 13.9418 14.661C14.1066 14.348 14.3909 14.2645 16.7522 13.8722C17.6588 13.722 18.689 13.5425 19.0393 13.4758C19.3896 13.409 20.0572 13.288 20.5228 13.2045C20.9885 13.1252 21.5159 13.025 21.6973 12.9791C22.1547 12.8706 22.1876 12.879 22.2041 13.0876ZM6.85386 13.1043C7.41017 13.3172 7.84287 13.7345 8.1643 14.3772C8.32089 14.6944 8.33737 14.757 8.35798 15.1201C8.37858 15.5583 8.32913 15.8421 8.19726 16.0299C8.06952 16.2093 7.64919 16.4013 7.35248 16.4138L7.10935 16.4222L7.0805 15.817C7.0393 14.8655 6.8621 14.3689 6.39232 13.8931C6.05028 13.5467 5.84012 13.4632 5.34149 13.4841C5.03655 13.5008 4.96237 13.5217 4.64506 13.6803C4.44726 13.7804 4.28655 13.8764 4.28655 13.8973C4.28655 13.9223 4.2577 13.939 4.22474 13.939C4.12583 13.939 4.15056 13.9014 4.37309 13.6886C4.59973 13.4716 5.19314 13.1419 5.4816 13.071C5.58463 13.0459 5.70413 13.0125 5.74946 13.0042C5.95138 12.9541 6.61897 13.0167 6.85386 13.1043ZM6.00495 14.1268C6.09149 14.1644 6.19452 14.2228 6.23572 14.2645C6.46237 14.469 6.69726 15.2286 6.76732 15.9673C6.80853 16.4096 6.80441 16.5223 6.74259 16.8437C6.61072 17.5323 6.2893 18.1249 5.77419 18.6257C5.43627 18.9596 5.18078 19.0848 4.86347 19.0848C3.96924 19.0848 3.46237 18.3294 3.46237 16.9939C3.46237 15.7085 4.20825 14.3689 5.06952 14.1018C5.25908 14.0433 5.84424 14.06 6.00495 14.1268ZM13.6945 14.6026C13.7234 14.6318 13.7234 14.7194 13.6945 14.8822C13.6698 15.0283 13.6657 15.1785 13.6904 15.287C13.7769 15.696 13.7811 15.6835 13.6574 15.8003C13.5915 15.8588 13.4514 15.9547 13.3401 16.009C12.9651 16.2051 12.7632 16.226 11.1602 16.251C10.3319 16.2636 9.45001 16.2886 9.20276 16.3011C8.72474 16.3303 8.69177 16.3053 9.04616 16.1718C9.28105 16.0841 10.814 15.3246 11.5805 14.9156C12.2069 14.5817 12.4912 14.5191 13.1835 14.54C13.439 14.5525 13.6698 14.5775 13.6945 14.6026ZM19.6986 14.8112C19.6986 14.8864 18.4418 15.3705 17.494 15.6668C16.6039 15.938 14.597 16.4472 12.9404 16.8145C11.5352 17.1275 9.56539 17.4446 9.02968 17.4446H8.72886L8.75358 17.2026C8.77006 17.0732 8.79479 16.9271 8.80715 16.8854C8.82776 16.8061 8.83188 16.8061 8.88545 16.8771C8.97611 17.0064 9.18215 17.0148 9.97336 16.9146C10.9376 16.7978 11.5764 16.6851 12.4871 16.4764C13.7646 16.1843 14.1396 16.1133 14.6464 16.0674C15.5819 15.984 15.8415 15.938 16.4184 15.7544C16.7398 15.6584 17.5475 15.4122 18.2151 15.2119C18.8827 15.0116 19.4596 14.8279 19.4926 14.8112C19.575 14.7653 19.6986 14.7653 19.6986 14.8112ZM17.6794 14.9281C17.6794 14.9865 14.8896 15.8295 14.2261 15.9756L13.8429 16.0591L13.8717 15.9714C13.8841 15.9214 13.9129 15.8629 13.9294 15.8462C13.9459 15.8254 14.2096 15.7586 14.5146 15.6918C14.8154 15.6292 15.5077 15.4539 16.0517 15.3037C17.4692 14.9072 17.6794 14.8571 17.6794 14.9281ZM21.0544 15.5416C20.9473 15.7586 21.0997 15.7002 19.5626 16.13C19.0393 16.2761 18.005 16.5682 17.2673 16.7769C16.5297 16.9856 15.5654 17.2568 15.1245 17.382C14.6835 17.5031 13.9541 17.7117 13.5091 17.8369C13.0599 17.9663 12.6725 18.0706 12.6396 18.0706C12.6107 18.0706 12.4953 18.0122 12.3841 17.9413C12.2357 17.8453 12.1986 17.8035 12.244 17.7785C12.3099 17.7409 12.4706 17.695 14.8566 17.044C15.8333 16.7769 16.9541 16.4681 17.3497 16.3596C17.7453 16.251 18.5365 16.034 19.1011 15.8796C19.6698 15.7252 20.3539 15.5374 20.6258 15.4623C20.8978 15.3872 21.1245 15.3287 21.1327 15.3371C21.1409 15.3413 21.1039 15.4331 21.0544 15.5416ZM11.4981 16.4848C11.597 16.514 11.5929 16.514 11.4569 16.539C10.7192 16.6726 9.10386 16.8353 9.01732 16.7894C8.96375 16.7602 8.98023 16.6225 9.03792 16.5766C9.1327 16.4931 11.2714 16.4138 11.4981 16.4848ZM20.4445 16.514C20.4198 16.5557 20.3497 16.6475 20.2879 16.7226C20.1849 16.8395 20.0695 16.8812 19.1011 17.165C17.6341 17.5949 14.7783 18.417 14.2962 18.5464L13.9047 18.6549L13.6698 18.5756C13.3484 18.4629 13.3154 18.4379 13.4349 18.4003C13.4926 18.3878 14.2632 18.1708 15.1451 17.9287C16.95 17.4279 17.2344 17.3486 19.1217 16.8228C19.8593 16.6183 20.4651 16.4472 20.4734 16.4472C20.4775 16.443 20.4651 16.4764 20.4445 16.514ZM3.32226 17.2067C3.3305 17.8787 3.53243 18.4212 3.92391 18.8302C4.31952 19.2392 4.75221 19.3185 5.31677 19.0764C5.48572 19.0055 5.62583 18.9554 5.63408 18.9637C5.67941 19.0096 5.36622 19.2934 5.1643 19.3936C4.97886 19.4812 4.87171 19.5063 4.66155 19.5063C3.92803 19.5021 3.44589 19.0472 3.20688 18.1374C3.1327 17.8453 3.09973 16.8687 3.16155 16.8061C3.17391 16.7894 3.21512 16.7769 3.25221 16.7769C3.3099 16.7769 3.31814 16.8437 3.32226 17.2067ZM19.2865 17.6742C19.2865 17.6825 19.1629 17.7785 19.0104 17.8828C18.6973 18.0957 18.6849 18.0998 16.983 18.5714C15.9033 18.8677 15.7343 18.9053 15.4129 18.9053C15.2151 18.9053 15.042 18.8928 15.0256 18.8761C15.0091 18.8594 15.1121 18.8135 15.2563 18.7759C15.5654 18.6966 16.4431 18.4462 18.0297 17.9913C19.1835 17.6616 19.2865 17.6366 19.2865 17.6742Z" fill="#272833"/>
<path d="M25.5492 10.1421C25.4709 10.1671 25.4997 10.1755 25.6728 10.1796C25.9613 10.1838 26.2333 10.3174 26.3651 10.5177C26.4475 10.6429 26.4599 10.7055 26.4475 10.9559C26.4269 11.3732 26.258 11.7113 26.0025 11.8448C25.8789 11.9074 25.7594 11.9366 25.6522 11.9283C25.4668 11.9157 25.4709 11.9408 25.5286 11.4149C25.5533 11.1771 25.5492 11.1103 25.4956 11.0686C25.442 11.0226 25.4338 11.0519 25.4173 11.2772C25.3967 11.5861 25.3143 11.7822 25.0876 12.0409C24.8692 12.2913 24.5725 12.4416 24.2511 12.4666C24.0409 12.4833 23.9833 12.475 23.8596 12.3873C23.6618 12.2538 23.6041 12.1244 23.6371 11.8991C23.6577 11.7405 23.6536 11.7196 23.6041 11.7613C23.5712 11.7864 23.5052 11.8907 23.4558 11.9909C22.8871 13.1469 24.3335 13.9523 25.5245 13.1427C26.4146 12.5417 26.9297 11.5485 26.7278 10.839C26.5753 10.3007 26.0354 9.98348 25.5492 10.1421Z" fill="#272833"/>
<path d="M5.10964 14.2937C5.01074 14.3522 5.01486 14.3522 5.21266 14.3563H5.41871L5.21266 14.4774C4.9242 14.6443 4.68519 14.8655 4.53684 15.095C4.46679 15.1993 4.40909 15.3037 4.40909 15.3204C4.40909 15.3371 4.50387 15.3037 4.62338 15.2453C4.79646 15.1618 4.88299 15.1451 5.05607 15.1576C5.45992 15.191 5.67832 15.5249 5.71541 16.155C5.74838 16.7101 5.56294 17.2443 5.21266 17.5865C4.90772 17.887 4.58217 17.9329 4.2731 17.7159C4.06294 17.574 4.01349 17.6533 4.13712 17.9287C4.4297 18.5672 4.97365 18.7801 5.5547 18.4838C5.98739 18.2668 6.35415 17.7493 6.54783 17.0857C6.64261 16.756 6.65497 16.6016 6.59316 16.4806C6.53547 16.3762 6.44893 16.3804 6.16047 16.4931C5.86788 16.6058 5.8514 16.5849 5.8514 16.1258C5.8514 15.7711 5.77723 15.4831 5.6536 15.3454C5.56294 15.2411 5.23327 15.0741 5.04371 15.0324L4.89124 15.0032L4.99838 14.878C5.17558 14.661 5.4558 14.5441 5.80195 14.5441C6.16871 14.5483 6.18519 14.4899 5.85552 14.3396C5.58354 14.2186 5.27448 14.1977 5.10964 14.2937Z" fill="#272833"/>
<path d="M5.2201 16.3385C4.93164 16.5972 4.36708 16.7642 4.08686 16.6765C3.96323 16.6348 3.96323 16.7516 4.08686 16.8351C4.2517 16.952 4.54428 16.9186 4.94813 16.7391L5.31488 16.5722V16.7809C5.31488 16.8935 5.33137 16.9854 5.34785 16.9854C5.40966 16.9854 5.4962 16.6515 5.50032 16.4261C5.50032 16.1632 5.43439 16.1423 5.2201 16.3385Z" fill="#272833"/>
<path d="M28.2406 13.6471C28.1624 13.6805 28.1459 13.7181 28.1459 13.885C28.1459 14.1604 28.0758 14.7447 27.9769 15.2956C27.1939 19.6234 24.264 23.2291 20.2132 24.8442C19.3066 25.2073 18.4742 25.4327 17.4852 25.5829C16.7558 25.6998 15.2681 25.7415 14.5181 25.6705C11.2379 25.3575 8.28323 23.8217 6.14037 21.3052C5.84366 20.9547 5.34916 20.3078 5.25438 20.1367C5.22141 20.0782 5.1802 20.0699 5.07718 20.0949C5.003 20.1075 4.94531 20.1408 4.94531 20.1659C4.94531 20.3036 5.82718 21.4221 6.42471 22.0481C8.72828 24.4519 11.6912 25.8208 14.9755 25.9961C18.1527 26.1672 21.2352 25.153 23.7365 23.1039C24.1939 22.7283 25.0964 21.8227 25.4797 21.3553C26.9714 19.5315 27.9398 17.399 28.3066 15.1161C28.3519 14.8407 28.3972 14.4526 28.4137 14.2481C28.4261 14.0436 28.4467 13.814 28.4591 13.7389C28.4797 13.5929 28.4261 13.572 28.2406 13.6471Z" fill="#272833"/>
<path d="M2.42355 14.0976C1.94965 14.2729 1.56641 14.4356 1.56641 14.4565C1.56641 14.5107 1.94553 14.4523 2.46064 14.3146C2.71613 14.2436 2.95926 14.1894 3.00459 14.1894C3.14058 14.1894 3.30542 14.0141 3.28893 13.8889L3.27657 13.7804L2.42355 14.0976Z" fill="#272833"/>
<path d="M27.5721 13.8593C27.4856 13.8927 22.7466 15.224 22.1243 15.3867L21.8935 15.4493L21.6999 15.8792C20.7438 17.9784 18.8729 19.3973 16.5735 19.7646C15.9801 19.8564 14.8633 19.8272 14.2864 19.702C13.421 19.51 12.601 19.1595 11.8839 18.6712L11.4842 18.3957L10.9856 18.5251C9.89354 18.8089 8.08448 19.2847 7.08723 19.5518C6.5103 19.7062 5.92926 19.8606 5.80151 19.8981C5.66964 19.9315 5.5625 19.9816 5.5625 20.0066C5.5625 20.0317 5.71497 20.2571 5.90041 20.5116C7.13256 22.1643 8.83036 23.5206 10.7218 24.3678C12.5433 25.1816 14.682 25.5447 16.6065 25.3736C20.5955 25.0105 24.057 22.8237 26.0845 19.3848C27.024 17.7906 27.601 16.0002 27.7658 14.1556C27.8029 13.7842 27.7905 13.7675 27.5721 13.8593ZM23.4966 16.2298C23.6738 16.5136 23.6573 16.572 23.2988 16.9142C23.0309 17.1688 22.8702 17.3774 22.8702 17.4609C22.8702 17.4734 22.9155 17.5152 22.9691 17.5485C23.0598 17.6111 23.0804 17.6111 23.2081 17.5485C23.2823 17.5068 23.5172 17.344 23.7315 17.1813L24.1147 16.885H24.4114C24.6381 16.885 24.7452 16.9058 24.8812 16.9768C25.5282 17.3232 25.7218 17.9575 25.3798 18.6169C25.2026 18.955 24.6793 19.4975 24.4609 19.5726C24.3743 19.6018 24.2466 19.6102 24.1765 19.5977L24.0488 19.5726L24.2012 19.7312C24.465 20.0066 24.4403 20.0692 23.8304 20.7286C23.171 21.4298 23.0392 21.5091 22.7795 21.3338C22.66 21.2545 20.5501 19.2012 20.5254 19.1428C20.5048 19.0843 20.9375 18.6503 21.09 18.5877C21.2012 18.5376 21.2424 18.5376 21.3578 18.5877C21.4279 18.6169 21.8235 18.9717 22.2315 19.3681C22.6435 19.7688 23.0144 20.1277 23.0598 20.1652C23.1422 20.2362 23.1545 20.2278 23.5048 19.8439L23.8633 19.4474L23.7809 19.3389C23.7315 19.2763 23.6944 19.197 23.6944 19.1595C23.6944 19.1177 23.8468 18.9675 24.0364 18.8172C24.432 18.5001 24.6092 18.2622 24.6174 18.041C24.6216 17.8949 24.6133 17.8824 24.4979 17.8699C24.399 17.8615 24.3125 17.9033 24.09 18.0786C23.4801 18.5627 23.204 18.6753 22.8826 18.571C22.3098 18.379 21.9595 17.7864 22.0831 17.2188C22.1696 16.8307 22.4499 16.4676 22.9609 16.0879C23.204 15.9042 23.2122 15.9001 23.2946 15.971C23.34 16.0127 23.4306 16.1296 23.4966 16.2298ZM10.4251 19.2471C10.7095 19.3932 10.726 19.4892 10.6065 20.2988C10.5529 20.6619 10.5117 20.9707 10.5199 20.979C10.5282 20.9874 10.6518 20.8997 10.796 20.7829C11.1669 20.4824 11.3729 20.4449 11.6243 20.6201C11.7768 20.7286 11.8386 20.979 11.8056 21.363L11.7768 21.6802L12.3084 21.146C12.8152 20.6452 12.8523 20.616 13.0089 20.616C13.1161 20.616 13.2273 20.6535 13.3262 20.7203C13.4375 20.7954 13.4746 20.8079 13.4746 20.762C13.4746 20.7078 13.5282 20.7036 13.7754 20.7245C14.443 20.7787 14.4842 20.833 14.4512 21.5717L14.4306 22.1058L14.6408 22.1351C14.7603 22.1476 14.9128 22.1601 14.9828 22.1601H15.1106L15.1394 21.6718C15.1724 21.1418 15.2218 20.9916 15.3908 20.9164C15.5062 20.8622 15.8317 20.8497 16.079 20.8914L16.2356 20.9206L16.2109 21.2169C16.1985 21.3797 16.1449 22.11 16.0955 22.8362C16.0089 24.1007 16.0007 24.1675 15.91 24.2635C15.774 24.4095 15.5062 24.4471 15.2631 24.3511C14.9993 24.251 14.9828 24.1967 15.0158 23.5498L15.0446 22.9948L14.7521 22.9864C14.5955 22.9864 14.443 22.9823 14.4141 22.9781C14.3606 22.9739 14.3606 22.9739 14.3194 23.5373C14.3029 23.7794 14.2658 24.0256 14.2328 24.084C14.1422 24.2676 13.8372 24.3302 13.4169 24.2551L13.2521 24.2259L13.2644 23.9755C13.2685 23.8378 13.3098 23.2368 13.351 22.64C13.3922 22.0432 13.4251 21.5508 13.4169 21.5466C13.4128 21.5383 12.9883 21.9598 12.4815 22.4773C11.9746 22.9948 11.5089 23.4455 11.4471 23.4789C11.2864 23.5623 11.0474 23.5498 10.862 23.4413L10.6971 23.3495L10.7095 22.7903C10.7218 22.1726 10.7383 22.1935 10.4251 22.4522C9.93063 22.8654 9.7864 22.903 9.43201 22.7193L9.22184 22.615L9.24657 22.4188C9.39904 21.3338 9.65453 19.6477 9.6875 19.5434C9.74107 19.3681 9.9842 19.1553 10.1284 19.1553C10.1902 19.1553 10.3262 19.197 10.4251 19.2471ZM20.5172 19.4266C20.6532 19.6686 20.6779 19.8773 20.5913 19.9983C20.5625 20.0359 20.4183 20.136 20.274 20.2195C20.1257 20.3071 19.965 20.4031 19.9155 20.4323L19.8249 20.4908L19.9402 20.6911C20.0062 20.7996 20.0762 20.8831 20.0968 20.8789C20.1174 20.8747 20.3194 20.7662 20.5419 20.6327C20.9911 20.3697 20.9334 20.3614 21.1312 20.7161C21.2218 20.8831 21.2466 21.05 21.1971 21.1794C21.1806 21.2169 21.024 21.3296 20.8468 21.4339C20.6655 21.5383 20.5213 21.6468 20.5213 21.6676C20.5213 21.7177 20.7191 22.0766 20.7479 22.0766C20.7562 22.0766 20.9705 21.9514 21.226 21.8012C21.7452 21.4965 21.7163 21.4924 21.9018 21.8554C21.9842 22.0224 22.0048 22.1058 21.9842 22.2018C21.9512 22.3521 21.8853 22.398 20.8963 22.9739C20.3935 23.2702 20.2576 23.3286 20.2287 23.2827C20.1834 23.2076 19.7054 22.3771 19.0254 21.1877L18.5103 20.2821L18.8441 20.0818C19.0295 19.9733 19.4416 19.7312 19.7589 19.5434C20.0762 19.3556 20.3482 19.2012 20.3647 19.2012C20.3771 19.197 20.4471 19.3014 20.5172 19.4266ZM18.4815 20.6201C18.5968 21.0875 18.5268 21.171 17.8922 21.3254C17.5831 21.4005 17.5131 21.4298 17.5295 21.4882C17.5419 21.5258 17.5707 21.6343 17.5913 21.7261L17.6367 21.9014L18.1147 21.7762C18.3784 21.7094 18.601 21.6635 18.6133 21.676C18.6463 21.7052 18.7493 22.1351 18.7493 22.2352C18.7493 22.4147 18.5556 22.5524 18.1848 22.64C17.9952 22.6818 17.8427 22.7319 17.8427 22.7485C17.8427 22.8654 17.9457 23.2034 17.9828 23.2034C18.0076 23.2034 18.2507 23.145 18.5227 23.0824C18.7946 23.0156 19.0295 22.9739 19.046 22.9864C19.0955 23.0407 19.1738 23.5206 19.149 23.6249C19.112 23.7794 18.9471 23.8461 18.0694 24.059C17.6408 24.1633 17.2534 24.2593 17.2163 24.2718C17.1669 24.2885 17.1381 24.2635 17.1216 24.1967C17.1092 24.1424 16.9238 23.3704 16.7054 22.4773C16.4911 21.5884 16.318 20.8538 16.3262 20.8455C16.3386 20.8371 18.3207 20.3363 18.3826 20.328C18.399 20.3238 18.4444 20.4574 18.4815 20.6201Z" fill="#640E27"/>
<path d="M2.43142 15.9799C2.39845 16.0008 2.16768 16.0843 1.91631 16.1719C1.66906 16.2595 1.44653 16.3472 1.4218 16.3639C1.37235 16.414 1.64433 16.4098 2.06466 16.3597C2.55092 16.2971 2.58801 16.2846 2.63746 16.1928C2.73224 16.0175 2.60037 15.8839 2.43142 15.9799Z" fill="#272833"/>
<path d="M1.61948 17.9411C1.2486 18.0705 0.914814 18.2124 0.877726 18.2541C0.807671 18.3251 0.807671 18.3292 0.885968 18.3084C1.23624 18.2124 2.11811 18.0287 2.23349 18.0287C2.31179 18.0287 2.41069 18.0037 2.4519 17.9703C2.52196 17.9202 2.52608 17.8952 2.48075 17.8034C2.45602 17.7408 2.40245 17.699 2.36124 17.699C2.32003 17.7032 1.98624 17.8117 1.61948 17.9411Z" fill="#272833"/>
</g>
<defs>
<clipPath id="clip0_599_2464">
<rect width="30" height="26" fill="white"/>
</clipPath>
</defs>
</svg>
