<?xml version="1.0" standalone="no"?>
<!DOCTYPE svg PUBLIC "-//W3C//DTD SVG 20010904//EN"
 "http://www.w3.org/TR/2001/REC-SVG-20010904/DTD/svg10.dtd">
<svg version="1.0" xmlns="http://www.w3.org/2000/svg"
 width="260.000000pt" height="260.000000pt" viewBox="0 0 260.000000 260.000000"
 preserveAspectRatio="xMidYMid meet">
<metadata>
Created by potrace 1.14, written by Peter Selinger 2001-2017
</metadata>
<g transform="translate(0.000000,260.000000) scale(0.100000,-0.100000)"
fill="#000000" stroke="none">
<path d="M1259 2596 c-2 -2 -24 -6 -49 -9 -69 -9 -187 -45 -263 -79 -67 -31
-67 -31 -85 -11 -59 68 -156 58 -211 -23 -26 -38 -34 -102 -18 -147 9 -26 6
-33 -35 -75 -24 -26 -56 -64 -71 -84 -26 -36 -28 -36 -55 -22 -61 32 -131 5
-171 -65 -37 -67 -25 -159 29 -209 17 -16 20 -24 11 -40 -41 -76 -88 -312 -96
-482 -5 -107 -8 -117 -32 -142 -15 -16 -31 -28 -36 -28 -4 0 -15 -7 -24 -15
-14 -14 -13 -15 13 -9 16 4 39 11 52 15 35 13 39 12 46 -22 11 -57 -10 -107
-60 -142 -25 -18 -49 -32 -54 -32 -5 0 -12 -4 -17 -9 -5 -5 11 -6 37 -3 25 3
50 3 55 -1 6 -4 10 -53 10 -108 0 -97 1 -104 37 -174 21 -40 35 -76 33 -80 -3
-4 -34 -18 -70 -31 -35 -12 -63 -24 -61 -26 1 -2 47 6 102 17 54 11 110 21
123 23 21 3 33 -9 85 -87 52 -78 197 -238 261 -286 120 -92 296 -171 440 -197
51 -9 276 -10 335 -1 117 18 271 81 389 160 65 43 222 189 271 253 119 154
218 376 255 571 9 49 21 104 27 122 11 38 16 74 17 122 1 27 10 46 40 78 52
55 80 130 77 203 -3 70 -29 109 -92 138 -35 17 -44 26 -39 39 3 9 9 35 12 58
5 36 2 46 -20 68 -14 14 -34 26 -44 26 -32 0 -63 30 -88 83 -155 332 -465 588
-786 648 -59 11 -272 22 -280 15z"/>
<path d="M180 823 c-104 -40 -133 -65 -45 -38 27 8 51 12 54 10 7 -8 31 17 25
26 -6 10 -12 10 -34 2z"/>
</g>
</svg>
